<?xml version="1.0" encoding="UTF-8"?>
<svg id="Layer_2" data-name="Layer 2" xmlns="http://www.w3.org/2000/svg" viewBox="0 0 114.33 177.64">
  <defs>
    <style>
      .cls-1 {
        opacity: .1;
      }

      .cls-2 {
        fill: #f2101c;
      }

      .cls-3 {
        fill: #ffa21a;
      }

      .cls-4 {
        fill: #fff;
      }

      .cls-5 {
        fill: #ffc82c;
      }

      .cls-6 {
        fill: #22a7f0;
      }

      .cls-7 {
        fill: #21102b;
      }

      .cls-8 {
        fill: #371a45;
      }

      .cls-9 {
        fill: #293856;
      }

      .cls-10 {
        opacity: .41;
      }

      .cls-11 {
        opacity: .35;
      }

      .cls-12 {
        opacity: .7;
      }
    </style>
  </defs>
  <path class="cls-4" d="m9.26,77.2c-6.38,6.1-9.8,31.92-6.38,46.65,3.42,14.73,29.94,12.68,44.97,10.38,15.03-2.3,10.88-36.41,9.58-45.53-2.02-14.23-38.71-20.54-48.17-11.5Z"/>
  <g class="cls-11">
    <path class="cls-8" d="m47.85,134.23c-15.03,2.3-41.55,4.35-44.97-10.38-.45-1.93-.78-4.05-1-6.29,4.56,2.78,10.02-.84,10.24-4.93,1.35-25.25,9.42-35.85,13.48-39.63,13.8.27,30.49,6.23,31.83,15.7,1.3,9.11,5.45,43.23-9.58,45.52Z"/>
  </g>
  <path class="cls-8" d="m1.41,124.19c-3.62-15.58.08-41.63,6.81-48.07h0c6.46-6.17,23.16-5.59,34.94-1.51,9.34,3.24,14.94,8.17,15.75,13.89,2.37,16.65,4.11,44.93-10.84,47.22-4.12.63-8.44,1.14-12.73,1.42-15.86,1.02-31.21-1.22-33.93-12.94Zm8.88-45.9h0c-5.92,5.65-9.26,31.01-5.96,45.22,3.09,13.32,28.45,11.5,43.28,9.24,13.22-2.02,9.71-34.06,8.32-43.83-.64-4.49-5.65-8.67-13.76-11.48-6.74-2.33-14.15-3.28-20.3-2.88-5.11.33-9.34,1.58-11.58,3.73Z"/>
  <path class="cls-4" d="m13.75,102.07l-7.02-1.86c-1.59-.42-3.19.64-3.41,2.27-.75,5.6-1.57,17.1,4.17,18.75,6.95,2,8.38-5.92,8.28-16.55-.01-1.22-.85-2.29-2.03-2.6Z"/>
  <g class="cls-11">
    <path class="cls-8" d="m15.77,104.66c.12,10.63-1.29,18.55-8.25,16.57-2.86-.81-4.1-4.07-4.53-7.83.68,1.01,1.57,1.75,2.74,2.08,6.23,1.77,8.01-4.39,8.23-13.34,1.07.37,1.8,1.38,1.81,2.52Z"/>
  </g>
  <path class="cls-8" d="m7.14,122.58c-6.63-1.89-6.12-13.52-5.22-20.28.16-1.17.81-2.23,1.79-2.88.99-.66,2.21-.87,3.36-.56l7.02,1.85c1.8.47,3.06,2.09,3.08,3.94.11,9.73-1.11,14.85-4.07,17.12-.92.7-1.97,1.09-3.15,1.16-.87.06-1.82-.06-2.82-.35Zm-1.86-20.83c-.32.21-.52.54-.57.92-1.3,9.83-.11,16.26,3.2,17.2,1.49.42,2.63.31,3.49-.35,3.11-2.38,3-11.77,2.96-14.85,0-.59-.41-1.1-.99-1.25l-7.02-1.85c-.14-.04-.29-.05-.43-.04-.23.01-.45.09-.65.22Zm8.45.31h0s0,0,0,0Z"/>
  <path class="cls-8" d="m7.58,80.88c.83.08,1.69.17,2.53.28.85.1,1.69.22,2.54.34,1.69.25,3.37.55,5.02.95h0c.4.1.81-.15.91-.56.09-.37-.11-.74-.45-.87-1.64-.65-3.3-1.21-4.98-1.71-.84-.25-1.68-.49-2.52-.73-.85-.23-1.68-.45-2.56-.66-.81-.19-1.62.3-1.81,1.11-.19.81.3,1.62,1.11,1.81.07.02.14.03.21.03h.01Z"/>
  <path class="cls-4" d="m76.08,81.82l1.21-10.97c-.69,3.75-1.06,7.43-1.21,10.97Z"/>
  <path class="cls-4" d="m20.14,133.23c5.72,5.77,16.54,6.62,19.55,10.56,2.65,3.47,2.08,8.14,2.16,12.99.07,4.15,1.12,9.52,4.91,13.99,5.72,6.76,15.77,6.86,20.9,1.99,5.85-5.55-2.67-18.03-3.89-19.55,0,0,1.55-2.18,3-4.15.53-.71.96-1.55,1.29-2.5.48-1.35.77-2.91.85-4.56,7.5,6.35,14.1,17.64,14.1,17.64,5.42,8.24,24.49,2.06,28.7-7.39.9-2.02,1.21-3.65,1.11-4.95-.58-6.97-13.16-4.89-13.16-4.89,0,0,2.4-13.13-10.03-19.95-2.08-1.14-4.57-2.1-7.56-2.8,0,0-2.43-6.51-4.19-16.11-.79-4.29-1.45-9.2-1.69-14.42-.28-5.84-.04-12.07,1.1-18.27l-47.13-.17c-1.37,1.77-2.65,3.57-3.83,5.38-15.08,23.22-14.3,49-6.19,57.17Z"/>
  <g class="cls-11">
    <path class="cls-8" d="m48.13,123.23l19.92,23.34c.48-1.35.77-2.91.85-4.56,7.5,6.35,14.1,17.64,14.1,17.64,5.42,8.24,24.49,2.06,28.7-7.39.9-2.02,1.21-3.65,1.11-4.95-22.2,20.96-30.94.75-35.88-8.96-3.12-6.14-10.12-9.89-16.44-12.12,11.77.03,23.08-2.28,29.13-3.76-2.08-1.14-4.57-2.1-7.56-2.8,0,0-2.43-6.51-4.19-16.11-4.06-3.02-7.92-5.01-9.7-4.78-2.92.38-7.9,9.26-11.46,17.36-1.06,2.4-1.96,4.47-2.64,6.08-.07.15-23.39-21.29-23.46-21.14-.24.56,2.75,19.27,10.72,21.56,2.15.04,6.8.61,6.8.61Z"/>
  </g>
  <path class="cls-8" d="m81.75,160.46l-.04-.07c-3.21-5.49-13.22-19.96-20.82-21.05-.82-.12-1.39-.88-1.27-1.7.12-.82.88-1.39,1.7-1.27,10.47,1.5,22.21,21.19,22.96,22.47,2.09,3.14,6.46,3.28,8.86,3.08,7.22-.59,14.93-5.2,17.2-10.29,1.2-2.68,1.31-4.67.36-5.92-2.02-2.62-8.48-2.22-10.79-1.84l-2.09.34.37-2.09c.12-.67,2.72-16.55-16.45-21.02l-.78-.18-.28-.75c-.38-1.02-9.3-25.35-4.86-49.59.15-.81.93-1.36,1.75-1.21.81.15,1.35.93,1.21,1.75-3.87,21.12,3.01,43.01,4.46,47.26,17.01,4.36,18.26,17.33,18.09,22.31,3.13-.27,9.1-.25,11.76,3.19,1.69,2.18,1.69,5.2.01,8.97-3.02,6.79-12.39,11.46-19.69,12.06-.13.01-.25.02-.38.03-5.14.33-9.13-1.25-11.25-4.48Zm.31-40.81h0s0,0,0,0Z"/>
  <path class="cls-4" d="m38.75,123.7c5.99-2.25,12.65-2.37,18.61-.09,2.07.79,4.09,1.87,5.79,3.36,6.24,5.44,7.16,17.11,3.48,22.1-1.45,1.97-3.01,4.15-3.01,4.15,1.22,1.53,9.74,14,3.89,19.55-5.12,4.86-15.17,4.77-20.89-1.99-3.78-4.47-4.84-9.84-4.91-13.99-.08-4.85.49-9.52-2.16-12.99-3.01-3.95-13.82-4.8-19.55-10.56-8.75-8.81-8.97-38.08,10.01-62.55l-4.66,38.27,13.39,14.74Z"/>
  <g class="cls-11">
    <path class="cls-8" d="m66.63,149.07c.81-1.1,1.4-2.52,1.75-4.13-6.1,7.82-15.8,9.48-15.8,9.48,4.83,4.13,8.5,2.38,14.01,3.54-1.27-2.39-2.55-4.21-2.97-4.74,0,0,1.55-2.18,3-4.15Z"/>
  </g>
  <g class="cls-11">
    <path class="cls-8" d="m20.01,133.24c5.72,5.77,16.54,6.62,19.55,10.56,2.65,3.46,2.08,8.14,2.16,12.99.07,4.15,1.13,9.52,4.91,13.99,5.72,6.76,15.77,6.86,20.9,1.99,1.2-1.14,1.8-2.57,1.97-4.14-.56.88-.06-5.59-.29-4.56-2.71,11.89-17.94,8.12-21.48,2.04-2.29-3.93-3.48-10.26-3.55-14.42-.08-4.85,1.32-12.59-1.32-16.06-3.01-3.95-14.66-1.73-20.38-7.49-6.85-6.9-8.47-26.31.24-46.15-11.41,21.52-10.13,43.75-2.7,51.24Z"/>
  </g>
  <path class="cls-8" d="m39.05,124.16c4.47-.83,8.84-1.11,13.09-.36.53.08,1.05.22,1.58.32.52.14,1.04.26,1.55.43,1.02.31,2.03.68,3,1.12,1.92.88,3.73,2.02,5.06,3.52,1.36,1.52,2.37,3.4,3.05,5.41.67,2.01,1.02,4.15,1.04,6.28v.4s-.01.4-.01.4l-.04.79c-.04.53-.13,1.04-.19,1.56-.22,1.01-.46,2.02-.9,2.89-.18.47-.47.83-.7,1.24l-1.01,1.39-2.02,2.79-.65.9.7.91c.44.57.92,1.29,1.35,1.97.44.69.85,1.4,1.24,2.12.79,1.43,1.47,2.92,2.01,4.42.53,1.5.92,3.05.98,4.52.07,1.48-.24,2.85-1.01,3.87-.09.13-.19.26-.31.37-.12.12-.2.24-.36.36-.29.23-.55.48-.85.7-.31.2-.62.41-.93.61l-1,.51c-1.38.61-2.89.95-4.42,1.03-3.06.18-6.2-.65-8.7-2.41-2.54-1.7-4.42-4.38-5.63-7.28-.59-1.46-1.03-3-1.28-4.58-.14-.79-.22-1.58-.27-2.38-.03-.4-.04-.8-.05-1.2v-1.25c-.01-1.68.04-3.4-.07-5.19-.12-1.78-.39-3.68-1.23-5.48-.1-.23-.2-.45-.33-.66-.13-.21-.23-.44-.38-.64l-.43-.61c-.16-.2-.35-.44-.53-.62-.75-.77-1.58-1.31-2.4-1.77-1.64-.9-3.27-1.51-4.87-2.13-3.2-1.2-6.34-2.32-9.04-4-1.34-.84-2.58-1.82-3.51-2.96-.96-1.16-1.72-2.55-2.33-4.02-.61-1.47-1.06-3.02-1.42-4.61-.33-1.59-.57-3.21-.71-4.85-.27-3.28-.19-6.6.15-9.9.71-6.6,2.47-13.1,5.05-19.24l.5-1.15.53-1.13.54-1.13.58-1.11.58-1.11.61-1.09c.4-.73.79-1.46,1.21-2.19.8-1.46,1.65-2.89,2.44-4.38.42-.73.79-1.49,1.18-2.24.4-.75.77-1.52,1.11-2.33v-.02c.12-.26-.01-.56-.27-.67-.18-.07-.38-.04-.52.08-.68.55-1.33,1.14-1.95,1.76-.32.3-.59.63-.89.95-.29.32-.57.65-.85.99-1.11,1.34-2.09,2.77-3,4.25-.47.73-.88,1.49-1.3,2.26l-.61,1.15-.56,1.17-.56,1.17-.53,1.19-.53,1.19-.49,1.2c-2.67,6.4-4.51,13.16-5.26,20.09-.35,3.46-.44,6.97-.15,10.47.16,1.75.41,3.5.77,5.23.39,1.73.89,3.45,1.58,5.12.69,1.67,1.57,3.3,2.78,4.77,1.23,1.49,2.7,2.63,4.24,3.6,3.09,1.91,6.42,3.07,9.57,4.26,1.57.6,3.13,1.2,4.47,1.94.67.37,1.26.79,1.7,1.24.12.11.19.22.3.34l.3.43c.1.14.18.31.27.46.09.15.17.31.24.48.61,1.29.85,2.82.96,4.42.1,1.6.06,3.28.06,5v1.3c.02.45.03.9.07,1.35.06.9.16,1.79.31,2.68.29,1.78.79,3.53,1.47,5.22.7,1.68,1.6,3.29,2.7,4.76.29.36.56.72.87,1.07l.96,1.02c.33.33.7.62,1.05.93.34.32.74.58,1.12.84,1.54,1.05,3.24,1.89,5.05,2.36,1.8.49,3.67.69,5.54.58,1.86-.11,3.72-.52,5.46-1.29l1.27-.65c.41-.25.8-.52,1.21-.78.39-.28.75-.61,1.12-.92.19-.14.36-.36.54-.54.19-.19.35-.39.5-.61.63-.85,1.07-1.83,1.32-2.82.25-1,.31-1.99.27-2.95-.08-1.93-.55-3.72-1.15-5.41-.61-1.69-1.36-3.3-2.21-4.85-.42-.77-.87-1.53-1.34-2.28-.48-.76-.94-1.46-1.54-2.24l.05,1.81,2-2.77,1-1.39c.35-.57.76-1.13,1-1.73,1.11-2.38,1.44-4.88,1.43-7.33-.02-2.45-.42-4.88-1.19-7.21-.76-2.33-1.92-4.58-3.58-6.51-1.69-1.96-3.81-3.36-6.03-4.4-2.23-1.01-4.59-1.71-7-2.02-4.8-.66-9.82.13-13.92,2.51-.24.14-.32.45-.18.69.11.19.33.28.53.24h0Z"/>
  <g>
    <path class="cls-4" d="m96.56,64.2C67.64,113.63-2.43,75.94,20.13,25.61c28.4-51.31,100.79-12.27,76.43,38.59Z"/>
    <path class="cls-4" d="m96.56,64.2C67.64,113.63-2.43,75.94,20.13,25.61c28.4-51.31,100.79-12.27,76.43,38.59Z"/>
    <g class="cls-11">
      <path class="cls-8" d="m26.33,76.06c11.65,14.14,32.12,20.63,49.86,13.06-.28-5.84-.04-12.07,1.1-18.27l-47.13-.17c-1.37,1.77-2.65,3.57-3.83,5.38Z"/>
    </g>
    <path class="cls-4" d="m96.56,64.2C67.64,113.63-2.43,75.94,20.13,25.61c28.4-51.31,100.79-12.27,76.43,38.59Z"/>
    <path class="cls-8" d="m38.74,83.37c-9.81-5.05-17.34-13.23-21.21-23.05-4.33-10.97-3.77-23.13,1.62-35.15l.04-.08C25.9,12.98,35.55,4.93,47.1,1.83c10.24-2.75,21.37-1.43,31.34,3.71,9.98,5.15,17.59,13.48,21.42,23.47,4.29,11.19,3.48,23.52-2.33,35.65l-.04.08c-6.84,11.69-16.47,19.42-27.86,22.37-2.52.65-5.09,1.06-7.68,1.23-7.83.5-15.85-1.19-23.2-4.97ZM77.45,7.44C60.21-1.45,35.22.59,21.09,26.09c-11.44,25.57,1.64,46.63,18.63,55.38,17.4,8.95,41.42,6.93,55.89-17.77,12.36-25.84-.75-47.27-18.16-56.25Z"/>
    <g class="cls-11">
      <path class="cls-8" d="m96.56,64.2c-24.23,43.13-86.61,20.82-80.28-26.31,2.95,15.22,8.23,15.79,16.33,23.49,24.88,25.28,63.46,6.26,68.12-24.59,1.73,9.48.15,19.12-4.16,27.41Z"/>
    </g>
    <path class="cls-9" d="m38.55,83.75c-9.9-5.1-17.51-13.36-21.41-23.27-4.37-11.09-3.81-23.35,1.63-35.48l.06-.11C25.58,12.66,35.32,4.55,46.99,1.42c10.35-2.78,21.58-1.45,31.64,3.74,10.08,5.2,17.76,13.62,21.62,23.7,4.33,11.31,3.52,23.75-2.34,35.99l-.06.11c-6.89,11.79-16.62,19.59-28.12,22.57-2.54.66-5.14,1.07-7.76,1.24-7.91.51-16-1.2-23.42-5.02ZM77.26,7.82C60.2-.97,35.47,1.05,21.47,26.28c-11.31,25.31,1.63,46.14,18.45,54.8,17.21,8.86,40.98,6.85,55.31-17.59,12.22-25.58-.75-46.78-17.98-55.67Z"/>
    <path class="cls-8" d="m38.55,83.75c-9.9-5.1-17.51-13.36-21.41-23.27-4.37-11.09-3.81-23.35,1.63-35.48l.06-.11C25.58,12.66,35.32,4.55,46.99,1.42c10.35-2.78,21.58-1.45,31.64,3.74,10.08,5.2,17.76,13.62,21.62,23.7,4.33,11.31,3.52,23.75-2.34,35.99l-.06.11c-6.89,11.79-16.62,19.59-28.12,22.57-2.54.66-5.14,1.07-7.76,1.24-7.91.51-16-1.2-23.42-5.02ZM77.26,7.82C60.2-.97,35.47,1.05,21.47,26.28c-11.31,25.31,1.63,46.14,18.45,54.8,17.21,8.86,40.98,6.85,55.31-17.59,12.22-25.58-.75-46.78-17.98-55.67Z"/>
    <path class="cls-8" d="m90.29,73.2C48.72,101.49,8.78,53.43,39.67,22.06c36.74-33.03,83.26,11.76,50.62,51.14Z"/>
    <path class="cls-7" d="m99.93,42.74c3.11,45.34-61.5,53.3-71.15,12.32,22.36,23.07,60.41,10.41,71.15-12.32Z"/>
    <path class="cls-8" d="m48.01,84.08c-8.87-3.74-16.16-10.43-20.51-18.84-4.8-9.28-5.64-19.8-2.42-30.45,3.61-10.91,12.14-20.14,23.4-25.32,11.3-5.2,23.93-5.67,34.65-1.29l.18.09c20.06,12.51,23.57,39.31,14.28,56.48h0c-5.69,10.34-13.71,17.47-23.19,20.61-2.89.96-5.89,1.54-8.93,1.73-5.82.38-11.8-.64-17.45-3.02ZM82.15,10.31c-10.1-4.1-22.01-3.63-32.69,1.29-10.67,4.91-18.75,13.63-22.15,23.9-6.58,21.73,5.89,39.8,21.61,46.42,13.67,5.76,34.08,4.43,46.6-18.29,8.77-16.22,5.49-41.49-13.38-53.32Z"/>
    <path class="cls-8" d="m59.43,82.94c-9.33-1.27-17.8-5.95-23.83-13.18-5.57-6.68-8.55-14.97-8.39-23.33.18-9.24,4.12-18.02,11.4-25.41l.07-.06c8.76-7.88,18.71-11.98,28.76-11.87,9.05.1,17.66,3.65,24.26,9.98,6.75,6.48,10.7,15.21,11.12,24.57.47,10.44-3.46,21-11.36,30.54l-.14.16-.18.12c-7.75,5.28-15.91,8.24-23.96,8.76-2.6.17-5.19.08-7.75-.27Zm30.18-61.71c-11.25-10.8-30.72-14.39-48.9,1.93-14.98,15.24-12.21,33.42-2.81,44.68,10.36,12.42,30.24,18.52,51.37,4.25,16.25-19.75,11.89-39.76.34-50.86Z"/>
    <path class="cls-4" d="m10.71,56.32c4.02,19.79,24.19,17.43,22.26-1.85-3.45-20.9-25.01-18.38-22.26,1.85Z"/>
    <g class="cls-11">
      <path class="cls-8" d="m24.29,70.09c6.05-.66,10.06-8.31,8.53-16.63-3.34,8.98-13.35-4.99-14.22-9.11-15.37,4.79-5.39,27.19,5.7,25.73Z"/>
    </g>
    <path class="cls-8" d="m9.24,56.62l-.02-.1c-1.52-11.13,3.93-17.12,9.63-17.98,6.3-.95,13.69,4.13,15.59,15.68v.09c1.08,10.67-4.1,16.31-9.72,17.15-.28.04-.56.07-.84.09-5.67.37-12.43-4.03-14.65-14.95Zm10.06-15.11c-4.29.65-8.33,5.48-7.11,14.56,1.95,9.51,7.63,13.11,12.09,12.44,4.2-.64,8.05-5.16,7.2-13.84-1.6-9.6-7.34-13.88-12.18-13.16Zm-8.6,14.81h0s0,0,0,0Z"/>
    <path class="cls-4" d="m9.99,57.47c3.27,16.03,18.41,14.52,16.86-1.07-2.75-17.14-19.2-15.47-16.86,1.07Z"/>
    <path class="cls-8" d="m8.84,57.71v-.07c-1.29-9,2.77-13.79,7.08-14.44,4.86-.74,10.56,3.5,12.08,13.02v.07c.86,8.53-2.99,12.99-7.18,13.62-.2.03-.4.05-.6.07-4.33.28-9.56-3.34-11.38-12.27Zm7.43-12.2c-3.2.48-6.16,4.37-5.12,11.76,1.61,7.82,5.96,10.83,9.33,10.32,3.09-.47,5.9-4.06,5.21-11.04-1.29-7.99-5.71-11.6-9.41-11.04Zm-6.28,11.96h0s0,0,0,0Z"/>
    <g class="cls-12">
      <path class="cls-4" d="m36.4,45.57c2.74,8.05,11.93,5.08,10.74-2.28-2.03-9.19-12.93-5.87-10.74,2.28Z"/>
    </g>
    <g class="cls-12">
      <path class="cls-4" d="m42.04,58.13c1.23,3.02,5.27,1.8,4.24-1.61-1.22-3.02-5.27-1.8-4.24,1.61Z"/>
    </g>
    <g class="cls-12">
      <path class="cls-4" d="m95.65,46.2c3.96-32.24-29.4-34.89-39.14-27.65,21.33.5,31.33,13.2,39.14,27.65Z"/>
    </g>
    <g class="cls-11">
      <path class="cls-8" d="m27.83,60.03c.19-2.29-.25-4.65-1.16-6.78-2.38,11.06-13.59,6.74-16.5-.98-1.69,16.27,15.09,23.07,17.66,7.76Z"/>
    </g>
    <path class="cls-8" d="m28.94,42.02c-.68-.47-.84-1.41-.37-2.09.48-.68,1.41-.84,2.09-.37.13.09.23.15.31.19.15-.4.25-1.19.23-1.84h0c-.03-.83.6-1.53,1.43-1.56.83-.04,1.53.6,1.57,1.43.04.86.02,3.74-1.8,4.74-.28.15-.64.28-1.06.31-.64.04-1.44-.14-2.39-.81Zm2.24-2.19h0Z"/>
  </g>
  <path class="cls-8" d="m41.41,149.06s.09,0,.13-.02c.61-.11,1.02-.7.9-1.31-2.07-11.23,4.21-16.86,7-18.76,4.26-2.9,9.45-3.55,12.62-1.57.53.33,1.22.17,1.55-.36.33-.53.17-1.22-.36-1.55-3.96-2.47-10.02-1.82-15.08,1.62-6.58,4.47-9.55,12.34-7.95,21.03.1.57.62.96,1.18.92Z"/>
  <path class="cls-8" d="m63.91,151.1c-.34.28-.77.61-1.17.9-.41.29-.83.58-1.27.84-.87.53-1.77.97-2.72,1.3-.95.35-1.93.48-2.95.55-.25,0-.51,0-.78.02-.26-.02-.52-.05-.79-.06-.13-.01-.27-.02-.41-.03l-.4-.07c-.27-.05-.55-.09-.84-.12.21.19.44.36.67.54l.36.26c.12.08.26.13.39.2.26.13.53.26.8.38.28.09.57.17.86.24,1.16.26,2.41.27,3.59.02,1.18-.24,2.31-.66,3.36-1.22.52-.29,1.03-.59,1.5-.95.49-.35.92-.71,1.38-1.19.43-.45.42-1.16-.02-1.59-.41-.4-1.06-.42-1.5-.06l-.06.05Z"/>
  <path class="cls-8" d="m76.07,150.66s.04,0,.06,0c.62-.07,1.06-.63.99-1.25-.81-7.15.5-12.82,3.9-16.87,4.86-5.78,12.44-6.28,12.5-6.29h0c.62-.04,1.09-.57,1.05-1.19-.04-.62-.57-1.09-1.19-1.06-.35.03-8.58.55-14.07,7.07-3.83,4.54-5.32,10.8-4.43,18.6.07.6.59,1.03,1.19,1Z"/>
  <g>
    <circle class="cls-4" cx="77.15" cy="108.19" r="4.72"/>
    <g class="cls-11">
      <path class="cls-8" d="m81.87,108.24c-.03,2.61-2.16,4.7-4.77,4.67s-4.7-2.16-4.67-4.77c0-.72.18-1.4.48-2.01.74,1.6,2.35,2.72,4.24,2.74,1.88.02,3.52-1.07,4.29-2.65.29.61.44,1.3.43,2.02Z"/>
    </g>
    <path class="cls-8" d="m77.09,114.41c-3.43-.04-6.19-2.86-6.15-6.29.04-3.43,2.86-6.18,6.28-6.15,1.66.02,3.21.68,4.38,1.87,1.16,1.19,1.79,2.76,1.77,4.42h0c-.02,1.66-.68,3.22-1.87,4.38-1.07,1.05-2.46,1.67-3.94,1.76-.16.01-.32.01-.48.01Zm-3.15-6.25c-.02,1.77,1.41,3.23,3.18,3.25,1.78.02,3.23-1.41,3.25-3.18h0c0-.86-.32-1.67-.92-2.28-.6-.61-1.41-.96-2.26-.97-.08,0-.16,0-.24,0-1.66.11-2.99,1.48-3.01,3.18Z"/>
    <path class="cls-4" d="m72.11,119.84l-24.91,1.21c-2.95.14-5.48-2.15-5.62-5.1l-.64-13.26c-.13-2.58,1.62-4.84,4.04-5.46.34-.09.7-.14,1.07-.16l24.91-1.21c2.95-.14,5.48,2.15,5.62,5.1l.51,10.5.14,2.76c.14,2.95-2.15,5.48-5.1,5.62Z"/>
    <g class="cls-11">
      <path class="cls-8" d="m72.11,119.84l-24.91,1.21c-2.95.14-5.48-2.15-5.62-5.1l-.64-13.26c-.13-2.58,1.62-4.84,4.04-5.46,1.46.87,2.39,1.43,2.39,1.43,1.73,10.58,1.65,18.49,18.1,16.59,5.67-.65,9.4-2.51,11.62-3.79l.14,2.76c.14,2.95-2.15,5.48-5.1,5.62Z"/>
    </g>
    <path class="cls-8" d="m72.18,121.34l-24.91,1.21c-3.78.18-7.01-2.74-7.2-6.53l-.65-13.26c-.18-3.75,2.69-6.95,6.42-7.19.04,0,.07,0,.11,0l24.91-1.21c1.83-.09,3.58.54,4.95,1.78,1.36,1.24,2.16,2.92,2.25,4.75l.65,13.26c.09,1.83-.54,3.58-1.78,4.95-1.21,1.33-2.85,2.13-4.64,2.24-.04,0-.07,0-.11,0Zm-24.98-.29h0s0,0,0,0Zm-4.77-18.43l.65,13.26c.1,2.13,1.92,3.78,4.05,3.68l24.91-1.21c1.02-.07,1.98-.5,2.67-1.27.7-.77,1.05-1.76,1-2.78l-.65-13.26c-.05-1.03-.5-1.98-1.27-2.67s-1.76-1.05-2.78-1l-24.91,1.21s-.04,0-.06,0c-2.1.14-3.72,1.94-3.62,4.05Z"/>
    <path class="cls-4" d="m73.11,119.69c-.32.08-.65.13-.99.15l-24.91,1.21c-2.16.1-4.1-1.1-5.03-2.91-.34-.66-.55-1.4-.59-2.19l-.29-5.89-.1-1.94-.26-5.42c-.14-2.95,2.15-5.48,5.1-5.62l5.38-.26c-2.46.59-4.24,2.87-4.12,5.48l.35,7.16.3,6.1c.14,2.95,2.68,5.25,5.62,5.1l19.53-.96Z"/>
    <g class="cls-11">
      <path class="cls-8" d="m73.11,119.69c-.32.08-.65.13-.99.15l-24.91,1.21c-2.95.14-5.48-2.15-5.62-5.1l-.38-7.83c.69,1.35,1.9,3,3.71,3.09.99.05,1.93-.71,2.74-1.76l.3,6.1c.14,2.95,2.68,5.25,5.62,5.1l19.53-.96Z"/>
    </g>
    <path class="cls-8" d="m72.18,121.34l-24.91,1.21c-1.83.09-3.58-.54-4.94-1.78-1.36-1.24-2.16-2.92-2.25-4.75l-.65-13.26c-.09-1.83.54-3.58,1.78-4.95,1.21-1.34,2.86-2.13,4.64-2.25.04,0,.07,0,.11,0l5.38-.26.42,2.96c-1.81.43-3.06,2.1-2.96,3.95l.65,13.26c.05,1.03.5,1.98,1.27,2.67.77.7,1.76,1.05,2.78,1l19.54-.95.44,2.95c-.38.1-.77.16-1.16.18-.04,0-.09,0-.13,0Zm-26.07-22.77c-1.02.07-1.98.5-2.67,1.27-.7.77-1.05,1.76-1,2.78l.65,13.26h0c.05,1.03.5,1.98,1.27,2.67.77.7,1.76,1.05,2.78,1l.78-.04c-.88-1.11-1.39-2.46-1.45-3.9l-.65-13.26c-.07-1.38.28-2.7.95-3.83l-.64.03Z"/>
    <path class="cls-6" d="m57.45,108.54c.02.49-.5,4.48-.5,4.48,0,0-1.25.05-2.79.12-1.92.08-3.57-1.84-3.67-4.3-.11-2.46,1.37-4.52,3.29-4.6,1.3-.06,2.79-.12,2.79-.12,0,0,.85,3.62.88,4.42Z"/>
    <g class="cls-11">
      <path class="cls-8" d="m57.45,108.54c.02.49-.5,4.48-.5,4.48,0,0-1.25.05-2.79.12-1.92.08-3.57-1.84-3.67-4.3-.11-2.46,1.37-4.52,3.29-4.6,1.3-.06,2.79-.12,2.79-.12,0,0,.85,3.62.88,4.42Z"/>
    </g>
    <path class="cls-8" d="m54.21,114.27c-2.54.11-4.71-2.3-4.85-5.38-.13-3.07,1.84-5.67,4.37-5.77l3.72-.16.21.91c.15.62.87,3.77.91,4.63h0c.02.51-.31,3.15-.51,4.67l-.12.94-3.74.16Zm1.48-8.98l-1.86.08c-1.27.04-2.29,1.62-2.22,3.43.08,1.8,1.22,3.28,2.5,3.22l1.85-.08c.2-1.56.37-3.06.37-3.36-.02-.37-.31-1.83-.64-3.29Z"/>
    <ellipse class="cls-6" cx="56.76" cy="108.57" rx="3.49" ry="4.45" transform="translate(-4.61 2.53) rotate(-2.46)"/>
    <g class="cls-11">
      <path class="cls-8" d="m53.28,108.72c.1,2.46,1.75,4.38,3.67,4.3,1.93-.08,3.4-2.14,3.29-4.6-.01-.33-.06-.66-.13-.97-.42,1.71-1.64,2.97-3.14,3.03-1.66.07-3.12-1.35-3.55-3.33-.12.49-.18,1.02-.15,1.57Z"/>
    </g>
    <path class="cls-4" d="m53.28,108.72c0,.17.02.33.04.49.3-1.94,1.61-3.42,3.23-3.49,1.79-.08,3.35,1.59,3.63,3.81.06-.36.08-.73.06-1.11-.1-2.46-1.75-4.38-3.67-4.3-1.92.09-3.4,2.14-3.29,4.6Z"/>
    <path class="cls-8" d="m57,114.15c-1.28.06-2.5-.51-3.42-1.59-.86-1-1.36-2.35-1.42-3.78-.06-1.44.33-2.82,1.09-3.89.83-1.16,1.99-1.82,3.27-1.88,1.28-.06,2.5.51,3.42,1.59.86,1,1.36,2.35,1.42,3.78h0c.13,3.04-1.79,5.6-4.29,5.77-.03,0-.05,0-.08,0Zm2.12-5.67c-.04-.94-.36-1.8-.89-2.42-.46-.54-1.04-.83-1.62-.8-.56.02-1.12.36-1.54.94-.48.66-.72,1.55-.68,2.49.04.94.36,1.8.89,2.42.46.54,1.04.83,1.62.8,1.28-.07,2.29-1.62,2.22-3.43h0Z"/>
    <path class="cls-8" d="m64.44,121.24c.6-.04,1.07-.55,1.05-1.15l-.22-8.6,3.64-2.54c.32-.22.5-.59.48-.97l-.54-12.01c-.03-.62-.55-1.1-1.17-1.07-.64.04-1.1.55-1.07,1.17l.52,11.39-3.63,2.53c-.31.22-.49.57-.48.95l.23,9.2c.02.62.53,1.11,1.15,1.1.02,0,.03,0,.05,0Z"/>
    <path class="cls-4" d="m15.44,101.09s-2.53,1.78-2.39,4.73c.16,3.41,2.67,4.92,2.67,4.92,0,0,8.54,5.41,27.38,3.02,0,0,4.46-5.33-1.32-8.77,0,0-17.1,3.95-26.34-3.91Z"/>
    <g class="cls-11">
      <path class="cls-8" d="m13.05,105.75s0,0,0,0c.13,3.46,2.67,4.99,2.67,4.99,0,0,8.54,5.41,27.38,3.03,0,0,3.41-4.08.41-7.4,0,.02,0,.04,0,.06-.22,2.15-1.97,3.83-4.12,4.04-17.09,1.62-24.88-3.3-24.88-3.3,0,0-.75-.45-1.45-1.42Z"/>
    </g>
    <path class="cls-8" d="m14.94,112.03c-.13-.08-3.2-1.97-3.39-6.14-.17-3.73,2.89-5.93,3.03-6.03l.95-.67.88.75c8.54,7.27,24.87,3.63,25.03,3.59l.59-.14.52.31c2.06,1.23,3.28,2.83,3.6,4.75.56,3.28-1.8,6.15-1.91,6.27l-.38.45-.58.07c-1.72.22-3.36.37-4.91.47-15.76,1.02-23.12-3.5-23.43-3.7Zm28.25-3.08c-.15-.88-.73-1.67-1.71-2.36-3.16.63-17.08,2.92-25.95-3.52-.5.6-1.04,1.53-.99,2.68.12,2.52,1.88,3.67,1.97,3.72.08.05,8.23,4.96,25.75,2.89.44-.69,1.17-2.05.93-3.41Z"/>
  </g>
  <g class="cls-11">
    <path class="cls-8" d="m98.41,114.06c.4.96.78,1.87,1.11,2.7-.34-.84-.71-1.74-1.11-2.7h0Z"/>
  </g>
  <g class="cls-1">
    <circle class="cls-8" cx="76.35" cy="103.54" r="5.04"/>
  </g>
  <g class="cls-1">
    <circle class="cls-8" cx="87.93" cy="106.9" r="4.82"/>
  </g>
  <g>
    <path class="cls-5" d="m63.66,123.61s1.27-6.8,3.27-16.96c2.8-14.18,6.84-29.67,9.48-30.17,2.65-.5,10.73,9.92,16.41,21.46,4.6,9.34,8.55,19.87,8.55,19.87,0,0-19.42,10.63-37.71,5.8Z"/>
    <g class="cls-10">
      <path class="cls-4" d="m63.66,123.61c.93.25,1.87.45,2.81.62.56-2.95,1.49-7.76,2.66-13.71,2.8-14.18,6.84-29.67,9.48-30.17,2.09-.39,7.57,6.03,12.59,14.43-5.5-10.2-12.37-18.75-14.78-18.3-2.64.5-6.68,16-9.48,30.17-2.01,10.16-3.28,16.96-3.28,16.96Z"/>
    </g>
    <g class="cls-1">
      <circle class="cls-8" cx="80.25" cy="91.68" r="5.36"/>
    </g>
    <circle class="cls-2" cx="80.18" cy="90.49" r="3.8"/>
    <g class="cls-10">
      <path class="cls-4" d="m76.39,90.73c.02.36.09.7.21,1.02.35-1.62,1.73-2.89,3.47-3s3.27.97,3.82,2.53c.07-.34.1-.69.07-1.04-.13-2.09-1.94-3.68-4.03-3.54s-3.68,1.94-3.54,4.03Z"/>
    </g>
    <path class="cls-8" d="m75.27,90.81c-.17-2.71,1.89-5.05,4.59-5.23s5.05,1.89,5.23,4.59c.17,2.71-1.89,5.05-4.59,5.23s-5.05-1.89-5.23-4.59Zm2.25-.14c.09,1.47,1.37,2.59,2.84,2.49s2.59-1.37,2.49-2.84-1.37-2.59-2.84-2.49-2.59,1.37-2.49,2.84Z"/>
    <circle class="cls-2" cx="75.89" cy="102.07" r="3.92"/>
    <g class="cls-10">
      <path class="cls-4" d="m71.97,102.26c.63-1.13,1.8-1.92,3.17-2.01,2.16-.14,4.03,1.5,4.17,3.66v.06c.36-.63.54-1.37.49-2.15-.14-2.16-2-3.8-4.17-3.66s-3.77,1.97-3.67,4.11Z"/>
    </g>
    <path class="cls-8" d="m70.85,102.39c-.18-2.78,1.94-5.18,4.71-5.36,2.78-.18,5.18,1.94,5.36,4.71.18,2.78-1.94,5.18-4.71,5.36s-5.18-1.94-5.36-4.71Zm2.25-.14c.1,1.54,1.43,2.71,2.97,2.61s2.71-1.43,2.61-2.97c-.1-1.54-1.43-2.71-2.97-2.61s-2.71,1.43-2.61,2.97Z"/>
    <circle class="cls-2" cx="87.81" cy="105.12" r="3.77"/>
    <g class="cls-10">
      <path class="cls-4" d="m84.04,105.37c.04.61.22,1.18.51,1.67.13-1.85,1.61-3.37,3.52-3.5,1.47-.09,2.8.66,3.5,1.85.01-.17.01-.34,0-.51-.13-2.08-1.93-3.65-4.01-3.52s-3.66,1.93-3.53,4.01Z"/>
    </g>
    <path class="cls-8" d="m82.92,105.44c-.17-2.69,1.88-5.03,4.57-5.2s5.03,1.88,5.2,4.57c.17,2.69-1.88,5.03-4.57,5.2s-5.03-1.88-5.2-4.57Zm2.25-.14c.09,1.46,1.36,2.57,2.81,2.47s2.57-1.36,2.47-2.81c-.09-1.46-1.36-2.57-2.81-2.47s-2.57,1.36-2.47,2.81Z"/>
    <path class="cls-3" d="m63.66,123.61c18.29,4.83,37.71-5.8,37.71-5.8,0,0-1.28-3.42-3.24-8.1-6.17,2.61-18.12,6.59-33.02,6.28-.92,4.77-1.45,7.62-1.45,7.62Z"/>
    <g class="cls-10">
      <path class="cls-4" d="m63.66,123.61c18.29,4.83,37.71-5.8,37.71-5.8,0,0-.5-1.34-1.36-3.48-3.57,1.79-19.86,9.29-35.69,5.74-.43,2.26-.67,3.53-.67,3.53Z"/>
    </g>
    <path class="cls-8" d="m64.83,125.43h0c-1.64-.36-2.68-1.94-2.37-3.59.24-1.3.64-3.41,1.17-6.14.14-.72.78-1.23,1.5-1.22,14.78.3,26.65-3.73,32.41-6.16.37-.15.78-.16,1.15,0,.37.15.66.44.82.81,1.1,2.63,1.99,4.87,2.54,6.29.7,1.79-.12,3.83-1.86,4.65-4.12,1.94-13.01,5.55-23.18,6.2-3.94.25-8.07.06-12.19-.84Zm1.51-7.93c-.41,2.14-.73,3.81-.93,4.9,0,.05.02.09.07.1h0c13.86,3.03,28.01-2.59,33.45-5.15.32-.15.47-.51.34-.84-.45-1.15-1.12-2.84-1.94-4.85-6.19,2.46-17.33,5.91-30.97,5.84Z"/>
    <path class="cls-8" d="m65.08,117.49c-.44,0-.86-.21-1.14-.56s-.39-.79-.31-1.23c.5-2.6,1.12-5.77,1.83-9.35,1.54-7.79,3.25-15.02,4.83-20.35,2.86-9.68,4.51-10.75,5.84-11.01.8-.15,2.91-.55,8.54,6.78,3.31,4.31,6.77,9.96,9.5,15.5,1.68,3.41,3.48,7.4,5.35,11.85.32.76-.04,1.64-.8,1.96-5.06,2.14-14.66,5.46-26.78,6.25-2.2.14-4.49.2-6.85.15Zm26.39-18.89c-5.83-11.85-12.75-19.95-14.73-20.6-1.59,1.52-4.98,11.95-8.33,28.94-.55,2.8-1.05,5.35-1.48,7.57,12.86-.03,23.35-3.28,29.23-5.61-1.64-3.84-3.21-7.3-4.69-10.3Zm-14.6-20.71h0Z"/>
  </g>
  <g>
    <path class="cls-4" d="m90.55,91.69c-2.4,1.05-2.6,1.93-2.59,5.64.01,3.7,3.7,15.53,7.68,15.4,3.98-.14,7.14-.77,6.7-8.01-.5-8.28-6.47-15.36-11.79-13.03Z"/>
    <g class="cls-11">
      <path class="cls-8" d="m88.91,102.46c1.35,4.71,3.97,10.35,6.73,10.26,3.98-.14,7.14-.77,6.7-8.01-.17-2.74-.93-5.36-2.08-7.54.2.94.34,1.9.4,2.89.44,7.24-2.72,7.87-6.7,8.01-1.86.06-3.66-2.49-5.05-5.6Z"/>
    </g>
    <path class="cls-8" d="m95.68,113.85c-1.02.03-2.02-.42-2.99-1.35-3.37-3.24-5.85-11.9-5.86-15.17-.01-3.88.25-5.35,3.27-6.67,2.06-.91,4.28-.69,6.42.61,3.81,2.33,6.61,7.71,6.95,13.38.21,3.42-.32,5.7-1.67,7.18-1.34,1.48-3.24,1.85-5.16,1.97-.32.02-.64.03-.96.05Zm-4.67-21.13h0c-1.74.76-1.93.97-1.92,4.6,0,2.83,2.41,10.89,5.17,13.55.35.34.87.74,1.35.72,2.2-.08,3.65-.31,4.53-1.28.9-.99,1.25-2.8,1.09-5.53-.3-4.89-2.71-9.66-5.87-11.59-1-.61-1.98-.88-2.93-.82-.48.03-.95.15-1.42.35Z"/>
  </g>
  <path class="cls-8" d="m99.32,141.33c-.68.16-1.29.4-1.91.67-.61.28-1.21.59-1.78.96-.57.37-1.14.74-1.63,1.24-.49.49-.95,1.04-1.21,1.73.7-.19,1.31-.38,1.92-.57.61-.19,1.19-.41,1.78-.61l1.78-.61c.58-.21,1.19-.43,1.73-.67h.03c.57-.27.83-.93.58-1.5-.22-.51-.77-.77-1.29-.64Z"/>
  <g class="cls-11">
    <path class="cls-8" d="m29.84,102.6c6.36,19.21,30.95,19.07,38.36,16.83,5.4-1.63,7.93-8.02,6.73-13.63-.95,2.62-2.74,6.47-7.7,8.09-9.93,3.25-26.28,0-35.97-11.59-.42-.5-1.23-.33-1.42.3h0Z"/>
  </g>
  <g>
    <path class="cls-4" d="m35.39,84.45s2.94,9.66,15.18,12.62c10.04,2.43,14.36-3.78,21.14,2.79,5.96,5.78,4.03,17.3-3.51,19.58-7.41,2.24-32,2.38-38.36-16.83"/>
    <path class="cls-8" d="m35.03,84.56c.28,2.52,1.54,4.72,3.13,6.6,1.58,1.9,3.59,3.43,5.76,4.58,2.17,1.16,4.49,1.96,6.86,2.52,2.39.55,4.91.64,7.32.39,2.41-.22,4.71-.82,6.81-.78,1.06-.01,2.03.26,2.97.64l.69.34c.23.11.44.29.66.43.21.15.44.28.65.46l.61.53c3.26,2.73,4.33,7.56,3.17,11.66-.57,2.05-1.71,3.95-3.34,5.18-.82.63-1.72,1.06-2.75,1.33-1.04.28-2.16.47-3.27.61-4.49.52-9.12.28-13.56-.65-4.43-.93-8.71-2.68-12.25-5.41-.45-.32-.85-.71-1.28-1.07-.42-.37-.8-.77-1.2-1.16-.38-.41-.73-.84-1.09-1.26l-.97-1.35c-1.26-1.83-2.25-3.76-3.74-5.67h0c-.13-.18-.38-.21-.56-.07-.1.08-.15.19-.15.31-.01,2.51,1.07,4.83,2.49,6.82.37.49.77.96,1.15,1.44l1.24,1.35c.44.42.86.87,1.32,1.27.47.39.91.81,1.41,1.17,3.88,2.99,8.47,4.84,13.16,5.83,4.7.98,9.52,1.24,14.3.69,1.2-.15,2.39-.35,3.6-.68.6-.15,1.24-.4,1.83-.68.59-.3,1.16-.63,1.68-1.04,2.11-1.6,3.47-3.93,4.15-6.36.68-2.44.72-5.04.09-7.51-.31-1.23-.79-2.43-1.46-3.52-.66-1.09-1.51-2.12-2.47-2.92l-.71-.62c-.24-.2-.52-.37-.78-.56-.27-.17-.51-.38-.81-.52l-.88-.44c-1.2-.51-2.54-.85-3.83-.84-1.28-.02-2.52.13-3.68.31-1.17.17-2.3.37-3.41.47-2.23.23-4.44.15-6.61-.35-2.17-.5-4.3-1.26-6.22-2.35-1.92-1.1-3.63-2.52-5.15-4.1-1.5-1.6-2.87-3.37-4.15-5.26l-.02-.04c-.12-.17-.35-.22-.53-.1-.12.08-.18.22-.16.36Z"/>
    <path class="cls-8" d="m44.28,118.7c.15,0,.3-.05.44-.12.55-.28.77-.96.49-1.51-5.12-10.03,3.58-19.9,3.67-20,.42-.46.38-1.17-.09-1.59-.46-.42-1.17-.38-1.59.09-.4.45-9.81,11.14-4,22.52.21.41.64.64,1.07.61Z"/>
  </g>
</svg>