<?xml version="1.0" encoding="UTF-8"?>
<svg id="Layer_2" data-name="Layer 2" xmlns="http://www.w3.org/2000/svg" viewBox="0 0 333.13 333.23">
  <defs>
    <style>
      .cls-1 {
        fill: #00ff4e;
      }

      .cls-2 {
        fill: #00b1ff;
      }

      .cls-3 {
        fill: #000072;
      }

      .cls-4 {
        fill: #fff;
      }

      .cls-5 {
        opacity: .3;
      }

      .cls-6 {
        opacity: .7;
      }
    </style>
  </defs>
  <g id="planets">
    <g>
      <path class="cls-2" d="m327.37,186.33c-3.67,29.66-15.48,57.97-34.26,81.5-14.64,18.33-33.53,33.76-56.05,44.67-28.9,13.98-59.91,18.6-89.58,15.05-41.25-4.91-79.92-25.59-106.82-58.83-7.71-9.52-14.46-20.07-20.03-31.57-2.76-5.7-5.16-11.5-7.19-17.38C-.47,179.97,2.14,137.57,18.36,100.94c10.93-24.66,27.99-46.68,50.34-63.56,8.37-6.33,17.47-11.92,27.27-16.67,21.59-10.45,44.37-15.64,66.88-16.15,57.06-1.25,112.46,27.83,142.91,79.17,2.38,3.98,4.59,8.08,6.65,12.33,8.46,17.51,13.49,35.79,15.36,54.08,1.24,12.13,1.08,24.26-.39,36.18Z"/>
      <g>
        <path class="cls-1" d="m327.37,186.33c-12.02,9.86-23.13,17.76-31.65,21.56-36.09,16.13-61.45-43.78-69.12-95.23-7.69-51.47-55.3-26.88-70.66-54.96-15.36-28.08,6.9-53.13,6.9-53.13,57.06-1.25,112.46,27.83,142.91,79.17,2.38,3.98,4.59,8.08,6.65,12.33,8.46,17.51,13.49,35.79,15.36,54.08,1.24,12.13,1.08,24.26-.39,36.18Z"/>
        <path class="cls-3" d="m283.88,214.17c-5.04,0-9.99-1.32-14.82-3.97-25.35-13.89-40.63-60.94-46-97.01-4.15-27.75-20.3-31.31-37.41-35.07-12.65-2.78-25.72-5.66-32.85-18.7-16.38-29.95,7.12-56.96,7.36-57.23l1.04-1.17,1.56-.04c59.76-1.33,115.69,29.7,146.07,80.92,2.37,3.96,4.66,8.2,6.79,12.59,8.47,17.52,13.75,36.12,15.7,55.28,1.25,12.25,1.11,24.69-.4,36.98l-.17,1.42-1.11.91c-13.46,11.03-24.38,18.45-32.46,22.06-4.48,2-8.92,3-13.3,3ZM164.56,8.13c-3.95,5.06-17.78,25.35-5.47,47.86,5.57,10.18,16.01,12.47,28.1,15.13,17.85,3.93,38.08,8.38,42.96,41.01,5.54,37.17,20.78,79.96,42.35,91.78,7.05,3.87,14.17,4.09,21.75.71,7.28-3.25,17.27-10.03,29.72-20.15,1.29-11.3,1.36-22.71.22-33.96-1.87-18.33-6.92-36.13-15.02-52.89-2.04-4.2-4.22-8.25-6.5-12.05C273.89,37.03,221.06,7.51,164.56,8.13Z"/>
      </g>
      <g>
        <path class="cls-1" d="m101.99,264.53c-8.64-23.62-50.68-61.07-56.45-76.61-5.75-15.55-14.98-8.06-24.19-26.5-9.21-18.44-2.97-60.46-2.97-60.46l-.02-.02c10.93-24.66,27.99-46.68,50.34-63.56,34.67-18.64,41.93,16.9,48.28,45.71,6.33,28.8-31.68,44.92-1.15,93.31,30.52,48.38-5.2,111.73-13.83,88.13Z"/>
        <path class="cls-3" d="m107.36,273.22c-.28,0-.56-.01-.84-.04-2.46-.25-5.83-1.74-7.9-7.41h0c-4.55-12.46-19.44-29.62-32.58-44.76-11.3-13.03-21.06-24.28-23.86-31.83-2.37-6.42-5.15-7.99-8.98-10.17-4.4-2.5-9.88-5.61-15.05-15.98-8.6-17.21-4.67-52.33-3.56-60.79l-.48-.48.98-2.27c11.38-25.67,29.17-48.14,51.45-64.97l.46-.3c11.08-5.95,20.65-7.15,28.46-3.57,15.19,6.98,20.27,30.07,24.75,50.44l.27,1.22c2.63,11.97-1.7,22.02-5.89,31.73-6.76,15.67-13.75,31.87,4.28,60.44,20.75,32.9,12.06,71.64,1.71,88.32-4.23,6.82-8.78,10.4-13.21,10.4Zm-2-9.91c.67,1.83,1.43,2.69,1.9,2.74,1.04.11,3.93-1.7,7.22-7,9.44-15.22,17.32-50.59-1.68-80.72-20.05-31.76-11.94-50.54-4.8-67.1,4.08-9.46,7.61-17.64,5.48-27.35l-.27-1.22c-4.12-18.74-8.79-39.98-20.74-45.47-5.68-2.61-12.82-1.55-21.83,3.24-21.06,15.96-37.91,37.21-48.77,61.47-.59,4.24-5.45,41.64,2.69,57.94,4.2,8.41,8.08,10.61,12.18,12.95,4.37,2.48,8.89,5.05,12.16,13.92,2.35,6.32,12.17,17.64,22.56,29.62,13.54,15.61,28.89,33.3,33.89,47h0Z"/>
      </g>
      <g>
        <path class="cls-4" d="m293.11,267.83c-14.64,18.33-33.53,33.76-56.05,44.67-28.9,13.98-59.91,18.6-89.58,15.05,3.37-6.45,9.16-12.81,19.05-14.07,21.29-2.69,20.91-12.67,31.66-22.27,10.75-9.6,27.47-.77,41.38-5,11.52-3.48,25.88-29.85,53.54-18.39Z"/>
        <path class="cls-3" d="m166.61,331.39c-6.48,0-12.98-.39-19.46-1.16l-3.87-.46,1.8-3.45c4.69-8.98,11.98-14.33,21.09-15.49,13.9-1.75,17.66-6.64,22.42-12.84,2.08-2.7,4.43-5.77,7.79-8.77,7.13-6.36,16.3-5.63,25.16-4.91,5.86.48,11.92.96,17.22-.65,2.89-.87,6.33-3.72,10.31-7.03,10.16-8.42,24.07-19.96,45.04-11.27l3.3,1.37-2.23,2.79c-15.39,19.28-34.57,34.55-56.98,45.41-22.5,10.88-46.94,16.46-71.61,16.46Zm-14.65-6.06c28.78,2.67,57.7-2.57,83.92-15.25,20.54-9.95,38.27-23.74,52.74-41.02-16.08-4.92-27.12,4.23-36.1,11.69-4.43,3.67-8.26,6.85-12.19,8.03-6.28,1.91-12.86,1.38-19.21.87-8.45-.68-15.74-1.27-21.15,3.56-2.98,2.67-5.08,5.4-7.11,8.04-5.08,6.61-9.89,12.86-26.01,14.9-6.15.78-11.15,3.86-14.9,9.17Z"/>
      </g>
      <g class="cls-5">
        <path class="cls-3" d="m327.76,150.14c-1.86-18.29-6.9-36.57-15.36-54.08-2.05-4.24-4.26-8.35-6.63-12.32-17.64-29.72-43.65-51.96-73.49-65.2,13.96,11.56,26.18,25.59,35.85,41.9,2.38,3.97,4.58,8.08,6.63,12.32,8.46,17.5,13.5,35.79,15.36,54.08,6.72,65.88-27.64,131.86-90.7,162.35-44.64,21.59-94.28,20.83-136.32,2.18,47.34,39.19,115.01,49.61,173.95,21.11,63.06-30.49,97.42-96.47,90.7-162.35Z"/>
      </g>
      <g class="cls-6">
        <path class="cls-4" d="m95.97,20.73C21.11,56.92-13.31,143.14,13.43,219.77c2.02,5.87,4.43,11.67,7.19,17.38,5.56,11.5,12.32,22.05,20.02,31.56,16.42,20.29,37.24,35.86,60.33,46.07-17.37-9.82-33.05-22.9-46-38.9-7.7-9.51-14.46-20.06-20.02-31.56-2.76-5.71-5.17-11.51-7.19-17.38-11.33-32.45-11.66-66.61-2.62-97.97.74-2.56,2.83-4.47,5.44-5.03,7.92-1.69,18.72-10.92,27.4-24.28,9.34-14.39,13.3-29.08,10.53-36.62-1-2.73-.35-5.78,1.78-7.76,11.6-10.82,24.98-20.12,40.01-27.39,44.52-21.53,94.01-20.82,135.97-2.32C201.58.34,145.67-3.31,95.97,20.73Z"/>
      </g>
      <path class="cls-3" d="m166.64,333.23c-18.44,0-36.95-3.1-54.88-9.34-42.01-14.62-75.81-44.73-95.17-84.78C-23.38,156.45,11.35,56.67,94.02,16.7c40.04-19.37,85.23-21.98,127.24-7.35,42.01,14.62,75.81,44.73,95.17,84.78,19.36,40.04,21.98,85.23,7.35,127.24-14.62,42.01-44.73,75.81-84.78,95.17-22.95,11.1-47.6,16.7-72.36,16.7Zm-.25-324.26c-23.44,0-46.75,5.29-68.47,15.79C19.7,62.59-13.16,156.99,24.66,235.21c18.32,37.89,50.3,66.38,90.05,80.21,39.75,13.84,82.5,11.37,120.4-6.95,37.89-18.32,66.38-50.3,80.21-90.05,13.84-39.75,11.37-82.5-6.95-120.4-18.32-37.89-50.3-66.38-90.05-80.21-16.96-5.91-34.48-8.84-51.92-8.84Z"/>
    </g>
  </g>
</svg>