<?xml version="1.0" encoding="UTF-8"?>
<svg id="Layer_2" data-name="Layer 2" xmlns="http://www.w3.org/2000/svg" viewBox="0 0 165.45 247.47">
  <defs>
    <style>
      .cls-1 {
        fill: #ff3b3b;
      }

      .cls-2 {
        fill: #fff;
      }

      .cls-3 {
        fill: #31c418;
      }

      .cls-4 {
        fill: #d8d8d8;
      }

      .cls-5 {
        fill: #d62d2d;
      }

      .cls-6 {
        fill: #111a28;
      }

      .cls-7 {
        fill: #371a45;
      }

      .cls-8 {
        fill: #62ed2e;
      }

      .cls-9 {
        opacity: .35;
      }

      .cls-10 {
        opacity: .5;
      }

      .cls-11 {
        opacity: .7;
      }
    </style>
  </defs>
  <g id="Layer_2-2" data-name="Layer 2">
    <g>
      <path class="cls-8" d="m135.26,168.17c-1.65,12.44-16.78,34.16-38.21,18.73-15.76-11.34-19.07-40.62-19.07-40.62,0,0-29.66-18.5-8.96-17.09,14.73,1,19.17,12.65,30.17,21.72,4.25,3.5,9.47,6.62,16.64,8.59.35.1.71.19,1.08.28l18.35,8.38Z"/>
      <path class="cls-3" d="m135.26,168.17c-1.65,12.44-16.78,34.16-38.21,18.73-15.76-11.34-19.07-40.62-19.07-40.62,0,0-29.66-18.5-8.96-17.09,14.73,1,19.17,12.65,30.17,21.72-6.16,16.33,1.35,27,7.02,27.29,5.93.3-.74-13.43-.74-13.43l10.36-5.26c.35.1.71.19,1.08.28l18.35,8.38Z"/>
      <path class="cls-7" d="m111.58,193.96c-4.39,0-9.66-1.41-15.55-5.65-14.87-10.71-19-35.98-19.68-41.01-1.43-.92-4.79-3.13-8.09-5.7-6.52-5.08-9.04-8.55-8.16-11.25,1-3.09,5.64-3.13,9.04-2.9,10.89.74,16.55,6.97,22.55,13.56,6.17,6.78,12.55,13.79,25.64,17.09.93.24,1.5,1.18,1.26,2.12-.24.93-1.18,1.5-2.12,1.26-14.11-3.56-21.16-11.3-27.37-18.13-5.75-6.32-10.72-11.78-20.21-12.42-4.28-.29-5.31.38-5.48.52.01.29.38,2.3,7.22,7.59,4.03,3.12,8.21,5.73,8.25,5.76.45.28.75.75.81,1.28.03.29,3.41,28.64,18.36,39.4,7.1,5.11,13.91,6.32,20.23,3.6,8.25-3.56,14.22-13.54,15.23-21.14.13-.96,1.01-1.63,1.96-1.5.96.13,1.63,1,1.5,1.96-1.12,8.44-7.57,19.68-17.31,23.89-2.18.94-4.91,1.68-8.1,1.68Z"/>
      <path class="cls-8" d="m96.82,243.52c-1.75.26-13.33.26-17.83.26s-13.08.21-14.18-4.95c-1.02-4.8,4.27-16.25,3.86-21.67-1.1-14.66-32.73-13.71-32.73-13.71l38.25-18.44c5.5.73,9.84,2.03,13.23,3.73,22.33,11.23,3.32,40.17,3.32,40.17,0,0,7.88.8,10.19,5.28.45.86.71,1.7.83,2.51.53,3.56-1.89,6.37-4.94,6.83Z"/>
      <path class="cls-3" d="m96.82,243.52c-1.75.26-13.33.26-17.83.26s-13.08.21-14.18-4.95c-1.02-4.8,4.27-16.25,3.86-21.67-1.1-14.66-32.73-13.71-32.73-13.71l38.25-18.44c5.5.73,9.84,2.03,13.23,3.73-.07,4.73-1.22,12.84-7.02,21.98-9.68,15.29-10.8,25.82-2.95,27.95,8.24,2.24,15.76.16,15.05-4.09,0,0,4.46,7.9,9.26,2.11.53,3.56-1.89,6.37-4.94,6.83Z"/>
      <path class="cls-7" d="m77.96,245.53c-5.02,0-13.54-.21-14.85-6.34-.63-2.94.6-7.38,1.9-12.08,1.03-3.72,2.09-7.56,1.92-9.82-.8-10.65-22.6-12.35-30.94-12.1-.95.03-1.77-.73-1.79-1.69-.03-.96.73-1.77,1.69-1.8,1.36-.04,33.31-.81,34.52,15.32.22,2.87-.88,6.83-2.04,11.02-1.08,3.9-2.3,8.31-1.85,10.42.77,3.59,8.36,3.58,11.99,3.58h.48c10.58,0,16.49-.08,17.56-.25,1.33-.2,2.48-1.03,3.08-2.21.68-1.33.59-2.97-.26-4.6-1.54-2.97-6.89-4.14-8.82-4.35-.61-.06-1.13-.44-1.4-.99-.26-.55-.22-1.2.12-1.71.11-.17,11.25-17.4,5.72-29.48-2.9-6.32-9.97-10.27-21.04-11.73-.96-.13-1.63-1-1.5-1.96.13-.95,1-1.62,1.96-1.5,12.34,1.63,20.33,6.25,23.76,13.74,5.12,11.18-1.61,25.23-4.64,30.62,2.82.68,7.15,2.26,8.95,5.74,1.38,2.66,1.47,5.43.27,7.79-1.11,2.18-3.23,3.71-5.67,4.08-1.65.25-10.07.29-18.09.29h-.48c-.18,0-.37,0-.56,0Z"/>
      <path class="cls-8" d="m86.01,186.96c-.04.2-.09.4-.14.59-6.65,27.23-55.21,21.2-61.01,2.35-1.88-6.12-1.81-13.47-.15-21.2,2.39-11.13,8.08-23.02,16.01-33.05,3.65-4.63,7.78-8.85,12.28-12.43,9.78-7.78,25.63-11.02,31.25,1.81-.52,5.88-.69,11-.63,15.55.28,21.98,5.82,30.6,2.38,46.37Z"/>
      <path class="cls-3" d="m85.87,187.56c-6.65,27.23-55.21,21.2-61.01,2.35-1.88-6.12-1.81-13.47-.15-21.2,8.94,3.54,21.36,8.16,21.36,8.16,0,0,24.58,27.87,39.8,10.68Z"/>
      <path class="cls-3" d="m83.63,140.59c-4.76,1.23-9.87,1.9-15.18,1.9-10.36,0-19.94-2.54-27.71-6.83,3.65-4.63,7.78-8.85,12.28-12.43,9.78-7.78,25.63-11.02,31.25,1.81-.52,5.88-.69,11-.63,15.55Z"/>
      <path class="cls-3" d="m52.33,127.94l-3.56,11.3c-4.22-1.47-8.1-3.4-11.53-5.71,3.18-2.49,7.77-4.77,15.09-5.59Z"/>
      <path class="cls-7" d="m56.76,207.78c-14.2,0-30.14-6.25-33.56-17.36-2.95-9.59-1.51-22.15,4.06-35.37,5.53-13.14,14.29-24.93,24.67-33.18h0c7.26-5.78,16.44-8.4,23.39-6.68,4.8,1.19,8.44,4.36,10.55,9.16.12.27.17.56.14.85-1.56,17.6.1,28.52,1.44,37.29,1.26,8.26,2.34,15.39.28,24.85-2.64,12.13-13.48,19.75-28.98,20.4-.65.03-1.31.04-1.98.04Zm-2.66-83.19h0c-20.33,16.18-33.2,46.46-27.56,64.8,2.71,8.82,17.09,15.49,32.05,14.86,13.82-.58,23.44-7.18,25.72-17.66,1.92-8.83.93-15.34-.32-23.58-1.35-8.88-3.03-19.91-1.5-37.66-1.69-3.6-4.39-5.88-8.02-6.78-5.84-1.44-14.03.98-20.38,6.03Z"/>
      <path class="cls-8" d="m53.1,212.41c-5.14,15.72-21.28,20.92-21.28,20.92,0,0,1.97,1.75,3.4,3.96,1.82,2.79,2.78,6.33-2.15,8-3.2,1.09-10.38-.11-11.33-1.18-1.23.53-3.22,1.41-7.01,1.18-5.82-.35-12.05-5.66-5.51-17.26.39-.7.83-1.41,1.31-2.15,4.73-7.2,10.01-10.6,11.51-19.11.04-.21.07-.41.11-.62,2.43-14.29.06-22.41,2.15-35.28l30.32,30.14c.15,4.31-.44,8.09-1.52,11.41Z"/>
      <path class="cls-3" d="m33.07,245.29c-3.2,1.09-10.38-.11-11.33-1.18-1.23.53-3.22,1.41-7.01,1.18-5.82-.35-12.05-5.66-5.51-17.26-.62,3.74-.79,9.53,3.52,11.4,8.48,3.67,9.3-1.23,9.51-3.41,2.71,5.42,13.54,7.36,12.96,1.27,1.82,2.79,2.78,6.33-2.15,8Z"/>
      <path class="cls-3" d="m53.1,212.41c-2.37-4.03-6.4-8.45-13.2-9.53-10.06-1.59-15.32,1.17-17.75,3.26,2.43-14.29.06-22.41,2.15-35.28l30.32,30.14c.15,4.31-.44,8.09-1.52,11.41Z"/>
      <path class="cls-7" d="m26.01,171.14c-1.87,11.19.01,22.7-1.94,33.95-.45,3.86-1.84,8.04-4.13,11.26-4.15,5.99-9.99,11.18-11.57,18.49-1.69,8.09,6.51,10.41,12.66,7.66,0,0,2.01.45,2.01.45-.02-.05-.07-.09-.12-.11l.04.02c.09.07.34.15.46.2,2.65.88,10.52,2.06,11.49-1.46.1-.72-.18-1.53-.52-2.24-.83-1.67-2.28-3.37-3.74-4.74-.72-.62-.81-1.72-.18-2.44.22-.26.5-.42.8-.53.71-.27,1.53-.64,2.24-.98,8.26-3.96,15.44-10.79,18.24-19.66,1.04-3.18,1.62-6.53,1.99-10,.09-.98,1.58-1.06,1.74-.05.59,3.6.4,7.37-.5,10.99-.48,1.81-1.13,3.57-1.93,5.26-3.85,8.02-11.12,14.08-19.33,17.28-.45.17-.86.32-1.38.48l.62-2.96c.94.87,1.73,1.71,2.51,2.67,6.33,7.54,1.72,13.48-7.37,12.72-2.15-.16-4.33-.46-6.36-1.27-.28-.12-.67-.32-.93-.53-.14-.11-.27-.23-.4-.36l2.01.45c-.89.4-1.96.8-3.01,1.01-8.6,1.88-16.34-3.22-14.47-12.53.83-4.05,2.88-7.55,5.19-10.83,3.31-4.73,7.41-8.3,9.3-13.59,1.63-5.14,1.93-10.86,2.13-16.28.13-7.55-.3-15.34,1-22.9.15-.95,1.05-1.6,2-1.45.95.15,1.6,1.05,1.44,2h0Z"/>
      <path class="cls-8" d="m76.19,178.44s-23.58,26.65-40.85,16.18c-6.08-3.69-10.07-11.49-11.5-20.57-1.95-12.47.95-27.36,10-37.32,3.15-3.47,8.04-7.61,18.49-8.79l-5.57,17.66c-.13,5.46.8,11.02,1.65,14.89.68,3.1,1.32,5.11,1.32,5.11l12.64-11.36,13.81,24.2Z"/>
      <path class="cls-3" d="m76.19,178.44s-23.58,26.65-40.85,16.18c-6.08-3.69-10.07-11.49-11.5-20.57,2.49,6.33,7.79,16.08,16.88,16.44,17.1.69,3.16-19.14,6.74-28.48.18-.47.51-.98.96-1.52.68,3.1,1.32,5.11,1.32,5.11l12.64-11.36,13.81,24.2Z"/>
      <path class="cls-3" d="m52.33,127.94l-3.56,11.3c-4.22-1.47-8.1-3.4-11.53-5.71,3.18-2.49,7.77-4.77,15.09-5.59Z"/>
      <path class="cls-7" d="m47.64,145.62c.4,6.2,1.65,12.34,3.42,18.29.13.39.19.8-.08,1.29l-2.12-.58,12.64-11.35c.54-.48,1.36-.44,1.85.1.54.66,13.57,23.86,13.97,24.42.29.49.21,1.11-.16,1.52-3.84,4.17-8.01,7.85-12.6,11.14-6.93,4.82-15.31,9.16-24.03,7.56-8.97-1.63-14.53-10.17-16.8-18.39-4.42-16.19-.66-35.79,12.51-46.95,2.26-1.82,4.87-3.2,7.6-4.17,2.72-.95,5.54-1.53,8.35-1.85.72-.08,1.37.44,1.45,1.15.08.72-.44,1.37-1.16,1.45-2.66.3-5.28.85-7.77,1.71-2.48.88-4.81,2.12-6.84,3.75-12.31,10.49-15.76,29.01-11.63,44.18,2.05,7.32,6.8,15.07,14.79,16.54,10.39,1.82,20.87-5.71,28.37-12.19,2.02-1.8,4.01-3.71,5.8-5.67l-.16,1.52-13.81-24.19,2.01.32-12.64,11.35-.26.24c-.68.65-1.88.1-1.86-.82-.86-.49-.83-1.55-1.09-2.41-1.15-5.05-1.85-10.23-1.67-15.41,0-.86.1-1.73.16-2.59.04-.48.46-.84.94-.8.45.03.79.41.81.85h0Z"/>
      <g>
        <g>
          <path class="cls-8" d="m28.58,119.07c9.25,6.04,19.9,10.4,30.15,12.76l16.69,3.73c23.2,2.75,38.18-5.42,47.17-18.08,10.44-14.71,12.78-35.49,10.52-52.28C128.02,27.39,95.97-2.74,58.16,2.36,20.34,7.45-2.59,44.98,2.51,82.79c2.03,15.06,12.56,27.46,26.06,36.27Z"/>
          <path class="cls-3" d="m28.58,119.07c9.25,6.04,19.9,10.4,30.15,12.76l16.69,3.73c23.2,2.75,38.18-5.42,47.17-18.08-5.54,4.34-16.11,10.66-31.96,12.09-18.03,1.62-43.56-2.48-62.06-10.51Z"/>
          <g class="cls-11">
            <path class="cls-2" d="m28.17,25.51c-.93,1.54-1.21,2.97-.66,4.08,1.53,3.09,8.94,2.53,16.55-1.24,7.6-3.78,12.52-9.34,10.99-12.43-.77-1.54-2.99-2.18-5.98-1.96,3.37-1.07,6.88-1.87,10.54-2.36,36.07-4.86,66.9,22.34,74.08,57.69-.07-1.35-.19-2.71-.37-4.07C128.22,27.39,96.18-2.74,58.36,2.36,20.55,7.45-2.38,44.98,2.72,82.79c.18,1.37.43,2.71.71,4.03-1.61-23.85,7.75-47,24.74-61.31Z"/>
          </g>
          <path class="cls-7" d="m58.53,132.68c-24.19-4.45-51.45-20.85-57.21-46.33C-5.22,52.44,12.91,13.7,47.05,3.07c45.38-14.38,86.6,23.94,88.54,68.75,1.17,21.1-4.41,45.3-22.8,57.95-7.69,5.28-17.04,7.77-26.28,8.02-3.81.07-7.6.17-11.23-1.38-.85-.37-.62-1.65.28-1.72,3.62-.53,7.2-.29,10.82-.41,4.58-.17,9.16-.89,13.49-2.28,16.01-4.81,26.28-19.63,29.9-35.45,3.76-15.95,2.98-33.23-2.93-48.57C118.24,25.03,97.23,6.11,72.34,3.83,37.25.3,9.07,27.3,4.37,61.1c-.91,6.1-1.05,12.32-.45,18.46.69,10.19,5.47,19.59,12.49,27.03,11.37,12.08,26.69,19.73,42.5,24.39,1.05.3.69,1.88-.39,1.7h0Z"/>
          <path class="cls-7" d="m131.39,55.35c4.02,4.28,7.81,16.25,1.98,29.99s-19.13,16.57-23.61,11.38c-3.44-3.99-6.55-15.4-.71-29.14,5.84-13.74,18.23-16.61,22.35-12.22Z"/>
          <g class="cls-10">
            <path class="cls-2" d="m107.11,90.57c-.45-5.04.25-11.27,3.14-18.06,5.84-13.74,18.23-16.61,22.35-12.23,1.36,1.44,2.69,3.77,3.64,6.75-.55-5.88-2.66-10.45-4.84-12.76-4.12-4.38-16.51-1.51-22.35,12.22-4.18,9.84-3.77,18.49-1.93,24.08Z"/>
          </g>
          <g class="cls-9">
            <path class="cls-6" d="m109.76,96.72c4.48,5.19,17.78,2.36,23.61-11.38,4.27-10.05,3.39-19.15,1.03-24.99.14,4.54-.66,9.74-2.99,15.21-5.83,13.74-19.13,16.58-23.61,11.38-.71-.82-1.41-1.97-2.01-3.38.14,6.18,2,10.88,3.96,13.16Z"/>
          </g>
          <path class="cls-7" d="m47.92,72.31c-3.23,5.61-3.28,18.29,8.91,28.74,12.2,10.44,29.27,7.72,32.7,1.07,2.64-5.1,2.08-17-10.12-27.44-12.2-10.44-28.19-8.11-31.5-2.37Z"/>
          <g class="cls-10">
            <path class="cls-2" d="m46.89,85.03c0-3.16.74-5.88,1.84-7.78,3.31-5.74,19.3-8.08,31.5,2.37,6.05,5.18,9.24,10.72,10.59,15.6.09-5.94-2.68-14.15-11.4-21.62-12.2-10.44-28.19-8.11-31.5-2.37-1.74,3.03-2.56,8.11-1.03,13.8Z"/>
          </g>
          <g class="cls-9">
            <path class="cls-6" d="m56.83,101.05c12.19,10.44,29.26,7.71,32.7,1.07,1.5-2.91,1.97-8.04-.18-13.86-.2,1.56-.6,2.91-1.15,3.97-3.43,6.65-20.51,9.38-32.7-1.07-4.86-4.17-7.78-8.68-9.33-12.97-.63,6.39,1.74,15.22,10.66,22.86Z"/>
          </g>
          <path class="cls-7" d="m115.87,100.9c-3.09,0-5.73-1.06-7.43-3.04-3.67-4.25-7.18-16.42-1-30.97,4.08-9.6,11.17-14.02,16.45-14.97,3.64-.65,6.83.16,8.78,2.23h0c4.22,4.49,8.58,17.11,2.31,31.87-4.05,9.53-11.35,13.84-16.83,14.69-.78.12-1.54.18-2.28.18Zm10.39-45.7c-.56,0-1.15.05-1.76.16-4.38.78-10.32,4.58-13.85,12.9-5.77,13.58-2.2,24.27.43,27.32,1.29,1.49,3.73,2.13,6.53,1.69,4.56-.71,10.67-4.4,14.16-12.61,5.32-12.53,2.24-23.98-1.64-28.11-.82-.88-2.21-1.35-3.87-1.35Z"/>
          <path class="cls-7" d="m75.64,109.74c-6.15,0-13.59-1.92-19.95-7.36-13.23-11.33-12.72-24.98-9.29-30.93h0c1.53-2.65,5.01-4.62,9.55-5.4,8.37-1.44,17.57,1.3,24.59,7.31,13.03,11.16,13.38,24.06,10.53,29.57-1.58,3.06-5.34,5.37-10.33,6.34-1.54.3-3.27.47-5.11.47Zm-26.21-36.56c-3.08,5.35-2.47,17.12,8.54,26.54,7.32,6.27,16.22,7.27,22.12,6.12,3.87-.76,6.82-2.45,7.9-4.52,2.35-4.56,1.8-15.46-9.7-25.32-7.35-6.3-16.05-7.5-21.73-6.52-3.41.59-6.14,2-7.12,3.7h0Z"/>
          <ellipse class="cls-7" cx="102.46" cy="101.09" rx="1.91" ry="1.06" transform="translate(-27.07 163.84) rotate(-70.46)"/>
          <path class="cls-7" d="m99.77,101.05c.68.8.88,1.76.43,2.14-.44.38-1.36.04-2.04-.76-.68-.8-.88-1.76-.43-2.14.44-.38,1.36-.04,2.04.76Z"/>
          <path class="cls-8" d="m74.78,50.58l-8.45,6.01c-1.31-3.23-2.62-5.83-3.92-7.91-5.23-8.35-10.28-8.24-14.02-5.98-5.09,3.08-4.98,12.35-4.98,12.35,4.93,4.51-.32,9.79-4.88,9.25-3.95-.46-6.32-6.39-1.64-10.01-.11-1.85-.36-18.01,10.32-21.04,10.53-2.98,18.41,3.84,22.99,9.79,2.94,3.82,4.52,7.28,4.58,7.54Z"/>
          <g class="cls-10">
            <path class="cls-2" d="m73.29,47.64c-.18-.23-.36-.47-.54-.71-4.84-6.29-13.11-13.28-24.29-10.35-9.25,2.42-8.91,17.21-8.79,19.17-3.04,1.96-4.13,5.15-4.52,6.29-1.36-2.17-1.25-5.43,1.75-7.75-.11-1.85-.36-18.01,10.32-21.04,10.53-2.98,18.41,3.84,22.99,9.79,1.3,1.68,2.33,3.3,3.08,4.6Z"/>
          </g>
          <path class="cls-3" d="m74.78,50.58s-.33,2.84-3.25,4.65c-2.91,1.81-5.21,1.36-5.21,1.36-1.31-3.23-2.62-5.83-3.92-7.91,3.26.4,8.05.09,7.8-5.64,2.94,3.82,4.52,7.28,4.58,7.54Z"/>
          <path class="cls-7" d="m73.93,50.77c-5.16-9.72-16.12-20.67-28.11-15.02-5.55,3.25-6.82,10.68-7.16,16.69-.13,1.12.31,2.47-.69,3.23-1.35,1.03-2.19,2.56-1.84,4.22.3,1.47,1.46,2.75,3.02,2.71,2.19.03,4.99-1.93,4.4-4.29-.2-.76-.73-1.41-1.33-1.97-.37-.34-.56-.8-.57-1.27.02-4.59.91-9.56,4.44-12.86,4.12-3.55,9.7-3.11,13.44.63,3.76,3.69,5.87,8.63,7.6,13.42.35,1.04-1.15,1.65-1.62.65-2.4-4.86-6.02-12.49-11.62-13.8-6.66-.81-8.51,6.5-8.75,11.9,0,0-.57-1.27-.57-1.26,5.53,4.87,1.21,12.25-5.45,12.32-3.11.1-5.9-2.52-6.42-5.51-.66-2.89.84-5.99,3.12-7.66,0,0-.67,1.49-.67,1.49-.17-2.75.02-5.31.47-7.99.96-5.36,3.29-11.14,8.5-13.85,5.01-2.46,11.23-2.24,16.19.17,4.86,2.32,8.62,6.29,11.59,10.63,1.42,2.15,2.72,4.39,3.66,6.79.52,1.21-1.27,1.89-1.63.61h0Z"/>
          <path class="cls-8" d="m162.42,31.35c-2.65,3.25-7.51.81-8.34-3.24-1.13-1.18-23.84-16.11-31.93,6.08-.94,2.58-1.68,5.66-2.17,9.33l-9.42-1.01c-.08-.28.59-4.56,2.76-9.73,2.63-6.24,7.45-13.76,15.78-17.09,12.8-5.11,27.67,6.71,29.02,7.66,3.87.11,7.62,3.92,4.3,7.99Z"/>
          <path class="cls-8" d="m162.42,31.35c-2.65,3.25-7.51.81-8.34-3.24-1.13-1.18-23.84-16.11-31.93,6.08-.94,2.58-1.68,5.66-2.17,9.33l-9.42-1.01c-.08-.28.59-4.56,2.76-9.73,2.63-6.24,7.45-13.76,15.78-17.09,12.8-5.11,27.67,6.71,29.02,7.66,3.87.11,7.62,3.92,4.3,7.99Z"/>
          <g class="cls-10">
            <path class="cls-2" d="m163.68,28.54c-1.1-.84-4.51-3.06-6.52-2-1.46-1.03-14.93-13.17-28.74-7.65-8,3.19-12.99,9.97-15.99,16.16.26-.73.56-1.49.89-2.28,2.63-6.24,7.45-13.76,15.78-17.09,12.8-5.11,27.67,6.71,29.02,7.66,2.95.08,5.84,2.32,5.56,5.19Z"/>
          </g>
          <path class="cls-3" d="m122.15,34.19c-.94,2.58-1.68,5.66-2.17,9.33,0,0-2.46,1.78-5.42,1.42s-4-2.43-4-2.43c-.08-.28.59-4.56,2.76-9.73.69,3.76,3.26,6.42,8.83,1.41Z"/>
          <path class="cls-7" d="m109.73,42.76c-.08-.41-.04-.32-.04-.59,0-.15.05-.67.08-.84,1.23-7.98,4.57-15.8,10.3-21.62,11.93-12.1,27.18-6.96,39.07,2.21,0,0-.95-.32-.95-.32,3.75.06,7.7,3.12,7.23,7.18-.53,4.17-4.71,7.14-8.65,5.22-2.28-1.06-3.88-3.15-4.39-5.55l.45.86s.01.02.02.03c0,0-.02-.01-.03-.02-.04-.04-.3-.21-.35-.25-5.87-3.65-13.71-6.88-20.53-4.32-7.19,2.96-9.77,11.68-11.09,18.89-.2,1.07-1.81.88-1.73-.24.39-4.08,1.15-8.19,2.84-12.1,5.69-13.47,19.47-13.02,30.52-6.44.93.56,1.88,1.15,2.71,1.88.31.27.56.62.61,1.02.37,2.31,3.62,4.77,5.38,2.36.81-1.06,1.09-2.14.37-3.25-.66-1.01-2.12-1.75-3.47-1.77-.64.03-1.32-.59-1.81-.92-6.97-4.78-15.52-9.23-24.16-7.54-6.25,1.46-11.32,6.05-14.74,11.39-2.76,4.34-4.86,9.25-5.92,14.3,0,0-.01.08-.01.08-.01,0,.02.06-.04-.16.32,1.09-1.31,1.61-1.67.51h0Z"/>
        </g>
        <ellipse class="cls-7" cx="95.06" cy="111.27" rx="5.33" ry="2.81" transform="translate(-29.16 188.65) rotate(-81.41)"/>
      </g>
      <path class="cls-7" d="m31.12,171.76c5.29-5.18,11.35-9.46,17.82-13.06.84-.47,1.91-.16,2.37.68.49.88.12,2.02-.81,2.43-3.25,1.47-6.42,3.13-9.47,5-3.05,1.87-6.01,3.92-8.73,6.22-.84.71-1.96-.49-1.18-1.28h0Z"/>
      <path class="cls-7" d="m20.88,242.58s0-.02.02-.04c.38-.37.74-.84.91-1.34.12-.32.17-.76.14-1.14-.06-1.29-.33-2.16-.92-3.53-.44-.93-1.29-4.44.52-4.28.39.06.67.37.74.73.39,2.01,2.19,3.28,2.73,5.29.18.57.36,1.18.43,1.78.34,2.19-.86,4.55-2.85,5.56-2.03,1.08-3.69-1.85-1.72-3.04h0Z"/>
      <g>
        <path class="cls-1" d="m158.7,144.49c-.14.74-.32,1.48-.55,2.22-2.97,9.39-10.44,8.93-10.44,8.93,0,0-2.54,4.07-3.39,5.46-1.48,2.44-3.25,4.2-5.15,5.46-7.56,5.05-17.01,2.07-17.41,1.85l-6.59-3.58c-8.31-2.36-8.39-23.38-8.39-23.38,0,0-.14-2.47.59-5.35.87-3.41,2.98-7.37,8.03-8.37,0-.02,0-.05.01-.07,2.23-13.49,12.74-13.82,19.77-12.52,10.93,2.02,26.12,15.14,23.51,29.35Z"/>
        <g class="cls-10">
          <path class="cls-2" d="m133.9,121.88s16.41,2.28,18.22,17.33c0,0-6.91-11.82-18.22-17.33Z"/>
        </g>
        <g class="cls-11">
          <path class="cls-2" d="m131.15,138.66c.52-3.13-11.72-16.33-23.78-2.55.87-3.41,2.98-7.37,8.03-8.37,0-.02,0-.05.01-.07.94-.17,1.95-.27,3.04-.27,14.75,0,12.75,10.95,12.69,11.26Z"/>
        </g>
        <path class="cls-5" d="m158.7,144.49c-.14.74-.32,1.48-.55,2.22-2.97,9.39-10.44,8.93-10.44,8.93,0,0-2.54,4.07-3.39,5.46-1.48,2.44-3.25,4.2-5.15,5.46.07-1.43-.37-4.01-3.44-7.25-4.77-5.02-10.94-3-14.27-12.4-6.11-.64-4.22-6.08-4.22-6.08,0,0-.8-2.65,1.76-3.56,3.2-1.14,7.08,3.77,11.91,2.04,2.51-3.77-1.8-9.35-5.41-10.69,3.51.17,5.26-.75,8.9,6.55,5.56,11.13,17.89,14.76,24.29,9.32Z"/>
        <g class="cls-11">
          <path class="cls-2" d="m158.14,146.71c-.44,1.38-.97,2.54-1.56,3.53,3.75-17.44-9.4-29.08-22.9-31.72-5.58-1.09-13.68-.07-17.75,6.77,3.01-11.15,12.67-11.37,19.26-10.15,11.5,2.12,27.71,16.53,22.96,31.57Z"/>
        </g>
        <path class="cls-7" d="m128.62,171.23c-3.89,0-6.95-.89-7.7-1.29-.85-.46-1.16-1.52-.7-2.37.44-.81,1.43-1.13,2.26-.75.52.18,13.66,4.34,20.34-6.63.85-1.39,3.3-5.31,3.4-5.48.34-.54.95-.85,1.59-.82.24,0,6.17.18,8.67-7.71,1.94-6.14-.18-11.64-2.3-15.17-4.7-7.83-13.27-13.05-19.31-14.16-5.39-.99-9.64-.42-12.65,1.69-2.66,1.88-4.38,5.06-5.09,9.47-.12.72-.67,1.29-1.38,1.43-7.69,1.53-7.24,11.49-7.22,11.91,0,.03,0,.06,0,.09.02,5.11,1.38,20.07,7.12,21.7.93.26,1.46,1.23,1.2,2.15-.26.93-1.23,1.46-2.15,1.2-9.24-2.63-9.65-22.5-9.66-25-.24-4.42,1.35-12.93,8.85-15.19.99-4.79,3.11-8.36,6.32-10.62,3.8-2.68,8.95-3.44,15.29-2.27,8.07,1.49,16.98,7.98,21.67,15.8,3.57,5.94,4.48,12.17,2.63,18.02-2.39,7.55-7.81,9.86-11.12,10.13-.78,1.26-2.27,3.65-2.88,4.64-4.54,7.45-11.68,9.23-17.18,9.23Zm-6.12-4.4s.06.03.09.04c-.02-.01-.05-.03-.09-.04Z"/>
        <path class="cls-7" d="m120.59,146.91l-.86-4.68-.24-1.29c-.12-.63.3-1.23.93-1.35.63-.12,1.23.3,1.35.93,2.6.32,7.24.51,7.77-2.73,1.48-7.23-8.25-9.61-13.83-8.35-.95.18-1.86-.44-2.04-1.38-.18-.95.44-1.86,1.38-2.04,3.08-.59,6.26-.51,9.3.36,4.9,1.29,9.41,5.4,8.8,10.88-.36,5.39-4.86,7.08-9.6,6.92-.83-.03-1.54-.08-2.39-.21l2.05-1.71s-.89,4.66-.89,4.66c-.18.95-1.57.94-1.74,0h0Z"/>
        <path class="cls-7" d="m147.58,157.38c-8.25-1.12-16.73-6.2-19.01-14.62-.3-1.06,1.24-1.59,1.65-.56,1.29,3.56,3.81,6.53,7.05,8.44,3.17,1.9,6.9,3,10.57,3.26,2.39.17,2.13,3.67-.27,3.48h0Z"/>
        <path class="cls-7" d="m120.82,143.86c-1.28-.81-2.7-1.65-4.07-2.24-.48-.17-.72-.7-.53-1.17.14-.35.49-.55.84-.54,1.78.08,3.39.38,5.11.73,2.68.77,1.08,4.6-1.35,3.22h0Z"/>
        <path class="cls-1" d="m137.56,167.7c.06,7.84-6.75,10.71-6.75,10.71-3.49.83-16.14-5.13-23.06-10.47-.64-.49-1.23-.98-1.76-1.46-1.56-1.41-2.59-2.72-2.79-3.78-1-5.34,4.8-11.51,4.8-11.51.96.87,1.96,1.71,2.98,2.53,3.66,2.97,7.57,5.6,11.27,7.76,6.74,3.94,12.77,6.28,15.32,6.22Z"/>
        <g class="cls-11">
          <path class="cls-2" d="m110.97,153.72c-1.43,1.01-3.03,2.54-4.34,4.83-1.91,3.34-1.4,6.14-.64,7.92-1.56-1.41-2.59-2.72-2.79-3.78-1-5.34,4.8-11.51,4.8-11.51.96.87,1.96,1.71,2.98,2.53Z"/>
        </g>
        <path class="cls-5" d="m137.56,167.7c.06,7.84-6.75,10.71-6.75,10.71-3.49.83-16.14-5.13-23.06-10.47,2.98,1.95,6.97,3.47,11.71,2.68,6.94-1.15,5.02-5.9,2.77-9.15,6.74,3.94,12.77,6.28,15.32,6.22Z"/>
        <path class="cls-7" d="m130.1,180.23c-4.71,0-14.4-4.86-20-8.5-5.28-3.43-8.17-6.36-8.62-8.71-1.16-6.14,4.98-12.75,5.24-13.03.65-.69,1.73-.74,2.44-.1,11.08,9.97,24.86,16.15,28.35,16.07.46-.02.92.17,1.26.49s.53.77.53,1.24c.07,8.9-7.49,12.2-7.81,12.34-.09.04-.18.07-.28.09-.33.08-.7.11-1.11.11Zm.71-1.81h0,0Zm0,0h0,0Zm-22.63-24.75c-1.64,2.14-3.82,5.79-3.27,8.7.15.77,1.8,3,7.09,6.43,7.3,4.74,15.99,8.25,18.27,7.94.84-.41,4.78-2.57,5.44-7.49-6.05-1.17-18.15-7.55-27.53-15.58Z"/>
      </g>
      <g>
        <path class="cls-1" d="m56.31,169.71l17.74,12.74s19.24-1.83,29.56-17.37c3.52-5.3,4.66-10.06,4.38-14.33-.22-3.37-1.34-6.43-2.87-9.18-1.88-3.37-4.39-6.28-6.67-8.75-4.44-4.82-15.9-9.04-21.45.76,0,0-.05-.05-.13-.13,0,0-.02-.01-.02-.02-.79-.71-4.55-3.67-10.08-2.01-.31.09-.62.2-.94.32-10.23,3.9-9.06,19.87-8.51,23.02.11.64.01,2.8-.16,5.29-.31,4.34-.84,9.67-.84,9.67Z"/>
        <g class="cls-10">
          <path class="cls-2" d="m67.81,134.56c-.49-.33-6.18,1.67-7.26,8.86-.29,1.93-.11,3.09.25,3.14.89.12,2.34-4.24,3.7-6.86,1.4-2.71,3.79-4.81,3.31-5.14Z"/>
        </g>
        <g class="cls-10">
          <path class="cls-2" d="m100.59,154.51c.88-.58-.47-12.01-9.92-17.6-3.01-1.78-5.04-2.33-5.37-1.75-.81,1.38,5.9,5.98,9.17,10.15,3.99,5.08,5.24,9.78,6.12,9.2Z"/>
        </g>
        <g class="cls-11">
          <path class="cls-2" d="m76.22,137.1s2.81-8.5,14.27-5.32c10.06,2.79,17.5,18.98,17.5,18.98-.22-3.37-1.34-6.43-2.87-9.18-1.88-3.37-4.39-6.28-6.67-8.75-4.44-4.82-15.9-9.04-21.45.76,0,0-.05-.05-.13-.13,0,0-.02-.01-.02-.02-.35,1.96-.62,3.67-.62,3.67Z"/>
        </g>
        <path class="cls-5" d="m66.76,131.42c.08.02.16.03.25.05,7.52,1.22,6.11,9.09,6.11,9.09,2.02-2.71,3.16-5.4,3.75-7.1-.74-.67-4.52-3.7-10.11-2.03Z"/>
        <path class="cls-5" d="m56.31,169.71l17.74,12.74s19.24-1.83,29.56-17.37c6.3-9.49,4.99-17.29,1.51-23.51,2.21,7.56-.55,20.09-12.62,26.33-18.44,9.53-33.54-11.57-33.54-11.57l-1.81,3.71c-.31,4.34-.84,9.67-.84,9.67Z"/>
        <path class="cls-7" d="m74.05,184.19c-.36,0-.72-.11-1.02-.33l-17.74-12.73c-.51-.36-.78-.97-.72-1.59.63-6.29,1.18-13.43,1.02-14.49-.91-5.17-1.1-20.87,9.61-24.95,5.23-1.99,9.24-.38,11.36.95,2.17-2.93,5.12-4.67,8.62-5.07,5.81-.67,11.62,2.46,14.56,5.65,5.31,5.77,16.37,17.78,5.33,34.41-10.66,16.05-30.03,18.06-30.85,18.14-.06,0-.11,0-.17,0Zm-15.91-15.31l16.37,11.74c3.31-.48,18.94-3.41,27.65-16.51,8.38-12.61,2.55-21.93-4.99-30.12-2.37-2.58-7.24-5.04-11.59-4.55-3,.35-5.38,2.02-7.06,4.99-.27.48-.75.8-1.29.87-.54.07-1.09-.11-1.47-.5-.14-.14-3.73-3.57-9.32-1.44-8.65,3.3-8.05,17.47-7.41,21.09.3,1.69-.5,10.5-.89,14.43Z"/>
        <path class="cls-1" d="m51.87,176.08c3.77,6.59,8.5,12.9,10.8,13.86,0,0,8.81-2.12,11.15-6.44,1.16-2.14-2.04-6.13-5.98-11.19-4.04-5.18-8.86-11.47-10.6-18.05,0,0-8.25,1.67-10.57,6.55-1.14,2.39,1.59,8.96,5.21,15.27Z"/>
        <g class="cls-11">
          <path class="cls-2" d="m49.36,171.35c-1.34-3.38-1.95-6.2-1.27-7.62,1.91-4.01,7.56-5.99,10.06-6.69-.36-.92-.67-1.84-.92-2.77,0,0-8.25,1.67-10.57,6.55-.85,1.79.46,5.92,2.7,10.53Z"/>
        </g>
        <path class="cls-5" d="m51.87,176.08c3.77,6.59,8.5,12.9,10.8,13.86,0,0,8.81-2.12,11.15-6.44,1.16-2.14-2.04-6.13-5.98-11.19.16,2.24-.36,4.91-2.94,6.91-4.08,3.16-9.8.26-13.03-3.14Z"/>
        <path class="cls-7" d="m62.66,191.69c-.23,0-.46-.05-.68-.14-4.15-1.75-12.79-15.13-15.96-23.47-1.44-3.79-1.74-6.34-.94-8.02,2.67-5.61,11.44-7.43,11.81-7.51.91-.18,1.79.37,2.03,1.26,1.7,6.41,6.65,12.76,10.62,17.85,4.34,5.56,7.47,9.58,5.8,12.66-2.63,4.87-11.3,7.07-12.28,7.31-.13.03-.27.05-.41.05Zm-6.61-35.32c-2.56.78-6.53,2.49-7.82,5.19-.02.05-.51,1.16,1.06,5.28,3.14,8.25,10.74,19.21,13.61,21.24,2.6-.73,7.91-2.68,9.38-5.41.58-1.07-3.07-5.76-5.49-8.85-3.84-4.93-8.55-10.97-10.74-17.45Z"/>
        <path class="cls-7" d="m72.47,139.97c1.32-2.17,2.18-4.65,2.93-7.08.85-2.42,4.35-.96,3.22,1.35-1.2,2.13-2.5,4.21-4.09,6.08-.47.54-1.21,1.56-1.99.81-.32-.32-.32-.81-.06-1.16h0Z"/>
        <path class="cls-2" d="m51.9,167.91c1.09,2.92,2.64,5.67,4.17,7.97,2.59,3.93,5.1,6.57,5.1,6.57,2.38-.48,6.73-3.57,6.73-3.57-2.1-2.69-3.95-5.3-5.49-7.58-3.04-4.51-4.82-7.72-4.82-7.72-3.9,1.5-5.69,4.33-5.69,4.33Z"/>
        <path class="cls-4" d="m56.08,175.88c2.59,3.93,5.1,6.57,5.1,6.57,2.38-.48,6.73-3.57,6.73-3.57-2.1-2.69-3.95-5.3-5.49-7.58.26,1.66.44,4.42-.84,5.63-1.4,1.33-3.66.27-5.51-1.04Z"/>
      </g>
      <path class="cls-7" d="m86.95,242.03c2.49-.58,4.56-2.2,4.79-4.88.11-2.68-3.9-3.73-5.94-4.78-.74-.44-3.83-1.46-2.8-2.82.3-.34.79-.39,1.15-.15,2.53,1.18,5.63,1.35,8.11,2.96,2.29,1.3,3.41,4.09,2.72,6.61-.66,3.62-4.1,6.24-7.66,6.53-2.29.19-2.65-3.16-.37-3.47h0Z"/>
    </g>
  </g>
</svg>