<?xml version="1.0" encoding="UTF-8"?>
<svg id="Layer_2" data-name="Layer 2" xmlns="http://www.w3.org/2000/svg" viewBox="0 0 189.61 263.18">
  <defs>
    <style>
      .cls-1 {
        fill: #03b2f9;
      }

      .cls-2 {
        fill: #fff;
      }

      .cls-3 {
        fill: #fef807;
      }

      .cls-4 {
        fill: #31c418;
      }

      .cls-5 {
        fill: #111a28;
      }

      .cls-6 {
        fill: #12fa1a;
      }

      .cls-7 {
        fill: #371a45;
      }

      .cls-8 {
        fill: #62ed2e;
      }

      .cls-9 {
        opacity: .2;
      }

      .cls-10 {
        opacity: .25;
      }

      .cls-11 {
        opacity: .35;
      }

      .cls-12 {
        opacity: .6;
      }

      .cls-13 {
        opacity: .5;
      }

      .cls-14 {
        opacity: .8;
      }

      .cls-15 {
        opacity: .7;
      }
    </style>
  </defs>
  <g id="Layer_2-2" data-name="Layer 2">
    <g>
      <g>
        <path class="cls-6" d="m185.58,131.15l-6.22-2.31-1.25-3.5-6.24-4.29-2.87,2.21-5.2,3.43h-6.44l-13.9-2.17-15.23-3.35,1.75-4.38c-.72.23-1.43.5-2.13.81-4.44,2.02-6.5,5.44-9.86,8.64-8.43,8.02-17.77-.49-27.16-1.29-10.91-.93-22,1.71-32.81-.77-1.89-.43-3.76-1.09-5.52-1.93,3.63,3.94,7.72,7.93,12.31,11.97l3.44-.58,3.39,2.23,4.52-.4c4.26-2.03,8.52-4.05,12.78-6.08,3.19.54,6.89,1.39,10.89,2.75,4.56,1.55,8.43,3.37,11.55,5.1l2.33,3.11v4.02l6.32,2.01,3.45,1.28,1.39-1.46,2.89-2.53,4.3-.71,2.62.71,3.61,1.1,1.69,5-.36,4.28,7.04,1.12h5.26l6.56.02,5.36.79,8.18.63,2.77-.11,6.25-.52,3.13-4.39,3-7.24v-8.9l-1.61-4.32Z"/>
        <path class="cls-1" d="m113.71,144.38v-4.02s-4.42-4.23-4.42-4.23c-5.47-3.76-12.33-5.87-19.8-7.23l-3.63,1.66-8.84,4.64,4.11,5.62,1.46,8.42,10.19,4.55,6.14,2,8.22-.25,4.24-3.26-1.33-1.72v-3.82s3.67-2.37,3.67-2.37Z"/>
        <polygon class="cls-3" points="100.86 149.79 103.43 147.63 105.95 141.32 104.37 139.45 97.28 136.17 90.87 137.58 88.94 139.62 89.52 143.66 93.73 147.51 100.86 149.79"/>
        <polyline class="cls-3" points="82.57 150.1 81.93 145.49 79.59 138.16 76.16 135.48 71.64 135.87 68.25 142.35 72.81 148.62 79.37 151.9"/>
        <path class="cls-3" d="m89.29,153.15c.1,2.64-1.36,4.83-3.99,6.69l-.79,1.4-2.35,2.18-3.56,1.28,6.7,1.14,6.27-3.49,1.94-4.44,1.19-3.44-5.41-1.32Z"/>
        <polygon class="cls-3" points="123.48 147.68 120.02 146.39 113.71 144.38 110.97 145.35 110.15 147.68 110.35 150.04 112.44 152.03 120.87 155.2 121.15 153.34 123.48 147.68"/>
        <polygon class="cls-1" points="130.9 167.63 133.29 167.45 135.8 164.52 137.84 160.51 138.25 159.5 139.63 154.07 139.89 148.96 138.3 144.79 135.57 144.38 130.6 148.45 128.22 154.23 127.58 160.16 128.22 165.85 130.9 167.63"/>
        <g class="cls-10">
          <ellipse class="cls-7" cx="133.61" cy="154.85" rx="10.84" ry="4.52" transform="translate(-46.91 251) rotate(-77.25)"/>
        </g>
        <path class="cls-3" d="m130.79,152.17l4.63,1.9,4.57,2.2,1.55.57,1.46-.32,2.69-.72,1.75,1.05.93,1.15.64,2.96-1.58,1.63-4.01.39-1.26-1.49-.98-1.98-12.43-3.49c.23-1.74.67-3.22,1.71-3.98"/>
        <polygon class="cls-1" points="129.43 167.45 127.51 164.05 127.61 158.96 128.47 154.88 129.76 150.84 131.35 147.9 134.69 144.48 135.57 143.98 132.06 142.98 126.51 144.37 123.18 148.1 121.15 153.34 120.87 158 122.13 163.35 126.25 166.65 129.43 167.45"/>
        <path class="cls-6" d="m67.44,133.87l-25.56-20.32c-36,2.48-47.84,40.93,3.63,53.91,15.72,13.78,24.59,9.8,29.91-3.4,9.8-.89,11.04-5,5.97-11.48l-13.94-9.6,4.24-7.77-4.24-1.34Z"/>
        <path class="cls-6" d="m115.44,153.28c-1.41,20.19-9.25,38.11-23.46,53.78,3.54,10.77,3.82,21.78,1.19,32.99,14.93,10.48,5.58,25.9-17.76,17.49-13.08-1.25-19.44-13.13-20.29-33.19-40.38-11.05-39.1-35.27-30.07-61.94l21.78,5.22c11.82,11.83,21.33,10.55,28.58-3.58l9.1,1.8c4.73-.59,7.98-5.64,11.18-10.85,6.6,1.88,12.07,1.48,15.68-2.7l4.08.99Z"/>
        <path class="cls-6" d="m84.79,159.5c-.13-2.16-.64-4.11-1.85-5.7-.64-.84-1.47-1.57-2.53-2.18l3.2-1.52,6.25,3.05-2.23,4.43-2.32,2.26-.51-.34Z"/>
        <path class="cls-6" d="m26.15,207.9l-20.31,17.04c-6.6,18.46-5.33,29.75,6.43,31.51,8.8.16,13.73-4.69,15.19-14.02,10.31-.71,19.72-3.67,27.26-11.38l-.69-6.7c-12.16-2.19-21.18-8-27.88-16.46Z"/>
        <g class="cls-10">
          <path class="cls-7" d="m113.85,160.19c-1.01,1.43-2.25,2.42-3.7,2.78-3.6.41-7.47-.39-11.39-1.39-4.04,6.3-10.01,10.03-19.38,8.17-3.92,6.65-9.97,8.45-17.43,7.04,6.81-2.5,11.75-6.53,14.22-12.59l6.42,1.65,8.98-3.49,2.92-7.16,8.71,1.26,8.17-4.16,4.08.99-1.59,6.91Z"/>
        </g>
        <g class="cls-10">
          <path class="cls-7" d="m108.46,179.01c1.26,0-9.53,12.72-13.75,15.27-2.99,1.8-7.73,4.13-7.86,3.79l5.93,8.05c6.6-7.18,11.44-16.74,15.69-27.12Z"/>
        </g>
        <g class="cls-9">
          <path d="m24.03,165.85c8.81,3.22,16.98,5.16,23.54,3.91l-21.06-7.95-2.48,4.04Z"/>
        </g>
        <g class="cls-10">
          <path class="cls-7" d="m21.99,172.7c-.47,3.62-.88,10.72,2.21,18.7,4.07,10.52,11.69,16.01,14.83,18.21,10.28,7.19,20.83,7.86,25.13,7.89-3.01,9.78.05,20.32,7.67,26.59,10.4,8.56,23.33,4.23,24,3.99,4.02,2.6,3.77,6.01,0,10.08l-5.27,2.83-15.42-1.03-17.11-12.82-4.01-22.79-10.56-3.39-16.01-11.41c-1.98-2.83-4.3-6.87-5.83-12.07-3.24-11.02-.97-20.52.35-24.78Z"/>
        </g>
        <g class="cls-10">
          <path class="cls-7" d="m49.64,222.94c-2.69,6.12-13.53,11.66-25.61,17.11,1.53,5.33-.92,10.32-5.05,15.15l-6.7,1.24-8.36-4.86-2.23-10.25,2.61-11.69c8.77-7.65,17.11-14.18,24.51-18.23l20.85,11.52Z"/>
        </g>
        <g class="cls-10">
          <path class="cls-7" d="m14.67,126.69c-3.75,17.32,9.1,26.91,32.9,31.4,7.81,9.84,18,10.63,23.38,2.6,7.61,1.38,12.32.35,12.86-4.17v4.17s-3.39,3.1-3.39,3.1l-4.99.26-1.43,6.09-9.88,5.78c-8.32.58-13.62-2.97-17.93-7.89-34.38-8.87-40.98-23.45-31.5-41.33Z"/>
        </g>
        <g class="cls-10">
          <path class="cls-7" d="m37.39,115.08c3.02,5.1,6.97,10.15,12.3,15.14.85.8.38,2.22-.78,2.36-3.27.39-7.76-.85-12.34-2.19l17.3,11.11,6.54-4.86,5.63-2.63-11.23-7.32-12.16-13.11-5.27,1.5Z"/>
        </g>
        <g class="cls-9">
          <path d="m85.3,158.87l-.79-3.66-3.09-3.87,1.3-.81,6.22,2.42c.42,2.83-1.37,4.5-3.64,5.92Z"/>
        </g>
        <g class="cls-10">
          <path class="cls-7" d="m94.24,154.9c-.78-.22-1.56-.44-2.34-.66-.27,1.21-1.06,3.94-3.47,6.38-3.13,3.16-6.89,3.71-8.03,3.83l3,1.64c1.25-.13,2.97-.49,4.72-1.5,5.03-2.92,5.97-8.73,6.11-9.68Z"/>
        </g>
        <g class="cls-10">
          <path class="cls-7" d="m81.77,149.79c-1.01-4.73-2.2-8.95-4.21-10.82-1.93.61-4.31.52-6.62.38l-2.69,3,5.96,6.12,5.61,2.87,1.95-1.55Z"/>
        </g>
        <g class="cls-10">
          <path class="cls-7" d="m103.08,139.39c.2.12.6.38.82.88.11.24.17.51.16.95-.02.99-.35,1.76-.42,1.91-1.24,2.81-1.86,4.21-2.85,4.42-.52.11-.94-.04-1.33-.19-1.74-.63-3.64-1.31-5.9-2.1-1.94-.64-3.21-2.51-3.09-4.5.12-1.86,1.43-3.47,3.26-3.99-.28-.06-2.39-.51-3.93.86-.82.73-1.08,1.61-1.17,1.91-.62,2.19.75,4.26,1.21,4.95,1.25,1.88,3.12,2.76,6.86,4.52,2.33,1.1,3.15,1.21,3.97,1.05,2.06-.4,3.22-2.41,3.31-2.57.41-.72.2-.77.74-2.26.86-2.36,1.52-2.79,1.36-3.62-.13-.67-.76-1.5-3-2.22Z"/>
        </g>
        <g class="cls-10">
          <path class="cls-7" d="m110.34,147.13l11.59,4.2c-.28,1.31-.55,3.65.63,5.86.29.55,1.06,2,1.87,1.91.9-.1,1.04-2.03,2.22-4.44.94-1.92,2.11-3.27,2.92-4.09-.66,2.31-1.32,4.62-1.99,6.93l.33,7.27,1.08,2.76-3.36-1.02-3.74-4.15-1.34-7.16-5.84-1.86-4.09-2.49s.24-3.72-.28-3.71Z"/>
        </g>
        <g class="cls-10">
          <path class="cls-7" d="m140.79,158.42c-1.2-.37-2.4-.74-3.6-1.11-.28-.05-2.08-.43-2.43-1.44-.04-.11-.12-.34-.02-.55.24-.5,1.22-.28,1.31-.51.19-.52-4.08-4.1-6.34-2.43-1.42,1.06-1.14,3.52-1.11,3.74,4.07,1.3,8.14,2.6,12.21,3.9,0-.54,0-1.08,0-1.62Z"/>
        </g>
        <g class="cls-10">
          <path class="cls-7" d="m180.62,132.09c-.24,4.57-.42,9.25-1.59,12.06-.23.55-.8.86-1.39.77l-1.83-.3c-.85-.14-1.68.4-1.88,1.24-.14.61-.23,1.2-.26,1.77-.03.71.31,1.4.92,1.78,1.92,1.21,4.01,1.8,6.38,1.42,1.12-.18,2.1-.87,2.62-1.87,1.04-2.03,1.97-4.98,2.87-8.09l-1.44,8.75-2.53,5.9-6.6,1.35-4.45-3.49-1.85-6.49,1.79-6.25,4.62-.29,4.62-8.24Z"/>
        </g>
        <g class="cls-10">
          <path class="cls-7" d="m169.35,132.73c-1.03.55-2.52,1.55-3.39,3.27-1.27,2.51-.31,4.69-1.75,6.08-1.1,1.06-2.82.92-3.86.82-17.03-1.61-22.91-3.04-22.91-3.04-7.28-1.77-11.59-3.15-16.24-5.26-1.03-.47-1.87-.88-2.45-1.17-2.26,1.21-4.52,2.42-6.78,3.62.52.48,1.9,1.89,2.28,4.15.2,1.2.04,2.22-.12,2.86,3.06.9,6.12,1.79,9.17,2.69.36-.62.98-1.51,1.99-2.34,1.64-1.34,3.33-1.69,4.27-1.87.56-.11,4.03-.73,7.48,1.17.85.47,1.53.84,2.16,1.64,1.34,1.68,1.34,3.83,1.34,5.67,0,1.17-.13,2.12-.23,2.75,1.95.32,4.04.59,6.25.76,4.75.37,9.06.24,12.8-.12,1.11.4,2.36.77,3.74,1.05,3.45.72,6.51.66,8.82.41-.6-.41-1.46-1.12-2.16-2.22-1.27-2.01-1.2-4.07-1.11-5.78.18-3.5,3.85-6.48,2.51-7.95-2.16-2.37-2.08-4.78-1.81-7.19Z"/>
        </g>
        <g class="cls-14">
          <path class="cls-2" d="m126.22,125.13c3.74,1.25,7.92,2.43,12.5,3.39,8.19,1.71,15.61,2.29,21.85,2.34,1.39-1.39,2.67-2.39,3.84-3.11,0,0,0,0,0,0,0,0,1.73-1.05,3.63-1.57.56-.15,3.21-.97,4.91-.35,3,1.09,4.78,5.45,4.56,10.75.76-.94,2.14-2.97,2.22-5.73.12-4.26-2.9-8.5-6.78-9.44-.3-.07-1.52-.35-3.13-.06-4.33.77-6.53,4.7-6.92,5.41-2.8-.08-5.72-.27-8.77-.58-9.39-.98-17.67-2.98-24.66-5.26-1.09,1.4-2.18,2.8-3.27,4.21Z"/>
        </g>
        <g class="cls-14">
          <path class="cls-2" d="m37.39,131.79c1.02,1.83,2.36,3.87,4.14,5.93,4.63,5.35,9.94,8.17,13.4,9.62,1.95-2.97,3.95-5.01,5.38-6.3.89-.8,2.31-2.06,4.44-2.7,3.1-.93,3.7-.39,3.51.63l3.42-3.76-2.48-1.56-7.71,1.56-7.6,6.29-16.49-9.7Z"/>
        </g>
        <g class="cls-14">
          <path class="cls-2" d="m65.68,145.47c1.66,3.18,3.6,4.76,5.03,5.61,2.72,1.63,4.84,1.36,8.53,3.39,1.86,1.02,3.22,2.13,4.03,2.86-.39-1.21-1.07-2.75-2.28-4.27-2.75-3.46-6.12-1.93-9.58-5.26-2.08-2-2.75-4.22-4.09-4.03-.78.11-1.31.98-1.64,1.69Z"/>
        </g>
        <g class="cls-14">
          <path class="cls-2" d="m68.68,185.4c2.97,1.7,7.1,4.57,10.91,9.19,1.6,1.94,5.05,6.22,7.01,12.78,1.22,4.09,1.4,7.21,1.4,12.15,0,4.53-.27,10.71-1.4,18.08,1.87.42,3.74.83,5.61,1.25,7.37-28.78-5.05-43.3-23.53-53.45Z"/>
        </g>
        <g class="cls-14">
          <path class="cls-2" d="m82.63,133.59c1.35-.82,3.62-1.93,6.54-2.1,1.48-.09,2.8.27,6.47,1.17,6.48,1.6,9.13,3.29,12.78,5.38,1.95,1.11,3.63,2.62,4.75,5.45,2.62-1.66-1.52-8.75-13.17-12.23-11.95-3.57-17.76.27-17.37,2.34Z"/>
        </g>
        <g class="cls-12">
          <polygon class="cls-2" points="112.44 145.2 122.42 149.09 122.83 147.69 113.93 144.45 112.44 145.2"/>
        </g>
        <g class="cls-12">
          <ellipse class="cls-2" cx="145.93" cy="158.1" rx=".89" ry="1.84" transform="translate(-58.59 224.91) rotate(-65.38)"/>
        </g>
        <g class="cls-14">
          <path class="cls-2" d="m122.01,153.65c.07-.5.62-4.29,4.09-6.39,2.63-1.6,5.28-1.22,6-1.09,2-1.89,2.98-2.91,2.88-2.96-2.27-1.21-12.91-.82-12.97,10.44Z"/>
        </g>
        <path class="cls-7" d="m45.94,169.66c.8,0,1.5-.59,1.62-1.41.13-.89-.5-1.72-1.39-1.85-23.39-3.29-35.14-17.22-34.65-29.28.39-9.72,8.96-20.59,31.84-21.95.9-.05,1.59-.83,1.54-1.73-.05-.9-.83-1.59-1.73-1.54-10.71.64-19.62,3.49-25.76,8.25-5.64,4.37-8.89,10.35-9.15,16.83-.54,13.53,12.15,29.09,37.47,32.65.08.01.15.02.23.02Z"/>
        <path class="cls-7" d="m45.15,164.05c-1.06,1.15-1.04,2.09-.43,3.23,1.28,2.66,3.18,5.01,5.52,6.82,8.17,6.49,21.22,5.32,25.89-4.76.85-1.81,1.37-3.71,1.64-5.61l-3.22-.61c-1.59,6.54-6.37,11.09-13.17,10.87-4.71-.13-9.41-2.51-12.35-6.25-.5-.63-.94-1.3-1.35-2-.19-.36-.33-.73-.71-1.01-.36-.29-.86-.54-1.82-.68h0Z"/>
        <path class="cls-7" d="m73.63,162.3c.2,1.1.96,1.57,1.86,1.93.81.34,1.66.62,2.58.76,3.96.68,7.66-3.06,7.75-6.98.17-2.55-1.28-4.92-3.23-6.4-2.3-1.69-5.32-2.55-7.58-4.11-1.23-.81-2.47-1.85-3.51-2.88-1.02-1.06-1.9-2.25-2.64-3.55l-2.87,1.56c2.4,4.65,7.09,8.07,11.84,9.88,1.62.7,3.36,1.4,4.41,2.85,1.92,2.39.63,6.13-2.09,7.37-1.2.58-2.75.26-4.03-.16-.85-.34-1.49-.55-2.51-.26h0Z"/>
        <path class="cls-7" d="m66.27,145.94c.56,0,1.1-.28,1.41-.8,1.02-1.72,2.07-3.16,2.99-4.44,1.88-2.61,3.12-4.33,2.53-6.14-.49-1.52-2.04-2.04-2.55-2.21l-.12-.03c-6.9-1.73-13.17,4.17-17.87,9.5-.6.68-.53,1.71.15,2.31.68.6,1.71.53,2.31-.15,6.04-6.85,10.53-9.48,14.56-8.51.17.06.28.11.36.15-.2.63-1.2,2.02-2.02,3.16-.91,1.26-2.04,2.84-3.14,4.68-.46.78-.21,1.78.57,2.24.26.16.55.23.84.23Z"/>
        <path class="cls-7" d="m36.19,129.85c1.47,2.55,3.5,4.49,5.72,6.31,3.68,3.07,7.75,5.79,12.38,7.23,0,0,1.07-3.09,1.07-3.09-3.72-1.49-7.29-3.43-10.7-5.57-2.81-1.72-5.31-3.64-8.47-4.88h0Z"/>
        <path class="cls-7" d="m55.13,225.99c.75,0,1.43-.52,1.6-1.29.19-.88-.37-1.75-1.25-1.95-14.86-3.23-25.4-10.08-30.5-19.8-5.52-10.54-4.83-24.36,2.06-41.09.34-.84-.05-1.79-.89-2.14-.83-.35-1.79.05-2.14.89-7.28,17.67-7.93,32.42-1.93,43.86,5.56,10.61,16.87,18.03,32.7,21.48.12.03.23.04.35.04Z"/>
        <path class="cls-7" d="m54.04,217.5c-1.71,9.19-2.49,23.78,3.24,31.7,1.37,1.89,3.29,3.53,5.05,5.03,3.58,2.99,7.67,5.4,12.08,6.96,4.43,1.54,9.17,2.2,13.83,1.95,2.45-.12,4.98-.32,7.23-1.43,2.34-1.07,4.19-2.98,5.6-5.08,3.28-4.67,2.8-10.37-1.46-14.24-4.36-4.04-10.33-5.7-16.07-6.46-1.14-.11-2.32.04-3.5,1.05.51.61,1.03.95,1.55,1.22,1.5.72,3.15.65,4.71,1.12,5.17,1.28,12.7,4.22,13.37,10.18.16,3.43-2.71,7.25-5.83,8.71-1.78.83-3.8.87-5.75.94-4.18.14-8.35-.54-12.29-1.91-4.92-1.78-9.4-4.74-13.19-8.35-3.98-3.39-5.09-8.65-5.67-13.64-.45-4.23-.37-8.57,0-12.89l-.04.26c.61-2.15-.61-4.63-2.87-5.11h0Z"/>
        <path class="cls-7" d="m53.47,228.6c-5.55,5.7-12.88,9.08-20.57,10.91-2.74.73-5.64.84-7.85,2.92,1.46.91,2.91,1.15,4.34,1.14,7.16-.52,14.37-2.54,20.32-6.73,2.39-1.7,4.56-3.76,6.27-6.14l-2.51-2.1h0Z"/>
        <path class="cls-7" d="m13.43,258.08c2.04,0,4.14-.43,6.18-1.3,5.92-2.55,9.56-8.06,9.5-14.37l-3.27.03c.06,5.94-3.84,9.74-7.52,11.33-4.21,1.81-8.75,1.22-11.58-1.52-4.61-4.45-4.58-13.89.05-25.94,6.1-6.15,12.25-12.07,20.24-17.03l-1.73-2.78c-8.39,5.21-14.76,11.37-21.07,17.75-.16.16-.28.35-.36.56-7.2,18.47-2.71,26.6.6,29.8,2.36,2.28,5.57,3.47,8.97,3.47Z"/>
        <path class="cls-7" d="m94.78,240.37c5.04-21.74,1.66-43.14-19.85-54.06-.94-.45-1.99-1.01-2.95-1.41-1.53-.73-2.79-1.27-4.54-.28.75,2.64,3.12,2.78,5.05,4.03.46.24,1.35.74,1.78,1.02,19.02,11.17,20.59,30.16,17.3,50.08,0,0,3.21.62,3.21.62h0Z"/>
        <path class="cls-7" d="m93.17,208.18c13.97-14.84,22.02-33.31,23.91-54.89l-3.26-.29c-1.85,21.12-9.38,38.43-23.03,52.93l2.38,2.24Z"/>
        <path class="cls-7" d="m159.76,131.21c2.66-.14,3.77-2.52,5.55-4.07,1.37-1.35,2.79-2.65,4.3-3.84l.32-.25c.64-.57,1.61-.71,2.35-.3,1.66.91,3.32,1.97,4.58,3.4.9,1.08,1.11,2.54,1.14,3.93.08,1.6.05,3.22-.19,4.8-.31,1.84-.82,3.9-2.4,4.96-1.55.93-3.28-.44-4.08-1.91-1.1-1.93-.98-3.95-1.85-6.13-1.53,2.14-1,4.86.06,7.09,2.27,4.6,7.5,4.8,9.76.01,1.34-2.82,1.56-5.86,1.55-8.9.1-2.34-.58-4.78-2.32-6.45-1.58-1.52-3.39-2.78-5.38-3.7-1.69-.68-3.68-.29-5.03.88-1.71,1.36-3.31,2.88-4.8,4.46-1.52,1.83-3.83,3.32-3.54,6.03h0Z"/>
        <path class="cls-7" d="m161.5,128.33c.84,0,1.66-.02,2.45-.07l-.2-3.27c-9.09.54-22.59-2.43-35.62-5.53l-.76,3.18c12.17,2.89,24.76,5.68,34.12,5.68Z"/>
        <path class="cls-7" d="m177.35,158.64c.31,0,.62-.02.93-.05,3.6-.38,6.65-2.83,8.37-6.74.02-.04.03-.07.04-.11,3.46-9.7,3.83-16.38,1.14-20.41-1.69-2.53-4.51-3.92-8.39-4.13l-.17,3.27c2.83.15,4.75,1.02,5.84,2.67,2.04,3.06,1.54,8.93-1.48,17.44-1.24,2.77-3.31,4.5-5.7,4.75-1.97.21-3.87-.66-5.08-2.33-2-2.77-1.86-7.21.39-12.16l-2.98-1.35c-2.74,6.06-2.76,11.68-.06,15.43,1.71,2.37,4.33,3.72,7.14,3.72Z"/>
        <polygon class="cls-7" points="133.62 154.97 133.62 154.97 133.62 151.7 133.62 154.97"/>
        <path class="cls-7" d="m169.51,158.1c2.12,0,4.07-.28,5.9-.83l-.68-2.24c-4.06,1.23-8.89.92-15.18-.98-.14-.04-.28-.06-.42-.05-6.03.44-12.52.08-19.31-1.08l-.39,2.3c6.89,1.17,13.5,1.55,19.65,1.12,3.93,1.17,7.36,1.75,10.42,1.75Z"/>
        <path class="cls-7" d="m131.06,168.56c2.9,0,6.14-3.51,8.17-9.02l-1.75-.65c-2,5.42-5.13,8.23-6.86,7.73-1.81-.52-2.93-4.73-1.59-10.62.1-.45.22-.92.37-1.46.26-.9.56-1.77.89-2.58,2.1-5.17,4.95-7.46,6.57-7,1.64.47,2.77,4.12,1.84,9.4-.06.35-.13.71-.22,1.13l1.82.41c.1-.45.18-.86.24-1.23,1.07-6.02-.2-10.65-3.16-11.51-2.96-.86-6.51,2.39-8.82,8.09-.35.87-.68,1.8-.96,2.77-.17.58-.29,1.09-.4,1.57-1.49,6.51-.27,11.91,2.89,12.83.31.09.63.13.96.13Z"/>
        <path class="cls-7" d="m130.31,168.46l.11-1.87c-1.19-.07-3.99-.24-5.96-2.29-3.07-3.21-3.28-9.25-1.7-13.23,1.32-3.33,3.38-5.63,5.97-6.66,2.42-.96,5.25-.78,7.99.51l.79-1.69c-3.21-1.51-6.58-1.7-9.48-.55-3.08,1.22-5.51,3.89-7.02,7.7-1.8,4.53-1.51,11.46,2.08,15.21,2.47,2.59,5.9,2.79,7.2,2.87Z"/>
        <path class="cls-7" d="m120.59,156.07l.66-1.75-8.47-3.17c-.69-.26-1.24-.77-1.55-1.45-.31-.67-.33-1.43-.07-2.12l.19-.49c.54-1.42,2.13-2.14,3.55-1.61l8.27,3.07.65-1.75-8.27-3.07c-2.38-.88-5.05.33-5.95,2.7l-.19.49c-.44,1.16-.4,2.42.11,3.55.51,1.13,1.43,1.99,2.6,2.43l8.47,3.17Z"/>
        <path class="cls-7" d="m103.85,157.46c.75,0,1.51-.14,2.22-.42,2.94-1.14,5.13-2.76,6.51-4.81l-1.55-1.05c-1.16,1.72-3.06,3.11-5.64,4.11-.6.23-1.26.33-1.9.27-5.55-.49-13.11-3.56-19.08-6.19-.92-.4-1.95-.37-2.84.1l-2.42,1.28.87,1.65,2.42-1.28c.38-.2.82-.21,1.21-.04,6.48,2.85,13.88,5.83,19.67,6.34.17.02.35.02.52.02Z"/>
        <path class="cls-7" d="m114.63,144.51c.32-2.34.36-5.3-2.26-7.37-6.11-4.57-13.52-7.62-22.02-9.1-1.25-.22-2.51.06-3.55.77-4.35,2.99-9.98,6.36-15.02,5.81l-.2,1.86c5.64.62,11.67-2.95,16.28-6.12.63-.44,1.4-.6,2.17-.47,8.21,1.43,15.35,4.37,21.2,8.74,1.48,1.18,1.94,2.81,1.54,5.63l1.85.26Z"/>
        <path class="cls-7" d="m83.51,150.13c.19-7.79-2.13-13.08-6.89-15.74l-.91,1.63c4.11,2.29,6.11,7.02,5.93,14.06l1.87.05Z"/>
        <path class="cls-7" d="m83.87,166.78c1.35,0,2.6-.24,3.76-.73,3.57-1.5,6.25-5.3,7.97-11.31l-1.8-.51c-1.56,5.44-3.88,8.84-6.89,10.1-2.78,1.16-6.33.59-10.57-1.72l-.89,1.64c3.1,1.68,5.92,2.53,8.42,2.53Z"/>
        <path class="cls-7" d="m83.96,161.62l.46-.07c.11-.02.22-.05.32-.11,2.69-1.48,4.7-4.38,6-8.6l-1.79-.55c-1.12,3.66-2.8,6.16-4.97,7.43l-.29.04.27,1.85Z"/>
        <path class="cls-7" d="m140.24,159.43c0-2.67,2.18-4.85,4.85-4.85s4.85,2.18,4.85,4.85-2.18,4.85-4.85,4.85-4.85-2.18-4.85-4.85Zm1.87,0c0,1.64,1.34,2.98,2.98,2.98s2.98-1.34,2.98-2.98-1.34-2.98-2.98-2.98-2.98,1.34-2.98,2.98Z"/>
        <rect class="cls-7" x="134.86" y="147.35" width="1.87" height="13.76" transform="translate(-58.49 221.18) rotate(-67.65)"/>
        <rect class="cls-7" x="133.75" y="151.07" width="1.87" height="13.85" transform="translate(-57.88 235.6) rotate(-71.5)"/>
        <path class="cls-7" d="m99.49,150.73l-6.01-2.36c-2.56-1-4.56-3.06-5.49-5.65-.92-2.57.21-5.45,2.69-6.73,2.55-1.31,5.53-1.41,8.16-.27l6,2.6c.84.36,1.48,1.03,1.81,1.88.33.85.31,1.78-.07,2.61l-1.19,2.65s0,0,0,0l-1.57,3.49c-.56,1.25-1.79,2-3.09,2-.41,0-.83-.08-1.24-.24Zm5.38-8.67c.17-.37.18-.79.03-1.17-.15-.38-.44-.68-.81-.85l-6-2.6c-2.12-.92-4.51-.84-6.61.24-1.6.82-2.34,2.72-1.74,4.41.75,2.08,2.36,3.74,4.41,4.54l6.01,2.36c.76.3,1.61-.05,1.94-.79l1.57-3.49,1.18-2.64Z"/>
      </g>
      <g>
        <g>
          <path class="cls-8" d="m38.71,117.56c9.14,5.97,19.64,10.27,29.77,12.6l16.48,3.68c22.91,2.71,37.7-5.35,46.57-17.85,10.3-14.53,12.62-35.04,10.39-51.62C136.9,27.04,105.26-2.7,67.92,2.33,30.58,7.36,7.95,44.41,12.98,81.75c2,14.87,12.4,27.11,25.73,35.81Z"/>
          <path class="cls-4" d="m38.71,117.56c9.14,5.97,19.64,10.27,29.77,12.6l16.48,3.68c22.91,2.71,37.7-5.35,46.57-17.85-5.47,4.29-15.91,10.53-31.55,11.94-17.81,1.6-43.01-2.45-61.27-10.37Z"/>
          <g class="cls-15">
            <path class="cls-2" d="m38.31,25.19c-.92,1.52-1.19,2.93-.65,4.02,1.51,3.05,8.83,2.5,16.34-1.22,7.51-3.73,12.37-9.22,10.85-12.28-.76-1.52-2.95-2.15-5.9-1.94,3.32-1.06,6.8-1.84,10.4-2.33,35.62-4.8,66.05,22.05,73.14,56.96-.07-1.33-.19-2.67-.37-4.02C137.1,27.04,105.46-2.7,68.12,2.33,30.79,7.36,8.15,44.42,13.18,81.75c.18,1.35.42,2.68.71,3.98-1.59-23.55,7.65-46.4,24.43-60.54Z"/>
          </g>
          <path class="cls-7" d="m68.29,131c-23.89-4.39-50.8-20.59-56.48-45.74C5.34,51.78,23.24,13.53,56.95,3.03c44.81-14.2,85.5,23.63,87.42,67.88,1.15,20.83-4.36,44.73-22.52,57.22-7.6,5.21-16.83,7.67-25.94,7.92-3.76.07-7.5.17-11.08-1.36-.84-.36-.61-1.63.27-1.7,3.57-.52,7.11-.29,10.69-.41,4.52-.17,9.04-.88,13.32-2.25,15.81-4.74,25.95-19.39,29.52-35.01,3.71-15.75,2.94-32.81-2.89-47.96C127.24,24.71,106.5,6.03,81.93,3.78,47.28.3,19.45,26.96,14.82,60.32c-.9,6.03-1.03,12.17-.44,18.23.68,10.06,5.4,19.34,12.34,26.69,11.23,11.93,26.35,19.48,41.96,24.08,1.03.29.68,1.86-.39,1.68h0Z"/>
          <path class="cls-7" d="m140.23,54.65c3.97,4.22,7.71,16.04,1.95,29.61-5.76,13.57-18.89,16.36-23.31,11.24-3.39-3.94-6.47-15.21-.7-28.78,5.76-13.57,18-16.4,22.06-12.07Z"/>
          <g class="cls-13">
            <path class="cls-2" d="m116.25,89.42c-.44-4.98.25-11.12,3.1-17.83,5.76-13.57,18-16.4,22.06-12.07,1.34,1.43,2.66,3.72,3.59,6.66-.55-5.81-2.63-10.32-4.78-12.6-4.07-4.32-16.3-1.49-22.07,12.07-4.13,9.72-3.72,18.26-1.91,23.77Z"/>
          </g>
          <g class="cls-11">
            <path class="cls-5" d="m118.87,95.5c4.42,5.13,17.55,2.33,23.31-11.24,4.21-9.92,3.35-18.91,1.02-24.67.14,4.48-.65,9.61-2.95,15.02-5.76,13.57-18.89,16.37-23.31,11.24-.7-.81-1.39-1.94-1.99-3.34.14,6.1,1.98,10.74,3.91,12.99Z"/>
          </g>
          <path class="cls-7" d="m57.81,71.4c-3.19,5.54-3.24,18.06,8.8,28.37,12.04,10.31,28.9,7.62,32.29,1.06,2.6-5.04,2.05-16.78-9.99-27.09-12.04-10.31-27.83-8.01-31.1-2.34Z"/>
          <g class="cls-13">
            <path class="cls-2" d="m56.79,83.95c0-3.12.73-5.81,1.81-7.69,3.27-5.67,19.06-7.98,31.1,2.34,5.97,5.11,9.12,10.58,10.45,15.4.09-5.86-2.64-13.97-11.25-21.34-12.04-10.31-27.83-8.01-31.1-2.34-1.72,2.99-2.53,8.01-1.01,13.63Z"/>
          </g>
          <g class="cls-11">
            <path class="cls-5" d="m66.61,99.77c12.04,10.31,28.89,7.62,32.28,1.06,1.48-2.88,1.94-7.94-.18-13.68-.19,1.54-.6,2.88-1.13,3.92-3.39,6.56-20.25,9.26-32.28-1.05-4.8-4.11-7.68-8.57-9.21-12.81-.62,6.31,1.72,15.03,10.52,22.57Z"/>
          </g>
          <path class="cls-7" d="m124.9,99.62c-3.05,0-5.65-1.05-7.34-3-3.62-4.2-7.09-16.21-.99-30.57,4.02-9.48,11.03-13.85,16.24-14.78,3.59-.64,6.75.16,8.67,2.2h0c4.17,4.43,8.47,16.89,2.28,31.46-3.99,9.41-11.2,13.66-16.62,14.51-.77.12-1.52.18-2.25.18Zm10.25-45.12c-.55,0-1.13.05-1.74.16-4.32.77-10.19,4.52-13.67,12.73-5.69,13.41-2.17,23.97.42,26.98,1.27,1.47,3.68,2.1,6.45,1.67,4.5-.7,10.53-4.34,13.98-12.45,5.25-12.37,2.21-23.68-1.62-27.76-.81-.87-2.18-1.33-3.82-1.33Z"/>
          <path class="cls-7" d="m85.18,108.35c-6.07,0-13.42-1.9-19.7-7.27-13.06-11.18-12.56-24.67-9.17-30.54h0c1.51-2.62,4.95-4.56,9.43-5.33,8.27-1.42,17.34,1.28,24.28,7.22,12.87,11.02,13.21,23.75,10.4,29.19-1.56,3.02-5.28,5.3-10.2,6.26-1.52.3-3.23.47-5.04.47Zm-25.88-36.09c-3.04,5.28-2.44,16.9,8.43,26.21,7.22,6.19,16.02,7.17,21.84,6.04,3.82-.75,6.74-2.42,7.8-4.46,2.33-4.5,1.78-15.27-9.58-24.99-7.26-6.22-15.85-7.41-21.46-6.44-3.37.58-6.06,1.98-7.03,3.66h0Z"/>
          <ellipse class="cls-7" cx="111.66" cy="99.81" rx="1.88" ry="1.05" transform="translate(-19.74 171.66) rotate(-70.46)"/>
          <path class="cls-7" d="m109.01,99.77c.67.79.86,1.73.43,2.11-.44.37-1.34.04-2.02-.75-.67-.79-.86-1.73-.43-2.11.44-.37,1.34-.04,2.02.75Z"/>
          <path class="cls-8" d="m84.34,49.94l-8.35,5.93c-1.29-3.19-2.59-5.76-3.87-7.81-5.16-8.24-10.15-8.13-13.84-5.9-5.03,3.04-4.92,12.19-4.92,12.19,4.86,4.46-.31,9.66-4.81,9.14-3.9-.45-6.24-6.31-1.61-9.89-.11-1.83-.36-17.79,10.19-20.78,10.4-2.94,18.18,3.8,22.7,9.67,2.9,3.77,4.46,7.19,4.52,7.45Z"/>
          <g class="cls-13">
            <path class="cls-2" d="m82.86,47.03c-.17-.23-.35-.47-.53-.7-4.78-6.21-12.94-13.11-23.99-10.22-9.14,2.39-8.8,16.99-8.68,18.93-3,1.94-4.08,5.08-4.46,6.21-1.34-2.14-1.23-5.36,1.73-7.65-.11-1.83-.36-17.79,10.19-20.78,10.4-2.94,18.18,3.8,22.7,9.67,1.28,1.66,2.3,3.26,3.04,4.54Z"/>
          </g>
          <path class="cls-4" d="m84.34,49.94s-.33,2.8-3.2,4.59c-2.88,1.78-5.14,1.35-5.14,1.35-1.29-3.19-2.59-5.76-3.87-7.81,3.22.4,7.95.09,7.7-5.57,2.9,3.77,4.46,7.19,4.52,7.45Z"/>
          <path class="cls-7" d="m83.49,50.12c-5.1-9.6-15.92-20.41-27.75-14.83-5.48,3.21-6.74,10.54-7.07,16.48-.13,1.11.31,2.44-.68,3.19-1.34,1.02-2.16,2.53-1.82,4.17.29,1.45,1.44,2.71,2.98,2.67,2.16.03,4.93-1.9,4.34-4.23-.19-.75-.72-1.39-1.31-1.95-.36-.34-.55-.79-.56-1.25.02-4.53.9-9.44,4.38-12.7,4.07-3.51,9.57-3.07,13.27.62,3.71,3.64,5.8,8.52,7.5,13.25.35,1.03-1.13,1.63-1.6.65-2.37-4.8-5.95-12.33-11.47-13.62-6.58-.8-8.4,6.42-8.64,11.75,0,0-.56-1.25-.56-1.25,5.46,4.81,1.2,12.09-5.38,12.16-3.07.1-5.82-2.49-6.34-5.44-.65-2.85.83-5.92,3.08-7.57,0,0-.66,1.47-.66,1.47-.17-2.72.02-5.24.46-7.89.94-5.29,3.25-11,8.39-13.67,4.94-2.43,11.09-2.21,15.99.17,4.8,2.29,8.51,6.21,11.45,10.5,1.4,2.12,2.69,4.33,3.61,6.7.52,1.2-1.25,1.87-1.61.61h0Z"/>
          <path class="cls-8" d="m170.87,30.95c-2.61,3.21-7.42.8-8.24-3.2-1.12-1.17-23.54-15.9-31.53,6-.93,2.55-1.66,5.59-2.14,9.21l-9.3-1c-.08-.28.58-4.5,2.73-9.6,2.59-6.16,7.35-13.59,15.58-16.87,12.64-5.05,27.32,6.63,28.66,7.57,3.82.11,7.52,3.87,4.24,7.89Z"/>
          <path class="cls-8" d="m170.87,30.95c-2.61,3.21-7.42.8-8.24-3.2-1.12-1.17-23.54-15.9-31.53,6-.93,2.55-1.66,5.59-2.14,9.21l-9.3-1c-.08-.28.58-4.5,2.73-9.6,2.59-6.16,7.35-13.59,15.58-16.87,12.64-5.05,27.32,6.63,28.66,7.57,3.82.11,7.52,3.87,4.24,7.89Z"/>
          <g class="cls-13">
            <path class="cls-2" d="m172.11,28.18c-1.08-.83-4.45-3.02-6.43-1.97-1.44-1.02-14.74-13-28.37-7.56-7.9,3.15-12.83,9.84-15.79,15.96.26-.72.55-1.48.88-2.25,2.59-6.16,7.35-13.59,15.58-16.87,12.64-5.05,27.32,6.63,28.66,7.57,2.92.08,5.76,2.29,5.49,5.13Z"/>
          </g>
          <path class="cls-4" d="m131.1,33.75c-.93,2.55-1.66,5.59-2.14,9.21,0,0-2.43,1.76-5.35,1.4-2.93-.36-3.95-2.4-3.95-2.4-.08-.28.58-4.5,2.73-9.6.68,3.72,3.21,6.33,8.72,1.39Z"/>
          <path class="cls-7" d="m118.84,42.22c-.08-.41-.04-.32-.04-.58,0-.15.05-.66.08-.83,1.22-7.88,4.52-15.6,10.17-21.35,11.78-11.95,26.84-6.87,38.58,2.18,0,0-.94-.31-.94-.31,3.7.05,7.6,3.08,7.14,7.09-.52,4.12-4.65,7.05-8.54,5.15-2.26-1.04-3.83-3.11-4.33-5.48l.45.85s.01.02.02.03c0,0-.02-.01-.03-.02-.04-.04-.3-.21-.35-.25-5.8-3.6-13.54-6.79-20.27-4.27-7.1,2.92-9.65,11.53-10.95,18.65-.2,1.06-1.79.86-1.71-.23.38-4.03,1.13-8.09,2.8-11.95,5.62-13.3,19.23-12.85,30.13-6.36.92.56,1.86,1.14,2.67,1.85.3.26.55.61.61,1,.36,2.28,3.58,4.71,5.31,2.33.8-1.05,1.08-2.11.37-3.21-.65-.99-2.09-1.72-3.42-1.75-.63.03-1.31-.58-1.79-.91-6.88-4.72-15.33-9.12-23.86-7.44-6.17,1.44-11.18,5.97-14.55,11.25-2.73,4.28-4.8,9.13-5.84,14.12,0,0-.01.08-.01.08-.01,0,.02.06-.04-.16.32,1.08-1.29,1.59-1.65.51h0Z"/>
        </g>
        <ellipse class="cls-7" cx="104.36" cy="109.86" rx="5.26" ry="2.78" transform="translate(-19.86 196.64) rotate(-81.41)"/>
      </g>
    </g>
  </g>
</svg>