<?xml version="1.0" encoding="UTF-8"?>
<svg id="Layer_2" data-name="Layer 2" xmlns="http://www.w3.org/2000/svg" viewBox="0 0 173.99 53.75">
  <defs>
    <style>
      .cls-1 {
        fill: #ff3b3b;
      }

      .cls-2 {
        fill: #fff;
      }

      .cls-3 {
        fill: #31c418;
      }

      .cls-4 {
        fill: #d62d2d;
      }

      .cls-5 {
        fill: #371a45;
      }

      .cls-6 {
        fill: #62ed2e;
      }

      .cls-7 {
        opacity: .5;
      }

      .cls-8 {
        opacity: .7;
      }
    </style>
  </defs>
  <g id="Layer_2-2" data-name="Layer 2">
    <g>
      <rect class="cls-6" x="2.55" y="16.7" width="112.32" height="27.02"/>
      <rect class="cls-3" x="2.55" y="26.06" width="107.77" height="16.69"/>
      <path class="cls-5" d="m117.32,45.26H0V13.23h117.32v32.02ZM5,40.26h107.32v-22.02H5v22.02Z"/>
      <g>
        <path class="cls-1" d="m157.11,50.99c-.71.25-1.44.46-2.2.62-9.63,2.08-12.93-4.63-12.93-4.63,0,0-4.79-.19-6.42-.23-2.85-.08-5.26-.74-7.29-1.76-8.14-4.06-10.24-13.74-10.25-14.19l-.17-7.49c-2.07-8.38,16.12-18.89,16.12-18.89,0,0,2.08-1.35,4.93-2.14,3.39-.94,7.88-1.07,11.26,2.81.02,0,.05-.02.07-.02,12.81-4.77,18.32,4.2,20.68,10.94,3.68,10.49-.17,30.19-13.8,34.98Z"/>
        <g class="cls-7">
          <path class="cls-2" d="m164.42,18.24s6.17,15.37-5.99,24.42c0,0,6.83-11.87,5.99-24.42Z"/>
        </g>
        <g class="cls-8">
          <path class="cls-2" d="m148.49,24.18c2.98-1.1,8.36-18.28-9.6-21.9,3.39-.94,7.88-1.07,11.26,2.81.02,0,.05-.02.07-.02.61.73,1.2,1.56,1.74,2.5,7.33,12.8-3.17,16.5-3.48,16.61Z"/>
        </g>
        <path class="cls-4" d="m157.11,50.99c-.71.25-1.44.46-2.2.62-9.63,2.08-12.93-4.63-12.93-4.63,0,0-4.79-.19-6.42-.23-2.85-.08-5.26-.74-7.29-1.76,1.28-.65,3.3-2.32,4.58-6.58,1.99-6.63-2.83-10.98,3.68-18.54-2.48-5.62,3.18-6.68,3.18-6.68,0,0,1.9-2.01,3.97-.24,2.58,2.21.24,8.02,4.14,11.35,4.52.31,7.22-6.21,6.59-10,1.59,3.13,3.26,4.2-1.26,10.98-6.9,10.35-3.92,22.85,3.97,25.71Z"/>
        <g class="cls-8">
          <path class="cls-2" d="m154.91,51.61c-1.41.31-2.69.42-3.84.4,17-5.4,20.57-22.6,16.16-35.63-1.82-5.38-6.73-11.9-14.69-12.05,11.18-2.92,16.16,5.35,18.38,11.68,3.87,11.04-.59,32.26-16,35.6Z"/>
        </g>
        <path class="cls-5" d="m118.96,38.16c-1.93-3.38-2.68-6.48-2.7-7.32-.02-.96.74-1.76,1.71-1.78.92-.02,1.69.68,1.78,1.58.1.54,3.02,14.01,15.86,14.37,1.62.04,6.25.23,6.44.23.64.03,1.21.41,1.5.97.11.21,2.91,5.45,11,3.69,6.3-1.36,10.01-5.93,12.03-9.53,4.46-7.97,4.73-18,2.7-23.79-1.81-5.17-4.42-8.58-7.75-10.14-2.95-1.38-6.57-1.29-10.75.28-.68.26-1.45.06-1.93-.49-5.15-5.92-13.57-.58-13.93-.35-.02.02-.05.03-.08.05-4.43,2.56-16.74,11.17-15.3,16.96.23.93-.34,1.88-1.27,2.11-.94.23-1.88-.34-2.11-1.27-2.31-9.33,14.74-19.55,16.9-20.8,3.72-2.4,11.89-5.25,17.58.14,4.65-1.52,8.8-1.45,12.36.21,4.21,1.97,7.43,6.06,9.57,12.15,2.71,7.74,1.5,18.7-2.95,26.65-3.39,6.05-8.34,9.93-14.33,11.23-7.74,1.68-12.44-1.89-14.31-4.63-1.48-.06-4.3-.16-5.46-.19-8.72-.24-13.81-5.56-16.54-10.33Zm.78-7.49s0,.06,0,.1c0-.02,0-.05,0-.1Z"/>
        <path class="cls-5" d="m136.08,19.12l3.63-3.07,1-.84c.49-.41,1.22-.35,1.63.14.41.49.35,1.22-.14,1.63,1.01,2.42,3.15,6.53,6.23,5.39,7.01-2.3,4.24-11.94.38-16.15-.63-.73-.55-1.83.18-2.46.73-.63,1.83-.55,2.46.19,2.04,2.38,3.55,5.18,4.31,8.25,1.31,4.9-.01,10.85-5.08,13.04-4.86,2.37-8.56-.7-10.77-4.9-.39-.73-.69-1.38-1-2.18l2.5.93s-4.48,1.54-4.49,1.54c-.92.32-1.6-.9-.86-1.52h0Z"/>
        <path class="cls-5" d="m140.4,47.74c-3.12-7.72-2.93-17.6,3.25-23.76.77-.78,1.99.29,1.31,1.16-2.45,2.88-3.77,6.55-3.83,10.32-.07,3.69.82,7.48,2.42,10.8,1.03,2.16-2.13,3.67-3.15,1.49h0Z"/>
        <path class="cls-5" d="m138.85,17.8c.07-1.51.1-3.16-.07-4.64-.09-.5.25-.98.76-1.04.37-.05.72.15.89.46.82,1.58,1.35,3.13,1.9,4.8.66,2.71-3.45,3.22-3.47.43h0Z"/>
        <path class="cls-1" d="m126.46,44.16c-6.77,3.95-12.65-.53-12.65-.53-2.45-2.62-3.56-16.56-2.36-25.22.11-.8.24-1.56.4-2.26.44-2.05,1.08-3.6,1.9-4.3,4.13-3.52,12.37-1.55,12.37-1.55-.28,1.27-.52,2.55-.72,3.84-.76,4.66-1.1,9.36-1.14,13.63-.07,7.81.89,14.21,2.21,16.39Z"/>
        <g class="cls-8">
          <path class="cls-2" d="m125.4,14.15c-1.59-.74-3.71-1.37-6.35-1.37-3.85,0-6.03,1.84-7.2,3.38.44-2.05,1.08-3.6,1.9-4.3,4.13-3.52,12.37-1.55,12.37-1.55-.28,1.27-.52,2.55-.72,3.84Z"/>
        </g>
        <path class="cls-4" d="m126.46,44.16c-6.77,3.95-12.65-.53-12.65-.53-2.45-2.62-3.56-16.56-2.36-25.22-.21,3.55.45,7.77,3.49,11.5,4.44,5.46,7.62,1.43,9.32-2.14-.07,7.81.89,14.21,2.21,16.39Z"/>
        <path class="cls-5" d="m111.89,43.91c-2.34-4.09-2.93-14.91-2.55-21.58.36-6.28,1.46-10.25,3.28-11.81,4.75-4.05,13.54-2.01,13.91-1.92.92.22,1.5,1.14,1.3,2.07-3.15,14.56-1.67,29.6.13,32.59.24.4.31.88.2,1.33s-.41.84-.81,1.08c-7.69,4.48-14.31-.44-14.59-.65-.08-.06-.15-.12-.22-.2-.23-.25-.45-.55-.65-.91Zm1.93-.28h0s0,0,0,0Zm0,0h0s0,0,0,0Zm10.24-31.93c-2.67-.36-6.92-.44-9.18,1.48-.6.51-1.71,3.05-2.06,9.35-.49,8.69.77,17.97,2.18,19.8.77.52,4.6,2.87,9.21,1-1.99-5.84-2.46-19.5-.15-31.63Z"/>
      </g>
    </g>
  </g>
</svg>