<?xml version="1.0" encoding="UTF-8"?>
<svg id="Layer_2" data-name="Layer 2" xmlns="http://www.w3.org/2000/svg" viewBox="0 0 286.18 244.56">
  <defs>
    <style>
      .cls-1 {
        fill: #f90000;
      }

      .cls-2 {
        fill: #ffa300;
      }

      .cls-3 {
        fill: #fff;
      }

      .cls-4 {
        fill: #ffd939;
      }

      .cls-5 {
        fill: #e8e8e8;
      }

      .cls-6 {
        fill: #ffce00;
      }

      .cls-7 {
        fill: #c42d2d;
      }

      .cls-8 {
        fill: #31c418;
      }

      .cls-9 {
        fill: #c9c9c9;
      }

      .cls-10 {
        fill: #d6d6d6;
      }

      .cls-11 {
        fill: #e23d3d;
      }

      .cls-12 {
        fill: #111a28;
      }

      .cls-13 {
        fill: #371a45;
      }

      .cls-14 {
        fill: #62ed2e;
      }

      .cls-15 {
        fill: #2bc614;
      }

      .cls-16 {
        opacity: .35;
      }

      .cls-17 {
        opacity: .5;
      }

      .cls-18 {
        opacity: .7;
      }
    </style>
  </defs>
  <g id="Layer_2-2" data-name="Layer 2">
    <g>
      <path class="cls-1" d="m209.06,142.04c2.28,2.53,4.09,5.42,5.68,8.43.55,1.01,1.05,2.04,1.59,3.06.27.68,1.06,1.03,1.73.68.53-.28.77-.9.59-1.46-.41-2.2-1.31-6.88.6-8.42.44-.23.68-.22,1.43.05,2.2.94,4.25,2.52,6.15,4.02.97.81,2.43-.31,1.9-1.45-.56-1.27-1.04-2.71-1.35-4.11-1.02-4.52.02-8.03,5.25-7.93,0,0,0-2.45,0-2.45-7.5.23-5.95-7.32-3.9-12.04.27-.62,0-1.35-.63-1.62-.44-.19-.92-.11-1.27.17-1.28,1.04-2.66,2.06-4.06,2.92-1,.53-2.51,1.69-3.51,1.14-.98-.61-1.12-2.38-1.15-3.59-.02-1.58.21-3.27.55-4.83.17-.65-.22-1.32-.88-1.49-.6-.16-1.2.17-1.44.71-.54,1.02-1.04,2.06-1.57,3.07-1.61,3-3.36,5.95-5.71,8.43-.48.5.12,1.3.73.98,4.37-2.4,7.01-7.02,8.8-11.51,0,0-2.32-.78-2.32-.78-.62,3.36-1.64,8.87,1.75,11.12,2.02,1.24,4.34-.16,6.03-1.18,1.54-.96,2.94-1.99,4.33-3.12l-1.89-1.46c-1.83,4.36-3.65,11.04,1.07,14.25,1.54.99,3.32,1.24,5.06,1.26.68.02,1.24-.52,1.26-1.2.02-.7-.56-1.27-1.26-1.26-1.74.02-3.52.27-5.06,1.26-4.72,3.22-2.9,9.88-1.07,14.25,0,0,1.89-1.46,1.89-1.46-2.15-1.7-4.25-3.33-6.83-4.42-.69-.28-1.81-.53-2.66-.25-4.41,1.49-3.3,7.97-2.63,11.49,0,0,2.32-.78,2.32-.78-1.31-3.42-3.16-6.69-5.76-9.3-.89-.87-1.89-1.65-3.04-2.2-.31-.15-.68-.02-.83.29-.12.24-.06.52.12.71h0Z"/>
      <path class="cls-14" d="m97.6,133.49s8.25.09,17.52,3.59c12.69,4.79,17.66,3.82,19.4,1.53,2.74-3.61.65-12.37.65-12.37,0,0-4.85-2.59-5.12-8.44-.18-4.04,1.31-10.19,6.34-13.7,4.76-3.32,19.65-7.19,25.58,2.87,6.92,11.73,6.83,50.19-12.5,57.6-26,9.97-50.49-7.84-50.49-7.84"/>
      <g class="cls-18">
        <path class="cls-3" d="m130.05,117.8c.02.31.04.62.09.92.4-3.8,2.15-8.43,6.26-11.3,4.76-3.32,19.65-7.19,25.58,2.87,2.42,4.1,3.98,11.46,4.16,19.61.22-9.44-1.42-18.28-4.16-22.93-5.94-10.06-20.82-6.19-25.58-2.87-5.03,3.51-6.52,9.66-6.34,13.7Z"/>
      </g>
      <path class="cls-13" d="m132.75,169.27c5.51,0,11.36-.89,17.31-3.17,6.45-2.47,11.47-8.39,14.51-17.11,5.28-15.12,3.61-34.72-1.19-42.84-2.08-3.53-5.43-5.89-9.66-6.81-7.02-1.53-14.9,1.09-18.26,3.43-5.52,3.85-7.24,10.55-7.04,15.12.24,5.37,3.78,8.35,5.3,9.39.66,3.19,1.04,8.33-.5,10.36-.81,1.06-4.13,2.99-17.52-2.07-9.43-3.56-17.73-3.69-18.08-3.69h-.02c-.89,0-1.62.72-1.63,1.62-.01.9.71,1.64,1.61,1.65.08,0,8.1.14,16.96,3.48,11.52,4.35,18.48,4.67,21.28.99,3.12-4.1,1.17-12.76.93-13.73-.11-.45-.41-.84-.82-1.06-.16-.09-4.04-2.26-4.25-7.07-.17-3.74,1.21-9.2,5.64-12.29,2.79-1.95,9.71-4.22,15.7-2.92,3.37.73,5.91,2.51,7.54,5.28,4.42,7.49,5.75,26.24.92,40.11-1.89,5.43-5.62,12.46-12.59,15.14-24.84,9.53-48.71-7.46-48.95-7.63-.73-.53-1.75-.37-2.28.36-.53.73-.37,1.75.36,2.28.8.58,15.71,11.21,34.73,11.21Z"/>
      <path class="cls-14" d="m81.77,194.66s15.82,12.56,24.62,25.11c6.11,8.72,11.86,19.04,15.02,21.77,2.06,1.78,11.27,1.04,18.94,1.04,7.1,0,9.29,0,11.01-2.21.92-1.19,1.76-3.27,1.42-5.46-.15-.96-.53-1.95-1.22-2.89-2.5-3.4-6.77-4.07-6.77-4.07,0,0-6.6-16.72-16.67-32.3-4.14-6.41-8.86-12.63-13.96-17.41l-32.38,16.42Z"/>
      <path class="cls-8" d="m81.77,194.66s15.82,12.56,24.62,25.11c6.11,8.72,11.86,19.04,15.02,21.77,2.06,1.78,11.27,1.04,18.94,1.04,7.1,0,9.29,0,11.01-2.21.92-1.19,1.76-3.27,1.42-5.46-1.07,1.1-3.7,3.22-7.99,3.22-6.92,0-19.18,1.26-22.19-3.56-4.34-6.96-10.58-15.52-6.25-20.26,3.69-4.04,10.31-9.18,11.77-18.65-4.14-6.41-8.86-12.63-13.96-17.41l-32.38,16.42Z"/>
      <path class="cls-13" d="m129.8,244.36c1.55,0,3.26-.03,5.15-.07,1.79-.04,3.65-.08,5.4-.08,7.34,0,10.08,0,12.29-2.84,1.93-2.49,2.83-6.78.23-10.32-2.13-2.9-5.32-4.08-6.89-4.5-2.17-5.31-14.47-34.24-30.71-49.5-.66-.62-1.69-.59-2.31.07-.62.66-.59,1.69.07,2.31,17,15.98,30.1,48.79,30.23,49.12.21.54.69.92,1.27,1.01.03,0,3.66.63,5.71,3.42,1.84,2.51.69,5.27-.17,6.38-1.19,1.53-2.71,1.58-9.71,1.58-1.78,0-3.65.04-5.47.08-4.5.09-11.29.24-12.4-.72-1.79-1.54-4.83-6.3-8.06-11.33-2.05-3.19-4.36-6.81-6.69-10.13-8.83-12.6-24.29-24.94-24.94-25.45-.71-.56-1.74-.44-2.3.26-.56.71-.44,1.74.26,2.3.16.12,15.75,12.57,24.3,24.77,2.29,3.27,4.49,6.7,6.62,10.02,3.65,5.69,6.53,10.19,8.67,12.04,1.48,1.28,4.64,1.59,9.46,1.59Z"/>
      <path class="cls-6" d="m159.8,131.71s-9.11-.55-9.11,5.05v5.18s-8.61,11.98-6.02,23.89h15.77s-2.61-16.29,5.37-20.91c7.99-4.61-6.01-13.22-6.01-13.22Z"/>
      <path class="cls-13" d="m143.07,166.18c-2.46-11.31,4.4-22.38,5.98-24.75v-4.67c0-1.65.62-3.11,1.79-4.21,2.94-2.76,8.44-2.52,9.06-2.48.27.02.53.1.76.24.95.59,9.32,5.89,9.25,11.16-.02,1.37-.6,3.32-3.28,4.87-5.74,3.31-5.25,15.01-4.58,19.23.08.47-.06.95-.37,1.32-.31.36-.77.57-1.24.57h-15.77c-.77,0-1.43-.54-1.6-1.29Zm21.92-22.67c1.63-.94,1.64-1.8,1.64-2.08.03-2.36-4.15-6.06-7.33-8.1-1.51-.03-4.75.22-6.22,1.61-.52.49-.76,1.07-.76,1.83v5.18c0,.34-.11.68-.31.95-.08.11-7.53,10.68-5.98,21.3h12.56c-.45-4.66-.81-16.53,6.4-20.69Z"/>
      <polygon class="cls-5" points="210.43 135.51 181.27 137.17 181.27 130.41 210.43 132.07 210.43 135.51"/>
      <polygon class="cls-9" points="181.27 130.41 181.27 130.74 181.29 130.41 181.27 130.41"/>
      <polygon class="cls-9" points="210.3 133.8 181.27 133.68 181.27 137.17 210.43 135.51 210.43 132.07 210.4 132.07 210.3 133.8"/>
      <polygon class="cls-9" points="181.09 133.68 181.27 133.68 181.27 130.74 181.09 133.68"/>
      <path class="cls-13" d="m180.15,138.36c-.33-.31-.51-.74-.51-1.19v-6.76c0-.45.19-.88.51-1.19.33-.31.76-.47,1.22-.44l29.16,1.66c.87.05,1.54.77,1.54,1.63v3.44c0,.87-.68,1.58-1.54,1.63l-29.16,1.66s-.06,0-.09,0c-.42,0-.82-.16-1.12-.45Zm28.65-4.74l-25.89-1.47v3.3s25.89-1.47,25.89-1.47v-.35Z"/>
      <circle class="cls-6" cx="208.96" cy="133.79" r="5.12"/>
      <path class="cls-2" d="m203.84,133.79c0,2.83,2.29,5.12,5.12,5.12s5.12-2.29,5.12-5.12c0-.12,0-.24-.02-.36-.79.51-1.74.81-2.75.81-2.71,0-4.92-2.1-5.11-4.77-1.43.91-2.37,2.51-2.37,4.32Z"/>
      <path class="cls-13" d="m202.21,133.79c0-3.73,3.03-6.76,6.76-6.76s6.76,3.03,6.76,6.76-3.03,6.76-6.76,6.76c-3.73,0-6.76-3.03-6.76-6.76Zm3.27,0c0,1.92,1.56,3.49,3.49,3.49s3.49-1.56,3.49-3.49c0-1.92-1.56-3.49-3.49-3.49s-3.49,1.56-3.49,3.49Z"/>
      <path class="cls-11" d="m183.53,145.76c-5.63.37-11.11.37-16.74,0-4.17-.27-7.42-3.72-7.42-7.9v-8.14c0-4.18,3.25-7.62,7.42-7.9,5.63-.37,11.11-.37,16.74,0,4.17.27,7.42,3.72,7.42,7.9,0,2.71,0,5.42,0,8.14,0,4.18-3.25,7.62-7.42,7.9Z"/>
      <g class="cls-18">
        <path class="cls-3" d="m159.37,129.73v3.47c0-4.18,3.25-7.62,7.43-7.9,5.63-.37,11.1-.37,16.74,0,4.17.27,7.42,3.71,7.42,7.9v-3.47c0-4.18-3.25-7.62-7.42-7.9-5.64-.37-11.11-.37-16.74,0-4.17.27-7.43,3.71-7.43,7.9Z"/>
      </g>
      <path class="cls-7" d="m159.37,129.73v8.13c0,4.18,3.25,7.62,7.43,7.9,5.63.37,11.1.37,16.74,0,4.17-.27,7.42-3.71,7.42-7.9v-8.13c0-.09,0-.19,0-.28-.15,4.05-3.34,7.34-7.42,7.61-5.64.37-11.11.37-16.74,0-4.07-.27-7.27-3.56-7.42-7.61,0,.09,0,.19,0,.28Z"/>
      <path class="cls-7" d="m170.2,137.23c.6,1.04,1.45,1.95,2.33,2.84.74.74,1.64.72,2.54.12,1.02-.69,1.86-1.71,2.46-2.88-.47.01-.94.02-1.41.02-.32.18-.69.31-1.07.37-.54.09-.67-.05-.59-.37-.45,0-.9,0-1.35-.01.02.13.03.27.04.4-.61-.07-1.14-.22-1.57-.44-.45-.01-.91-.03-1.37-.05Z"/>
      <path class="cls-13" d="m166.69,147.39c-5.02-.33-8.95-4.52-8.95-9.53v-8.14c0-5.01,3.93-9.2,8.95-9.53,5.7-.38,11.25-.38,16.95,0,5.02.33,8.95,4.51,8.95,9.53v8.14c0,5.01-3.93,9.2-8.95,9.53h0c-2.85.19-5.66.28-8.48.28s-5.63-.09-8.48-.28Zm16.74-3.26c3.31-.22,5.9-2.97,5.9-6.26v-8.14c0-3.3-2.59-6.05-5.9-6.26-5.56-.37-10.97-.37-16.53,0-3.31.22-5.9,2.97-5.9,6.26v8.14c0,3.3,2.59,6.05,5.9,6.26,5.56.37,10.97.37,16.53,0h0Z"/>
      <path class="cls-14" d="m56.01,196.94c7.16,14.25,21.12,16.04,35.1,16.83,12.51.7,30.57-6.3,34.13-19.96,1.47-5.62,1.34-11,.27-16.08-1.83-8.69-6.41-16.52-10.53-23.27-1.99-3.26-3.86-6.26-5.27-9l-29.13-19.21c-23.52,2.27-21.88,10.33-21.88,10.33-10.7,28.38-7.85,50.1-2.69,60.36Z"/>
      <path class="cls-8" d="m68.32,168.23s35.16,9.06,57.19,9.5c-1.83-8.69-6.41-16.52-10.53-23.27l-42.47,7.94-4.19,5.84Z"/>
      <path class="cls-8" d="m56.01,196.94c7.16,14.25,21.12,16.04,35.1,16.83,12.51.7,30.58-6.3,34.13-19.96,1.42-5.44,1.35-10.64.38-15.57-.18,1.53-.46,3.07-.87,4.64-3.56,13.65-21.62,20.66-34.13,19.96-13.97-.78-27.93-2.57-35.1-16.83-1.8-3.58-3.32-8.55-4.08-14.72-.29,11.35,1.81,20.14,4.57,25.64Z"/>
      <path class="cls-13" d="m92.76,215.44c12.5,0,30.35-7,34.06-21.23,4.3-16.5-4.3-30.55-11.2-41.85-1.68-2.74-3.26-5.33-4.46-7.66-.41-.8-1.4-1.12-2.2-.7-.8.41-1.12,1.4-.7,2.2,1.26,2.44,2.87,5.08,4.57,7.87,6.58,10.77,14.77,24.17,10.83,39.32-3.4,13.04-21.36,19.36-32.46,18.74-13.95-.78-27.02-2.58-33.73-15.93-5.14-10.23-7.51-31.84,2.76-59.05.13-.33.17-.56.07-.9h0s-.06-.84.89-2.01c1.47-1.82,5.96-5.06,19.55-6.37.9-.09,1.56-.89,1.47-1.78-.09-.9-.89-1.56-1.78-1.47-11.57,1.12-18.97,3.77-22.01,7.87-1.2,1.63-1.38,3.08-1.37,3.85-10.48,28.01-8.17,50.04-2.49,61.34,7.48,14.89,22.12,16.92,36.47,17.72.57.03,1.15.05,1.75.05Z"/>
      <path class="cls-13" d="m92.76,215.44c12.5,0,30.35-7,34.06-21.23,4.3-16.5-4.3-30.55-11.2-41.85-1.68-2.74-3.26-5.33-4.46-7.66-.41-.8-1.4-1.12-2.2-.7-.8.41-1.12,1.4-.7,2.2,1.26,2.44,2.87,5.08,4.57,7.87,6.58,10.77,14.77,24.17,10.83,39.32-3.4,13.04-21.36,19.36-32.46,18.74-13.95-.78-27.02-2.58-33.73-15.93-5.14-10.23-7.51-31.84,2.76-59.05.13-.33.17-.56.07-.9h0s-.06-.84.89-2.01c1.47-1.82,5.96-5.06,19.55-6.37.9-.09,1.56-.89,1.47-1.78-.09-.9-.89-1.56-1.78-1.47-11.57,1.12-18.97,3.77-22.01,7.87-1.2,1.63-1.38,3.08-1.37,3.85-10.48,28.01-8.17,50.04-2.49,61.34,7.48,14.89,22.12,16.92,36.47,17.72.57.03,1.15.05,1.75.05Z"/>
      <g>
        <path class="cls-14" d="m93.67,185.09c1.19-4.12,5.05-6.63,8.63-5.6,3.58,1.03,5.51,5.21,4.32,9.33-1.19,4.12-5.05,6.63-8.63,5.6"/>
        <path class="cls-15" d="m106.62,188.82c-1.19,4.13-5.06,6.63-8.63,5.6,0,0-2.12-.61-3.46-3.5-1.35-2.9-.86-5.83-.86-5.83.39-1.34,1.05-2.51,1.9-3.44-1.6,3.77-.68,7.81,2.2,9.27,3.04,1.54,7.12-.4,9.12-4.34.03-.05.05-.11.08-.16,0,.79-.11,1.6-.35,2.41Z"/>
        <g class="cls-18">
          <path class="cls-3" d="m106.62,188.82c-.29,1.01-.74,1.92-1.31,2.7.85-3.92-1.07-7.75-4.47-8.73-2.57-.74-5.29.34-7.05,2.55l-.12-.25c1.19-4.12,5.05-6.63,8.63-5.6,3.57,1.03,5.51,5.21,4.32,9.33Z"/>
        </g>
        <path class="cls-13" d="m94.45,185.32c1.8-4.63,8.05-6.75,10.39-1.45,1.86,4.25-1.55,10.43-6.63,9.77-.46-.08-.9.23-.96.7-.13,1.21,2.07,1.28,2.94,1.35,6.26-.09,10.1-7.54,7.65-13.08-2.2-5.43-9.15-6.45-12.9-2.02-.78.76-3.18,4.89-1.4,5.23.39.07.77-.15.91-.5h0Z"/>
        <path class="cls-13" d="m102.22,189.3c-.23.02-.63-1.02-1.79-2.26-1.66.42-2.55,1.09-2.73.95-.18-.14.38-1.25,1.96-1.82-1.02-1.33-.9-2.56-.67-2.57.23-.01.63,1.02,1.79,2.26,1.66-.42,2.55-1.09,2.73-.95.18.14-.37,1.26-1.96,1.81,1.02,1.32.9,2.56.67,2.57Z"/>
      </g>
      <path class="cls-5" d="m198.75,133.79c0,.12,0,.23,0,.35.18,5.46,4.67,9.83,10.17,9.83v-20.36c-5.62,0-10.18,4.56-10.18,10.18Z"/>
      <g class="cls-18">
        <path class="cls-3" d="m198.75,133.79c0,.12,0,.23,0,.35.02.45.06.9.13,1.34.8-4.82,4.99-8.49,10.04-8.49v-3.38c-5.62,0-10.18,4.56-10.18,10.18Z"/>
      </g>
      <path class="cls-9" d="m198.76,134.14c.18,5.46,4.67,9.83,10.17,9.83v-9.96c-.79.4-2.66,1.22-4.88,1.22-2.01,0-4.14-.67-5.29-1.09Z"/>
      <path class="cls-13" d="m197.12,133.79c0-6.51,5.3-11.82,11.82-11.82.9,0,1.63.73,1.63,1.63v20.36c0,.9-.73,1.63-1.63,1.63-6.51,0-11.82-5.3-11.82-11.82Zm3.27,0c0,4.15,2.98,7.62,6.91,8.39v-16.78c-3.93.76-6.91,4.24-6.91,8.39Z"/>
      <rect class="cls-6" x="186.92" y="122.21" width="7.22" height="23.17" rx="2.91" ry="2.91" transform="translate(381.05 267.58) rotate(-180)"/>
      <g class="cls-18">
        <path class="cls-3" d="m186.92,125.03v3.6c0-1.56,1.26-2.82,2.82-2.82h1.57c1.56,0,2.82,1.27,2.82,2.82v-3.6c0-1.56-1.26-2.82-2.82-2.82h-1.57c-1.56,0-2.82,1.26-2.82,2.82Z"/>
      </g>
      <path class="cls-2" d="m186.92,134.35v8.21c0,1.56,1.26,2.82,2.82,2.82h1.57c1.56,0,2.82-1.26,2.82-2.82v-8.21c0,1.56-1.26,2.82-2.82,2.82h-1.57c-1.56,0-2.82-1.26-2.82-2.82Z"/>
      <path class="cls-13" d="m185.28,142.55v-17.52c0-2.46,2-4.46,4.46-4.46h1.57c2.46,0,4.46,2,4.46,4.46v17.52c0,2.46-2,4.46-4.46,4.46h-1.57c-2.46,0-4.46-2-4.46-4.46Zm4.46-18.71c-.66,0-1.19.53-1.19,1.19v17.52c0,.66.53,1.19,1.19,1.19h1.57c.66,0,1.19-.53,1.19-1.19v-17.52c0-.66-.53-1.19-1.19-1.19h-1.57Z"/>
      <path class="cls-14" d="m55.4,237.01c.48,5.15,6.15,5.71,6.15,5.71h16.48s7.26.74,7.93-3.45c.48-3.02,1.52-17.25,2.06-24.97.21-3.01.35-5.03.35-5.03l-28.89-11.75c-.21,3.63-.35,7.11-.43,10.34-.33,12.5.13,21.35.13,21.35,0,0-4.27,2.51-3.78,7.81Z"/>
      <path class="cls-8" d="m55.4,237.01c.48,5.15,6.15,5.71,6.15,5.71h16.48s7.26.74,7.93-3.45c.48-3.02,1.52-17.25,2.06-24.97.21-3.01.35-5.03.35-5.03l-.33-.13c0,.07-.01.13-.02.2-.54,7.73-1.59,21.95-2.06,24.97-.67,4.2-7.93,3.45-7.93,3.45h-16.48s-4.45-.45-5.8-4.13c-.31.96-.47,2.09-.36,3.38Z"/>
      <path class="cls-8" d="m59.05,207.85c8.9-5.69,25.11,3.98,28.97,6.45.21-3.01.35-5.03.35-5.03l-14.25-6.37-14.64-5.38c-.21,3.63-.35,7.11-.43,10.34Z"/>
      <path class="cls-13" d="m87.55,209.21c-1.33,8.08-1.97,16.41-2.71,24.56-.16,1.62-.32,3.29-.53,4.83-.1.7-.15.82-.5,1.25-1.44,1.22-3.87,1.2-5.78,1.08-2.75-.03-5.49,0-8.24-.01h-8.24s.18.02.18.02c-.06,0-.24-.04-.38-.07-5.56-.97-5.34-7.46-1.35-10.26.47-.36.83-.91.81-1.49-.12-7.86-.53-15.77-.52-23.65,0-2.63-.02-5.27,0-7.91,0-.45-.36-.83-.81-.83-.43,0-.78.32-.82.74-.55,5.28-.95,10.57-1.15,15.87-.2,5.32-.37,10.61.03,15.95,0,0,.82-1.51.8-1.49-5.94,3.51-6.72,13.27.32,15.98.95.38,1.84.66,2.88.74,0,0,8.24,0,8.24,0,2.75,0,5.49.02,8.24-.01,2.49.22,7.88-.19,9.3-3.8.7-2.27.6-4.4.87-6.64,0,0,.38-4.95.38-4.95.48-6.6.78-13.19.61-19.81-.04-.98-1.46-1.09-1.63-.11h0Z"/>
      <g>
        <path class="cls-14" d="m6.74,91.05C-9.91,49.1,16.48,10.66,51.86,3.32c39.12-8.12,74,13.67,82.71,61.46,5.5,30.2-13.2,72.79-43.26,77.22-29.26,4.31-69.67-13.39-84.57-50.95Z"/>
        <g class="cls-17">
          <path class="cls-3" d="m6.73,91.05c3.05,7.68,7.16,14.53,12.03,20.53-3.31-4.78-6.16-10.03-8.43-15.73C-6.31,53.89,20.08,15.46,55.46,8.11c25.65-5.32,49.48,2.21,65.3,21.5C105.09,6.8,79.53-2.42,51.85,3.32,16.48,10.66-9.91,49.1,6.73,91.05Z"/>
        </g>
        <path class="cls-8" d="m28.67,121.81c18.57,16.12,43.09,23.06,62.63,20.19,16.83-2.48,30.1-16.92,37.55-34.44-9.48,14.64-22.77,25.56-38.6,27.9-18.92,2.79-41.62-1.89-61.58-13.64Z"/>
        <path class="cls-13" d="m42.85,133.65c-17.29-9.5-30.65-24.41-37.63-42h0c-7.73-19.47-6.85-39.73,2.48-57.03C16.74,17.84,33.12,5.54,51.52,1.72c19.6-4.07,37.87-.89,52.84,9.2,16.45,11.08,27.45,29.6,31.81,53.56,3.38,18.56-2.28,42.08-14.08,58.54-8.44,11.77-19,18.89-30.56,20.59-2.98.44-6.06.66-9.19.66-12.96,0-26.92-3.7-39.5-10.61ZM52.19,4.92c-17.47,3.63-33.03,15.31-41.61,31.25C1.72,52.61.89,71.89,8.26,90.44h0c14.39,36.25,54.18,54.15,82.81,49.93,13.46-1.98,22.86-11.57,28.38-19.26,11.32-15.78,16.75-38.31,13.52-56.05-4.2-23.07-14.72-40.86-30.42-51.44-10.19-6.87-22.01-10.36-34.78-10.36-5.05,0-10.26.55-15.56,1.65ZM6.73,91.05h0,0Z"/>
        <path class="cls-13" d="m125,58.3c4.49,4.2,9.27,16.45,4.1,31.2-5.17,14.75-18.87,18.62-23.9,13.49-3.86-3.93-7.89-15.65-2.72-30.41,5.17-14.75,17.92-18.59,22.52-14.29Z"/>
        <g class="cls-18">
          <path class="cls-3" d="m102.09,97.88c-.81-5.24-.5-11.79,2.05-19.08,5.17-14.75,17.92-18.59,22.52-14.29,1.52,1.42,3.07,3.76,4.26,6.8-.98-6.11-3.49-10.74-5.92-13.01-4.6-4.3-17.36-.46-22.52,14.29-3.7,10.57-2.68,19.58-.39,25.29Z"/>
        </g>
        <g class="cls-16">
          <path class="cls-12" d="m105.2,103c5.03,5.12,18.74,1.26,23.9-13.49,3.78-10.79,2.24-20.24-.61-26.18.45,4.74-.03,10.22-2.09,16.1-5.16,14.75-18.87,18.62-23.9,13.49-.8-.81-1.6-1.96-2.33-3.4.57,6.44,2.83,11.23,5.03,13.48Z"/>
        </g>
        <path class="cls-13" d="m38.92,81.68c-3,6.08-2.19,19.34,11.26,29.43,13.45,10.09,31.11,6.08,34.24-1.1,2.41-5.51,1.02-17.9-12.43-27.99-13.45-10.09-30-6.56-33.07-.34Z"/>
        <g class="cls-18">
          <path class="cls-3" d="m38.78,96.17c-.2-3.31.38-6.2,1.39-8.26,3.07-6.23,19.62-9.75,33.07.34,6.67,5,10.38,10.57,12.12,15.58-.31-6.21-3.76-14.6-13.38-21.82-13.45-10.08-30.01-6.56-33.07-.34-1.62,3.28-2.13,8.65-.14,14.49Z"/>
        </g>
        <g class="cls-16">
          <path class="cls-12" d="m50.18,111.06c13.45,10.08,31.1,6.08,34.24-1.1,1.37-3.15,1.51-8.54-1.13-14.47-.1,1.65-.43,3.09-.93,4.22-3.14,7.18-20.79,11.19-34.24,1.1-5.36-4.02-8.72-8.55-10.62-12.92-.23,6.72,2.85,15.79,12.69,23.16Z"/>
        </g>
        <path class="cls-13" d="m104.03,104.14c-4.09-4.16-8.54-16.55-3.1-32.09,3.58-10.23,10.63-15.3,16.04-16.63,3.69-.91,7.02-.29,9.15,1.69,4.68,4.37,10.05,17.18,4.53,32.94-3.56,10.16-10.83,15.12-16.45,16.37-1.11.25-2.18.37-3.21.37-2.81,0-5.25-.91-6.95-2.64Zm19.85-44.65c-1.28-1.19-3.57-1.53-6.13-.9-4.57,1.13-10.58,5.54-13.73,14.54-4.95,14.14-1.19,25.12,2.35,28.72,1.49,1.52,4.15,2.04,7.11,1.37,4.76-1.06,10.96-5.37,14.08-14.26,4.74-13.54.7-25.38-3.67-29.47h0Z"/>
        <path class="cls-13" d="m49.2,112.42c-14.5-10.87-14.9-25.06-11.75-31.46h0c1.39-2.82,4.85-5.08,9.49-6.19,8.6-2.06,18.33.17,26.03,5.94,14.29,10.71,15.53,24.06,12.95,29.95-1.42,3.25-5.15,5.88-10.23,7.22-2.13.56-4.61.9-7.3.9-5.97,0-12.94-1.68-19.19-6.37Zm-1.5-34.47c-3.58.86-6.38,2.56-7.32,4.46-2.89,5.86-1.45,18.23,10.78,27.4,8.12,6.09,17.56,6.54,23.69,4.92,4.05-1.07,7.07-3.08,8.07-5.37,2.18-4.98.86-16.44-11.91-26.03-5.9-4.42-12.36-6-17.72-6-2.06,0-3.95.23-5.59.62Z"/>
        <path class="cls-13" d="m96.81,106.82c-.3,1.06-.07,2.05.52,2.22.59.17,1.31-.56,1.61-1.62.3-1.06.07-2.05-.52-2.22s-1.31.56-1.61,1.62Z"/>
        <path class="cls-13" d="m95.07,107.26c.77.79,1.03,1.78.6,2.2-.44.43-1.42.13-2.19-.66s-1.03-1.78-.6-2.2c.44-.43,1.42-.13,2.19.66Z"/>
        <path class="cls-14" d="m64.63,54.74l-8.43,6.85c-1.58-3.28-3.14-5.92-4.64-8-6.03-8.37-11.31-7.91-15.06-5.3-5.11,3.56-4.37,13.24-4.37,13.24,5.45,4.38.33,10.25-4.47,10-4.16-.21-7.04-6.24-2.39-10.35-.24-1.93-1.6-18.8,9.35-22.69,10.81-3.83,19.5,2.77,24.69,8.67,3.33,3.79,5.22,7.3,5.3,7.57Z"/>
        <g class="cls-17">
          <path class="cls-3" d="m62.87,51.77c-.2-.23-.41-.47-.61-.71-5.48-6.24-14.6-12.98-26.09-9.17-9.5,3.16-8.14,18.59-7.89,20.63-3.04,2.26-3.96,5.66-4.3,6.88-1.56-2.17-1.67-5.59,1.31-8.22-.24-1.93-1.6-18.8,9.35-22.69,10.81-3.83,19.5,2.77,24.69,8.67,1.47,1.67,2.65,3.29,3.53,4.6Z"/>
        </g>
        <path class="cls-8" d="m64.63,54.74s-.15,2.99-3.08,5.08c-2.92,2.09-5.35,1.78-5.35,1.78-1.58-3.28-3.14-5.92-4.64-8,3.44.2,8.42-.45,7.77-6.42,3.33,3.79,5.22,7.3,5.3,7.57Z"/>
        <path class="cls-13" d="m65.42,54.52c-.11-.34-.34-.76-.5-1.08-3.79-6.85-9.27-13.17-16.69-16.2-4.63-1.89-10.04-1.94-14.73-.09-9.28,3.86-10.78,15.42-9.84,24.24,0,.01.54-1.43.54-1.43-1.04.93-1.97,2.12-2.48,3.54-1.41,3.62.55,8.21,4.35,9.39,7.5,1.89,14.02-7.28,7.09-12.63,0,0,.61,1.15.61,1.15,0-3.87.36-8.13,2.85-11.03,2.75-2.85,6.69-2.88,9.76-.4,3.99,3.06,6.63,7.56,9.08,11.97.49.91,1.88.25,1.47-.71-2.16-4.86-4.68-9.86-8.86-13.43-4.99-4.45-12.49-3.23-15.65,2.76-1.79,3.52-2.16,7.25-1.91,11.09.04.46.27.87.61,1.15.68.57,1.31,1.25,1.58,2.06.83,2.55-2.06,4.91-4.48,5.03-2.67.23-4.36-2.96-3.43-5.28.29-.82.86-1.57,1.58-2.21.41-.37.59-.92.54-1.43-.1-1.17-.13-2.49-.11-3.75.19-5.82,1.3-12.82,6.45-16.21,11.88-6.58,23.94,3.43,30.18,13.27.08.14.34.53.41.69,0,0,.02.03.02.03,0,.01-.01-.03,0-.04.12.43.58.69,1.01.56.43-.12.69-.58.56-1.01h0Z"/>
        <path class="cls-14" d="m155.32,27.37c-2.54,3.58-7.79,1.36-8.94-2.82-1.27-1.16-26-15.21-32.95,8.52-.81,2.76-1.37,6.03-1.63,9.9l-9.91-.42c-.11-.29.3-4.8,2.22-10.35,2.32-6.7,6.85-14.88,15.33-18.93,13.03-6.21,29.37,5.14,30.85,6.04,4.05-.15,8.23,3.58,5.03,8.06Z"/>
        <path class="cls-14" d="m155.32,27.37c-2.54,3.58-7.79,1.36-8.94-2.82-1.27-1.16-26-15.21-32.95,8.52-.81,2.76-1.37,6.03-1.63,9.9l-9.91-.42c-.11-.29.3-4.8,2.22-10.35,2.32-6.7,6.85-14.88,15.33-18.93,13.03-6.21,29.37,5.14,30.85,6.04,4.05-.15,8.23,3.58,5.03,8.06Z"/>
        <g class="cls-17">
          <path class="cls-3" d="m156.44,24.36c-1.2-.8-4.92-2.89-6.95-1.65-1.6-.98-16.49-12.75-30.55-6.05-8.14,3.88-12.9,11.3-15.62,17.98.23-.78.48-1.6.77-2.44,2.32-6.7,6.85-14.88,15.33-18.93,13.03-6.21,29.37,5.14,30.85,6.04,3.09-.11,6.26,2.03,6.16,5.05Z"/>
        </g>
        <path class="cls-8" d="m113.43,33.07c-.81,2.76-1.37,6.03-1.63,9.9,0,0-2.45,2.03-5.57,1.85-3.12-.18-4.34-2.27-4.34-2.27-.11-.29.3-4.8,2.22-10.35.98,3.89,3.84,6.48,9.32.87Z"/>
        <path class="cls-13" d="m102.65,42.26c1.58-9.75,6.62-21.8,16.32-26.89,8.58-4.7,18.81-1.13,26.84,3.19,1.2.65,2.47,1.43,3.63,2.14.28.18.6.25.91.24,1.47-.07,3.1.62,3.9,1.69.88,1.16.66,2.43-.16,3.64-1.76,2.78-5.56.39-6.13-2.16-.09-.39-.34-.69-.64-.92-.91-.69-1.93-1.23-2.93-1.75-11.88-6.07-26.23-5.65-31.23,8.68-1.51,4.17-2.02,8.51-2.18,12.79-.02.45.33.83.79.85.43.02.8-.31.84-.73.84-7.67,2.96-17.01,10.32-20.64,6.97-3.18,15.47-.37,21.93,3.12,0,0,.29.17.29.17l.11.07.04.02s-.01-.01-.02-.02l-.47-.78c.68,2.42,2.45,4.45,4.84,5.38,4.09,1.71,8.19-1.63,8.43-5.87.2-4.16-4.03-7.01-7.85-6.81l.91.24c-12.91-8.68-29.22-13.04-40.75.3-5.68,6.58-8.72,15.17-9.35,23.75,0,0,0,.3,0,.3v.17c0,1.32,1.96,1.17,1.61-.18h0Z"/>
      </g>
      <path class="cls-13" d="m100.71,116.21c-3.2-3.17-9.12-4.34-12.46-.7-.7.64-3.09,4.3-1.69,4.65.25.07.51-.03.66-.23.79-1.08,1.61-2.06,2.53-2.81,2.99-2.5,7.04-1.31,10.29.1.62.28,1.16-.56.67-1.01h0Z"/>
      <path class="cls-14" d="m52.77,159l14.57,8.64.98.58s56.97,4.37,80.73-.87c16.92,4.77,17.72-5.61,17.4-9.82-.08-1.01-.22-1.67-.22-1.67,0,0,9.66,1.75,8.54-6.74-.78-5.89-18.97-9.22-20.56-10.31-1.59-1.08.14-6.42.14-6.42-10.49-10.2-11.97,6.58-11.97,6.58-13.21,2.12-80.22-.76-80.22-.76,0,0-6.25,2.28-9.39,20.78Z"/>
      <path class="cls-8" d="m67.34,167.65l.98.58s56.97,4.37,80.73-.87c16.92,4.77,17.72-5.61,17.4-9.82-.5,2.22-2.29,6.32-8.7,6.39-8.8.09-11.54-7.55-11.54-7.55,0,0-13.51,11.42-78.87,11.26Z"/>
      <path class="cls-13" d="m68.24,169.24c13.44,1.6,26.96,2.26,40.48,2.34,13.62-.07,27.19.03,40.68-2.63,0,0-.8-.02-.8-.02,4.52,1.2,9.72,2.18,14.16,0,4.25-2.05,5.75-7.16,5.31-11.54-.05-.62-.11-1.17-.25-1.86l-1.89,1.96c6.32,1.05,11.85-2.16,10.3-9.24-1.82-5.63-12.55-8.08-17.59-9.68-1.17-.36-2.48-.67-3.53-1.1,0,.01.07.03.1.07.04.06.04.06.05.06,0,0,0,0,0,.01v-.05c-.31-1.28.26-3.32.65-4.68.19-.6,0-1.23-.43-1.64-1.94-1.84-4.52-3.94-7.58-3.73-5.21.7-6.57,7-7.15,11.34l1.37-1.47c-1.46.19-3.38.37-4.84.43-4.94.29-10,.32-14.95.32-20.03-.05-40.09-.74-60.11-1.53-.35-.03-.68.1-.97.25-1.94,1.06-3.33,2.88-4.47,4.71-3.16,5.24-4.54,11.24-5.63,17.18-.32,2.18,2.82,2.71,3.22.55,1.01-5.47,2.3-11.21,5.19-16.01.84-1.34,1.83-2.72,3.19-3.53,0,0-.03.01-.04.02l-.63.1c21.76.84,43.51,1.65,65.29,1.51,5.02-.06,10.27-.13,15.26-.77.77-.08,1.33-.73,1.37-1.47.16-1.43.47-2.99.94-4.38,1.83-5.54,4.63-4.65,8.26-1.18,0,0-.42-1.68-.42-1.68-.3.98-.52,1.88-.7,2.88-.29,1.64-.52,4.47,1.4,5.53,1.38.67,2.83.96,4.25,1.4,4.94,1.52,10.33,2.78,14.3,5.97,1.23,1.02,1.25,2.1,1.13,3.51-.19,2.23-2.29,3.1-4.33,3.18-.72.05-1.64,0-2.33-.1-.9-.15-1.75.46-1.9,1.36.7,5.05.05,10.4-5.98,11.18-3.07.41-6.11-.22-9.14-1.02-.26-.07-.54-.08-.8-.02-6.42,1.37-13.14,1.85-19.81,2.18-13.21.67-27.05.16-40.3-.18-6.73-.18-13.46-.41-20.2-.55-1.2-.03-1.48,1.83-.15,2.04h0Z"/>
      <g>
        <path class="cls-14" d="m136.07,116.53s-1.69,3.86-.69,10.78"/>
        <path class="cls-13" d="m135.32,116.2c-1.58,3.59-1.79,7.5-1.55,11.35.19,2.15,3.36,1.96,3.27-.21-.35-1.79-.68-3.58-.72-5.41-.05-1.69.06-3.56.53-5.15.27-.96-1.1-1.47-1.52-.58h0Z"/>
      </g>
      <path class="cls-14" d="m138.95,116.53c-.37,1.24-5.16,4.26-4.76-1.44"/>
      <path class="cls-13" d="m138.95,116.53c-.52.43-1.13.62-1.72.84-.76.22-1.33.43-1.87.07-.61-.58-.75-1.46-1.16-2.35-1.67,2.87,1.03,5.55,3.69,3.38.55-.49,1.12-1.16,1.07-1.94h0Z"/>
      <path class="cls-3" d="m172.53,140.07c.73.74,1.64.72,2.54.12,2.63-1.78,4.09-5.75,3.22-8.77-.66-2.28-2.58-3.62-4.8-3.37-2.36.27-3.94,1.92-4.1,4.32-.03.4,0,.81,0,1.18-.29,2.84,1.38,4.72,3.15,6.52Zm2.02-3c.6-1.4,1.64-2.25,3.24-2.51-.11,1.7-1.22,2.89-2.74,3.14-.67.11-.71-.14-.5-.63Zm-4.64-2.5c2.1.48,3.2,1.57,3.23,3.15-2-.24-3.08-1.26-3.23-3.15Z"/>
      <path class="cls-10" d="m170.2,137.23c.6,1.04,1.45,1.95,2.33,2.84.74.74,1.64.72,2.54.12,1.02-.69,1.86-1.71,2.46-2.88-.47.01-.94.02-1.41.02-.32.18-.69.31-1.07.37-.54.09-.67-.05-.59-.37-.45,0-.9,0-1.35-.01.02.13.03.27.04.4-.61-.07-1.14-.22-1.57-.44-.45-.01-.91-.03-1.37-.05Z"/>
      <g>
        <path class="cls-13" d="m72.96,61.15c-1.01,1.45-1.98,2.96-2.36,4.72-.08.32-.03.87.16,1.12,1.33,1.75,3.33,2.4,5.29,3.1.35.12.58-.4.26-.58-.82-.54-2.81-1.76-3.55-2.35-.38-.28-.7-.6-.85-.85,0,0,0,0,0,0,0,0,0,0-.02,0,.01-.07,0-.12.02-.23.23-1.23,1.23-3.37,1.68-4.57.17-.38-.39-.7-.63-.35h0Z"/>
        <path class="cls-13" d="m68.91,60.36c-.46,1.31-.96,3.65-1.7,4.8-.25.09-.73.15-1.21.12-.94,0-3.27-.31-4.24-.4-.18-.02-.34.1-.36.28-.02.15.07.28.2.33.92.37,1.86.67,2.84.86,1.24.19,3.28.72,4.05-.72.81-1.61,1.01-3.4,1.14-5.16.02-.42-.6-.52-.71-.12h0Z"/>
        <path class="cls-13" d="m64.23,72.09c1.23-.65,3.18-2.04,4.5-2.38.25.1.64.39.98.73.69.63,2.2,2.44,2.85,3.17.12.14.32.16.46.04.11-.1.14-.25.08-.38-.43-.9-.92-1.75-1.51-2.56-.79-.98-1.93-2.74-3.47-2.21-1.68.64-3.04,1.81-4.33,3.03-.31.29.09.8.44.57h0Z"/>
      </g>
      <g class="cls-18">
        <path class="cls-4" d="m283.11,84.43s-23.1,19.53-40.36,11.73c-17.26-7.8-17.21-37.56-17.21-37.56,0,0-3.05,59.63-53.92,44.46,0,0,48.33,15.54,19.59,49.8,0,0,44.03-28.46,61.63,27.84,0,0-7.52-55.78,33.34-46.59,0,0-36.2-15.51-3.06-49.68Z"/>
      </g>
    </g>
  </g>
</svg>