<?xml version="1.0" encoding="UTF-8"?>
<svg id="Layer_2" data-name="Layer 2" xmlns="http://www.w3.org/2000/svg" viewBox="0 0 124.05 90.32">
  <defs>
    <style>
      .cls-1 {
        fill: #ff3b3b;
      }

      .cls-2 {
        fill: #fff;
      }

      .cls-3 {
        fill: #d62d2d;
      }

      .cls-4 {
        fill: #371a45;
      }

      .cls-5 {
        opacity: .25;
      }

      .cls-6 {
        opacity: .5;
      }

      .cls-7 {
        opacity: .7;
      }
    </style>
  </defs>
  <g id="Layer_2-2" data-name="Layer 2">
    <g>
      <path class="cls-2" d="m122.02,54.66s-3.01,6.29-8.83,13.45c-6.97,8.58-17.96,18.42-32.64,20.19-25.73,3.11-44.86-22.25-44.86-22.25l16.18-18.68,4.93-5.69c21.2,23.51,46.83-11.5,46.83-11.5l18.39,24.48Z"/>
      <g class="cls-5">
        <path class="cls-4" d="m113.2,68.11c-6.97,8.58-17.96,18.42-32.64,20.19-25.73,3.11-44.86-22.25-44.86-22.25l16.18-18.68c5.13,2.86,12.71,7.27,12.71,7.27,0,0-5.88,23.18,13.2,24.31,18.75,1.11,14.16-23.79,14.16-23.79l21.25,12.94Z"/>
      </g>
      <path class="cls-4" d="m76.1,90.32c-23.99,0-41.03-22.21-41.79-23.22-.58-.77-.43-1.86.34-2.44.77-.58,1.86-.43,2.44.34.19.25,18.84,24.54,43.25,21.57,23.04-2.79,36.94-26.7,39.63-31.74l-16.37-21.79c-4.01,4.89-15.83,17.79-29.33,18.47-6.93.35-13.25-2.56-18.76-8.67-.65-.72-.59-1.82.13-2.46.72-.65,1.82-.59,2.46.13,4.77,5.28,10.14,7.81,15.98,7.52,14.67-.74,28.01-18.7,28.14-18.89l1.39-1.89,20.44,27.2-.46.95c-.61,1.28-15.27,31.29-42.83,34.62-1.58.19-3.14.28-4.67.28Z"/>
      <path class="cls-4" d="m78.57,89.8c-.21,0-.41-.05-.61-.15-.64-.34-.89-1.13-.55-1.77,9.32-17.75-1.77-37.53-1.88-37.73-.36-.63-.14-1.43.49-1.79.63-.36,1.43-.14,1.79.48.49.86,11.92,21.2,1.93,40.25-.23.45-.69.7-1.16.7Z"/>
      <g>
        <path class="cls-1" d="m2.9,39.81c.28.79.61,1.57,1,2.34,4.91,9.77,13.02,7.95,13.02,7.95,0,0,3.5,4.01,4.68,5.39,2.06,2.41,4.31,4.03,6.61,5.08,9.18,4.2,19.02-.72,19.42-1.04l6.59-5.08c8.69-4.06,5.08-27.11,5.08-27.11,0,0-.28-2.74-1.59-5.76-1.55-3.58-4.56-7.56-10.28-7.77,0-.02-.02-.05-.03-.08C42.58-.66,30.99.83,23.52,3.49,11.88,7.62-2.46,24.69,2.9,39.81Z"/>
        <g class="cls-6">
          <path class="cls-2" d="m26.12,10.65s-17.59,5.39-16.93,22.21c0,0,5.49-14.18,16.93-22.21Z"/>
        </g>
        <g class="cls-7">
          <path class="cls-2" d="m32.09,28.56c-1.13-3.34,9.97-19.97,25.63-6.98-1.55-3.58-4.56-7.56-10.28-7.77,0-.02-.02-.05-.03-.08-1.06-.02-2.19.05-3.38.24-16.17,2.59-12.06,14.25-11.93,14.59Z"/>
        </g>
        <path class="cls-3" d="m2.9,39.81c.28.79.61,1.57,1,2.34,4.91,9.77,13.02,7.95,13.02,7.95,0,0,3.5,4.01,4.68,5.39,2.06,2.41,4.31,4.03,6.61,5.08-.33-1.56-.3-4.46,2.5-8.55,4.34-6.35,11.47-5.21,13.46-16.11,6.59-1.77,3.55-7.41,3.55-7.41,0,0,.41-3.04-2.56-3.6-3.71-.69-7.1,5.38-12.7,4.34-3.42-3.69.33-10.57,4.05-12.67-3.82.81-5.9.1-8.61,8.75-4.13,13.18-17.02,19.33-24.99,14.49Z"/>
        <g class="cls-7">
          <path class="cls-2" d="m3.9,42.15c.72,1.43,1.51,2.62,2.34,3.6C-.95,27.28,11.43,12.2,25.77,6.93c5.93-2.18,14.99-2.48,20.66,4.3C41.16-.47,30.53.99,23.52,3.49,11.28,7.84-3.96,26.5,3.9,42.15Z"/>
        </g>
        <path class="cls-4" d="m36.38,64c-5.24,0-11.23-1.67-16.1-7.37-.86-1-2.98-3.44-4.04-4.66-3.6.32-9.95-1.19-13.89-9.03-3.03-6.03-3.13-12.97-.28-20.06C5.82,13.53,14.4,4.88,22.93,1.84c6.7-2.38,12.43-2.45,17.02-.21,3.9,1.91,6.84,5.45,8.75,10.54,8.6,1.08,11.82,10.09,12.33,14.95.42,2.7,3.47,24.47-6.08,28.92-.87.41-1.91.03-2.32-.84-.41-.87-.03-1.91.84-2.32,6.12-2.85,4.98-19.62,4.1-25.26,0-.03,0-.06-.01-.09-.05-.47-1.33-11.63-10.2-11.96-.73-.03-1.36-.5-1.59-1.19-1.58-4.76-4.05-7.98-7.35-9.6-3.72-1.82-8.54-1.69-14.32.36-6.47,2.3-15,9.58-18.8,19.04-1.72,4.28-3.09,10.74.16,17.2,4.2,8.36,10.81,7.09,11.09,7.03.61-.13,1.27.08,1.68.56.14.16,3.52,4.03,4.69,5.4,9.41,11.03,23.22,4,23.73,3.73.76-.51,1.79-.35,2.35.38.59.76.45,1.86-.32,2.45-.96.74-6.11,3.08-12.31,3.08Zm10.26-5.9s-.06.04-.07.05c.02-.02.05-.04.07-.05Z"/>
        <path class="cls-4" d="m43.3,36.05l-1.7-4.96,2.29,1.36c-1.71.55-3.36.86-5.15.96-3.15.24-6.89-.92-8.23-4.1-1.07-2.37-1.4-5.12-.52-7.64,1.21-3.57,4.21-6.05,7.45-7.58,3.16-1.47,6.6-2.12,10.05-2.01.96.03,1.72.83,1.69,1.8-.03.97-.85,1.73-1.82,1.69-5.29-.13-12.01,1.92-14.06,7.22-.62,1.75-.31,3.8.57,5.44.99,1.54,2.75,1.76,4.71,1.71,1.37-.07,2.87-.35,4.17-.77h.94c.75,0,1.36.61,1.35,1.36l-.02,5.27c0,.99-1.42,1.21-1.72.27h0Z"/>
        <path class="cls-4" d="m16.52,48.41c5-1.22,9.87-3.8,13.27-7.71,2.07-2.38,3.44-5.28,4.04-8.39.23-1.08,1.85-.82,1.72.29-.42,3.44-1.76,6.83-3.88,9.6-3.56,4.68-8.77,7.88-14.34,9.61-2.33.56-3.15-2.85-.8-3.39h0Z"/>
        <path class="cls-4" d="m42.42,29.31c1.78-.7,3.46-1.34,5.36-1.76.48-.1.94.21,1.04.68.08.4-.12.78-.46.96-1.06.63-2.14,1.47-3.13,2.27-.34.27-.69.56-1,.83-2.18,1.68-4.31-1.83-1.81-2.98h0Z"/>
        <path class="cls-1" d="m30.18,61.54c1.31,8.61,9.29,10.56,9.29,10.56,3.98.29,16.8-8.47,23.44-15.55.62-.65,1.18-1.3,1.67-1.92,1.47-1.82,2.36-3.44,2.4-4.64.16-6.03-7.29-11.78-7.29-11.78-.91,1.12-1.85,2.23-2.82,3.3-3.5,3.9-7.32,7.48-10.99,10.49-6.7,5.51-12.9,9.14-15.7,9.52Z"/>
        <g class="cls-7">
          <path class="cls-2" d="m56.87,41.53c1.75.85,3.77,2.25,5.61,4.54,2.68,3.33,2.62,6.49,2.1,8.58,1.47-1.82,2.36-3.44,2.4-4.64.16-6.03-7.29-11.78-7.29-11.78-.91,1.12-1.85,2.23-2.82,3.3Z"/>
        </g>
        <path class="cls-3" d="m30.18,61.54c1.31,8.61,9.29,10.56,9.29,10.56,3.98.29,16.8-8.47,23.44-15.55-2.92,2.66-7.03,5.03-12.37,5.01-7.81-.03-6.55-5.59-4.65-9.54-6.7,5.51-12.9,9.14-15.7,9.52Z"/>
        <path class="cls-4" d="m39.64,73.86c-.1,0-.2,0-.3-.01-.1,0-.19-.02-.29-.05-.37-.09-9.12-2.35-10.59-12-.07-.46.05-.93.33-1.31s.7-.62,1.16-.68c3.89-.53,17.96-9.77,28.39-22.69.6-.74,1.67-.86,2.42-.29.33.26,8.15,6.37,7.97,13.21-.07,2.6-2.71,6.28-7.85,10.94-5.83,5.27-16.46,12.88-21.23,12.88Zm-7.4-11.06c1.59,5.55,6.57,7.29,7.5,7.57,2.58-.04,11.58-5.45,18.79-11.98,4.9-4.43,6.68-7.32,6.71-8.44.09-3.43-3.13-7.19-5.33-9.25-8.95,10.61-21.29,19.86-27.67,22.1Z"/>
      </g>
    </g>
  </g>
</svg>