<?xml version="1.0" encoding="UTF-8"?>
<svg id="Layer_2" data-name="Layer 2" xmlns="http://www.w3.org/2000/svg" viewBox="0 0 2457.27 2816.49">
  <defs>
    <style>
      .cls-1 {
        fill: #fff;
      }

      .cls-2 {
        fill: #220f2d;
      }

      .cls-3 {
        fill: #0cccff;
      }

      .cls-4 {
        fill: #371a45;
      }

      .cls-5 {
        opacity: .3;
      }

      .cls-6 {
        opacity: .5;
      }
    </style>
  </defs>
  <g>
    <path class="cls-1" d="m1436.05,2143.77s116.38,96.41,181.42,90.83c65.04-5.57,286.17-453.42,353.07-603.94,66.9-150.52,53.89-191.4,29.73-219.28-24.16-27.87-110.97-65.75-110.97-65.75l-55.96,10.33-169.41,83.29-249.08,661.54,16.41,35.13"/>
    <g class="cls-5">
      <path class="cls-4" d="m1410.91,2082.31s116.38,96.41,181.42,90.83c65.04-5.57,286.17-453.42,353.07-603.94,66.9-150.52,30.99-164.29,6.83-192.16-24.16-27.87-74.61-31.4-74.61-31.4l-54.12,15.17-184.71,17-249.08,661.54,16.41,35.13"/>
    </g>
    <path class="cls-4" d="m1426.09,2155.78c-2.63-2.18-4.37-5.05-5.15-8.12-1.58-1.38-2.89-3.1-3.84-5.12l-16.41-35.13c-1.78-3.81-1.94-8.17-.46-12.1l249.09-661.54c1.4-3.71,4.16-6.75,7.71-8.5l169.41-83.29c1.29-.63,2.65-1.08,4.05-1.34l55.96-10.33c3.06-.57,6.22-.2,9.07,1.04,9.21,4.02,90.79,40.14,116.52,69.83,31.64,36.52,38.12,88.71-27.26,235.83-30.55,68.74-103.11,220.66-177.8,357.46-137.2,251.32-172.94,254.37-188.2,255.69-2.22.19-4.47.28-6.77.28-69.61,0-173.92-84.69-185.94-94.65Zm412.19-784.85l-161.93,79.62-244.6,649.62,13.63,29.18c.41.89.74,1.79.97,2.7,31.36,25.89,121.96,91.19,169.77,87.01,3.58-.4,38.56-10.6,163.94-240.38,74.09-135.79,145.97-286.3,176.21-354.35,65.03-146.3,50.72-181.35,32.2-202.72-16.88-19.48-75.03-48.05-101.08-59.74l-49.11,9.06Z"/>
    <path class="cls-1" d="m1181.26,1105.5s-158.45,1.13-354.18,108.91l-66.9-132.56s26.02-84.24,0-128.84c-26.02-44.6-65.66-50.79-65.66-50.79,0,0-26.02-65.66-130.08-45.84-104.06,19.82-162.29,126.35-164.15,177.15-1.86,50.8,22.3,126.99,76.19,147.43,0,0,61.32,200.69,182.11,323.34,37.17,29.73,143.09,16.72,143.09,16.72l-26.02,48.31s-473.86-14.87-486.87-20.44c-13.01-5.57-66.9-122.65-135.65-130.08-68.76-7.43-139.37,46.46-137.51,133.8,1.86,87.34,118.93,269.45,161.67,302.9s535.18,133.8,629.95,187.68c94.77,53.89,124.5,115.21,148.66,215.56,24.16,100.35,13.01,468.28,33.45,499.87,20.44,31.59,325.2,57.61,405.1,31.59,79.91-26.02,52.03-131.94,0-152.38,0,0-9.29-265.73,61.32-447.84,70.61-182.11,139.37-260.16,139.37-260.16l21.84,8.05,56.21-74.33s115.21,105.3,253.96,92.91c138.75-12.39,152.38-232.9,92.91-346.88-59.46-113.97-183.35-246.37-183.35-246.37,0,0-453.67-78-655.48-257.74Z"/>
    <circle class="cls-3" cx="1101.8" cy="1462.49" r="58.54"/>
    <g>
      <g class="cls-5">
        <path class="cls-4" d="m2047.33,1692.38s1.25,183.58-143.7,171.19c-144.94-12.39-279.67-174.37-292.68-206.89-13.01-32.52-51.1-66.9-91.98-61.32-40.88,5.57-8.77-117.42-8.77-117.42,0,0-79.42,75.62-73.89,158.31,5.54,82.69,58.93,79.28,73.89,78.67,14.96-.62,19.92-3.1,32.3,5.57,12.39,8.67,36.1,41.5,53.46,52.03,17.35,10.53,29.55,19.2,29.55,19.2l38.9,60.02s18.63,20.14,21.08,22.05c2.45,1.91,100.24,75.9,195.74,82.71,95.5,6.81,139.78-38.21,162.23-115.43,22.46-77.22,3.87-148.68,3.87-148.68Z"/>
      </g>
      <g class="cls-5">
        <path class="cls-4" d="m1443.03,2737.27s-287.65,2.16-317.39-49.87c-29.73-52.03-29.73-332.01,0-393.95,29.73-61.94,207.83-72.99,250.25-19.82,0,0,89.89-254.73,187.1-368.94l31.56,14.63,53.89-82.38s-20.22-40.75-28.38-44.84c-8.16-4.09-48.25-37.73-54.56-43.8-6.31-6.07-22.36-24.71-22.36-24.71,0,0-14.25-7.1-17.96-6.03-3.72,1.07-34.07,0-34.07,0l-19.82-6.36s59.46,50.79,70.61,72.47c11.15,21.68-33.02,70.61-31.68,72.47,1.33,1.86.2,1.86-5.48,3.1-5.68,1.24-55.13-34.93-55.13-34.93l-17.98-2.24s-62.55,88.59-75.55,88.59c-13.01,0-91.21-47.08-91.21-47.08,0,0-160.28,130.21-305.22,93.6-144.94-36.61-212.46-226.06-235.38-214.96-22.92,11.1-3.15,101.48,9.6,137.74,12.75,36.26-503.9-68.41-544.78-99.38-40.88-30.97-169.41-213.67-159.03-293.9,0,0-26.3,45.47,2.57,137.48,28.86,92,135.96,229.54,154.59,236.98,18.63,7.44,180.35,52.44,313.17,87.67,132.81,35.24,273.44,77.68,324.23,103.7,50.79,26.02,125.58,104.58,135.43,227.92,9.85,123.34,17.44,369.83,17.44,369.83,0,0-3.71,102.58,14.8,111.47,18.51,8.9,99.09,31,226.18,37.5,127.09,6.5,176.86-7.27,199.36-20.83,22.5-13.56,25.22-41.11,25.22-41.11Z"/>
      </g>
      <g class="cls-5">
        <path class="cls-4" d="m1454.75,1554.82l-34.27-20.79s-70.61,159.81-153.62,173.44c-83,13.63-339.75-127.6-339.75-127.6,0,0-37.58,56.5-33.7,59.55,3.87,3.04,379.8,225.39,381.66,226.32,1.86.93,55.75,29.27,55.75,29.27,0,0,12.02,7.43,10.89,3.72-1.13-3.72,73.82-100.81,73.82-100.81,0,0,4.51-18.81,5.26-20.28.75-1.46,38.35-58.16,38.35-58.16,0,0-4.16-22.62-6.2-25.2-2.04-2.58-15.78-25.52-16.2-41.78-.42-16.26,6.61-58.7,8.07-63.31,1.46-4.6,9.93-34.37,9.93-34.37Z"/>
      </g>
      <g class="cls-5">
        <path class="cls-4" d="m1153.83,1446.59s-17.96,31.08-55.13,34.49c-37.17,3.41-55.4-17.01-55.4-17.01,0,0,4.05,60.91,60.39,56.92,56.34-3.98,60.06-59.02,50.15-74.4Z"/>
      </g>
      <g class="cls-5">
        <path class="cls-4" d="m934.19,1478.74c-5.52-2.31-63.74-39.48-63.74-39.48l-21.68,27.25s46.72,42.71,48.62,44.22c1.89,1.51,16.42,0,16.42,0l20.39-32Z"/>
      </g>
      <g class="cls-5">
        <path class="cls-4" d="m989,1281.63s-153.87,145.86-255.14,147.1c-101.28,1.24-173.54-257.68-177.67-265.11-4.13-7.43-136.96-25.73-155.41-136.13,0,0-3.38,64.79,23.77,105.11,27.16,40.32,49.46,45.89,49.46,45.89l8.67,17.34s51.05,126.99,101.1,213.4c50.04,86.4,68.95,98.61,92.86,104.77,23.91,6.17,101.51,8.88,103.99,7.03,2.48-1.86,27.15-8.68,30.7-13.75,3.55-5.07,24.88-31.94,24.88-31.94v-13.32s-9.13-7.27-9.13-7.27l76.81-109.02,19.2,8.05,18.66-20.71,47.25-51.44Z"/>
      </g>
      <g class="cls-5">
        <path class="cls-4" d="m672.88,982.96s-54.7,28.44-76.07,29.37c-21.37.93-28.8-14.4-28.8-17.19s34.6-66.12,34.6-66.12c0,0-57.36,57.76-96.38,75.41-39.02,17.65-64.11,16.26-64.57,19.05-.46,2.79,6.75,21.5,26.36,24.16,19.61,2.66,57.52-.29,71.88-4.28,14.36-3.99,25.59-5.97,27.47-4.33,1.88,1.64,14.22,21.8,45.53,9.63,31.31-12.17,54.3-51.4,60-65.7Z"/>
      </g>
    </g>
    <path class="cls-4" d="m1168.36,2811.58c-78.64-6.38-175.79-19.27-192.09-44.47-11.25-17.38-13.89-78.56-17.63-224.53-2.77-108-5.91-230.41-17.89-280.16-23.19-96.33-51.4-154.58-141.2-205.64-48.82-27.76-213.82-70.03-359.4-107.33-154.99-39.71-251.07-64.89-272.46-81.63C124.36,1833.89,2.04,1646.83.04,1552.95c-.95-44.83,15.58-85.16,46.56-113.57,29.62-27.16,69.03-40.32,108.23-36.07,57.01,6.16,101.06,72.07,127.37,111.45,4.77,7.13,10.51,15.73,13.65,19.58,34.71,4.21,293.42,13.5,470.66,19.11l7.81-14.49c-36.47,1.9-96.3.86-125.46-22.47-.48-.39-.93-.8-1.37-1.23-110.77-112.47-171.49-285.45-183.7-322.76-57.5-27.36-80.95-108.41-79.08-159.53,2.04-55.61,64.56-170.52,176.82-191.9,94.63-18.02,132.39,28.63,143.62,47.76,14.77,4.5,46.22,18.13,68.51,56.33,25.04,42.92,8.94,113.7,3.19,135.1l56.92,112.8c190.28-100.87,340.9-103.12,347.37-103.16,3.75-.26,7.6,1.38,10.49,3.95,196.12,174.67,643.25,253.24,647.74,254.01,3.35.58,6.42,2.23,8.75,4.72,5.12,5.47,126.03,135.27,185.8,249.81,39.68,76.06,52.23,206.82,4.55,294.01-24.76,45.27-62.76,71.42-109.91,75.63-117.96,10.53-217.91-58.33-252.79-85.97l-46.32,61.26c-4.14,5.48-11.4,7.61-17.84,5.23l-11.31-4.17c-18.63,24.2-73.89,102.7-129.95,247.28-61.3,158.09-61.26,384.14-60.49,432.39,29.92,17.45,51.36,57.72,50.19,96.89-1.15,38.73-23.29,67.93-60.74,80.13-25.51,8.3-68.93,11.43-116.5,11.43-37.83,0-78.29-1.98-114.44-4.92Zm432.2-896.37l10.98,4.05,49.23-65.1c2.65-3.5,6.64-5.71,11.02-6.12,4.32-.39,8.7,1.05,11.95,4,1.11,1.01,111.96,100.55,242.06,88.9,36.8-3.29,65.51-23.31,85.31-59.52,37.59-68.74,35.42-187.43-4.84-264.6-52.26-100.16-157-216.81-177.42-239.14-53.42-9.62-457.89-87.01-653.2-256.36-29.85,1.54-171.97,13.67-341.03,106.76-3.71,2.04-8.09,2.49-12.14,1.24-4.05-1.25-7.41-4.09-9.32-7.87l-66.9-132.56c-1.81-3.6-2.16-7.77-.98-11.62,6.65-21.65,19.88-84.76,1.43-116.39-21.65-37.12-53.38-43.03-54.59-43.24-5.34-.83-9.93-4.53-12.03-9.51-.93-2.19-23.65-53.38-112.72-36.41-94.83,18.06-149.81,116.75-151.48,162.39-1.56,42.64,18.38,114.16,66.13,132.27,4.52,1.71,7.98,5.41,9.39,10.03.6,1.97,61.31,197.61,177.6,316.23,23.91,18.1,92.68,17.56,130.78,12.9,5.8-.71,11.49,1.87,14.78,6.69,3.29,4.81,3.62,11.06.86,16.2l-26.02,48.32c-2.8,5.21-8.21,8.37-14.23,8.2-316.38-9.93-482.09-17.22-492.52-21.69-7.85-3.36-13.67-12.07-26.41-31.14-21.76-32.56-62.25-93.17-104.78-97.76-30.24-3.27-60.78,6.95-83.79,28.05-24.27,22.25-37.21,54.18-36.45,89.9,1.76,82.57,117.63,261.16,155.68,290.94,17.33,13.56,146.77,46.72,260.98,75.98,154.68,39.63,314.62,80.61,367.07,110.43,99.19,56.4,131.39,122.75,156.12,225.47,12.75,52.97,15.8,171.77,18.74,286.67,2.19,85.49,4.91,191.72,12.45,208,9.61,8.18,69.13,23.02,174.24,31.16,96.25,7.44,179.91,5.28,213.12-5.54,31.45-10.24,38.68-33.6,39.21-51.39.89-29.94-17.47-62.74-40.09-71.63-5.79-2.27-9.67-7.77-9.89-13.98-.38-10.98-8.59-271.04,62.37-454.03,70.8-182.6,139.33-261.55,142.21-264.83,3.02-3.43,7.31-5.29,11.71-5.29,1.81,0,3.63.31,5.39.96Zm-598.65,834.23h0s0,0,0,0Z"/>
    <path class="cls-4" d="m1673.23,1879.17c3.23,0,6.5-1,9.3-3.08,6.91-5.14,8.35-14.91,3.21-21.83l-59.89-80.52c-1.34-1.81-3.07-3.31-5.05-4.39-45.79-24.97-71.93-62.82-72.18-63.2-3.53-5.18-9.82-7.76-15.97-6.53-28.63,5.73-51,1.59-64.69-11.98-14.83-14.69-19.65-40.48-13.55-72.64,11.41-60.17,75.4-187.08,191.41-172.02,112.97,14.62,153.43,131.97,153.83,133.15,1.09,3.26,3.23,6.09,6.08,8.01l156.09,105.31c7.13,4.83,16.84,2.94,21.66-4.21,4.82-7.15,2.93-16.84-4.21-21.66l-151.89-102.47c-9.81-25.52-58.12-133.63-177.57-149.08-139.19-18.03-212.39,125.06-226.06,197.16-8.1,42.67-.19,78.41,22.25,100.63,13.92,13.78,39.35,28.24,82.95,22.08,10.94,13.75,36.13,41.84,73.87,63.17l57.89,77.83c3.06,4.12,7.77,6.29,12.53,6.29Z"/>
    <path class="cls-4" d="m1550.35,1720.27c7.51-19.56,13.99-38.69,15.11-60.04-.05-4.08-1.18-8.28-3.93-11.42-4.12-4.39-8.73-5.67-13.31-6.55-15.5-2.06-28.78-3.41-43.41,5.07-.75.45-1,1.42-.55,2.17,12.13,11.38,26.21,11.26,39.03,17.74.33.18.63.7-.85-.33-1.53-1.12-2.6-3.09-3.32-4.73-.35-.78-.54-1.67-.53-2.53,0-.15-.06.03-.06.03-.2.35-.2.43-.52,1.44-4.98,15.5-12.23,32.66-16.97,48.42-5.57,18.98,21.33,28.73,29.3,10.72h0Z"/>
    <path class="cls-4" d="m1810.52,1953.66c1.22,0,2.46-.19,3.69-.58,3.31-1.06,81.5-26.91,130.33-98.87,49.24-72.56,31.21-180.21,30.42-184.76-1.14-6.53-7.34-10.89-13.87-9.76-6.53,1.13-10.9,7.34-9.78,13.87.18,1.02,17.11,102.71-26.63,167.17-44.24,65.2-117.1,89.27-117.83,89.5-6.31,2.03-9.77,8.8-7.74,15.11,1.64,5.08,6.35,8.32,11.42,8.32Z"/>
    <path class="cls-4" d="m1164.52,2152.03c-113.43.82-232.29-29.05-316.26-107.85-21.83-19.95-41.23-43.72-57.54-68.32-26.33-40.26-46.04-85.19-61.4-132.09-.89-2.74-3.83-4.24-6.57-3.36-2.47.8-3.94,3.3-3.54,5.79,7.93,49.6,24.38,98.42,49.64,143.11,65,115.88,190.31,180.17,321.42,180.26,25.46.08,50.68-1.68,75.78-7.25,2.81-.62,4.58-3.4,3.96-6.21-.57-2.58-2.95-4.25-5.48-4.08h0Z"/>
    <path class="cls-4" d="m437.18,1944.58c1.04,0,2.09-.13,3.14-.42,6.4-1.73,10.18-8.32,8.45-14.72-61.52-227.56,69.73-359.3,71.06-360.61,4.74-4.64,4.82-12.23.18-16.97-4.64-4.73-12.23-4.82-16.97-.18-5.85,5.72-142.6,143.02-77.44,384.02,1.45,5.35,6.29,8.87,11.57,8.87Z"/>
    <path class="cls-4" d="m1186.09,2500.23c125.91,0,213.99-34.39,219.47-36.59,6.15-2.46,9.14-9.44,6.68-15.59-2.46-6.15-9.43-9.16-15.59-6.69-1.96.78-198.08,77.07-421-.19-6.27-2.19-13.1,1.15-15.27,7.41-2.17,6.26,1.15,13.1,7.41,15.27,78.71,27.28,153.52,36.39,218.3,36.39Z"/>
    <path class="cls-4" d="m1399.09,2622.94c-21.15-6.51-43.82-6.03-65.36-2.06-20.81,4.99-42.86,9.28-56.23,28.16-.64.9-.05,2.24,1.05,2.38,10.87,2.05,20.21.84,30.42-.68,27.45-4.19,55.34-3.17,82.38,2.28,19.01,3.21,25.86-23.8,7.74-30.09h0Z"/>
    <path class="cls-4" d="m280.21,1535.88c-30.59,19.32-79.8,73.72-72.55,112.34.19,1.08,1.57,1.59,2.4.87,9.72-8.01,15.57-16.13,21.74-24.39,18.38-24.41,42.2-44.86,66.28-63.3,15.41-12.34-1.05-35.73-17.87-25.52h0Z"/>
    <path class="cls-4" d="m574.77,1376.08c146.8,0,257.17-148,261.99-154.57,3.92-5.34,2.77-12.85-2.57-16.77-5.34-3.93-12.85-2.77-16.77,2.56-1.16,1.57-117.05,157-260.13,143.98-6.58-.6-12.44,4.26-13.04,10.87-.6,6.6,4.26,12.44,10.86,13.04,6.62.6,13.18.89,19.66.89Z"/>
    <path class="cls-4" d="m473.61,1196.3c14.73,3.85,30.23,4.22,45.47,3.7,5.15-.12,10.49-1.25,16.63-6.61.75-.65.92-1.71.48-2.55-3.78-7.22-8.35-10.21-13.1-12.18-14.02-6.01-28.6-11.28-43.72-13.02-19.13-1.75-24.09,25.47-5.75,30.67h0Z"/>
    <path class="cls-4" d="m564.43,1051.63c1.06,0,2.14-.11,3.23-.34,8.43-1.78,13.83-10.05,12.05-18.48-.07-.34-7.93-41.25,17.3-76.99,20.61-29.21,77.74-37.33,98.01-38,8.61-.28,15.36-7.48,15.09-16.09-.27-8.61-7.48-15.4-16.07-15.1-3.6.11-88.7,3.27-122.52,51.2-33.27,47.13-22.8,99.21-22.34,101.41,1.55,7.35,8.03,12.39,15.25,12.39Z"/>
    <path class="cls-4" d="m668.29,979.84c-12.61,17.61-30.58,34.19-47.64,46.97-13.62,11.05-29.11,12.49-42.64,1.08-.49-.35-1.78-1.7-1.61-1.44l-17.22-4.81c-28.71,9.51-80.2,28.55-107.29,10.93-2.33-1.91-5.84-1.49-7.61.97-1.31,1.8-1.3,4.15-.18,5.92,6.44,10.1,18.02,16.04,29.17,19.03,32.13,7.89,65.44,1.53,96.44-8.1,0,0-17.21-4.81-17.21-4.81,10.73,12.83,26.78,20.72,43.5,21.24,30.45,1.35,52.82-25.59,67.77-48.26,6.87-11.63,14.19-23.84,14.88-37.77.2-4.69-6.33-6.82-8.92-2.96l-1.44,2.02h0Z"/>
    <path class="cls-4" d="m801.67,1536.63c4.92,0,9.75-2.32,12.79-6.64l34.53-49.24c4.95-7.05,3.24-16.78-3.82-21.73-7.06-4.95-16.79-3.23-21.73,3.82l-34.53,49.24c-4.95,7.05-3.24,16.78,3.82,21.73,2.73,1.91,5.85,2.83,8.94,2.83Z"/>
    <path class="cls-4" d="m1605.57,1945.69c3.85,0,7.63-1.85,9.96-5.29,3.71-5.49,2.26-12.95-3.23-16.66-80.23-54.21-169.28-116.41-185.11-130.87,3.05-11.45,24.77-44.53,44.91-70.63,4.05-5.25,3.08-12.78-2.16-16.83-5.25-4.06-12.79-3.08-16.83,2.16-59.52,77.1-51.36,90.7-47.87,96.51,7.66,12.76,124.6,92.91,193.63,139.55,2.06,1.39,4.39,2.06,6.71,2.06Z"/>
    <path class="cls-4" d="m1355.06,1922.61c-15.19-1.27-195.99-104.35-239.92-129.8-104.3-60.4-231.88-137.52-247.39-161.89-7.94-12.47-5.31-33.01,8.51-66.61,33.54-81.52,151.83-260.52,182.3-267.44,8-1.82,21.41-4.87,226.05,105.11,99.3,53.37,196.52,108.19,197.49,108.74,5.77,3.26,7.81,10.58,4.55,16.35-3.26,5.77-10.58,7.8-16.35,4.55-141.6-79.9-374.73-206.46-406.58-211.06-25.03,15.32-149.44,194.6-172.93,274.16-5.49,18.61-2.82,23.27-2.8,23.31,21.99,34.55,423.26,260.98,467.94,279.89,11.85-8.39,44.77-51.49,70.35-89.3,3.71-5.49,11.18-6.93,16.66-3.22,5.49,3.72,6.93,11.17,3.22,16.66-63.72,94.22-81.77,100.64-89.35,100.64-.65,0-1.23-.05-1.75-.09Zm-290.32-602.6h0s0,0,0,0Z"/>
    <path class="cls-4" d="m1280.9,1884.34c4.05,0,8.01-2.05,10.26-5.77l158.17-260.25c3.45-5.67,1.64-13.05-4.02-16.49-5.68-3.45-13.05-1.64-16.49,4.02l-158.17,260.25c-3.45,5.67-1.64,13.05,4.02,16.49,1.95,1.19,4.1,1.75,6.23,1.75Z"/>
    <path class="cls-4" d="m1030.24,1740.79c4.17,0,8.23-2.18,10.44-6.07l72.29-127.04c57.01-2.47,137.69-5.89,142.75-5.89,8.44,0,14.53,0,96.52-149.43,3.19-5.81,1.06-13.11-4.75-16.3-5.81-3.17-13.11-1.06-16.3,4.75-32.17,58.65-69.37,123.02-80.28,137.09-24.92.84-132.32,5.5-145.61,6.08-4.12.18-7.87,2.47-9.91,6.05l-75.57,132.81c-3.28,5.76-1.26,13.09,4.5,16.37,1.87,1.06,3.91,1.57,5.93,1.57Z"/>
    <path class="cls-4" d="m1031.26,1462.49c0-38.89,31.64-70.53,70.54-70.53,38.89,0,70.53,31.64,70.53,70.53,0,38.9-31.64,70.54-70.53,70.54-38.9,0-70.54-31.64-70.54-70.54Zm24.01,0c0,25.66,20.87,46.53,46.53,46.53,25.66,0,46.53-20.87,46.53-46.53s-20.87-46.53-46.53-46.53c-25.66,0-46.53,20.87-46.53,46.53Z"/>
    <path class="cls-4" d="m910.29,1533.03c3.53,0,7.03-1.55,9.4-4.52,4.13-5.18,3.28-12.74-1.91-16.87l-74.47-59.31c22.42-32.59,52.83-76.41,64.56-92.34,13.8,7.02,46.15,26.2,74.8,43.99,5.62,3.49,13.02,1.78,16.53-3.87,3.5-5.63,1.76-13.03-3.86-16.53-87.96-54.61-90.72-52.76-98.1-47.85-2.38,1.59-5.65,3.77-80.05,112.22-3.56,5.19-2.51,12.25,2.42,16.18l83.22,66.28c2.21,1.76,4.85,2.62,7.47,2.62Z"/>
    <path class="cls-4" d="m939.49,1360.5c20.09-24.22,43.45-51.32,64.96-74.77,22.27-25.86,48.37-45.62,67.46-74.91.7-1.01-.36-2.5-1.55-2.09-34.03,10.45-59.01,35.09-85.27,57.41-25.61,23.1-49.41,47.64-70.35,75.37-11.76,16.55,11.79,34.66,24.75,19h0Z"/>
    <path class="cls-4" d="m762.42,1561.1c-14.84,22.75-23.94,47.77-30.35,73.9-2.22,8.55-2.99,17.72.54,27.81.29.84,1.21,1.28,2.05.99,16.18-11.56,20.11-27.81,29.95-43.12,7.1-12.6,18.01-31.16,24.55-43.57,8.84-17.51-15.52-31.99-26.74-16.01h0Z"/>
  </g>
  <g class="cls-5">
    <path class="cls-4" d="m1859.44,1388.44s-169.61,78.63-400.29,0c-230.68-78.63-283.01-268.99-283.01-268.99,0,0,160.48,42.93,213.56,62.75,53.08,19.82,212.9,55.75,250.06,73.09,37.17,17.34,73.57,25.76,105.54,53.14,31.97,27.38,93.47,28.56,114.13,80Z"/>
  </g>
  <g>
    <g>
      <path class="cls-1" d="m1131.96,378.66s-77.66,1.57-101.56,26.56c-36.58,38.24-105.45,181.26-69.55,326.8,11,45.14,88.2,84.93,88.2,84.93,0,0,85.3-282.02,82.92-438.28Z"/>
      <g class="cls-5">
        <path class="cls-4" d="m1164.89,398.69s-73.97,5.72-101.56,26.56c-47.39,35.77-105.12,201.76-69.55,326.8,11,45.14,88.2,84.93,88.2,84.93,0,0,85.3-282.02,82.92-438.28Z"/>
      </g>
      <path class="cls-4" d="m1041.89,830.81c-8.52-4.39-83.43-44.28-96.1-94.65-46.21-152.67,44.89-323.33,75.98-343.94,42.9-28.45,107.37-29.14,110.1-29.15.03,0,.06,0,.09,0,8.52,0,15.47,6.84,15.6,15.37,2.39,156.88-80.07,431.42-83.58,443.03-1.34,4.43-4.58,8.04-8.85,9.85-1.95.82-4.02,1.24-6.09,1.24-2.46,0-4.91-.58-7.15-1.73Zm-2.86-412.6c-7.05,4.93-34.49,45.18-54.45,106.64-16.6,51.1-31.61,127.73-8.81,202.62.08.28.16.56.23.85,5.97,24.52,39.79,50.3,63.62,65.2,17.98-62.83,73.85-267.85,76.67-398.29-19.66,1.86-53.56,7.27-77.26,22.98Z"/>
    </g>
    <g>
      <g>
        <path class="cls-1" d="m1050.02,706.39c3.31,112.62,35.1,225.11,96.32,326.38,12.49,20.65,26.14,40.79,41.04,60.37,7.22,9.55,14.82,18.97,22.65,28.32,23.75,28.05,49.29,53.71,76.36,76.98,23.28,20.12,47.75,38.42,73.05,54.94,30.55,19.96,62.45,37.26,95.29,51.94,12,5.31,24.1,10.3,36.3,14.95,223.51,84.75,484.62,51.37,680.27-109.84,288.26-237.42,325.19-662.21,82.6-948.77-46.76-55.16-100.47-101.3-158.83-137.9-6.78-4.34-13.71-8.51-20.72-12.52-18.68-10.86-37.76-20.8-57.2-29.77-44.97-20.75-91.85-36.45-139.66-47.07-47.78-10.66-96.6-16.23-145.41-16.62-15.52-.13-31.04.24-46.59,1.17-23.29,1.4-46.51,3.92-69.68,7.72-115.36,18.62-227.17,66.91-323.19,146.03-165.83,136.57-248.45,335.11-242.62,533.7Z"/>
        <path class="cls-4" d="m1490.38,1321.96c-12.19-4.65-24.43-9.7-36.39-14.99-33.28-14.87-65.43-32.39-95.54-52.07-25.76-16.81-50.4-35.35-73.24-55.08-27.34-23.51-53.1-49.48-76.57-77.2-8.61-10.28-16.04-19.56-22.71-28.38-14.63-19.24-28.48-39.6-41.15-60.53-59.8-98.93-93.2-212.1-96.58-327.27h0c-6.1-207.75,82.57-402.8,243.28-535.15,92.92-76.57,204.98-127.2,324.04-146.42,22.57-3.7,46.07-6.31,69.87-7.74,15.25-.91,30.98-1.31,46.71-1.17,48.94.39,97.99,6,145.79,16.66,48.27,10.72,95.37,26.6,140.02,47.19,19.42,8.96,38.72,19.01,57.35,29.85,7.5,4.3,14.31,8.41,20.78,12.55,59.55,37.35,113.13,83.87,159.25,138.26,118.11,139.53,174.23,315.69,158.02,496.05-16.09,178.92-101.62,340.62-240.85,455.29-123.78,101.99-278.54,155.3-435.68,155.3-82.87,0-166.4-14.83-246.39-45.16ZM1685.61,20.75c-23.67,1.43-47.05,4.02-69.5,7.7-118.44,19.11-229.9,69.47-322.32,145.64-159.83,131.63-248.02,325.63-241.96,532.25l-1.81.05,1.81-.05c3.36,114.55,36.58,227.1,96.06,325.5,12.61,20.82,26.37,41.08,40.93,60.22,6.64,8.78,14.03,18.02,22.59,28.24,23.34,27.57,48.97,53.4,76.17,76.78,22.72,19.63,47.23,38.06,72.86,54.79,29.96,19.58,61.93,37.01,95.03,51.8,11.9,5.27,24.08,10.29,36.2,14.92,230.45,87.38,490.42,45.4,678.48-109.55,138.48-114.06,223.55-274.87,239.55-452.82,16.13-179.38-39.69-354.6-157.17-493.38-45.87-54.11-99.17-100.38-158.43-137.55-6.44-4.13-13.19-8.21-20.65-12.48-18.54-10.79-37.73-20.78-57.05-29.7-44.41-20.49-91.27-36.28-139.29-46.95-47.55-10.61-96.35-16.19-145.03-16.58-2-.02-3.99-.02-5.99-.02-13.65,0-27.24.4-40.48,1.19Z"/>
      </g>
      <g class="cls-5">
        <path class="cls-4" d="m2171.3,1210.41c-195.64,161.25-456.79,194.63-680.28,109.84-12.21-4.64-24.3-9.62-36.28-14.93-32.86-14.67-64.74-31.98-95.3-51.92-25.29-16.54-49.78-34.83-73.04-54.93-27.1-23.27-52.62-48.93-76.4-76.99-7.79-9.37-15.4-18.77-22.65-28.31-14.89-19.59-28.5-39.76-41.01-60.4-61.22-101.28-93.04-213.75-96.33-326.39-1.83-61.87,4.94-123.77,20.14-183.77,5.63,107.42,37.28,214.22,95.68,310.84,12.46,20.68,26.12,40.81,41.01,60.4,7.2,9.54,14.82,18.93,22.65,28.31,23.78,28.06,49.3,53.72,76.35,76.99,23.31,20.1,47.75,38.39,73.05,54.93,30.56,19.94,62.48,37.26,95.3,51.92,12.02,5.32,24.11,10.3,36.32,14.94,223.49,84.79,484.59,51.4,680.28-109.84,114.18-94.03,188.87-217.47,222.43-350.03,10.8,203.79-71.77,409.23-241.93,549.35Z"/>
      </g>
      <path class="cls-4" d="m1486.06,1333.3c-12.38-4.72-24.82-9.85-37.01-15.25-33.87-15.13-66.58-32.96-97.23-52.99-26.21-17.11-51.29-35.97-74.52-56.04-27.82-23.92-54.04-50.35-77.97-78.61-8.74-10.43-16.29-19.87-23.06-28.83-14.89-19.58-28.98-40.3-41.87-61.6-60.88-100.71-94.88-215.93-98.33-333.19h0c-6.21-211.52,84.07-410.12,247.69-544.87,94.58-77.94,208.64-129.47,329.79-149.03,22.98-3.77,46.89-6.43,71.11-7.88,15.53-.93,31.54-1.33,47.53-1.19,49.79.4,99.7,6.1,148.32,16.95,49.11,10.9,97.04,27.06,142.48,48.02,19.77,9.13,39.4,19.35,58.29,30.33,7.68,4.4,14.65,8.61,21.2,12.81,60.61,38.01,115.13,85.35,162.06,140.7,120.22,142.02,177.35,321.36,160.84,504.97-16.38,182.18-103.47,346.82-245.22,463.57-125.98,103.81-283.47,158.06-443.4,158.06-84.32,0-169.33-15.09-250.71-45.95ZM1686.33,32.86c-23.25,1.4-46.22,3.95-68.29,7.57-116.31,18.77-225.77,68.23-316.54,143.03-156.92,129.23-243.5,319.68-237.54,522.52,3.31,112.46,35.92,222.97,94.31,319.57,12.38,20.45,25.9,40.36,40.23,59.18,6.51,8.62,13.79,17.7,22.17,27.72,22.93,27.08,48.1,52.46,74.84,75.44,22.31,19.28,46.38,37.38,71.56,53.82,29.42,19.23,60.83,36.35,93.31,50.86,11.7,5.18,23.69,10.12,35.59,14.67,226.38,85.84,481.76,44.63,666.46-107.57,135.95-111.98,219.47-269.85,235.18-444.54,15.83-176.12-38.98-348.17-154.34-484.45-45.07-53.16-97.42-98.62-155.72-135.18-6.27-4.02-12.85-7.99-20.21-12.21-18.21-10.59-37.06-20.41-56.03-29.16-43.63-20.13-89.66-35.64-136.85-46.12-46.72-10.43-94.66-15.91-142.5-16.29-1.96-.02-3.93-.03-5.89-.03-13.41,0-26.75.39-39.74,1.17Zm-636.37,673.53h.05-.05Z"/>
      <path class="cls-4" d="m1484.7,1336.86c-12.44-4.75-24.94-9.9-37.2-15.33-34.05-15.21-66.95-33.14-97.76-53.28-26.35-17.2-51.57-36.17-74.92-56.34-27.98-24.05-54.33-50.62-78.4-79.05-8.78-10.48-16.37-19.97-23.17-28.97-14.97-19.68-29.13-40.52-42.1-61.94-61.22-101.28-95.41-217.13-98.88-335.04h0c-6.24-212.71,84.54-412.42,249.07-547.92,95.1-78.37,209.78-130.19,331.59-149.85,23.1-3.79,47.16-6.46,71.5-7.92,15.61-.93,31.7-1.33,47.79-1.2,50.06.4,100.24,6.14,149.12,17.04,49.37,10.96,97.56,27.21,143.24,48.28,19.87,9.17,39.62,19.45,58.58,30.48,7.74,4.43,14.76,8.67,21.33,12.88,60.94,38.22,115.76,85.81,162.95,141.47,120.89,142.81,178.33,323.14,161.73,507.77-16.47,183.2-104.04,348.76-246.59,466.17-126.67,104.38-285.03,158.93-445.82,158.93-84.77,0-170.24-15.17-252.07-46.2ZM1686.56,36.66c-23.12,1.39-45.96,3.92-67.91,7.53-115.65,18.66-224.48,67.84-314.73,142.21-156,128.48-242.08,317.82-236.16,519.48,3.29,111.8,35.71,221.67,93.77,317.71,12.31,20.34,25.76,40.13,40.01,58.86,6.48,8.56,13.7,17.6,22.04,27.55,22.8,26.93,47.83,52.16,74.42,75.02,22.18,19.17,46.12,37.17,71.16,53.51,29.25,19.12,60.48,36.14,92.77,50.56,11.65,5.16,23.57,10.07,35.4,14.59,225.11,85.36,479.03,44.38,662.69-106.95,135.16-111.32,218.2-268.28,233.81-441.95,15.74-175.1-38.76-346.16-153.46-481.65-44.81-52.86-96.87-98.06-154.87-134.43-6.22-3.98-12.75-7.93-20.07-12.12-18.11-10.54-36.85-20.29-55.71-29-43.38-20.01-89.16-35.44-136.08-45.86-46.46-10.37-94.13-15.82-141.7-16.2-1.96-.02-3.91-.03-5.86-.03-13.33,0-26.6.39-39.52,1.16Zm-636.59,669.73h.05-.05Z"/>
      <path class="cls-4" d="m1077.45,877.13c230.97,425.9,806.06,496.72,1048.88,86.29,165.2-279.23,14.67-656.72-268.26-798.36-205.92-103.09-451.91-115.11-698.77,155.58,0,0-90.41,136.64-99.97,253.25-9.56,116.6,1.08,231.76,1.08,231.76l17.04,71.49Z"/>
      <path class="cls-2" d="m2126.31,963.42c-242.8,410.42-817.89,339.59-1048.87-86.27l-3.44-14.5c357.24,267.67,867.09,234.46,1120.44-175.94,3.78,95.02-17.17,190.53-68.13,276.71Z"/>
      <path class="cls-4" d="m1278.61,1211.02l-1.86-1.36c-27.86-23.95-54.1-50.41-78.06-78.7-8.75-10.44-16.31-19.89-23.09-28.86-14.91-19.6-29.01-40.35-41.92-61.68-60.96-100.84-95-216.2-98.45-333.6h0c-6.22-211.79,84.17-410.63,248-545.55,94.7-78.04,208.89-129.63,330.23-149.22l1.5-.24,1.52.07c89.64,4.01,182.83,29.95,277,77.09,169.43,84.82,303.72,248.08,359.23,436.71,49.96,169.77,31.63,340.75-51.6,481.43-90.66,153.2-225.39,255.53-389.62,295.94-49.84,12.26-101.26,18.29-153.13,18.29-129.89,0-262.53-37.82-379.74-110.32Zm23.42-1026.92c-156.71,129.06-243.18,319.27-237.24,521.85,3.3,112.31,35.87,222.68,94.19,319.16,12.36,20.43,25.88,40.31,40.18,59.11,6.51,8.6,13.77,17.68,22.15,27.68,22.65,26.75,47.49,51.84,73.84,74.57,157.1,96.82,342.63,128.85,509.26,87.85,156.34-38.47,284.71-136.08,371.23-282.28,79.01-133.54,96.3-296.2,48.69-458.01-53.24-180.91-181.87-337.39-344.09-418.61-89.9-45-178.56-69.87-263.56-73.92-115.6,18.93-224.37,68.22-314.64,142.6Zm-252.07,522.28h.05-.05Z"/>
      <path class="cls-4" d="m1643.17,1246.73c-234.83-4.38-455.03-144.14-574.67-364.75l-.64-1.18-17.36-72.8-.23-1.42c-.11-1.16-10.61-117.38-1.09-233.52,9.66-117.86,97.88-252.37,101.63-258.03l.97-1.24c213.43-234.02,452.59-287.12,710.85-157.82,150.01,75.1,268.92,219.66,318.07,386.7,44.21,150.23,28.02,301.51-45.61,425.95-104.89,177.3-279.6,278.23-480.66,278.23-3.73,0-7.5-.04-11.26-.11Zm-475.8-919.84c-6.63,10.22-89,139.22-97.9,247.82-8.99,109.64.15,219.45,1.01,229.28l16.56,69.45c116.29,213.49,329.41,348.68,556.51,352.92,198.24,3.71,371.01-94.03,474.01-268.13,70.72-119.53,86.2-265.08,43.6-409.83-47.59-161.72-162.6-301.62-307.65-374.24-88.25-44.18-174.2-66.23-257.63-66.23-151.86,0-295.29,73.13-428.51,218.96Zm-89.97,550.24h.05-.05Z"/>
      <path class="cls-1" d="m2409.93,1073.77c-53.17,121.69-170.73,192.14-262.59,157.32-91.86-34.82-123.21-161.7-70.04-283.38.32-.77.69-1.57,1.06-2.32,53.62-120.27,170.32-189.58,261.54-155,70.97,26.89,105.81,108.73,93.5,200.66-3.64,27.06-11.37,55.05-23.46,82.72Z"/>
      <g class="cls-5">
        <path class="cls-4" d="m2409.93,1073.77c-53.17,121.69-170.73,192.14-262.59,157.32-91.86-34.82-123.21-161.7-70.04-283.38.32-.77.69-1.57,1.06-2.32,4.64,16.31,14.99,34.57,38.09,38.5,40.48,6.86,141.61-46.02,141.61-46.02,0,0,76.19,22.57,175.34,53.19-3.64,27.06-11.37,55.05-23.46,82.72Z"/>
      </g>
      <path class="cls-4" d="m2141.05,1247.68c-40.53-15.36-71.67-46.57-90.05-90.25-26.41-62.76-22.75-141.8,10.04-216.85,56.82-130.03,184.72-204.85,285.16-166.79,40.53,15.36,71.67,46.57,90.05,90.25,26.41,62.76,22.75,141.8-10.04,216.84h0c-46.79,107.06-141.79,176.72-229.94,176.71-18.9,0-37.49-3.2-55.22-9.92Zm-47.48-292.88c-28.49,65.2-32.17,135.81-9.85,188.86,14.52,34.49,38.69,58.98,69.92,70.82,82.98,31.46,190.68-34.85,240.05-147.81h0c28.49-65.2,32.17-135.8,9.85-188.86-14.51-34.49-38.69-58.98-69.92-70.82-13.97-5.3-28.63-7.82-43.6-7.82-73.99,0-155.39,61.68-196.45,155.63Z"/>
      <g>
        <ellipse class="cls-1" cx="2288.08" cy="1051.83" rx="191.16" ry="144.51" transform="translate(256.16 2539.43) rotate(-60.9)"/>
        <path class="cls-4" d="m2248.19,1234.9c-35.08-.83-65.15-15.41-86.97-42.17-52.47-64.33-38.41-179.87,31.34-257.57,38.87-43.3,88.12-67.45,135.42-66.38,35.08.83,65.15,15.41,86.97,42.17,52.47,64.33,38.4,179.87-31.35,257.56h0c-38.01,42.34-86.05,66.42-132.27,66.42-1.05,0-2.1-.01-3.14-.04Zm-52.84-297.23c-68.56,76.38-82.57,189.73-31.22,252.68,21.11,25.88,50.21,39.98,84.15,40.79,46,1.12,94.38-22.65,132.53-65.14h0c68.56-76.37,82.57-189.72,31.23-252.68-21.11-25.88-50.21-39.98-84.15-40.79-1.02-.02-2.03-.04-3.06-.04-45.15,0-92.18,23.62-129.48,65.17Z"/>
      </g>
      <g class="cls-5">
        <path class="cls-4" d="m2130.32,1071.78c5.84-35.73,21.64-69.92,43.71-98.9-6.37,82.62,47.18,140.62,125.32,131.87,50.49-5.63,99.64-37.89,133.77-82.75-.37,5.21-1.05,10.57-1.92,15.99-14.92,90.97-94.37,172.28-177.46,181.6-83.09,9.32-138.32-56.89-123.41-147.81Z"/>
      </g>
      <path class="cls-4" d="m2205.39,1243.55c-30.25-11.2-53.58-34.49-67.48-67.35-21.42-50.65-17.44-118.84,10.64-182.44,47.4-107.3,149.46-171.08,227.59-142.18,30.25,11.2,53.58,34.48,67.48,67.35,21.43,50.64,17.45,118.85-10.64,182.44h0c-39.67,89.82-117.67,149.14-187.83,149.14-13.66,0-27.03-2.25-39.76-6.96Zm195.13-156.52c24.2-54.8,28.1-112.47,10.42-154.27-9.99-23.62-26.29-40.18-47.12-47.88-60.81-22.51-142.83,32.76-182.79,123.23-24.2,54.8-28.1,112.47-10.42,154.26,9.99,23.62,26.28,40.18,47.12,47.89,60.84,22.52,142.84-32.77,182.8-123.23h0Z"/>
      <g class="cls-6">
        <path class="cls-1" d="m1949.82,343.48s-285.56-121.18-517.3-40.64c-.24.08-.49.17-.73.25-48.76,16.99-91.88,46.76-125.06,85.83-43.88,51.67-66.4,93.69-84.78,131.45-55.84,114.85-60.17,179.16-60.17,179.16-36.88-92.57-40.8-179.43,4.75-275.56,4.52-9.46,9.53-19.06,14.99-28.74,1.25-2.24,2.54-4.42,3.87-6.61-.04-.05,0-.09.1-.12,12.46-18.83,29.79-42.96,51.64-68.55,65.88-77.21,172.76-167.86,311.21-167.26,258.89,1.13,416.92,183.4,401.48,190.78Z"/>
      </g>
      <g class="cls-6">
        <ellipse class="cls-1" cx="2017.57" cy="708.1" rx="104.85" ry="91.28" transform="translate(961.88 2567.55) rotate(-79.75)"/>
      </g>
      <g class="cls-6">
        <ellipse class="cls-1" cx="1982.09" cy="895.27" rx="43.31" ry="37.68" transform="translate(920.31 2793.38) rotate(-85.09)"/>
      </g>
    </g>
  </g>
</svg>