<?xml version="1.0" encoding="UTF-8"?>
<svg id="Layer_2" data-name="Layer 2" xmlns="http://www.w3.org/2000/svg" viewBox="0 0 159.46 254.96">
  <defs>
    <style>
      .cls-1 {
        fill: #ff3b3b;
      }

      .cls-2 {
        fill: #fff;
      }

      .cls-3 {
        fill: #d8d8d8;
      }

      .cls-4 {
        fill: #d62d2d;
      }

      .cls-5 {
        fill: #22a7f0;
      }

      .cls-6 {
        fill: #220f2d;
      }

      .cls-7 {
        fill: #0685ed;
      }

      .cls-8 {
        fill: #371a45;
      }

      .cls-9 {
        opacity: .25;
      }

      .cls-10 {
        opacity: .35;
      }

      .cls-11 {
        opacity: .5;
      }

      .cls-12 {
        opacity: .7;
      }
    </style>
  </defs>
  <g id="Layer_2-2" data-name="Layer 2">
    <g>
      <g>
        <path class="cls-2" d="m122.02,141.22s-3.01,6.29-8.83,13.45c-6.97,8.58-17.96,18.42-32.64,20.19-25.73,3.11-44.86-22.25-44.86-22.25l16.18-18.68,4.93-5.69c21.2,23.51,46.83-11.5,46.83-11.5l18.39,24.48Z"/>
        <g class="cls-9">
          <path class="cls-8" d="m113.2,154.68c-6.97,8.58-17.96,18.42-32.64,20.19-25.73,3.11-44.86-22.25-44.86-22.25l16.18-18.68c5.13,2.86,12.71,7.27,12.71,7.27,0,0-5.88,23.18,13.2,24.31,18.75,1.11,14.16-23.79,14.16-23.79l21.25,12.94Z"/>
        </g>
        <path class="cls-8" d="m76.1,176.88c-23.99,0-41.03-22.21-41.79-23.22-.58-.77-.43-1.86.34-2.44.77-.58,1.86-.43,2.44.34.19.25,18.84,24.54,43.25,21.57,23.04-2.79,36.94-26.7,39.63-31.74l-16.37-21.79c-4.01,4.89-15.83,17.79-29.33,18.47-6.93.35-13.25-2.56-18.76-8.67-.65-.72-.59-1.82.13-2.46.72-.65,1.82-.59,2.46.13,4.77,5.28,10.14,7.81,15.98,7.52,14.67-.74,28.01-18.7,28.14-18.89l1.39-1.89,20.44,27.2-.46.95c-.61,1.28-15.27,31.29-42.83,34.62-1.58.19-3.14.28-4.67.28Z"/>
        <path class="cls-8" d="m78.57,176.36c-.21,0-.41-.05-.61-.15-.64-.34-.89-1.13-.55-1.77,9.32-17.75-1.77-37.53-1.88-37.73-.36-.63-.14-1.43.49-1.79.63-.36,1.43-.14,1.79.48.49.86,11.92,21.2,1.93,40.25-.23.45-.69.7-1.16.7Z"/>
        <g>
          <path class="cls-1" d="m2.9,126.38c.28.79.61,1.57,1,2.34,4.91,9.77,13.02,7.95,13.02,7.95,0,0,3.5,4.01,4.68,5.39,2.06,2.41,4.31,4.03,6.61,5.08,9.18,4.2,19.02-.72,19.42-1.04l6.59-5.08c8.69-4.06,5.08-27.11,5.08-27.11,0,0-.28-2.74-1.59-5.76-1.55-3.58-4.56-7.56-10.28-7.77,0-.02-.02-.05-.03-.08-4.82-14.4-16.41-12.91-23.88-10.25-11.63,4.14-25.98,21.2-20.61,36.33Z"/>
          <g class="cls-11">
            <path class="cls-2" d="m26.12,97.22s-17.59,5.39-16.93,22.21c0,0,5.49-14.18,16.93-22.21Z"/>
          </g>
          <g class="cls-12">
            <path class="cls-2" d="m32.09,115.13c-1.13-3.34,9.97-19.97,25.63-6.98-1.55-3.58-4.56-7.56-10.28-7.77,0-.02-.02-.05-.03-.08-1.06-.02-2.19.05-3.38.24-16.17,2.59-12.06,14.25-11.93,14.59Z"/>
          </g>
          <path class="cls-4" d="m2.9,126.38c.28.79.61,1.57,1,2.34,4.91,9.77,13.02,7.95,13.02,7.95,0,0,3.5,4.01,4.68,5.39,2.06,2.41,4.31,4.03,6.61,5.08-.33-1.56-.3-4.46,2.5-8.55,4.34-6.35,11.47-5.21,13.46-16.11,6.59-1.77,3.55-7.41,3.55-7.41,0,0,.41-3.04-2.56-3.6-3.71-.69-7.1,5.38-12.7,4.34-3.42-3.69.33-10.57,4.05-12.67-3.82.81-5.9.1-8.61,8.75-4.13,13.18-17.02,19.33-24.99,14.49Z"/>
          <g class="cls-12">
            <path class="cls-2" d="m3.9,128.72c.72,1.43,1.51,2.62,2.34,3.6-7.19-18.47,5.19-33.55,19.53-38.82,5.93-2.18,14.99-2.48,20.66,4.3-5.27-11.7-15.9-10.24-22.91-7.74-12.24,4.35-27.48,23.01-19.61,38.67Z"/>
          </g>
          <path class="cls-8" d="m36.38,150.56c-5.24,0-11.23-1.67-16.1-7.37-.86-1-2.98-3.44-4.04-4.66-3.6.32-9.95-1.19-13.89-9.03-3.03-6.03-3.13-12.97-.28-20.06,3.75-9.35,12.33-17.99,20.87-21.03,6.7-2.38,12.43-2.45,17.02-.21,3.9,1.91,6.84,5.45,8.75,10.54,8.6,1.08,11.82,10.09,12.33,14.95.42,2.7,3.47,24.47-6.08,28.92-.87.41-1.91.03-2.32-.84-.41-.87-.03-1.91.84-2.32,6.12-2.85,4.98-19.62,4.1-25.26,0-.03,0-.06-.01-.09-.05-.47-1.33-11.63-10.2-11.96-.73-.03-1.36-.5-1.59-1.19-1.58-4.76-4.05-7.98-7.35-9.6-3.72-1.82-8.54-1.69-14.32.36-6.47,2.3-15,9.58-18.8,19.04-1.72,4.28-3.09,10.74.16,17.2,4.2,8.36,10.81,7.09,11.09,7.03.61-.13,1.27.08,1.68.56.14.16,3.52,4.03,4.69,5.4,9.41,11.03,23.22,4,23.73,3.73.76-.51,1.79-.35,2.35.38.59.76.45,1.86-.32,2.45-.96.74-6.11,3.08-12.31,3.08Zm10.26-5.9s-.06.04-.07.05c.02-.02.05-.04.07-.05Z"/>
          <path class="cls-8" d="m43.3,122.61l-1.7-4.96,2.29,1.36c-1.71.55-3.36.86-5.15.96-3.15.24-6.89-.92-8.23-4.1-1.07-2.37-1.4-5.12-.52-7.64,1.21-3.57,4.21-6.05,7.45-7.58,3.16-1.47,6.6-2.12,10.05-2.01.96.03,1.72.83,1.69,1.8-.03.97-.85,1.73-1.82,1.69-5.29-.13-12.01,1.92-14.06,7.22-.62,1.75-.31,3.8.57,5.44.99,1.54,2.75,1.76,4.71,1.71,1.37-.07,2.87-.35,4.17-.77h.94c.75,0,1.36.61,1.35,1.36l-.02,5.27c0,.99-1.42,1.21-1.72.27h0Z"/>
          <path class="cls-8" d="m16.52,134.97c5-1.22,9.87-3.8,13.27-7.71,2.07-2.38,3.44-5.28,4.04-8.39.23-1.08,1.85-.82,1.72.29-.42,3.44-1.76,6.83-3.88,9.6-3.56,4.68-8.77,7.88-14.34,9.61-2.33.56-3.15-2.85-.8-3.39h0Z"/>
          <path class="cls-8" d="m42.42,115.87c1.78-.7,3.46-1.34,5.36-1.76.48-.1.94.21,1.04.68.08.4-.12.78-.46.96-1.06.63-2.14,1.47-3.13,2.27-.34.27-.69.56-1,.83-2.18,1.68-4.31-1.83-1.81-2.98h0Z"/>
          <path class="cls-1" d="m30.18,148.11c1.31,8.61,9.29,10.56,9.29,10.56,3.98.29,16.8-8.47,23.44-15.55.62-.65,1.18-1.3,1.67-1.92,1.47-1.82,2.36-3.44,2.4-4.64.16-6.03-7.29-11.78-7.29-11.78-.91,1.12-1.85,2.23-2.82,3.3-3.5,3.9-7.32,7.48-10.99,10.49-6.7,5.51-12.9,9.14-15.7,9.52Z"/>
          <g class="cls-12">
            <path class="cls-2" d="m56.87,128.09c1.75.85,3.77,2.25,5.61,4.54,2.68,3.33,2.62,6.49,2.1,8.58,1.47-1.82,2.36-3.44,2.4-4.64.16-6.03-7.29-11.78-7.29-11.78-.91,1.12-1.85,2.23-2.82,3.3Z"/>
          </g>
          <path class="cls-4" d="m30.18,148.11c1.31,8.61,9.29,10.56,9.29,10.56,3.98.29,16.8-8.47,23.44-15.55-2.92,2.66-7.03,5.03-12.37,5.01-7.81-.03-6.55-5.59-4.65-9.54-6.7,5.51-12.9,9.14-15.7,9.52Z"/>
          <path class="cls-8" d="m39.64,160.42c-.1,0-.2,0-.3-.01-.1,0-.19-.02-.29-.05-.37-.09-9.12-2.35-10.59-12-.07-.46.05-.93.33-1.31s.7-.62,1.16-.68c3.89-.53,17.96-9.77,28.39-22.69.6-.74,1.67-.86,2.42-.29.33.26,8.15,6.37,7.97,13.21-.07,2.6-2.71,6.28-7.85,10.94-5.83,5.27-16.46,12.88-21.23,12.88Zm-7.4-11.06c1.59,5.55,6.57,7.29,7.5,7.57,2.58-.04,11.58-5.45,18.79-11.98,4.9-4.43,6.68-7.32,6.71-8.44.09-3.43-3.13-7.19-5.33-9.25-8.95,10.61-21.29,19.86-27.67,22.1Z"/>
        </g>
      </g>
      <g>
        <g>
          <path class="cls-2" d="m107,101.2l1.32,13.97,4.57,48.35,2.43,25.74s.99.03,2.66,0c7.27-.13,27.34-1.32,33.9-10.49,2.98-4.18,4.31-16.01,4.18-28.93-.15-15.74-2.45-33.1-6.47-40.2-3.37-5.95-12.16-8.43-21.19-9.2-3.32-.29-6.67-.35-9.8-.26-4.65.12-8.8.57-11.6,1.03Z"/>
          <g class="cls-9">
            <path class="cls-8" d="m112.88,163.52l2.43,25.74s28.5.79,36.57-10.49c2.98-4.18,4.31-16.01,4.18-28.93l-17.72-2.63s-6.14.28-5.95,19.83c.05,5.47-8.23,7.8-14.57,3.6-2.3-1.52-3.86-4.07-4.95-7.12Z"/>
          </g>
          <path class="cls-8" d="m116.67,191.02c-.78,0-1.28-.01-1.41-.02-.96-.03-1.72-.83-1.7-1.79.03-.96.84-1.72,1.79-1.7.28,0,27.67.63,35.1-9.76,2.77-3.86,4.28-16.77,3.76-32.12-.52-15.67-2.94-29.46-6.15-35.13-5.61-9.91-29.9-9.38-40.78-7.58-.95.15-1.85-.49-2.01-1.44-.16-.95.49-1.85,1.44-2.01,9.95-1.65,37.31-3.19,44.39,9.3,4.21,7.43,6.17,23.85,6.6,36.73.43,12.98-.5,28.79-4.41,34.27-7.54,10.53-30.6,11.24-36.62,11.24Z"/>
          <path class="cls-2" d="m154.36,147.18l-14.94,1.62c-1.33.14-2.4,1.17-2.6,2.5-.71,4.86-1.78,16.17,3.04,19.73,4,2.96,10.32,2.38,13.93-.88,4.03-3.65,4.07-14.71,3.82-20.17-.08-1.7-1.57-2.98-3.26-2.79Z"/>
          <g class="cls-9">
            <path class="cls-8" d="m136.83,151.3c-.72,4.86-1.78,16.17,3.04,19.73,4,2.96,10.32,2.39,13.93-.88,2.48-2.25,3.45-7.29,3.77-12.12-.59,2.42-1.59,4.41-2.86,5.73-7.3,7.58-13.22-.87-13.22-.87,0,0-.91,2.13-1.68,2.28-3.24.61-2.91-9.62-2.61-14.9-.18.31-.31.66-.36,1.04Z"/>
          </g>
          <path class="cls-8" d="m146.13,174.7c-2.63,0-5.24-.75-7.3-2.27-5.39-3.99-4.65-15.11-3.73-21.39.31-2.11,2.01-3.75,4.13-3.98l14.94-1.62c1.28-.14,2.58.26,3.56,1.1.98.84,1.57,2.06,1.63,3.35.35,7.7-.13,17.68-4.4,21.55-2.38,2.15-5.63,3.26-8.84,3.26Zm8.42-25.78l-14.94,1.62c-.55.06-.98.48-1.06,1.02-1.05,7.12-.98,15.61,2.35,18.07,3.24,2.4,8.61,2.04,11.72-.77,2.47-2.24,3.69-9.26,3.25-18.8-.02-.34-.16-.64-.42-.86-.26-.22-.58-.32-.91-.28h0Zm-.19-1.73h0,0Z"/>
          <path class="cls-8" d="m142.67,153.99c.75,5.99.13,15.15,7.55,16.7.95.18,1.56,1.1,1.38,2.05-.18.95-1.1,1.56-2.05,1.38-1.07-.27-2.11-.7-3.07-1.3-2.71-1.6-4.36-4.74-4.95-7.61-.85-3.66-.55-7.44-.7-11.05-.05-1.17,1.67-1.33,1.84-.17h0Z"/>
          <path class="cls-8" d="m141.04,109.35c-4.03.42-8.09.98-12.08,1.69-3.86.71-7.93,1.51-11.52,2.98-2.13.86-3.48-2.24-1.38-3.21,6.13-1.92,12.4-2.26,18.72-2.71,2.06-.12,4.1-.21,6.17-.25.95,0,1.04,1.4.09,1.5h0Z"/>
        </g>
        <path class="cls-2" d="m87.01,207.85c-2.31,9.68,4.1,37.43-.87,42.25-3.83,3.72-15.28,2.85-23.36,3.09-10.14.3-17.77-2.83-18.15-10.37-.04-.87.01-1.81.17-2.8.9-5.57,7.15-7.36,7.15-7.36,0,0-11.76-36.86,11.54-60.53,3.88-3.94,8.73-7.51,14.76-10.49l37.59,22.24c-12.91,11.53-25.73,10.94-28.85,23.97Z"/>
        <g class="cls-9">
          <path class="cls-8" d="m87.01,207.85c-2.31,9.68,4.1,37.43-.87,42.25-3.83,3.72-15.28,2.85-23.36,3.09-10.14.3-17.77-2.83-18.15-10.37,7.91,6.25,26.55,5.61,35.07,1.74,5.14-2.34,4.2-10.19,3.57-19.44-.59-8.63.02-20.11-7.33-28.23-9.36-10.35-12.01-18.97-12.45-24.75,3.88-3.94,8.73-7.51,14.76-10.49l37.59,22.24c-12.91,11.53-25.73,10.94-28.85,23.97Z"/>
        </g>
        <path class="cls-8" d="m61.42,254.96c-7.35,0-12.82-1.82-15.88-5.3-2.27-2.59-3.1-5.93-2.46-9.92.75-4.69,4.54-7.09,6.76-8.12-1.04-3.88-3.39-14.42-2.34-26.79,1.21-14.27,7.4-33.61,29.98-44.76.86-.43,1.91-.07,2.34.79.43.86.07,1.91-.79,2.34-16.93,8.35-26.36,22.42-28.04,41.81-1.27,14.64,2.59,26.99,2.63,27.12.14.45.1.94-.13,1.35-.22.42-.6.72-1.06.85-.05.01-5.21,1.58-5.91,5.95-.47,2.92.08,5.29,1.64,7.07,2.5,2.85,7.68,4.3,14.56,4.09,1.61-.05,3.31-.05,5.11-.06,6.47-.02,14.51-.04,17.09-2.54,2.23-2.16,1.3-13.32.62-21.46-.66-7.96-1.29-15.48-.23-19.94,2.08-8.7,8.15-11.9,15.18-15.6,4.36-2.3,9.31-4.9,14.2-9.27.72-.64,1.82-.58,2.46.14.64.72.58,1.82-.14,2.46-5.22,4.66-10.36,7.37-14.9,9.76-6.79,3.58-11.7,6.16-13.41,13.32-.94,3.92-.3,11.5.31,18.84,1.09,13.04,1.52,21.17-1.66,24.26-3.58,3.48-11.68,3.5-19.51,3.52-1.78,0-3.46.01-5.02.06-.48.01-.95.02-1.41.02Z"/>
        <path class="cls-2" d="m139.66,163.3c-.03,5.46-.59,10.07-1.62,13.31-6.77,21.29-63.01,24.98-70.58-2.68-1.45-5.31-1.51-9.7-.84-14.14,2.1-14.01,11.4-28.45,6.62-73.57-.2-1.89,30.67,3.8,32.93,7.08,1.83,2.66,8-.79,11.97,3.93,15.31,17.82,21.62,47.1,21.52,66.08Z"/>
        <g class="cls-9">
          <path class="cls-8" d="m139.66,163.3c-.03,5.46-.59,10.07-1.62,13.31-6.77,21.29-63.01,24.98-70.58-2.68-1.45-5.31-1.51-9.7-.84-14.14,14.12,2.87,47.2,8.4,73.03,3.51Z"/>
        </g>
        <path class="cls-8" d="m102.51,195.37c-.41,0-.82,0-1.23-.01-14.47-.29-31.39-5.96-35.5-20.97h0c-2.68-9.79-.78-16.78,1.62-25.63,3.25-11.98,7.71-28.39,4.11-62.36-.07-.69.24-1.65,1.36-2.06,2.73-1.01,16.05,1.72,17.56,2.03,10.14,2.11,15.92,4.1,17.18,5.93.27.4,1.62.41,2.82.42,2.64.03,6.27.07,9.05,3.37,20.49,23.85,24.81,66.64,20.23,81.05-3.84,12.08-21.39,18.24-37.2,18.24Zm-33.36-21.9c3.6,13.16,19,18.14,32.21,18.4,17.01.35,32.06-6.44,35.03-15.79,2.33-7.32,1.98-21.65-.87-35.65-3.5-17.18-10.13-32.12-18.68-42.08-1.77-2.09-4.14-2.12-6.43-2.14-2.03-.02-4.33-.04-5.63-1.9-2.2-2.23-23.79-6.68-29.62-6.76,3.38,33.59-1.09,50.05-4.37,62.12-2.35,8.66-4.05,14.93-1.62,23.8Zm35.59-79.19s0,0,0,0c0,0,0,0,0,0Z"/>
        <g class="cls-10">
          <path class="cls-8" d="m81.85,167.62c.39-.6.8-1.21,1.22-1.82-.42.61-.82,1.23-1.22,1.82Z"/>
        </g>
        <g class="cls-10">
          <path class="cls-8" d="m89.46,165.29c.47-.74.95-1.47,1.45-2.23-.49.76-.98,1.5-1.45,2.23Z"/>
        </g>
        <path class="cls-2" d="m145.44,251.28c-8.28,2.42-20.36,2.44-25.37.77-3.13-1.04-6.17-4.31-5.28-9,.56-2.95,2.68-6.47,7.31-10.35-3.48-2-13.86-3.21-18.84-13.1-3.37-6.7-3.32-15.25-2.57-21.62.61-5.25,1.68-9,1.68-9l37.78-26.48c-.75,10.18-1.4,19.44-1.58,27.24-.14,6.14,0,11.38.62,15.43,7.91,7.99,13.88,11.17,16.01,16.56.35.88.59,1.81.73,2.84,1.02,7.88-3.41,24.65-10.49,26.72Z"/>
        <g class="cls-9">
          <path class="cls-8" d="m145.44,251.28c-8.28,2.42-20.36,2.44-25.37.77-3.13-1.04-6.17-4.31-5.28-9,.67,2.04,2.87,4.35,9.24,4.84,9.85.77,20.82.78,26.63-8.19,3.69-5.69,4.4-15,4.54-17.97.35.88.59,1.81.73,2.84,1.02,7.88-3.41,24.65-10.49,26.72Z"/>
        </g>
        <g class="cls-9">
          <path class="cls-8" d="m140.16,162.49c-.75,10.18-1.4,19.44-1.58,27.24-17.28-6.15-31.81,3.26-37.89,8.24.61-5.25,1.68-9,1.68-9l37.78-26.48Z"/>
        </g>
        <path class="cls-8" d="m103.21,189.22c-.2,4.49-.94,8.9-1.08,13.36-.24,14.03,3.61,22.57,17.42,27.1,1.08.42,2.16.79,3.42,1.51.83.48,1.12,1.54.65,2.37-.11.19-.25.35-.4.48-1.61,1.37-3.13,2.84-4.35,4.46-1.74,2.33-2.99,4.99-2.29,7.75,1.53,5.15,7.83,4.95,12.3,5.2,4.28.08,8.64-.24,12.83-1.06,1.94-.47,3.81-.61,5.27-2,5.09-4.86,7.78-16.29,7.25-23.2-.33-4.19-3.32-7.05-6.38-9.77l-5-4.38c-1.67-1.49-3.3-3.05-4.9-4.64-.27-.27-.43-.61-.48-.96-1-7.26-.72-14.44-.44-21.68.33-7.15.85-14.27,1.37-21.38.07-.96.91-1.68,1.87-1.61.96.07,1.68.91,1.61,1.87-.52,7.1-1.04,14.2-1.37,21.28-.28,6.97-.55,14.13.4,21,0,0-.48-.96-.48-.96,2.67,2.69,6.82,6.36,9.74,8.87,2.08,1.87,4.41,4,5.85,6.63,3.15,5.57,1.55,13.32,0,19.17-1.41,4.54-3.09,8.97-6.72,12.39-.73.66-1.62,1.25-2.55,1.66-.87.34-1.77.56-2.67.78-5.01,1.17-10.15,1.59-15.28,1.5-3.49-.15-7.21-.26-10.51-1.74-3.7-1.74-6.01-6-5.29-10.04.86-5.04,4.36-8.68,7.98-11.8,0,0,.25,2.85.25,2.85-.74-.39-1.85-.74-2.91-1.11-8.68-2.68-15.59-7.34-18.3-16.45-2.11-6.87-1.88-14.21-.68-21.21.47-2.3,1.12-4.54,2.2-6.7.22-.44.75-.62,1.19-.4.34.17.52.52.49.88h0Z"/>
        <circle class="cls-2" cx="69.74" cy="160.99" r="6.2"/>
        <g class="cls-9">
          <path class="cls-8" d="m63.54,161.06c.04,3.42,2.84,6.17,6.27,6.13,3.42-.04,6.17-2.85,6.13-6.27-.01-.95-.23-1.84-.63-2.64-.97,2.1-3.09,3.58-5.57,3.61s-4.63-1.4-5.64-3.48c-.38.81-.58,1.71-.57,2.66Z"/>
        </g>
        <path class="cls-8" d="m69.74,168.93c-4.34,0-7.89-3.51-7.94-7.86h0c-.05-4.38,3.48-7.98,7.86-8.03,4.36-.04,7.98,3.48,8.03,7.86.05,4.38-3.48,7.98-7.86,8.03-.03,0-.06,0-.09,0Zm-4.45-7.89c.03,2.44,2.02,4.41,4.45,4.41.02,0,.03,0,.05,0,2.46-.03,4.43-2.05,4.41-4.5-.03-2.46-2.07-4.43-4.5-4.41-2.46.03-4.43,2.05-4.41,4.5h0Z"/>
        <path class="cls-2" d="m76.36,177.1l32.73,1.58c3.87.19,7.2-2.83,7.39-6.71l.84-17.42c.16-3.4-2.13-6.37-5.31-7.18-.45-.12-.92-.19-1.4-.21l-32.73-1.58c-3.88-.19-7.21,2.83-7.39,6.71l-.67,13.8-.18,3.62c-.19,3.88,2.83,7.2,6.71,7.39Z"/>
        <g class="cls-9">
          <path class="cls-8" d="m76.36,177.1l32.73,1.58c3.87.19,7.2-2.83,7.39-6.71l.84-17.42c.16-3.4-2.13-6.37-5.31-7.18-1.92,1.14-3.14,1.88-3.14,1.88-2.27,13.91-2.16,24.3-23.78,21.81-7.46-.86-12.36-3.3-15.27-4.98l-.18,3.62c-.19,3.88,2.83,7.2,6.71,7.39Z"/>
        </g>
        <path class="cls-8" d="m107.15,179.9c-.18,0-.35,0-.53-.01l-27.92-1.35c-2.86-.14-5.51-1.39-7.45-3.53-1.94-2.14-2.93-4.89-2.79-7.76l.61-12.61c.14-2.86,1.39-5.51,3.53-7.45,2.14-1.94,4.89-2.93,7.76-2.79l27.92,1.35c5.93.29,10.53,5.35,10.24,11.29l-.61,12.61c-.14,2.86-1.39,5.51-3.53,7.45-2.01,1.82-4.55,2.81-7.23,2.81Zm-.4-2.63c2.16.11,4.25-.65,5.87-2.12,1.62-1.47,2.57-3.47,2.67-5.64l.61-12.61c.22-4.49-3.26-8.32-7.75-8.54l-27.92-1.35c-2.16-.11-4.25.65-5.87,2.12-1.62,1.47-2.57,3.47-2.67,5.64l-.61,12.61c-.22,4.49,3.26,8.32,7.75,8.54l27.92,1.35Z"/>
        <path class="cls-2" d="m75.05,176.91c.42.11.85.17,1.31.19l32.73,1.58c2.84.14,5.38-1.44,6.61-3.83.45-.87.72-1.84.77-2.88l.38-7.74.12-2.55.35-7.13c.19-3.88-2.83-7.2-6.71-7.39l-7.07-.34c3.23.77,5.57,3.77,5.41,7.2l-.45,9.41-.39,8.01c-.19,3.87-3.52,6.9-7.39,6.71l-25.67-1.25Z"/>
        <path class="cls-3" d="m75.05,176.91c.42.11.85.17,1.31.19l32.73,1.58c3.87.19,7.2-2.83,7.38-6.71l.5-10.29c-.91,1.78-2.5,3.94-4.88,4.06-1.3.07-2.54-.93-3.6-2.31l-.39,8.01c-.19,3.87-3.52,6.9-7.39,6.71l-25.67-1.25Z"/>
        <path class="cls-8" d="m109.45,180.01c-.14,0-.28,0-.41-.01l-32.69-1.71v-.03c-.76-.12-1.29-.41-1.25-1.34l.06-1.3,1.39.06c1.37.07,24.01,1.17,24.25,1.18,1.52.07,2.99-.45,4.13-1.49,1.14-1.04,1.81-2.45,1.88-3.97l.84-17.42c.13-2.75-1.72-5.22-4.4-5.86l.37-2.58,7.07.34c2.23.11,4.28,1.08,5.79,2.74,1.51,1.66,2.28,3.8,2.17,6.02l-.84,17.42c-.11,2.22-1.08,4.28-2.74,5.79-1.56,1.41-3.53,2.18-5.61,2.18Zm-2.71-2.75l2.43.13c1.52.08,2.99-.45,4.13-1.49,1.14-1.04,1.81-2.45,1.88-3.97h0s.84-17.42.84-17.42c.07-1.53-.45-2.99-1.49-4.13-1.04-1.14-2.45-1.81-3.97-1.89l-2.19-.11c1.29,1.56,2.01,3.58,1.9,5.72l-.84,17.42c-.11,2.2-1.06,4.24-2.69,5.74Z"/>
        <path class="cls-5" d="m95.62,162.26c-.03.64.66,5.88.66,5.88,0,0,1.65.07,3.67.16,2.53.11,4.69-2.42,4.83-5.65.14-3.23-1.8-5.93-4.33-6.04-1.71-.07-3.67-.16-3.67-.16,0,0-1.11,4.76-1.16,5.81Z"/>
        <path class="cls-7" d="m95.62,162.26c-.03.64.66,5.88.66,5.88,0,0,1.65.07,3.67.16,2.53.11,4.69-2.42,4.83-5.65.14-3.23-1.8-5.93-4.33-6.04-1.71-.07-3.67-.16-3.67-.16,0,0-1.11,4.76-1.16,5.81Z"/>
        <path class="cls-8" d="m100.11,169.35c-.07,0-.14,0-.2,0l-4.55-.19-.11-.87c-.16-1.25-.69-5.38-.66-6.07h0c.05-1.09.99-5.19,1.18-6l.2-.85,4.54.19c1.55.07,2.96.88,3.97,2.29.95,1.33,1.44,3.05,1.36,4.85-.08,1.79-.7,3.47-1.77,4.71-1.08,1.26-2.47,1.94-3.95,1.94Zm-2.9-2.22l2.79.12c.89.04,1.77-.39,2.47-1.21.76-.89,1.21-2.11,1.27-3.44.06-1.33-.29-2.58-.97-3.54-.63-.87-1.46-1.38-2.36-1.41l-2.8-.12c-.41,1.8-.91,4.17-.93,4.76,0,.37.25,2.6.54,4.83Z"/>
        <ellipse class="cls-5" cx="96.53" cy="162.3" rx="5.85" ry="4.58" transform="translate(-69.74 251.82) rotate(-87.56)"/>
        <path class="cls-7" d="m101.1,162.49c-.14,3.23-2.3,5.76-4.83,5.65-2.53-.11-4.47-2.81-4.33-6.04.02-.44.07-.86.17-1.27.56,2.25,2.16,3.9,4.13,3.98,2.18.09,4.1-1.78,4.66-4.38.16.65.23,1.34.2,2.06Z"/>
        <path class="cls-2" d="m101.1,162.49c0,.22-.03.44-.06.65-.39-2.55-2.11-4.5-4.25-4.59-2.36-.1-4.4,2.09-4.77,5.01-.07-.47-.1-.96-.08-1.46.14-3.23,2.3-5.76,4.83-5.65,2.53.11,4.46,2.81,4.33,6.04Z"/>
        <path class="cls-8" d="m96.43,169.19c-.07,0-.13,0-.2,0-3.1-.13-5.49-3.33-5.33-7.13h0c.16-3.8,2.83-6.8,5.92-6.65,3.1.13,5.49,3.33,5.33,7.13-.16,3.72-2.71,6.66-5.72,6.66Zm-3.44-7.05h0c-.11,2.65,1.38,4.87,3.33,4.95,1.94.09,3.62-2,3.74-4.65.11-2.65-1.38-4.87-3.33-4.95-1.93-.07-3.62,2-3.74,4.65Z"/>
        <path class="cls-8" d="m86.54,178.78s-.02,0-.03,0c-.72-.02-1.29-.62-1.28-1.34l.22-8.82c.04-1.61-.72-3.12-2.05-4.04-2.09-1.46-3.27-3.85-3.16-6.4l.56-12.43c.03-.72.66-1.28,1.37-1.25.72.03,1.28.64,1.25,1.37l-.56,12.43c-.07,1.65.69,3.2,2.04,4.14,2.04,1.43,3.22,3.76,3.16,6.25l-.22,8.82c-.02.71-.6,1.28-1.31,1.28Z"/>
        <path class="cls-2" d="m140.76,156.27s3.97,1.44,3.99,5.74c.02,5.14-4.05,6.3-4.05,6.3,0,0-7.19,4.55-27.49.39,0,0-4.41-7.44,1.68-10.61,0,0,14.59,1.88,25.88-1.81Z"/>
        <g class="cls-9">
          <path class="cls-8" d="m113.2,168.69c20.3,4.16,27.49-.39,27.49-.39,0,0,4.07-1.15,4.05-6.29,0-1.04-.24-1.91-.59-2.64-.94,3.23-3.76,4.03-3.76,4.03,0,0-7.19,4.55-27.49.39,0,0-.56-.94-1-2.29-.99,3.34,1.3,7.2,1.3,7.2Z"/>
        </g>
        <path class="cls-8" d="m128.61,171.75c-4.07,0-9.23-.46-15.68-1.78-.36-.07-.68-.3-.86-.62-.1-.18-2.53-4.35-1.44-8.17.53-1.85,1.75-3.28,3.64-4.27.24-.12.51-.17.77-.14.14.02,14.44,1.79,25.3-1.76.28-.09.58-.09.85.01.2.07,4.83,1.81,4.85,6.96.02,4.7-3.06,6.93-4.84,7.51-.84.46-4.59,2.24-12.6,2.24Zm-14.54-4.22c18.89,3.76,25.86-.3,25.93-.34.1-.06.22-.11.33-.15.31-.09,3.12-1.06,3.1-5.03,0-2.64-1.93-3.91-2.76-4.34-10.39,3.23-23,2.04-25.53,1.76-1.04.62-1.69,1.43-1.99,2.46-.61,2.11.41,4.6.92,5.63Z"/>
        <g>
          <path class="cls-2" d="m22.38,81.59c3.54,9.19,9.42,17.55,17.41,24.12,1.63,1.34,3.34,2.61,5.13,3.79.87.58,1.77,1.13,2.69,1.68,2.77,1.62,5.62,3,8.53,4.13,2.5.98,5.05,1.78,7.62,2.41,3.1.76,6.23,1.26,9.36,1.52,1.14.09,2.29.15,3.43.18,20.89.51,41.45-9.82,52.91-28.78,16.89-27.94,7.62-64.04-20.7-80.64-5.46-3.19-11.22-5.44-17.1-6.77-.68-.16-1.38-.3-2.07-.43-1.86-.35-3.72-.62-5.58-.8-4.31-.41-8.63-.34-12.88.17-4.25.51-8.44,1.46-12.47,2.85-1.28.44-2.55.92-3.81,1.45-1.88.79-3.72,1.67-5.52,2.66-8.97,4.88-16.79,12.1-22.42,21.41-9.72,16.07-10.77,34.84-4.53,51.05Z"/>
          <path class="cls-8" d="m78.03,119.62c-.49,0-.99,0-1.48-.02-1.14-.03-2.3-.09-3.44-.18-3.18-.26-6.34-.77-9.39-1.52-2.61-.64-5.18-1.45-7.64-2.42-2.94-1.15-5.81-2.54-8.55-4.15-1.01-.6-1.89-1.15-2.7-1.68-1.76-1.16-3.49-2.44-5.15-3.8-7.8-6.43-13.84-14.79-17.46-24.2-6.53-16.96-4.87-35.62,4.55-51.2,5.44-9.01,13.22-16.44,22.48-21.48,1.75-.96,3.62-1.86,5.54-2.66,1.23-.52,2.52-1.01,3.82-1.45,4.05-1.39,8.26-2.35,12.51-2.85,4.29-.52,8.64-.57,12.92-.17,1.86.18,3.75.45,5.6.8.74.14,1.42.28,2.08.43,5.99,1.35,11.76,3.64,17.15,6.79,13.79,8.08,23.53,20.99,27.42,36.34,3.86,15.23,1.5,31.05-6.66,44.54-10.82,17.91-30.49,28.88-51.59,28.89Zm.34-117.7c-2.41,0-4.82.14-7.21.43-4.23.5-8.41,1.46-12.44,2.84-1.29.44-2.57.93-3.8,1.44-1.91.8-3.76,1.69-5.51,2.65-9.21,5.01-16.94,12.39-22.35,21.35-9.36,15.49-11.01,34.03-4.52,50.89,3.6,9.35,9.6,17.66,17.35,24.05,1.65,1.35,3.37,2.62,5.12,3.78.81.53,1.68,1.08,2.68,1.67,2.72,1.6,5.58,2.98,8.5,4.12,2.44.96,5,1.77,7.6,2.41,3.04.75,6.18,1.26,9.34,1.52,1.13.09,2.28.15,3.42.18,21.54.52,41.75-10.47,52.76-28.7,8.11-13.42,10.46-29.14,6.62-44.28-3.87-15.26-13.55-28.08-27.26-36.12-5.35-3.13-11.09-5.4-17.05-6.75-.65-.15-1.33-.3-2.07-.43-1.84-.35-3.71-.62-5.56-.79-1.87-.18-3.75-.26-5.63-.26Z"/>
        </g>
        <g class="cls-9">
          <path class="cls-8" d="m129.46,90.64c-11.46,18.97-32.03,29.29-52.92,28.78-1.14-.03-2.28-.09-3.42-.18-3.14-.26-6.27-.76-9.36-1.52-2.57-.63-5.11-1.43-7.62-2.41-2.91-1.13-5.76-2.51-8.53-4.13-.91-.55-1.81-1.1-2.69-1.68-1.8-1.18-3.5-2.45-5.13-3.79-7.98-6.58-13.87-14.93-17.41-24.12-1.94-5.05-3.18-10.35-3.67-15.74,3.58,8.7,9.29,16.58,16.9,22.86,1.63,1.34,3.34,2.61,5.13,3.79.87.58,1.77,1.13,2.69,1.68,2.77,1.62,5.62,3,8.53,4.14,2.51.98,5.05,1.78,7.62,2.41,3.1.76,6.23,1.26,9.36,1.52,1.15.09,2.29.15,3.43.18,20.89.51,41.45-9.81,52.92-28.78,6.69-11.06,9.27-23.41,8.19-35.31,6.8,16.49,5.95,35.83-4.02,52.32Z"/>
        </g>
        <path class="cls-8" d="m78.03,120.79c-.5,0-1.01,0-1.51-.02-1.17-.03-2.34-.09-3.5-.18-3.24-.27-6.46-.79-9.58-1.55-2.66-.65-5.28-1.48-7.79-2.47-2.99-1.17-5.93-2.59-8.72-4.23-1.03-.61-1.93-1.17-2.75-1.72-1.79-1.18-3.56-2.48-5.25-3.87-7.96-6.56-14.12-15.09-17.81-24.68h0c-6.66-17.3-4.97-36.34,4.64-52.23,5.55-9.19,13.48-16.76,22.93-21.9,1.79-.98,3.69-1.89,5.64-2.72,1.26-.53,2.57-1.03,3.9-1.48,4.13-1.41,8.42-2.39,12.75-2.91,4.37-.53,8.81-.58,13.17-.17,1.9.18,3.82.45,5.71.81.75.14,1.45.28,2.13.44,6.1,1.38,11.98,3.71,17.47,6.92,14.06,8.24,24,21.41,27.97,37.06,3.94,15.53,1.53,31.67-6.8,45.44-11.04,18.27-31.09,29.45-52.59,29.45Zm.34-117.7c-2.36,0-4.72.14-7.07.42-4.15.49-8.25,1.43-12.2,2.78-1.27.43-2.52.91-3.72,1.41-1.87.79-3.69,1.66-5.4,2.6-9.03,4.91-16.61,12.15-21.91,20.93-9.17,15.17-10.79,33.35-4.43,49.86h0c3.52,9.16,9.4,17.31,17,23.57,1.61,1.33,3.3,2.57,5.02,3.7.79.52,1.65,1.06,2.64,1.65,2.66,1.56,5.47,2.92,8.33,4.04,2.4.94,4.9,1.74,7.45,2.36,2.98.73,6.06,1.23,9.15,1.49,1.11.09,2.24.15,3.35.18.48.01.97.02,1.45.02,20.56,0,39.73-10.69,50.28-28.15,7.95-13.15,10.25-28.55,6.49-43.38-3.79-14.95-13.28-27.52-26.71-35.39-5.25-3.07-10.87-5.3-16.71-6.61-.65-.15-1.3-.29-2.02-.42-1.81-.35-3.65-.61-5.46-.78-1.83-.17-3.67-.26-5.52-.26Z"/>
        <path class="cls-8" d="m78.03,121.19c-.51,0-1.01,0-1.52-.02-1.17-.03-2.36-.09-3.52-.19-3.26-.27-6.51-.8-9.64-1.56-2.68-.66-5.32-1.49-7.84-2.48-3.01-1.17-5.96-2.61-8.77-4.25-1.04-.61-1.94-1.18-2.77-1.73-1.8-1.19-3.58-2.5-5.28-3.9-8.01-6.6-14.21-15.19-17.93-24.84h0c-6.7-17.42-5-36.58,4.67-52.58,5.59-9.25,13.57-16.87,23.08-22.04,1.8-.98,3.71-1.9,5.68-2.73,1.27-.53,2.58-1.03,3.92-1.49,4.15-1.42,8.47-2.41,12.83-2.93,4.4-.53,8.86-.59,13.25-.17,1.91.18,3.84.46,5.74.82.76.14,1.46.29,2.15.45,6.14,1.39,12.06,3.73,17.58,6.96,14.16,8.3,24.15,21.55,28.15,37.3,3.97,15.64,1.54,31.88-6.84,45.74-11.11,18.38-31.28,29.64-52.93,29.64Zm.34-117.7c-2.34,0-4.69.14-7.03.42-4.12.49-8.2,1.42-12.12,2.76-1.26.43-2.51.9-3.7,1.4-1.86.78-3.66,1.65-5.36,2.58-8.97,4.88-16.49,12.07-21.76,20.79-9.11,15.07-10.71,33.12-4.4,49.52h0c3.5,9.09,9.34,17.19,16.89,23.4,1.6,1.32,3.28,2.56,4.98,3.68.79.52,1.64,1.06,2.62,1.64,2.64,1.55,5.43,2.9,8.27,4.01,2.38.94,4.87,1.72,7.4,2.34,2.96.73,6.02,1.22,9.09,1.48,1.1.09,2.22.15,3.33.18.48.01.96.02,1.44.02,20.43,0,39.46-10.62,49.94-27.96,7.89-13.06,10.18-28.35,6.45-43.08-3.77-14.85-13.19-27.33-26.53-35.15-5.21-3.05-10.79-5.26-16.6-6.57-.64-.15-1.29-.29-2-.42-1.8-.34-3.63-.6-5.43-.78-1.82-.17-3.65-.26-5.48-.26Z"/>
        <path class="cls-8" d="m29.59,94.87c31.4,28.43,80.88,17.59,89-23.3,5.53-27.82-17.83-54.58-45.27-58.06-19.97-2.53-40.6,3.61-53.11,33.09,0,0-3.49,13.89-.9,23.78,2.59,9.89,6.81,19.08,6.81,19.08l3.48,5.4Z"/>
        <path class="cls-6" d="m118.59,71.58c-8.12,40.89-57.6,51.72-89,23.3l-.7-1.1c37.22,11.72,78.3-5.81,87.3-47,3.07,7.73,4.11,16.21,2.4,24.79Z"/>
        <path class="cls-8" d="m69.89,118.12c-4.65,0-9.36-.5-14.03-1.53l-.2-.06c-2.99-1.17-5.92-2.59-8.71-4.22-1.03-.61-1.93-1.17-2.75-1.72-1.79-1.18-3.56-2.48-5.24-3.87-7.95-6.55-14.11-15.08-17.8-24.66h0c-6.66-17.29-4.97-36.31,4.64-52.19,5.55-9.18,13.47-16.75,22.91-21.89l.12-.06.13-.04c7.51-2.27,15.95-2.83,25.09-1.67,16.44,2.08,32.25,11.65,42.3,25.61,9.05,12.56,12.49,27.19,9.71,41.21-3.03,15.27-11.18,27.62-23.56,35.71-9.43,6.17-20.83,9.39-32.6,9.39Zm-13.37-4.06c15.76,3.43,31.98.69,44.53-7.52,11.77-7.7,19.53-19.47,22.42-34.03,2.64-13.3-.65-27.21-9.26-39.17-9.63-13.37-24.77-22.54-40.5-24.54-8.72-1.1-16.75-.58-23.87,1.55-8.98,4.91-16.52,12.13-21.8,20.88-9.18,15.18-10.79,33.37-4.43,49.9h0c3.53,9.16,9.41,17.32,17.02,23.58,1.61,1.33,3.3,2.57,5.02,3.71.79.52,1.65,1.06,2.64,1.65,2.64,1.55,5.41,2.89,8.24,4Z"/>
        <path class="cls-8" d="m69.82,112.54c-14.75,0-29.62-5.7-41.4-16.37l-.17-.15-3.72-5.81c-.17-.38-4.31-9.44-6.91-19.37-2.67-10.21.75-24.07.9-24.65l.09-.26C29.58,20.04,48.07,8.55,73.54,11.79c14.78,1.87,28.99,10.48,38.03,23.01,8.14,11.3,11.24,24.48,8.73,37.12-3.64,18.3-15.69,32.09-33.07,37.84-5.65,1.87-11.52,2.78-17.41,2.78Zm-38.89-18.81c15.54,13.97,36.68,18.84,55.2,12.72,16.16-5.34,27.36-18.18,30.75-35.21,2.32-11.67-.57-23.89-8.14-34.4-8.48-11.77-21.8-19.84-35.64-21.59-23.69-3-40.93,7.73-51.23,31.91-.33,1.39-3.19,13.94-.88,22.79,2.37,9.05,6.18,17.62,6.66,18.69l3.28,5.1Z"/>
        <path class="cls-2" d="m145.18,72.45c-.86,11.58-8.51,20.8-17.09,20.59-8.58-.21-14.85-9.76-13.99-21.34,0-.07.01-.15.02-.22.93-11.47,8.55-20.57,17.07-20.37,6.63.16,11.88,5.9,13.53,13.84.48,2.34.66,4.87.46,7.5Z"/>
        <g class="cls-9">
          <path class="cls-8" d="m145.18,72.45c-.86,11.58-8.51,20.8-17.09,20.59-8.58-.21-14.85-9.76-13.99-21.34,0-.07.01-.15.02-.22.86,1.21,2.24,2.42,4.26,2.07,3.54-.61,10.34-7.9,10.34-7.9,0,0,6.94-.35,16-.7.48,2.34.66,4.87.46,7.5Z"/>
        </g>
        <path class="cls-8" d="m128.36,94.79c-.11,0-.21,0-.32,0-3.84-.09-7.36-1.79-10.18-4.89-4.03-4.45-6.04-11.13-5.51-18.32.91-12.33,9.2-22.2,18.56-22.2.11,0,.21,0,.32,0,3.84.09,7.36,1.79,10.18,4.89,4.03,4.45,6.04,11.13,5.51,18.32l-1.74-.13,1.74.13c-.91,12.33-9.2,22.2-18.56,22.2Zm2.54-41.93c-7.56,0-14.29,8.44-15.07,18.97-.46,6.15,1.27,12.03,4.61,15.72,2.16,2.38,4.82,3.68,7.68,3.75,7.64.2,14.53-8.32,15.31-18.97.46-6.15-1.27-12.03-4.61-15.72-2.16-2.38-4.82-3.68-7.68-3.75-.08,0-.16,0-.25,0Z"/>
        <g>
          <ellipse class="cls-2" cx="134.49" cy="74.18" rx="16.71" ry="12.63" transform="translate(38.65 194.2) rotate(-80.27)"/>
          <path class="cls-8" d="m133.27,90.98c-1.8,0-3.55-.5-5.17-1.49-6.2-3.79-8.39-13.73-4.89-22.17,1.95-4.7,5.33-8.13,9.25-9.41,2.92-.95,5.83-.62,8.41.96,6.2,3.79,8.39,13.73,4.89,22.17h0c-1.95,4.7-5.33,8.13-9.25,9.41-1.09.35-2.18.53-3.25.53Zm2.44-33.24c-1.03,0-2.08.17-3.13.51-3.83,1.24-7.12,4.6-9.03,9.2-3.44,8.28-1.31,18.02,4.74,21.72,2.49,1.52,5.29,1.84,8.11.92,3.83-1.24,7.12-4.6,9.03-9.2h0c3.44-8.28,1.31-18.02-4.74-21.72-1.56-.95-3.24-1.43-4.98-1.43Z"/>
        </g>
        <g class="cls-9">
          <path class="cls-8" d="m122.06,80.4c-.55-3.12-.24-6.39.74-9.42,1.87,7,7.97,10.23,14.16,7.24,4-1.93,7.12-6.01,8.63-10.7.12.44.22.9.31,1.37,1.41,7.93-2.79,16.94-9.37,20.12-6.58,3.18-13.06-.68-14.46-8.61Z"/>
        </g>
        <path class="cls-8" d="m133.4,92.58c-.06,0-.11,0-.17,0-2.87-.05-5.52-1.31-7.66-3.66-3.27-3.59-4.94-9.39-4.46-15.5.82-10.5,7.31-18.63,14.84-18.5,2.87.05,5.52,1.31,7.66,3.66,3.27,3.59,4.94,9.39,4.46,15.5h0c-.81,10.42-7.24,18.5-14.67,18.5Zm2.39-34.17c-5.44,0-10.55,6.96-11.2,15.29-.4,5.17.93,9.98,3.56,12.88,1.47,1.62,3.25,2.49,5.13,2.52.03,0,.07,0,.1,0,5.44,0,10.55-6.96,11.2-15.29.4-5.17-.93-9.98-3.56-12.88-1.47-1.62-3.25-2.49-5.13-2.52-.03,0-.07,0-.1,0Zm10.54,15.54h0,0Z"/>
        <g class="cls-11">
          <path class="cls-2" d="m86.27,27.48s-23.25-5.84-39.28,6.93c-.02.01-.03.03-.05.04-3.37,2.69-8.05,9.91-9.58,13.91-2.03,5.29-2.64,9.23-3.04,12.71-1.22,10.6.22,15.79.22,15.79-5.47-6.28-8.19-13.01-7.26-21.86.09-.87.22-1.77.38-2.68.04-.21.08-.42.12-.63,0,0,0,0,0-.01.46-1.83,1.16-4.21,2.17-6.84,3.05-7.91,8.44-17.5,19.37-21.29,20.44-7.09,37.95,2.9,36.94,3.91Z"/>
        </g>
        <g class="cls-11">
          <ellipse class="cls-2" cx="98.6" cy="59.96" rx="7.98" ry="9.17" transform="translate(-8.26 16.4) rotate(-9.13)"/>
        </g>
        <g class="cls-11">
          <ellipse class="cls-2" cx="101.1" cy="76.42" rx="3.29" ry="3.79" transform="translate(-15.88 27.66) rotate(-14.46)"/>
        </g>
        <path class="cls-2" d="m131.21,119.68l-8.47,9.79s0,0,0,0l-5.71,6.59-.41.47s-1.73,3.3-4.54,7.66c0,0,0,0,0,.01-4.68,7.27-12.35,17.48-19.94,20.19-21.67,7.76-36.48-18.59-36.48-18.59l19.92-23.26,9.08,9.08.02.02s14.39-27.17,31.41-27.07c9.21.06,15.13,15.1,15.13,15.1Z"/>
        <g class="cls-9">
          <path class="cls-8" d="m112.07,144.2c-4.68,7.27-12.35,17.48-19.94,20.19-21.67,7.76-36.48-18.59-36.48-18.59l19.92-23.26,9.08,9.08c-1.02,2.88-3.23,6.61-5.47,15.2-3.51,13.46,16.91,20,32.89-2.64Z"/>
        </g>
        <path class="cls-8" d="m129.75,120.25c-2.37-5.44-7.16-13.94-13.76-14.09-8.51.16-15.57,6.87-20.84,12.99-3.41,4.08-6.52,8.6-9.09,13.24-.47.93-1.78,1.12-2.5.38,0,0-9.1-9.1-9.1-9.1l2.3-.09-19.92,23.25s.18-1.8.18-1.79c2.59,4.16,5.83,8.11,9.52,11.36,6.64,6.06,15.44,9.59,24.31,6.64,5.47-1.74,9.48-6.16,13.22-10.42,4.32-5.14,8.2-10.77,11.88-16.48.52-.8,1.77-.13,1.38.75-4.64,9.99-12.91,23.05-22.84,28.29-8.74,4.15-18.25,2.53-26.02-2.91-5.87-4.1-10.56-9.56-14.17-15.7-.34-.59-.25-1.31.18-1.79l19.92-23.25c.59-.69,1.66-.73,2.3-.09l9.1,9.1-2.5.38c6-10.56,15.99-24.18,28.27-27.34,0,0,1.08-.25,1.08-.25.59-.05,1.62-.27,2.22-.26,2.72-.29,5.59.61,7.75,2.17,4.83,3.53,7.72,8.54,10.06,13.87.73,1.98-2.12,3.09-2.92,1.15h0Z"/>
        <g>
          <path class="cls-2" d="m51.95,232.66s10.09-3.14,25.81,1.82"/>
          <path class="cls-8" d="m51.43,231c6.67-1.47,13.63-.75,20.21.77,2.16.5,4.27,1.18,6.38,1.88.46.15.71.64.56,1.1-.14.44-.6.69-1.04.58-4.15-1.12-8.41-1.91-12.71-2.14-4.16-.17-8.39-.02-12.39,1.15-2.28.7-3.31-2.64-1.02-3.34h0Z"/>
        </g>
        <g>
          <path class="cls-1" d="m72.14,134.46l-21.49,7.7s-18.81-7.37-24.72-25.96c-2.01-6.34-1.79-11.46-.28-15.66,1.19-3.33,3.19-6.08,5.53-8.4,2.86-2.85,6.22-5.05,9.22-6.88,5.85-3.57,18.58-4.51,21.35,6.93,0,0,.06-.03.17-.09,0,0,.02,0,.03-.01,1-.48,5.63-2.38,10.72.88.28.18.56.37.85.59,9.16,6.86,3.39,22.58,1.93,25.59-.3.62-.82,2.81-1.36,5.36-.94,4.45-1.94,9.96-1.94,9.96Z"/>
          <g class="cls-11">
            <path class="cls-2" d="m70.7,95.82c.58-.19,5.74,3.46,4.74,11-.27,2.02-.77,3.14-1.16,3.08-.92-.14-1.13-4.93-1.74-7.96-.63-3.12-2.43-5.93-1.84-6.12Z"/>
          </g>
          <g class="cls-11">
            <path class="cls-2" d="m32.01,106.44c-.72-.83,3.93-11.94,15.03-14.83,3.54-.92,5.73-.89,5.9-.22.42,1.62-7.65,4.32-12.14,7.56-5.47,3.96-8.08,8.32-8.8,7.49Z"/>
          </g>
          <g class="cls-12">
            <path class="cls-2" d="m61.51,95.95s-.38-9.35-12.81-9.45c-10.92-.09-23.05,14.04-23.05,14.04,1.19-3.33,3.19-6.08,5.53-8.4,2.86-2.85,6.22-5.05,9.22-6.88,5.85-3.57,18.58-4.51,21.35,6.93,0,0,.06-.03.17-.09,0,0,.02,0,.03-.01-.21,2.07-.43,3.87-.43,3.87Z"/>
          </g>
          <path class="cls-4" d="m72.66,92.96c-.09,0-.17-.02-.26-.02-7.91-.94-8.76,7.38-8.76,7.38-1.25-3.31-1.62-6.34-1.73-8.22.94-.46,5.61-2.42,10.74.86Z"/>
          <path class="cls-4" d="m72.14,134.46l-21.49,7.7s-18.81-7.37-24.72-25.96c-3.61-11.36-.04-18.81,5.24-24.07-4.39,6.97-5.22,20.35,5.11,30.1,15.79,14.89,37.04-1.98,37.04-1.98l.75,4.25c-.94,4.45-1.94,9.96-1.94,9.96Z"/>
          <path class="cls-8" d="m50.64,143.9c-.22,0-.43-.04-.64-.12-.8-.31-19.66-7.9-25.74-27.06-6.3-19.83,8.23-28.7,15.22-32.96,3.85-2.35,10.56-3.82,16.19-1.49,3.4,1.41,5.86,4.02,7.19,7.6,2.48-.74,6.99-1.25,11.69,2.28,9.54,7.15,4.85,22.82,2.45,27.75-.46,1-1.96,8.35-3.15,14.87-.11.61-.54,1.12-1.13,1.33l-21.5,7.69c-.19.07-.39.1-.59.1Zm-1.22-59.31c-3.03,0-6.05.89-8.12,2.15-9.96,6.08-18.52,13.79-13.71,28.93,5,15.75,19.97,23.2,23.11,24.61l19.9-7.12c.74-4.04,2.48-13.17,3.26-14.79,1.69-3.46,6.39-17.59-1.41-23.43-5.11-3.83-9.82-1.26-9.87-1.24-.48.27-1.05.3-1.55.08-.5-.22-.87-.66-1-1.19-.84-3.49-2.76-5.87-5.71-7.1-1.54-.64-3.23-.91-4.91-.91Zm22.72,49.88h0,0Z"/>
          <path class="cls-1" d="m74.77,142.15c-5.68,5.54-12.25,10.52-14.84,10.83,0,0-8.25-4.67-9.35-9.68-.55-2.48,3.82-5.58,9.23-9.53,5.55-4.04,12.2-8.98,15.84-15.09,0,0,7.81,4.05,8.75,9.63.46,2.73-4.17,8.55-9.63,13.85Z"/>
          <g class="cls-12">
            <path class="cls-2" d="m78.66,138.11c2.32-3.02,3.75-5.67,3.47-7.3-.76-4.58-5.87-8.19-8.19-9.62.63-.82,1.2-1.66,1.72-2.52,0,0,7.81,4.05,8.75,9.63.34,2.04-2.17,5.82-5.74,9.81Z"/>
          </g>
          <path class="cls-4" d="m74.77,142.15c-5.68,5.54-12.25,10.52-14.84,10.83,0,0-8.25-4.67-9.35-9.68-.55-2.48,3.82-5.58,9.23-9.53-.81,2.2-1.05,5.04.97,7.79,3.19,4.35,9.78,3.09,14,.59Z"/>
          <path class="cls-8" d="m59.93,154.72c-.3,0-.6-.08-.86-.23-.91-.52-8.96-5.21-10.2-10.83-.78-3.52,3.51-6.65,9.45-10.97,5.47-3.98,12.27-8.94,15.83-14.92.47-.79,1.48-1.08,2.3-.66.35.18,8.6,4.52,9.67,10.88.32,1.89-.71,4.35-3.24,7.73-5.58,7.46-18.08,18.41-22.74,18.97-.07,0-.14.01-.21.01Zm16.29-33.7c-4.05,5.9-10.55,10.63-15.84,14.49-3.34,2.43-8.38,6.11-8.09,7.4.71,3.2,5.53,6.73,7.94,8.2,3.46-1.18,14.32-10.05,19.87-17.47,2.73-3.65,2.62-4.93,2.59-5.06-.53-3.16-4.1-6.05-6.46-7.56Z"/>
          <path class="cls-8" d="m62.86,100.7c-1.39-2.61-2.16-5.45-2.85-8.3-.47-2.52,3.3-3,3.46-.43.07,2.66.23,5.4.95,7.96.39,1.01-1.03,1.7-1.57.77h0Z"/>
          <path class="cls-2" d="m77.09,133.92c-1.93,2.62-4.29,4.94-6.49,6.81-3.74,3.2-7.02,5.13-7.02,5.13-2.25-1.16-5.74-5.53-5.74-5.53,2.89-2.1,5.5-4.19,7.7-6.04,4.35-3.66,7.07-6.37,7.07-6.37,3.49,2.63,4.48,5.99,4.48,5.99Z"/>
          <path class="cls-3" d="m70.6,140.73c-3.74,3.2-7.02,5.13-7.02,5.13-2.25-1.16-5.74-5.53-5.74-5.53,2.89-2.1,5.5-4.19,7.7-6.04-.74,1.6-1.71,4.31-.78,5.9,1.02,1.74,3.61,1.32,5.84.54Z"/>
        </g>
        <g>
          <path class="cls-2" d="m84.67,131.65s5.51,5.24,9.29,11.72"/>
          <path class="cls-8" d="m85.88,130.39c2.62,2.88,4.9,5.92,6.95,9.21.68,1.08,1.3,2.21,1.89,3.34.22.43.06.95-.37,1.18-.4.21-.9.08-1.14-.3-2.73-4.03-6.11-7.71-9.76-10.91-1.79-1.65.71-4.25,2.42-2.51h0Z"/>
        </g>
        <path class="cls-8" d="m97.1,162.95c-.33,0-.66-.12-.92-.37-.52-.51-.52-1.34-.02-1.85,2.76-2.82,3.64-7.38,2.48-12.85-1.68-7.89-7.28-15.77-12.75-17.93-.67-.27-1-1.03-.74-1.7.27-.67,1.02-1,1.7-.74,6.31,2.49,12.48,11.01,14.36,19.82,1.35,6.35.23,11.76-3.17,15.23-.26.26-.6.39-.94.39Z"/>
        <path class="cls-8" d="m87.01,209.6c-.39,0-.78-.13-1.1-.4-15.03-12.32-35.43-7.63-35.63-7.58-.94.23-1.88-.35-2.1-1.29-.22-.94.35-1.88,1.29-2.1.9-.22,22.26-5.17,38.66,8.27.74.61.85,1.71.24,2.45-.34.42-.85.64-1.35.64Z"/>
        <path class="cls-8" d="m111.13,223.03c-5.25,0-8.44-1.76-8.73-1.93-.84-.48-1.12-1.55-.64-2.38.48-.83,1.54-1.12,2.37-.65.6.34,14.57,7.73,33.77-14.07.64-.72,1.74-.79,2.46-.16.72.64.79,1.74.16,2.46-12.05,13.68-22.49,16.72-29.38,16.72Z"/>
        <path class="cls-8" d="m132.44,234.01c-4.62.23-9.18-.16-13.74-.87-.95-.15-1.6-1.05-1.45-2,.16-1.03,1.22-1.7,2.22-1.4,3.16.93,6.41,1.68,9.68,2.16,1.1.16,2.22.3,3.3.37,1.07.08,1.06,1.67,0,1.74h0Z"/>
      </g>
    </g>
  </g>
</svg>