<?xml version="1.0" encoding="UTF-8"?>
<svg id="Layer_2" data-name="Layer 2" xmlns="http://www.w3.org/2000/svg" viewBox="0 0 311.12 256.82">
  <defs>
    <style>
      .cls-1 {
        fill: #0080ff;
      }

      .cls-2 {
        fill: #f90000;
      }

      .cls-3 {
        fill: #fff;
      }

      .cls-4 {
        fill: #ffd939;
      }

      .cls-5 {
        fill: #e8e8e8;
      }

      .cls-6 {
        fill: #ffce00;
      }

      .cls-7 {
        fill: #d8d8d8;
      }

      .cls-8 {
        fill: #c4c5c6;
      }

      .cls-9 {
        fill: #d6d6d6;
      }

      .cls-10 {
        fill: #22a7f0;
      }

      .cls-11 {
        fill: #220f2d;
      }

      .cls-12 {
        fill: #0e62dd;
      }

      .cls-13 {
        fill: #1c7aea;
      }

      .cls-14 {
        fill: #371a45;
      }

      .cls-15 {
        fill: #371944;
      }

      .cls-16 {
        opacity: .2;
      }

      .cls-17 {
        opacity: .5;
      }

      .cls-18 {
        opacity: .7;
      }
    </style>
  </defs>
  <g id="Layer_2-2" data-name="Layer 2">
    <g>
      <path class="cls-2" d="m61.13,129.56c-4.42,2.34-7.01,7.03-8.8,11.51,0,0,2.32.78,2.32.78.67-3.53,1.79-9.98-2.63-11.49-.85-.28-1.97-.03-2.66.25-2.57,1.09-4.68,2.72-6.83,4.42l1.89,1.46c1.3-3.09,2.22-6.19,1.79-9.62-.47-4.04-4.16-6.02-7.92-5.9,0,0,0,2.45,0,2.45,1.74-.02,3.52-.27,5.06-1.26,4.72-3.22,2.9-9.89,1.07-14.25,0,0-1.89,1.46-1.89,1.46,1.4,1.13,2.79,2.17,4.33,3.12,1.7,1.02,4.01,2.42,6.03,1.18,3.38-2.22,2.38-7.76,1.75-11.12,0,0-2.32.78-2.32.78,1.79,4.48,4.43,9.11,8.8,11.51.61.33,1.22-.53.71-1-2.34-2.48-4.09-5.42-5.69-8.42-.54-1.01-1.03-2.05-1.57-3.07-.29-.65-1.07-.95-1.7-.61-.51.27-.75.85-.61,1.39.41,2.2,1.31,6.88-.6,8.42-.44.23-.68.22-1.43-.05-2.2-.94-4.25-2.52-6.15-4.02-.97-.81-2.43.31-1.9,1.45,2.06,4.73,3.59,12.26-3.9,12.04-1.6.05-1.61,2.4,0,2.45,5.24-.1,6.26,3.42,5.25,7.93-.3,1.39-.78,2.83-1.35,4.11-.27.62,0,1.35.63,1.62.44.19.92.11,1.27-.17,1.28-1.04,2.66-2.06,4.06-2.92,1.63-.93,3.68-2.44,4.38.22.57,2.23.19,4.8-.27,7.06-.21.64.14,1.32.77,1.53.65.22,1.3-.15,1.54-.76,1.05-2.04,2.08-4.09,3.27-6.04,1.19-1.92,2.48-3.77,4-5.45.49-.49-.1-1.3-.71-1h0Z"/>
      <g>
        <path class="cls-3" d="m192.88,118.97h53.56c9,0,16.31,7.31,16.31,16.31v52.16c0,9-7.31,16.31-16.31,16.31h-53.56c-9,0-16.31-7.31-16.31-16.31v-52.16c0-9,7.31-16.31,16.31-16.31Z" transform="translate(-11.64 17.19) rotate(-4.37)"/>
        <path class="cls-14" d="m177.05,190.77l-3.97-52.01c-.36-4.76,1.16-9.39,4.29-13.04,3.13-3.65,7.47-5.85,12.23-6.22l53.4-4.08c9.85-.75,18.5,6.66,19.25,16.52l3.97,52.01c.75,9.86-6.66,18.5-16.52,19.25l-53.4,4.08h0c-.46.04-.92.05-1.38.05-9.28,0-17.16-7.17-17.88-16.58Zm72.41,9.19c8.07-.62,14.13-7.68,13.52-15.75l-3.97-52.01c-.3-3.89-2.1-7.44-5.09-10-2.98-2.56-6.77-3.81-10.66-3.51l-53.4,4.08c-8.07.62-14.13,7.68-13.52,15.75l3.97,52.01c.62,8.07,7.67,14.13,15.75,13.52l53.4-4.08Z"/>
      </g>
      <path class="cls-3" d="m228.38,116.4l4.54,16.83,4.57,16.95s2.55.53,7.05,1.81c7.93,2.26,21.89,6.88,38.56,15.09,7.5,5.91,10.17,5.67,17.07,4.28.61-.12,1.26-.25,1.94-.39,7.39-.09,10.2-6.2,3.84-15.44-13.5-19.62-42.21-30.53-61.08-35.61-7.7-2.08-13.76-3.18-16.49-3.52Z"/>
      <g class="cls-16">
        <path class="cls-14" d="m228.38,116.4l4.54,16.83c5.82-3.52,10.06-8.13,11.95-13.32-7.7-2.08-13.76-3.18-16.49-3.52Z"/>
      </g>
      <path class="cls-7" d="m167.13,124.18c4.97,7.58,15.2,13.36,27.73,15.4l1.27-13.2c-7.07-1.3-17.7-1.93-28.99-2.2Z"/>
      <path class="cls-7" d="m181.74,135.74c6.59,2.93,14.58,4.65,23.18,4.65,15.1,0,28.28-5.28,35.41-13.15-6.77-7.53-20.4-18.85-38.21-13.84-16.46,4.63-19.77,16.59-20.39,22.34Z"/>
      <g class="cls-16">
        <path class="cls-14" d="m244.54,152c7.93,2.26,21.89,6.88,38.56,15.09,7.5,5.91,10.17,5.67,17.07,4.28-2.13-.58-5.66-1.87-6.39-4.29-.94-3.13,2.25-5.84,1.06-6.48-5.71-3.09-5.31-4.22-5.31-4.22,0,0-6.53,3.33-18.03-.84-14.46-5.25-26.08-21.56-26.08-21.56l-.89,18.02Z"/>
      </g>
      <path class="cls-14" d="m294.16,173.82c2.12,0,4.36-.45,7.22-1.03l.9-.18c3.77-.09,6.6-1.59,7.97-4.23,1.8-3.49.75-8.37-2.96-13.77-18.84-27.37-66.88-38.38-78.71-39.83-.9-.11-1.71.53-1.82,1.42-.11.89.53,1.71,1.42,1.82,11.53,1.41,58.27,12.07,76.42,38.44,2.95,4.29,3.95,8.09,2.75,10.42-.81,1.56-2.68,2.43-5.27,2.47l-.3.03-1.05.21c-7.42,1.5-9.41,1.9-16.63-3.78l-.14-.11-.15-.08c-26.02-12.81-45.8-16.99-46-17.03-.88-.18-1.75.38-1.93,1.27-.18.88.38,1.75,1.27,1.93.19.04,19.52,4.14,45.07,16.69,5.2,4.08,8.39,5.35,11.94,5.35Z"/>
      <path class="cls-3" d="m114.4,124.84l1.02,24.13s2.35.24,6.42.73c12.87,1.53,43,5.46,70.93,11.65l1.52-15.88,1.83-19.09c-22.6-4.15-81.72-1.54-81.72-1.54Z"/>
      <g class="cls-16">
        <path class="cls-14" d="m167.13,124.18c4.97,7.58,15.2,13.36,27.73,15.4l1.27-13.2c-7.07-1.3-17.7-1.93-28.99-2.2Z"/>
      </g>
      <g class="cls-16">
        <path class="cls-14" d="m121.84,149.71c12.87,1.53,43,5.46,70.93,11.65l1.52-15.88c-6.93-1.6-14.2-3.31-14.2-3.31,0,0-20.16,6.14-34.28,3.37-16.29-3.19-15.86-16.88-21.42-18.1-3.89-.86-3.28,13.53-2.55,22.27Z"/>
      </g>
      <path class="cls-14" d="m192.77,162.99c.75,0,1.42-.52,1.59-1.28.2-.88-.36-1.75-1.24-1.95-32.63-7.24-68.65-11.44-76.13-12.26l-.89-21.1c9.66-.38,59.66-2.1,79.73,1.58.89.16,1.74-.42,1.9-1.31.16-.89-.42-1.74-1.31-1.9-22.52-4.14-79.67-1.68-82.09-1.57-.9.04-1.6.8-1.56,1.7l1.02,24.13c.03.81.66,1.47,1.46,1.55.41.04,40.9,4.31,77.16,12.36.12.03.24.04.35.04Z"/>
      <path class="cls-3" d="m152.7,247.06c-.07,1.98.71,3.79,1.55,4.88,1.79,2.3,4.06,2.3,11.44,2.3,7.98,0,17.56.77,19.7-1.08,3.29-2.84,1.7-18.27,6.99-26.49,6.61-10.26,31.08-13.45,31.08-13.45l-39.03-25.89s-4.58,2.67-9.56,7.82c-3.42,3.53-7.03,8.24-9.47,14.03-6.34,15.07-4.32,29.84-4.32,29.84,0,0-4.44.7-7.04,4.24-.91,1.24-1.3,2.55-1.35,3.8Z"/>
      <g class="cls-16">
        <path class="cls-14" d="m152.7,247.06c-.07,1.98.71,3.79,1.55,4.88,1.79,2.3,4.06,2.3,11.44,2.3,7.98,0,17.56.77,19.7-1.08,3.29-2.84,1.7-18.27,6.99-26.49,6.61-10.26,31.08-13.45,31.08-13.45l-39.03-25.89s-4.58,2.67-9.56,7.82c1.62,4.53,4.57,10.68,9.83,16.92,8.26,9.81.14,11.45-1.73,29.24-.93,8.84-20.35,9.77-30.28,5.76Z"/>
      </g>
      <path class="cls-14" d="m176.68,256.03c4.99,0,8.25-.31,9.78-1.63,1.96-1.7,2.45-5.52,3.11-10.81.67-5.28,1.49-11.85,4.19-16.04,6.12-9.5,29.68-12.68,29.92-12.71.89-.12,1.52-.94,1.41-1.83-.12-.89-.93-1.53-1.83-1.41-1.03.13-25.3,3.41-32.24,14.18-3.1,4.81-3.98,11.79-4.68,17.4-.46,3.69-.99,7.87-2.01,8.75-1.17,1.01-8.26.86-12.95.76-1.88-.04-3.83-.08-5.68-.08-7.31,0-8.9-.06-10.16-1.67-.91-1.17-2.12-4.08-.18-6.72,2.15-2.93,5.95-3.58,5.99-3.59.87-.14,1.48-.96,1.36-1.83-.02-.14-1.87-14.54,4.21-28.99,5.72-13.6,18.22-21,18.35-21.08.78-.45,1.04-1.45.59-2.23-.45-.78-1.45-1.04-2.23-.59-.55.32-13.57,8.04-19.71,22.63-5.36,12.72-4.93,25.08-4.59,29.24-1.74.55-4.61,1.8-6.59,4.5-2.69,3.66-1.76,8.09.23,10.66,2.28,2.93,5.12,2.93,12.73,2.93,1.82,0,3.75.04,5.62.08,1.97.04,3.76.07,5.37.07Z"/>
      <path class="cls-14" d="m191.59,229.28c.56,0,1.06-.38,1.19-.95.15-.66-.26-1.32-.91-1.47-18.12-4.22-25.15-18.4-25.22-18.55-.29-.61-1.03-.87-1.63-.57-.61.29-.87,1.02-.57,1.63.3.63,7.56,15.38,26.87,19.87.09.02.19.03.28.03Z"/>
      <path class="cls-3" d="m223.47,202.42c.22.51,18.11,43.83,20.04,47.83,1.27,2.63,3.02,3.86,4.22,4.42.19.09.37.16.53.22.05.02.11.04.16.05.34.11.59.16.68.18.01,0,.02,0,.03,0h14.63s1.87.09,4.18,0c.04,0,.09,0,.14,0,1.03-.05,2.13-.13,3.2-.28.29-.04.59-.09.87-.14.07-.01.13-.02.19-.04.69-.13,1.35-.29,1.93-.5.19-.07.37-.14.54-.22.43-.2.8-.42,1.09-.68,1.4-1.29,1.97-2.88,1.88-4.43,0-.07,0-.15-.02-.22-.02-.16-.04-.31-.07-.47h0c-.18-1.03-.66-2.02-1.36-2.86-2.31-2.76-6.95-2.81-6.95-2.81l-8.96-47.85-1.95-10.45-.59-3.14-34.36,21.36-.04.02Z"/>
      <g class="cls-16">
        <path class="cls-14" d="m223.47,202.42h0c.22.52,18.11,43.83,20.04,47.84,1.27,2.63,3.02,3.86,4.22,4.42.19.09.37.16.53.22.05.02.11.04.16.05.34.12.59.17.68.18.01,0,.02,0,.03,0,0,0,0,0,0,0h14.62s1.87.09,4.18,0c.04,0,.09,0,.14,0,1.03-.04,2.13-.13,3.2-.28.29-.04.59-.09.87-.14.07-.01.13-.02.19-.04.69-.13,1.35-.29,1.93-.5.19-.07.37-.14.54-.22.43-.2.8-.42,1.09-.68,1.4-1.29,1.97-2.88,1.88-4.43,0-.07,0-.15-.02-.22-.02-.16-.04-.31-.07-.47-.04.19-.85,2.68-12.94,2.68s-18.77,1.85-24.38-12.36c-6.11-15.45-4.45-18.08,4.2-24.59,4.51-3.4,11.77-10.26,15.84-19.26l-1.95-10.45-34.94,18.22-.04.02Z"/>
      </g>
      <path class="cls-14" d="m265.96,256.82c3.3,0,8.83-.32,11.03-2.35,3-2.75,3.24-7.06.58-10.23-1.93-2.3-5.05-3.04-6.83-3.28l-11.27-60.22c-.17-.89-1.02-1.47-1.91-1.3-.89.17-1.47,1.02-1.3,1.91l11.5,61.44c.14.77.81,1.32,1.59,1.33.03,0,3.93.09,5.72,2.23,1.24,1.49,1.68,3.91-.29,5.73-1.39,1.28-7.35,1.61-10.95,1.44-.03,0-.05,0-.08,0h-14.48c-.43-.09-2.74-.73-4.29-3.96-1.9-3.94-19.82-47.31-20-47.75-.34-.83-1.3-1.23-2.13-.89-.83.34-1.23,1.3-.89,2.13.74,1.79,18.14,43.89,20.08,47.92,2.49,5.17,6.71,5.77,6.88,5.79.07,0,.14.01.21.01h14.58c.43.02,1.23.05,2.25.05Z"/>
      <path class="cls-14" d="m233.53,227.89h.02c.92-.02,22.6-.51,31.31-9.65.47-.49.45-1.26-.04-1.73-.49-.47-1.26-.45-1.73.04-8.01,8.41-29.37,8.89-29.58,8.9-.68.01-1.21.57-1.2,1.25.01.67.56,1.2,1.22,1.2Z"/>
      <path class="cls-3" d="m181.63,138.93c-8.39,24.97-12.87,47.33,1.34,64.35,9.32,11.16,23.3,14.59,39.39,12.1,45.06-6.96,44.29-42.84,22.68-82.09,0,0-17.07-27.15-42.92-19.88-22.04,6.19-20.5,25.53-20.5,25.53Z"/>
      <g class="cls-16">
        <path class="cls-14" d="m181.74,135.74c6.59,2.93,14.58,4.65,23.18,4.65,15.1,0,28.28-5.28,35.41-13.15-6.77-7.53-20.4-18.85-38.21-13.84-16.46,4.63-19.77,16.59-20.39,22.34Z"/>
      </g>
      <g class="cls-16">
        <path class="cls-14" d="m173.8,177.72c.24,9.41,2.86,18.01,9.17,25.56,9.32,11.16,23.3,14.59,39.39,12.1,31.32-4.84,40.5-23.66,35.92-47.87.79,19.77-9.68,34.61-36.99,38.83-16.09,2.49-30.07-.94-39.39-12.1-4.22-5.06-6.79-10.58-8.1-16.51Z"/>
      </g>
      <path class="cls-14" d="m256.42,195.83c2.56-3.42,3.84-7.69,4.32-11.9.94-6.91.05-14.14-1.57-20.89-2.82-10.7-7.14-21.04-13.4-30.15-.26-.37-.77-.46-1.14-.2-.32.23-.43.64-.29.99,4.12,9.99,8.87,19.7,11.32,30.23,1.16,5.07,2.05,10.52,1.98,15.72-.01,4.58-.93,9.13-2.17,13.51-.19.67-.37,1.35-.5,2.05-.19.84.98,1.36,1.47.65h0Z"/>
      <path class="cls-14" d="m193.3,212.61c13.13,8,34.49,5.95,47.34-1.81.38-.24.5-.75.26-1.13-.21-.33-.62-.47-.98-.33-3.72,1.35-7.49,2.43-11.33,3.25-7.64,1.62-15.52,2.61-23.29,1.6-3.86-.49-7.64-1.49-11.26-3.02-.91-.4-1.62.93-.75,1.45h0Z"/>
      <path class="cls-14" d="m180.85,138.67c-6.94,17.75-13.84,40.39-3.7,58.2,1.38,2.57,3.2,4.86,5.19,6.93.31.33.83.33,1.16.02.3-.29.33-.74.1-1.07-1.58-2.25-3-4.59-4.1-7.1-5.94-12.6-4.17-26.99-1.27-40.21,1.04-4.6,2.92-11.66,4.17-16.25.26-.95-1.16-1.48-1.55-.52h0Z"/>
      <path class="cls-3" d="m194.28,175.26s-13.24,0-18.47,4.41c-5.56,4.69.74,9.14.74,9.14,0,0,10.42-3.12,19.35-3.47l-1.62-10.08Z"/>
      <g class="cls-16">
        <path class="cls-14" d="m176.54,188.82s10.43-3.12,19.35-3.47l-.61-3.83c-6.2.28-13.05,1.87-16.6,2.79-1.89.49-3.9-.32-4.83-2.04,0-.02-.02-.03-.03-.05-1.47,3.64,2.72,6.6,2.72,6.6Z"/>
      </g>
      <path class="cls-3" d="m238.61,172s13.08-2.01,18.93,1.56c6.21,3.79.65,9.15.65,9.15,0,0-10.78-1.5-19.65-.5l.07-10.21Z"/>
      <g class="cls-16">
        <path class="cls-14" d="m238.54,182.21c8.88-1.01,19.65.49,19.65.49,0,0,3.61-3.49,1.76-6.82,0,.01-.01.03-.02.04-.7,1.52-2.32,2.4-3.98,2.22-3.62-.38-10.98-.96-17.38-.23l-.03,4.29Z"/>
      </g>
      <path class="cls-15" d="m175.6,190.15c-.37-.26-3.57-2.62-3.72-6.11-.09-2.05.88-3.93,2.87-5.61,5.63-4.74,18.96-4.8,19.53-4.8h1.39s2.13,13.27,2.13,13.27l-1.84.07c-8.61.34-18.84,3.38-18.95,3.41l-.76.23-.65-.46Zm17.29-13.22c-4.26.16-12.55,1.06-16.04,4-1.17.99-1.75,1.99-1.71,2.97.05,1.24,1.04,2.43,1.78,3.12,2.48-.69,9.94-2.65,17.08-3.19l-1.11-6.89Z"/>
      <path class="cls-15" d="m257.97,184.32c-.11-.01-10.68-1.46-19.24-.49l-1.83.21.09-13.44,1.38-.21c.56-.09,13.75-2.06,20.03,1.78,2.22,1.36,3.46,3.08,3.69,5.11.38,3.47-2.43,6.29-2.75,6.6l-.57.55-.79-.11Zm-17.73-10.89l-.05,6.98c7.14-.55,14.81.25,17.36.56.63-.8,1.42-2.12,1.28-3.35-.11-.97-.83-1.87-2.14-2.67-2.38-1.45-6.42-1.88-10.18-1.88-2.38,0-4.63.17-6.28.36Z"/>
      <path class="cls-3" d="m193.13,171.41l1.43,18.74c.27,3.48,3.22,6.11,6.57,5.86l33.23-2.54c3.35-.26,5.87-3.31,5.6-6.79l-1.43-18.74c-.27-3.47-3.22-6.11-6.57-5.85l-33.23,2.54c-2.67.2-4.82,2.2-5.44,4.76-.15.64-.21,1.32-.16,2.02Z"/>
      <g class="cls-16">
        <path class="cls-14" d="m193.13,171.41l1.43,18.74c.27,3.48,3.22,6.11,6.57,5.86l33.23-2.54c3.35-.26,5.87-3.31,5.6-6.79l-.48-6.31c-5.48,3.73-16.46,9.55-28.17,6.34-5.72-1.57-12.63-7.93-12.63-7.93,0,0,.3,7.2-.73,7.16-2.88-.1-3.96-14.62-4.65-16.56-.15.64-.21,1.32-.16,2.02Z"/>
      </g>
      <path class="cls-15" d="m192.94,190.4l-1.45-18.99c-.33-4.32,2.91-8.09,7.23-8.42l33.01-2.52c2.08-.16,4.11.51,5.7,1.88,1.59,1.37,2.56,3.27,2.72,5.35l1.45,18.99c.16,2.08-.51,4.11-1.88,5.7-1.37,1.59-3.27,2.56-5.35,2.72l-33.01,2.52c-.2.02-.4.02-.6.02-4.06,0-7.51-3.14-7.82-7.25Zm41.18,1.45c1.21-.09,2.32-.66,3.12-1.59.8-.93,1.19-2.12,1.1-3.33l-1.45-18.99c-.09-1.21-.66-2.32-1.59-3.12-.93-.8-2.11-1.19-3.33-1.1l-33.01,2.52c-1.21.09-2.32.66-3.12,1.59-.8.93-1.19,2.11-1.1,3.33l1.45,18.99c.19,2.52,2.4,4.42,4.92,4.22l33.01-2.52Z"/>
      <ellipse class="cls-10" cx="204.77" cy="179.94" rx="5.26" ry="5.47" transform="translate(-13.1 16.11) rotate(-4.36)"/>
      <path class="cls-3" d="m199.52,180.35c.03.37.09.73.19,1.07.29-2.53,2.27-4.57,4.81-4.77,2.54-.19,4.81,1.52,5.48,3.98.04-.36.05-.72.02-1.09-.23-3.01-2.76-5.27-5.66-5.05-2.9.22-5.06,2.84-4.83,5.85Z"/>
      <path class="cls-13" d="m199.52,180.34c.23,3.01,2.77,5.27,5.66,5.05,2.9-.22,5.06-2.84,4.83-5.85-.04-.5-.14-.99-.3-1.44-.44,2.34-2.35,4.19-4.75,4.37-2.41.18-4.57-1.35-5.36-3.6-.09.47-.12.97-.08,1.47Z"/>
      <path class="cls-15" d="m200.54,184.99c-1.31-1.17-2.1-2.78-2.24-4.56h0c-.14-1.77.4-3.49,1.52-4.84,1.13-1.36,2.7-2.19,4.44-2.32,1.74-.13,3.42.44,4.74,1.62,1.31,1.17,2.1,2.78,2.24,4.56.28,3.68-2.39,6.89-5.96,7.17-.16.01-.33.02-.49.02-1.56,0-3.06-.57-4.25-1.64Zm3.91-9.28c-1.07.08-2.04.59-2.74,1.44-.71.86-1.05,1.96-.97,3.1h0c.09,1.14.59,2.17,1.42,2.92.82.73,1.86,1.09,2.92,1.01,2.22-.17,3.88-2.2,3.7-4.54-.09-1.14-.59-2.17-1.42-2.92-.74-.66-1.66-1.02-2.63-1.02-.1,0-.2,0-.3.01Z"/>
      <path class="cls-15" d="m222.58,196s.08,0,.13,0c.9-.07,1.57-.85,1.5-1.75l-.73-9.59c-.14-1.86.57-3.71,1.91-4.93l.79-.72c2.08-1.89,3.19-4.73,2.97-7.59l-.69-9.05c-.07-.9-.85-1.57-1.75-1.5-.9.07-1.57.85-1.5,1.75l.69,9.05c.14,1.86-.57,3.71-1.91,4.93l-.79.72c-2.08,1.89-3.19,4.73-2.97,7.59l.73,9.59c.07.86.78,1.51,1.63,1.51Z"/>
      <g>
        <path class="cls-3" d="m133.96,81.84c.07.31.15.62.23.93,2.57,10.34,7.72,20.13,15.3,28.37,1.59,1.73,3.28,3.39,5.09,4.97.87.77,1.78,1.52,2.71,2.27,2.81,2.22,5.75,4.17,8.78,5.87,2.61,1.47,5.31,2.74,8.04,3.83,3.3,1.31,6.68,2.35,10.1,3.11,1.25.27,2.5.51,3.76.72,22.98,3.76,47.27-4.48,62.82-23.67,7.97-9.83,12.6-21.23,14.04-32.87,2.71-21.84-5.81-44.54-24.54-59.31-5.53-4.36-11.56-7.72-17.84-10.09-.73-.28-1.47-.54-2.22-.79-2-.68-4.01-1.25-6.04-1.74-4.7-1.11-9.48-1.7-14.25-1.79-4.77-.09-9.54.32-14.21,1.23-1.49.29-2.96.62-4.42,1.01-2.2.59-4.37,1.28-6.51,2.09-10.65,4.01-20.39,10.79-28.03,20.2-13.18,16.25-17.22,36.81-12.82,55.66Z"/>
        <g class="cls-16">
          <path class="cls-14" d="m134.19,82.77c2.57,10.34,7.72,20.13,15.3,28.37,1.59,1.73,3.28,3.39,5.09,4.97.87.77,1.78,1.52,2.71,2.27,2.81,2.22,5.75,4.17,8.78,5.87,2.61,1.47,5.31,2.74,8.04,3.83,3.3,1.31,6.68,2.35,10.1,3.11,1.25.27,2.5.51,3.76.72,22.98,3.76,47.27-4.48,62.82-23.67,7.97-9.83,12.6-21.23,14.04-32.87l-130.63,7.41Z"/>
        </g>
        <path class="cls-14" d="m187.94,132.07c-1.24-.21-2.51-.45-3.76-.73-3.46-.77-6.87-1.82-10.13-3.12-2.79-1.11-5.5-2.4-8.06-3.84-3.06-1.71-6.03-3.69-8.8-5.88-1.01-.81-1.9-1.55-2.72-2.27-1.77-1.55-3.48-3.22-5.1-4.98-7.63-8.29-13.01-18.44-15.56-29.37l.16-.04-.16.04c-4.61-19.71.08-40.05,12.85-55.8,7.39-9.11,17.1-16.11,28.1-20.26,2.08-.79,4.28-1.5,6.52-2.09,1.44-.38,2.93-.72,4.44-1.02,4.68-.91,9.47-1.33,14.24-1.23,4.82.09,9.62.69,14.28,1.79,2.02.48,4.06,1.06,6.05,1.74.79.26,1.53.53,2.23.8,6.41,2.41,12.42,5.81,17.88,10.11,13.98,11.03,22.75,26.76,24.7,44.29,1.93,17.39-3.1,34.48-14.17,48.13-12.73,15.69-31.98,24.62-52.04,24.62-3.63,0-7.29-.29-10.93-.89Zm-2.17-129.03c-1.5.29-2.99.63-4.41,1.01-2.23.59-4.41,1.29-6.49,2.08-10.94,4.12-20.61,11.09-27.96,20.16-12.71,15.67-17.37,35.9-12.79,55.52,2.54,10.87,7.9,20.98,15.48,29.22,1.61,1.75,3.32,3.42,5.08,4.96.81.72,1.7,1.46,2.71,2.26,2.76,2.18,5.71,4.15,8.76,5.86,2.55,1.43,5.25,2.72,8.02,3.82,3.24,1.29,6.63,2.33,10.08,3.1,1.25.28,2.51.52,3.75.72,3.63.59,7.27.89,10.88.89,19.96,0,39.12-8.88,51.79-24.5,11.01-13.58,16.02-30.58,14.1-47.89-1.94-17.44-10.66-33.09-24.57-44.07-5.43-4.28-11.41-7.66-17.79-10.06-.69-.27-1.43-.53-2.21-.79-1.98-.67-4.01-1.25-6.02-1.73-4.64-1.1-9.42-1.7-14.21-1.78-.43,0-.86-.01-1.29-.01-4.32,0-8.64.42-12.88,1.24Z"/>
        <path class="cls-14" d="m187.76,133.16c-1.26-.21-2.55-.46-3.83-.74-3.52-.79-6.98-1.85-10.3-3.17-2.83-1.12-5.59-2.44-8.19-3.9-3.11-1.74-6.13-3.75-8.95-5.99-1.03-.82-1.93-1.57-2.76-2.3-1.79-1.57-3.54-3.28-5.19-5.06-7.75-8.43-13.23-18.75-15.82-29.86-4.69-20.05.08-40.73,13.07-56.74,7.51-9.26,17.39-16.38,28.56-20.59,2.12-.8,4.35-1.52,6.63-2.13,1.46-.39,2.98-.74,4.51-1.03,4.76-.93,9.63-1.35,14.47-1.25,4.9.09,9.78.7,14.51,1.82,2.06.49,4.13,1.08,6.15,1.76.8.27,1.57.54,2.27.81,6.52,2.45,12.63,5.91,18.17,10.28,14.21,11.21,23.13,27.21,25.11,45.03,1.96,17.69-3.15,35.07-14.41,48.94-12.94,15.95-32.5,25.03-52.9,25.03-3.69,0-7.41-.3-11.11-.9Zm-1.78-129.04c-1.48.29-2.94.62-4.34,1-2.2.58-4.34,1.27-6.38,2.05-10.76,4.05-20.26,10.91-27.49,19.82-12.5,15.4-17.08,35.29-12.57,54.57h0c2.5,10.69,7.76,20.62,15.22,28.73,1.59,1.72,3.27,3.36,4.99,4.88.8.7,1.67,1.43,2.66,2.22,2.72,2.15,5.62,4.08,8.62,5.76,2.51,1.41,5.16,2.67,7.89,3.76,3.19,1.27,6.52,2.29,9.91,3.05,1.23.27,2.47.51,3.69.71,23.31,3.81,46.93-5.08,61.63-23.22,10.83-13.35,15.75-30.06,13.86-47.07-1.9-17.15-10.49-32.53-24.16-43.33-5.34-4.21-11.23-7.54-17.51-9.9-.67-.26-1.4-.52-2.17-.78-1.95-.66-3.94-1.23-5.92-1.7-4.56-1.08-9.26-1.67-13.98-1.75-.42,0-.85-.01-1.27-.01-4.25,0-8.5.41-12.67,1.22Z"/>
        <path class="cls-14" d="m187.7,133.52c-1.27-.21-2.56-.46-3.85-.74-3.54-.79-7.02-1.86-10.35-3.19-2.85-1.13-5.62-2.45-8.23-3.92-3.13-1.75-6.16-3.77-9-6.02-1.03-.82-1.94-1.58-2.77-2.31-1.8-1.58-3.56-3.29-5.21-5.09-7.8-8.47-13.3-18.86-15.91-30.03-4.71-20.16.08-40.95,13.14-57.06,7.55-9.31,17.48-16.47,28.71-20.7,2.13-.81,4.37-1.53,6.66-2.14,1.47-.39,2.99-.74,4.53-1.04,4.78-.93,9.67-1.36,14.55-1.26,4.92.09,9.83.71,14.59,1.83,2.07.49,4.15,1.09,6.18,1.77.81.27,1.58.54,2.28.82,6.55,2.46,12.7,5.94,18.27,10.33,14.29,11.28,23.26,27.36,25.25,45.28,1.98,17.79-3.17,35.26-14.49,49.22-13.01,16.04-32.68,25.16-53.18,25.16-3.71,0-7.45-.3-11.17-.91Zm-1.65-129.04c-1.47.28-2.92.62-4.32.99-2.18.58-4.32,1.27-6.35,2.04-10.7,4.03-20.15,10.84-27.33,19.71-12.42,15.31-16.98,35.09-12.5,54.26h0c2.48,10.63,7.72,20.5,15.13,28.56,1.58,1.71,3.25,3.34,4.97,4.85.79.7,1.66,1.42,2.64,2.21,2.7,2.13,5.59,4.06,8.57,5.73,2.49,1.4,5.13,2.66,7.84,3.74,3.17,1.26,6.49,2.28,9.85,3.03,1.22.27,2.46.51,3.67.71,23.19,3.79,46.67-5.05,61.29-23.09,10.76-13.27,15.66-29.89,13.78-46.8-1.89-17.05-10.42-32.35-24.02-43.08-5.31-4.18-11.16-7.5-17.42-9.85-.67-.26-1.39-.52-2.16-.77-1.94-.66-3.92-1.22-5.89-1.69-4.54-1.07-9.21-1.66-13.9-1.74-.42,0-.84-.01-1.27-.01-4.22,0-8.45.41-12.6,1.21Z"/>
        <path class="cls-14" d="m187.7,133.52c-1.27-.21-2.56-.46-3.85-.74-3.54-.79-7.02-1.86-10.35-3.19-2.85-1.13-5.62-2.45-8.23-3.92-3.13-1.75-6.16-3.77-9-6.02-1.03-.82-1.94-1.58-2.77-2.31-1.8-1.58-3.56-3.29-5.21-5.09-7.8-8.47-13.3-18.86-15.91-30.03-4.71-20.16.08-40.95,13.14-57.06,7.55-9.31,17.48-16.47,28.71-20.7,2.13-.81,4.37-1.53,6.66-2.14,1.47-.39,2.99-.74,4.53-1.04,4.78-.93,9.67-1.36,14.55-1.26,4.92.09,9.83.71,14.59,1.83,2.07.49,4.15,1.09,6.18,1.77.81.27,1.58.54,2.28.82,6.55,2.46,12.7,5.94,18.27,10.33,14.29,11.28,23.26,27.36,25.25,45.28,1.98,17.79-3.17,35.26-14.49,49.22-13.01,16.04-32.68,25.16-53.18,25.16-3.71,0-7.45-.3-11.17-.91Zm-1.65-129.04c-1.47.28-2.92.62-4.32.99-2.18.58-4.32,1.27-6.35,2.04-10.7,4.03-20.15,10.84-27.33,19.71-12.42,15.31-16.98,35.09-12.5,54.26h0c2.48,10.63,7.72,20.5,15.13,28.56,1.58,1.71,3.25,3.34,4.97,4.85.79.7,1.66,1.42,2.64,2.21,2.7,2.13,5.59,4.06,8.57,5.73,2.49,1.4,5.13,2.66,7.84,3.74,3.17,1.26,6.49,2.28,9.85,3.03,1.22.27,2.46.51,3.67.71,23.19,3.79,46.67-5.05,61.29-23.09,10.76-13.27,15.66-29.89,13.78-46.8-1.89-17.05-10.42-32.35-24.02-43.08-5.31-4.18-11.16-7.5-17.42-9.85-.67-.26-1.39-.52-2.16-.77-1.94-.66-3.92-1.22-5.89-1.69-4.54-1.07-9.21-1.66-13.9-1.74-.42,0-.84-.01-1.27-.01-4.22,0-8.45.41-12.6,1.21Z"/>
        <path class="cls-14" d="m187.7,133.52c-1.26-.21-2.55-.46-3.84-.74-3.55-.79-7.03-1.86-10.35-3.19-1.4-.56-2.81-1.17-4.19-1.83-1.37-.65-2.73-1.35-4.04-2.09-2.36-1.32-4.66-2.79-6.82-4.37-.74-.53-1.47-1.09-2.18-1.65-1.08-.86-1.96-1.6-2.77-2.31-1.78-1.56-3.54-3.27-5.21-5.09-7.79-8.47-13.3-18.85-15.91-30.03h0c-4.71-20.16.08-40.96,13.15-57.06,3.1-3.82,6.61-7.31,10.45-10.36,4.03-3.2,8.44-5.95,13.11-8.16,1.66-.79,3.4-1.52,5.15-2.19,2.14-.81,4.38-1.53,6.66-2.14,1.44-.38,2.97-.74,4.53-1.04,4.77-.93,9.66-1.35,14.55-1.26,4.91.09,9.82.7,14.59,1.83,2.04.48,4.12,1.08,6.18,1.77.9.3,1.63.56,2.28.82,6.55,2.46,12.7,5.94,18.27,10.33,14.29,11.27,23.25,27.36,25.24,45.28,1.98,17.79-3.17,35.26-14.49,49.22-13.01,16.04-32.68,25.16-53.18,25.16-3.71,0-7.44-.3-11.17-.91Zm-1.65-129.04c-1.49.29-2.95.62-4.32.99-2.17.58-4.31,1.26-6.35,2.04-1.68.63-3.33,1.33-4.91,2.08-4.45,2.11-8.65,4.72-12.48,7.77-3.65,2.9-7,6.22-9.94,9.86-12.42,15.32-16.98,35.09-12.5,54.26,2.49,10.63,7.72,20.5,15.13,28.56,1.6,1.73,3.27,3.36,4.97,4.85.77.68,1.62,1.38,2.64,2.21.67.53,1.36,1.05,2.07,1.56,2.06,1.5,4.25,2.9,6.5,4.17,1.25.7,2.55,1.38,3.84,1.99,1.32.63,2.66,1.21,4,1.74,3.17,1.26,6.48,2.28,9.85,3.03,1.24.27,2.47.51,3.67.71,23.18,3.79,46.67-5.05,61.29-23.09,10.76-13.27,15.66-29.89,13.78-46.8-1.89-17.05-10.42-32.35-24.02-43.08-5.31-4.18-11.16-7.5-17.42-9.85-.61-.24-1.3-.48-2.15-.77-1.97-.66-3.95-1.23-5.89-1.69-4.55-1.07-9.22-1.66-13.9-1.74-.43,0-.85-.01-1.28-.01-4.23,0-8.45.41-12.58,1.21Zm-52.1,77.37h0,0Z"/>
        <path class="cls-14" d="m161.47,121.85c-.85-.18-1.65-.38-2.42-.59l-.23-.06-.2-.14c-.73-.53-1.46-1.08-2.17-1.64-1.07-.86-1.95-1.59-2.76-2.3-1.77-1.55-3.52-3.26-5.19-5.07-7.76-8.43-13.24-18.77-15.84-29.89h0c-4.69-20.07.08-40.78,13.09-56.81,3.08-3.8,6.58-7.27,10.4-10.31l.12-.1.14-.07c9.16-4.27,18.88-5.33,28.89-3.17,28.57,6.18,42.29,24.76,48.76,39.25,6.99,15.65,7.25,29.63,7.26,30.22v.31s-.13.28-.13.28c-.25.53-6.26,13.16-19.1,24.52-9.54,8.44-24.41,17.35-44.67,17.35-4.99,0-10.31-.54-15.96-1.76Zm70.11-69.9c-9.06-20.21-24.82-32.88-46.85-37.64-9.37-2.03-18.47-1.05-27.05,2.91-3.62,2.89-6.94,6.19-9.86,9.8-12.48,15.39-17.06,35.26-12.56,54.51,2.5,10.68,7.76,20.6,15.2,28.69,1.61,1.74,3.28,3.38,4.99,4.87.78.68,1.62,1.39,2.66,2.22.61.48,1.24.96,1.88,1.42.65.17,1.33.34,2.05.49,22.02,4.76,41.61-.25,58.22-14.91,11.42-10.09,17.43-21.52,18.39-23.44-.08-2.14-.82-15.03-7.06-28.94Zm-97.63,29.89h0,0Z"/>
        <path class="cls-14" d="m169.76,127.9l-.23-.04-.21-.1c-1.37-.65-2.73-1.35-4.04-2.09-2.36-1.32-4.66-2.79-6.82-4.37-.74-.53-1.47-1.09-2.18-1.65-1.08-.86-1.96-1.6-2.77-2.31-1.78-1.56-3.54-3.27-5.21-5.09-7.79-8.47-13.3-18.85-15.91-30.03h0c-4.71-20.16.08-40.96,13.15-57.06,3.1-3.82,6.61-7.31,10.45-10.36.88-.7,1.79-1.39,2.71-2.04,7.63-5.46,16.79-8.19,25.8-7.68.7.04,1.39.1,2.06.17,34.24,3.87,49.85,30.92,54.96,42.38,7.65,17.11,7.95,32.77,7.96,33.43l.03,2.18-.93,1.97c-.28.6-7.04,14.73-21.07,27.15-9.03,7.99-23.63,16.61-44.63,16.61-4.12,0-8.49-.33-13.1-1.07Zm76.44-46.79c0-.63-.3-15.63-7.68-32.14-4.89-10.94-19.78-36.79-52.35-40.47-.61-.07-1.24-.12-1.88-.16-8.27-.47-16.68,2.04-23.71,7.07-.87.62-1.74,1.28-2.58,1.94-3.65,2.9-7,6.22-9.94,9.86-12.42,15.32-16.98,35.09-12.5,54.26h0c2.49,10.63,7.72,20.5,15.13,28.56,1.6,1.73,3.27,3.36,4.97,4.85.77.68,1.62,1.38,2.64,2.21.67.53,1.36,1.05,2.07,1.56,2.06,1.5,4.25,2.9,6.5,4.17,1.19.67,2.41,1.3,3.63,1.89,26.76,4.18,44.58-5.73,54.83-14.8,13.54-11.98,20.01-25.52,20.28-26.09l.61-1.29-.02-1.42Zm-112.24.74h0,0Z"/>
        <path class="cls-14" d="m133.96,81.84c2.5,10.69,7.72,20.81,15.52,29.29,1.6,1.73,3.29,3.39,5.09,4.97.88.77,1.78,1.52,2.71,2.26.7.55,1.41,1.09,2.12,1.6.77.21,1.55.4,2.35.57,54.24,11.74,78.23-39.36,78.23-39.36,0,0-.72-56.44-54.97-68.18-1.02-.22-2.04-.41-3.04-.56-13.26-1.99-26.64,3.23-35.1,13.62-.03.04-.06.08-.09.11-13.19,16.25-17.23,36.81-12.82,55.66Z"/>
        <path class="cls-11" d="m144.5,105.01c1.52,2.12,3.18,4.17,4.98,6.12,1.6,1.73,3.29,3.39,5.09,4.97.88.77,1.79,1.52,2.71,2.26.7.55,1.4,1.08,2.12,1.6.77.21,1.55.4,2.35.57,54.24,11.73,78.23-39.37,78.23-39.37,0,0-.28-22.12-13.8-41.54.04.13.08.26.12.39,4.64,14.59,1.15,30.54-9.12,41.9-13.17,14.57-36.44,30.96-71.23,23.43-.49-.11-.98-.22-1.47-.34Z"/>
        <path class="cls-3" d="m242,104.08c2.31.5,13.52-.64,13.52-.64,0,0,7.35-8.92,9.49-18.8.29-1.33.33-3.68.25-6.35-.19-6.44-1.12-14.69-1.12-14.69,0,0-5.62-4.78-12.04-6.18-9.92-2.15-20.22,6.56-23.01,19.45-.3,1.37-.49,2.73-.6,4.06-.91,11.29,4.65,21.23,13.52,23.15Z"/>
        <path class="cls-7" d="m242,104.08c2.31.5,13.52-.64,13.52-.64,0,0,7.35-8.92,9.49-18.8.29-1.33.33-3.68.25-6.35l-27.44,1.56s-3.99,5.25-9.33,1.09c-.91,11.29,4.65,21.23,13.52,23.15Z"/>
        <path class="cls-14" d="m241.65,105.68c-5.3-1.15-9.69-4.87-12.35-10.48-2.59-5.46-3.24-12.1-1.81-18.68h0c2.97-13.75,14.17-23.03,24.95-20.7,6.75,1.46,12.51,6.32,12.75,6.53l.49.42.07.64c.19,1.72,1.85,16.91.84,21.57-2.2,10.16-9.52,19.12-9.83,19.5l-.43.52-.67.07c-1.51.15-7.82.77-11.63.77-1.03,0-1.88-.05-2.4-.16Zm21.76-21.39c.72-3.35-.29-14.88-.82-19.85-1.45-1.13-5.93-4.36-10.84-5.43-9.02-1.96-18.47,6.21-21.07,18.2h0c-1.27,5.88-.71,11.77,1.57,16.59,2.22,4.67,5.8,7.76,10.09,8.69,1.35.29,7.78-.16,12.32-.6,1.54-2,7-9.51,8.75-17.59Z"/>
        <ellipse class="cls-3" cx="253.93" cy="82.24" rx="21.83" ry="16.81" transform="translate(119.85 313.04) rotate(-77.79)"/>
        <g class="cls-16">
          <path class="cls-14" d="m249.32,103.58c8.7,1.88,17.72-5.36,20.7-16.35-5.25,5.17-11.96,7.71-18.52,6.29-6.57-1.42-11.62-6.51-14.26-13.38-1.83,11.24,3.39,21.56,12.09,23.44Z"/>
        </g>
        <path class="cls-14" d="m248.97,105.18c-9.94-2.15-15.8-14.19-13.06-26.84h0c1.31-6.05,4.37-11.36,8.62-14.95,4.37-3.69,9.47-5.15,14.37-4.09,4.89,1.06,8.94,4.49,11.39,9.66,2.38,5.03,2.98,11.13,1.67,17.18-1.31,6.05-4.37,11.36-8.62,14.95-3.44,2.91-7.33,4.42-11.22,4.42-1.05,0-2.11-.11-3.15-.34Zm-2.34-39.29c-3.7,3.13-6.38,7.8-7.53,13.15h0c-2.35,10.89,2.38,21.18,10.56,22.95,3.88.84,7.99-.36,11.57-3.39,3.7-3.13,6.38-7.8,7.53-13.15,1.16-5.35.65-10.71-1.43-15.09-2.01-4.23-5.25-7.03-9.13-7.87-.81-.17-1.62-.26-2.44-.26-3.12,0-6.29,1.25-9.13,3.65Z"/>
        <path class="cls-14" d="m248.97,105.18c-9.94-2.15-15.8-14.19-13.06-26.84h0c1.31-6.05,4.37-11.36,8.62-14.95,4.37-3.69,9.47-5.15,14.37-4.09,4.89,1.06,8.94,4.49,11.39,9.66,2.38,5.03,2.98,11.13,1.67,17.18-1.31,6.05-4.37,11.36-8.62,14.95-3.44,2.91-7.33,4.42-11.22,4.42-1.05,0-2.11-.11-3.15-.34Zm-2.34-39.29c-3.7,3.13-6.38,7.8-7.53,13.15h0c-2.35,10.89,2.38,21.18,10.56,22.95,3.88.84,7.99-.36,11.57-3.39,3.7-3.13,6.38-7.8,7.53-13.15,1.16-5.35.65-10.71-1.43-15.09-2.01-4.23-5.25-7.03-9.13-7.87-.81-.17-1.62-.26-2.44-.26-3.12,0-6.29,1.25-9.13,3.65Z"/>
        <g class="cls-17">
          <path class="cls-3" d="m202.18,26.54s-26.57-2.01-43.21,10.91c-.02.01-.03.03-.05.04-3.5,2.72-6.19,6.33-7.82,10.42-2.15,5.41-2.83,9.45-3.29,13.03-1.39,10.88.03,16.23.03,16.23-5.54-6.52-8.25-13.48-7.18-22.55.11-.89.25-1.81.43-2.75.04-.22.09-.43.13-.64,0,0,0,0,0-.01.5-1.87,1.24-4.31,2.32-7,3.24-8.09,9.44-18.41,20.73-22.16,21.1-7.02,38.96,3.47,37.91,4.49Z"/>
        </g>
        <g>
          <path class="cls-3" d="m204.9,33.56c-1.29,1.67-2.35,3.45-3.09,5.44-.21.57-.37,1.21-.36,1.88.13,1.33,1.17,2.04,2.08,2.72,1.77,1.17,3.68,2,5.72,2.55.3.08.6-.1.68-.4.06-.24-.04-.47-.23-.6-1.84-1.33-3.85-2.43-5.52-3.92-.2-.18-.37-.4-.42-.5-.04-.06,0-.03-.01.03.08-.95.5-1.93.83-2.88.46-1.22.97-2.47,1.42-3.74.24-.65-.66-1.14-1.08-.6h0Z"/>
          <path class="cls-3" d="m199.27,32.5c-.84,2.16-1.26,4.57-2.41,6.54.03-.06.08-.06,0-.03-.11.04-.37.1-.64.12-2.24.1-4.49-.31-6.76-.43-.31-.03-.59.21-.61.52-.02.24.12.45.33.54,1.93.86,3.94,1.41,6.05,1.62.86.03,1.56.09,2.47-.23,2.29-.94,2.69-6.24,2.78-8.44.01-.7-1.01-.87-1.22-.2h0Z"/>
          <path class="cls-3" d="m192.96,48.92c2.08-1.03,4.02-2.51,6.2-3.19-.06.02-.1-.02-.03.02.11.04.34.17.55.34,1.72,1.44,3.1,3.26,4.68,4.89.21.23.57.24.8.03.17-.16.22-.41.13-.62-.84-1.94-1.94-3.7-3.36-5.28-.61-.61-1.09-1.12-1.98-1.5-2.3-.87-6.22,2.78-7.76,4.34-.49.51.16,1.32.76.97h0Z"/>
        </g>
        <g class="cls-17">
          <ellipse class="cls-3" cx="215.14" cy="64.57" rx="8.03" ry="9.22" transform="translate(-7.13 32.17) rotate(-8.41)"/>
        </g>
        <g class="cls-17">
          <ellipse class="cls-3" cx="217.45" cy="81.17" rx="3.31" ry="3.81" transform="translate(-13.06 53.99) rotate(-13.74)"/>
        </g>
      </g>
      <g>
        <path class="cls-6" d="m115.03,121.83s8.25-.5,8.25,4.57v4.68s7.79,10.84,5.45,21.62h-14.27s2.36-14.75-4.86-18.92c-7.23-4.17,5.44-11.96,5.44-11.96Z"/>
        <path class="cls-14" d="m113.21,153.77c-.31-.36-.45-.84-.37-1.32.6-3.8,1.05-14.29-4.07-17.25-2.48-1.43-3.03-3.26-3.04-4.53-.07-4.75,7.02-9.35,8.44-10.23.23-.14.49-.22.76-.24.56-.03,5.61-.26,8.31,2.29,1.09,1.03,1.66,2.38,1.66,3.92v4.18c1.49,2.24,7.63,12.24,5.41,22.47-.16.75-.83,1.29-1.6,1.29h-14.27c-.48,0-.93-.21-1.24-.57Zm8.74-21.73c-.2-.28-.31-.61-.31-.95v-4.68c0-.64-.2-1.13-.63-1.54-1.27-1.2-4.16-1.41-5.49-1.42-2.84,1.83-6.56,5.11-6.53,7.18,0,.23.01.94,1.41,1.75,6.51,3.76,6.28,14.34,5.88,18.7h11.06c1.31-9.51-5.33-18.94-5.4-19.03Z"/>
      </g>
      <polygon class="cls-5" points="69.21 125.27 95.6 126.77 95.6 120.66 69.21 122.16 69.21 125.27"/>
      <polygon class="cls-8" points="69.21 123.54 69.21 125.27 95.6 126.77 95.6 123.88 69.21 123.54"/>
      <path class="cls-14" d="m95.51,128.4l-26.39-1.5c-.86-.05-1.54-.76-1.54-1.63v-3.11c0-.87.68-1.58,1.54-1.63l26.39-1.5c.46-.03.89.13,1.21.44.33.31.51.74.51,1.19v6.11c0,.45-.18.88-.51,1.19-.3.29-.71.45-1.12.45-.03,0-.06,0-.09,0Zm-26.3-3.13h0,0Zm1.64-1.57v.03s23.12,1.32,23.12,1.32v-2.66s-23.12,1.32-23.12,1.32Z"/>
      <path class="cls-14" d="m64.27,123.72c0-3.46,2.81-6.27,6.27-6.27,3.46,0,6.27,2.81,6.27,6.27s-2.81,6.27-6.27,6.27-6.27-2.81-6.27-6.27Zm3.26,0c0,1.66,1.35,3,3,3s3-1.35,3-3c0-1.66-1.35-3-3-3s-3,1.35-3,3Z"/>
      <path class="cls-1" d="m93.55,134.54c5.1.33,10.05.33,15.15,0,3.77-.25,6.72-3.36,6.72-7.15,0-2.45,0-4.91,0-7.36,0-3.78-2.95-6.9-6.72-7.15-5.1-.33-10.05-.33-15.15,0-3.77.25-6.72,3.36-6.72,7.15,0,2.45,0,4.91,0,7.36,0,3.78,2.94,6.9,6.72,7.15Z"/>
      <g class="cls-18">
        <path class="cls-3" d="m86.83,120.03v3.06c0-3.78,2.95-6.9,6.72-7.14,5.1-.34,10.05-.34,15.15,0,3.77.24,6.72,3.36,6.72,7.14v-3.06c0-3.78-2.95-6.9-6.72-7.15-5.1-.33-10.05-.33-15.15,0-3.77.25-6.72,3.37-6.72,7.15Z"/>
      </g>
      <path class="cls-12" d="m86.83,120.58v6.82c0,3.78,2.95,6.9,6.72,7.15,5.1.33,10.05.33,15.15,0,3.77-.25,6.72-3.36,6.72-7.15v-6.82c0,3.78-2.95,6.9-6.72,7.15-5.1.33-10.05.33-15.15,0-3.77-.25-6.72-3.36-6.72-7.15Z"/>
      <path class="cls-12" d="m98.24,127.93l3.03,3.07-1.41-3.04c-.54,0-1.08-.01-1.62-.03Z"/>
      <path class="cls-14" d="m93.44,136.17c-4.62-.3-8.24-4.16-8.24-8.77v-7.36c0-4.62,3.62-8.47,8.24-8.77,5.17-.34,10.19-.34,15.36,0,4.62.3,8.24,4.16,8.24,8.77v7.36c0,4.62-3.62,8.47-8.24,8.77-2.58.17-5.13.25-7.68.25s-5.1-.08-7.68-.25Zm.21-21.65c-2.91.19-5.19,2.61-5.19,5.52v7.36c0,2.9,2.28,5.32,5.19,5.52h0c5.03.33,9.91.33,14.93,0,2.91-.19,5.19-2.61,5.19-5.52v-7.36c0-2.9-2.28-5.33-5.19-5.52-2.51-.16-4.99-.25-7.47-.25s-4.96.08-7.47.25Z"/>
      <path class="cls-3" d="m133.47,126.39c-3.46-7.67-8.82-12.53-16.55-8.36-5.27,2.83-4.59,6.98-1.5,8.68,4.58,2.52,9.67.51,9.67.51"/>
      <path class="cls-14" d="m134.21,126.05c-.88-5.74-5.97-11.49-12.16-11.21-3.97.28-8.69,2.39-10.35,6.18-2.51,7.68,8.54,10.43,13.68,6.95.78-.49.29-1.68-.6-1.52-2.96.23-5.97.2-8.56-1.26-2.9-1.75-1.01-4.5,1.56-5.76,4.69-2.67,8.7-.8,11.74,3.27,1.09,1.36,2.01,2.75,3.23,4.05.53.6,1.59.08,1.46-.7h0Z"/>
      <path class="cls-3" d="m112.22,144.38c.46,1.93.98,3.69,1.5,4.69,1.45,2.81,8.08,2.28,10.49.23,2.66-2.27.62-7.72.62-7.72,0,0,2.46-7.57-3.35-9.7-.49-.18-1.03-.32-1.64-.42-7.26-1.13-8.81,2.52-8.95,4.28-.09,1.13.5,5.15,1.33,8.63Z"/>
      <g class="cls-16">
        <path class="cls-14" d="m112.22,144.38c.46,1.93.98,3.69,1.5,4.69,1.45,2.81,8.08,2.28,10.49.23,2.66-2.27.62-7.72.62-7.72,0,0,2.46-7.57-3.35-9.7.75,1,3.46,5.12.45,8.63,0,0,2.02,4.96-1.36,6.48-3.12,1.4-6.65.64-8.35-2.62Z"/>
      </g>
      <path class="cls-14" d="m116.28,152.45c-1.93-.38-3.32-1.29-4.01-2.63-1.59-3.09-3.16-12.21-3-14.2.06-.79.42-2.8,2.35-4.32,1.95-1.54,4.8-2.02,8.48-1.45,2.61.41,4.52,1.58,5.69,3.48,1.82,2.97,1.12,6.79.76,8.21.53,1.66,1.71,6.47-1.27,9.01-1.54,1.31-4.28,2.1-6.87,2.1-.73,0-1.45-.06-2.12-.2Zm-2.65-18.59c-.92.72-1.08,1.65-1.11,2.02-.12,1.51,1.37,9.96,2.65,12.44.21.41.85.75,1.74.92,2.25.44,5.15-.26,6.24-1.19,1.34-1.14.68-4.47.15-5.9-.13-.35-.14-.73-.02-1.08.01-.04,1.15-3.71-.28-6.04-.65-1.06-1.77-1.7-3.41-1.96-.83-.13-1.6-.19-2.3-.19-1.59,0-2.83.33-3.66.98Z"/>
      <path class="cls-3" d="m295.78,149.62c3.67,5.37,5.65,9.79,2.5,11.51-3.31,1.8-8.74-4.75-8.74-4.75,0,0-6.43,2.83-9.99,1.39"/>
      <path class="cls-14" d="m295.1,150.08c.94,1.74,5.55,9.54,1.71,9.72-2.32-.47-4.41-2.7-6.03-4.48-1.21-1.31-2.79.03-4.11.48-2.14.82-4.57,1.71-6.86,1.2-.44-.11-.88.15-1,.59-.1.38.09.77.43.94,1.79.87,3.75.84,5.64.66,1.83-.27,3.61-.51,5.32-1.31l-1.91-.45c2.44,2.67,6.42,6.86,10.47,5.29,1.43-.58,2.54-2.01,2.62-3.52.12-3.97-2.72-7.13-4.92-10.03-.62-.77-1.84.07-1.35.92h0Z"/>
      <path class="cls-14" d="m152.69,155.17c.43,0,.84-.22,1.07-.62,7.77-13.77,2.88-30.17,2.67-30.87-.2-.65-.88-1.01-1.53-.81-.65.2-1.01.88-.81,1.53.05.16,4.78,16.11-2.46,28.95-.33.59-.12,1.34.46,1.67.19.11.4.16.6.16Z"/>
      <g>
        <path class="cls-3" d="m271.85,129.55s-8.85,13.7-7.03,29.41"/>
        <path class="cls-14" d="m264.82,160.6c.06,0,.13,0,.19-.01.9-.1,1.54-.91,1.43-1.81-1.74-14.92,6.69-28.21,6.77-28.34.49-.76.27-1.77-.49-2.26-.76-.49-1.77-.27-2.26.48-.37.58-9.15,14.37-7.28,30.49.1.83.8,1.44,1.62,1.44Z"/>
      </g>
      <polygon class="cls-3" points="102.26 118.12 105.28 123.21 101.75 123.21 103.78 126.85 99.35 126.85 101.28 131.01 95.89 125.54 99.89 125.54 97.32 121.83 100.74 121.83 97.82 118.12 102.26 118.12"/>
      <path class="cls-9" d="m98.24,127.93l3.03,3.07-1.41-3.04c-.54,0-1.08-.01-1.62-.03Z"/>
      <g class="cls-18">
        <path class="cls-4" d="m111.34,92.87s-23.07,19.5-40.31,11.71c-17.24-7.79-17.19-37.51-17.19-37.51,0,0-3.04,59.55-53.85,44.39,0,0,48.26,15.52,19.57,49.73,0,0,43.96-28.41,61.54,27.8,0,0-7.51-55.7,33.29-46.52,0,0-36.15-15.49-3.06-49.61Z"/>
      </g>
    </g>
  </g>
</svg>