<?xml version="1.0" encoding="UTF-8"?>
<svg id="Layer_2" data-name="Layer 2" xmlns="http://www.w3.org/2000/svg" viewBox="0 0 480.5 260.58">
  <defs>
    <style>
      .cls-1 {
        fill: #f3f3f3;
      }

      .cls-2 {
        fill: #02daff;
      }

      .cls-3 {
        fill: #fff;
      }

      .cls-4 {
        fill: #220f2d;
      }

      .cls-5 {
        fill: #371a45;
      }

      .cls-6 {
        opacity: .2;
      }

      .cls-7 {
        opacity: .5;
      }
    </style>
  </defs>
  <g id="planets">
    <g>
      <path class="cls-5" d="m13.36,253.21c-4.11-14.58,1.27-29.33,10.17-41.01s20.15-21.6,32.48-28.26c14.57-7.88,29.36-5.23,44.28.23,14.06,5.15,27.72,10.98,42.55,13.61,14.07,2.49,29,2.75,42.51-2.49,13.42-5.21,23.61-14.91,33.35-25.2,9.53-10.08,19.64-21.55,33.37-25.72,15.27-4.63,29.78,4.03,44.24,7.77s32.79,4.45,45.94-4.96c11.53-8.26,18.61-22.38,14.76-36.52-2.01-7.38-13.5-4.25-11.48,3.17,3.39,12.43-6.72,24.02-18.12,27.44-15,4.5-29.87-1.06-44.02-5.8s-28.53-6.21-42.59.67c-12.58,6.15-22.15,16.74-31.64,26.72-9.93,10.45-20.37,20.04-34.83,23.35s-29.47.6-43.36-3.53c-14.92-4.43-28.99-12.1-44.38-14.84-14.9-2.65-28.8.53-41.45,8.72C19.39,193.22-7.4,223.42,1.88,256.38c2.07,7.36,13.57,4.23,11.48-3.17h0Z"/>
      <g>
        <path class="cls-1" d="m366.66,112.53s-3.16.06-7.18-.25c-5.85-.45-13.53-1.7-15.97-5.06-1.13-1.56-1.47-3.89-1.37-6.45.27-6.76,3.61-15.13,3.61-15.13l-.88-2.27c-.37-.96-.43-2.01-.17-3.01.41-1.59,1.23-4.31,2.79-7.94,2.59-6.05,6.18-9.78,6.18-9.78l11.46-8.44s7.37.63,9.76,1.49c2.39.86,8.8,12.04,8.58,13.36-.22,1.32-16.8,43.48-16.8,43.48Z"/>
        <path class="cls-5" d="m343.32,108.96c-.33-.3-.62-.63-.87-.97-4.14-5.7.69-19.25,1.88-22.35l-.69-1.79c-.47-1.22-.55-2.54-.22-3.81.43-1.68,1.27-4.45,2.85-8.13,2.66-6.2,6.29-10.02,6.45-10.18.5-.52,1.32-.54,1.84-.06,0,0,.01.01.02.02.52.5.54,1.34.04,1.86h0s-3.47,3.66-5.93,9.39c-1.51,3.52-2.31,6.16-2.72,7.75-.19.74-.15,1.5.13,2.21l.87,2.27c.12.31.12.65,0,.96-1.69,4.24-5.42,16.15-2.39,20.31,2.88,3.97,15.53,4.79,21.19,4.78,6.36-16.18,15.59-39.83,16.37-42.3-.45-2.11-6.11-11.34-7.7-11.99-1.82-.66-7.43-1.25-9.43-1.42-.72-.06-1.26-.7-1.2-1.42.06-.72.7-1.26,1.42-1.2.77.07,7.62.67,10.1,1.57,1.39.5,3.39,2.88,5.95,7.06,1.4,2.3,3.72,6.36,3.48,7.76-.23,1.35-12.97,33.82-16.87,43.74-.19.5-.67.82-1.2.83-1.9.04-17.88.18-23.37-4.89Z"/>
        <path class="cls-1" d="m431.77,174.1c-.7.02-1.59.04-2.61.04-5.52.01-15.02-.44-20.49-3.3-.97-.51-1.64-1.44-1.83-2.52-.61-3.48-1.7-12.25.64-21.6.06-.23.12-.46.18-.68,0,0-5.16-3.8-10.56-8.57-.23-.2-.45-.4-.68-.6l19.82-20.5s.29.3.79.83c2.82,2.98,12.17,13.39,12.26,20.44.1,8.3-1.65,19.92-1.65,19.92,0,0,15.75,2.49,6.93,15.05-.64.91-1.68,1.47-2.8,1.5Z"/>
        <path class="cls-1" d="m465.14,102.78s-31.4,5.42-47.39-7.57c-15.27-12.41,10.25-17.15,12.55-17.55.11-.02.17-.03.17-.03l10.98,4.95s10.77,5.41,22.21.45c3.42-5.49,7.97-4.69,9.06,1.66,2.45.03,4.27,1.19,5.35,2.9,3.16,5.01-.09,14.78-12.92,15.19Z"/>
        <g class="cls-6">
          <path class="cls-5" d="m465.14,102.78s-31.4,5.42-47.39-7.57c-15.27-12.41,10.25-17.15,12.55-17.55,1.07,2.09,1.59,4.9,1.21,8.44-1.7,15.74,31.3,6.91,31.3,6.91,8.61,5.27,14.17-3.51,15.26-5.43,3.16,5.01-.09,14.78-12.92,15.19Z"/>
        </g>
        <path class="cls-5" d="m415.67,95.15c-3.32-3.06-4.62-6.03-3.87-8.82,1.92-7.16,16.77-9.73,18.46-10,.72-.12,1.39.37,1.51,1.09.11.72-.37,1.39-1.09,1.51-4.12.66-15.08,3.4-16.33,8.08-.54,2.03.88,4.44,4.24,7.18,15.33,12.46,46.02,7.35,46.33,7.29.06-.01.12-.02.18-.02,8.83-.28,12.81-5.3,12.77-9.84-.02-2.76-1.63-5.57-5.17-5.62-.63,0-1.17-.47-1.28-1.09-.41-2.39-1.37-3.96-2.57-4.19-1.21-.24-2.78.91-4.08,3.01-.14.23-.35.41-.59.51-11.86,5.14-22.86-.25-23.32-.48-.65-.33-.91-1.12-.59-1.77.33-.65,1.12-.91,1.77-.59h0c.1.05,10.16,4.95,20.73.58,1.92-2.89,4.3-4.29,6.59-3.84,2.12.42,3.71,2.33,4.45,5.32,3.91.55,6.66,3.83,6.7,8.14.05,5.77-4.69,12.12-15.23,12.49-2.25.38-32.36,5.13-48.35-7.86-.44-.36-.86-.72-1.25-1.08Z"/>
        <path class="cls-5" d="m447.45,104.13c-1.81-1.67-2.87-3.72-3.17-6.1-.82-6.68,4.8-13.61,5.04-13.91.46-.56,1.29-.64,1.85-.18.56.46.64,1.29.18,1.85-.08.1-5.14,6.38-4.46,11.92.26,2.08,1.28,3.76,3.12,5.13.58.44.7,1.26.27,1.84-.43.58-1.26.7-1.84.27-.36-.26-.69-.54-1-.83Z"/>
        <path class="cls-1" d="m396.28,136.64c-.38.17-.78.34-1.18.51l-11.22,6.56c-5.16,3.25-13.78,2.25-15.6-7.41-.1-.55-.19-1.13-.24-1.73l1.17-10.12s-12.9-9.75-11.29-23.58c1.58-13.54,9.28-27.73,13.88-35.39.1-.17.2-.33.3-.49,0,0-6.14-3.37-10.29-4.22-4.15-.84-19.9,7.02-19.9,7.02-1.85,6.1-4.68,6.57-8.46,1.46-8.37,1.28-11.46-5.51-10.08-11.46.52-2.25,1.68-4.38,3.43-5.91.04-.04.08-.07.12-.1.35-.29.72-.56,1.11-.81,0,0,18.19-9.05,34.59-10.44,16.4-1.39,27.23,7.15,27.23,7.15l36.52,37.34s-3.8,2.36-5.91,12.21c-2.07,9.68-1.54,29.27-24.16,39.41Z"/>
        <path class="cls-5" d="m376.51,99.93c-3.94-3.64,1.01-14.93,6.01-23.98,1.04-1.88,3.26-2.72,5.28-2.02,5.27,1.84,19.02,7.06,32.99,15.8,1.62,1.02,2.32,2.99,1.68,4.79-1.35,3.85-4.11,11.07-7.35,16.21-1.01,1.6-2.88,2.5-4.78,2.29-3.37-.36-10.52-1.82-20.51-7.59-.63-.36-.85-1.17-.48-1.8.36-.63,1.17-.85,1.8-.48,9.57,5.53,16.31,6.92,19.47,7.25.91.1,1.8-.33,2.28-1.08,3.1-4.92,5.78-11.94,7.1-15.68.22-.63-.02-1.32-.59-1.68-13.74-8.59-27.28-13.73-32.46-15.54-.81-.28-1.7.05-2.11.8-7.04,12.74-8.22,19.77-6.34,20.91.62.38.82,1.19.44,1.81-.38.62-1.19.82-1.81.44-.22-.13-.42-.29-.61-.46Z"/>
        <path class="cls-5" d="m370.79,143.95c-2.27-2.1-3.69-5.28-4.07-9.24,0-.09,0-.18,0-.28l1.08-9.39c-2.63-2.19-12.7-11.48-11.2-24.31,1.16-9.97,5.87-22.12,13.64-35.21-1.96-1-5.87-2.87-8.71-3.44-2.63-.53-12.55,3.71-18.56,6.66-1.08,3.24-2.51,4.98-4.37,5.3-1.82.31-3.71-.79-5.76-3.37-4.97.5-8.84-1.71-10.42-6-1.95-5.28.24-11.92,4.88-14.81.04-.02.07-.04.11-.06.75-.37,18.6-9.18,35.07-10.57,16.73-1.42,27.7,7.07,28.16,7.43.04.04.09.07.13.11l36.52,37.34c.28.29.41.68.37,1.08-.05.39-.27.74-.6.95-.09.06-3.42,2.45-5.33,11.38-.29,1.35-.53,2.95-.79,4.64-1.66,10.88-4.17,27.32-25.25,36.18l-11.15,6.52c-3.41,2.15-7.87,2.45-11.34.75-.89-.44-1.69-.99-2.42-1.66Zm-1.44-9.36c.44,4.26,2.17,7.25,5.02,8.65,2.66,1.31,6.12,1.06,8.81-.64l11.26-6.59c.05-.03.1-.06.16-.08,19.79-8.29,22.17-23.87,23.74-34.18.26-1.73.51-3.36.82-4.79,1.5-7.04,3.85-10.47,5.29-12l-35.48-36.29c-.87-.65-11.2-8.1-26.25-6.83-15.52,1.32-32.95,9.73-34.06,10.28-4.03,2.55-5.09,8-3.75,11.62.72,1.94,2.75,5.06,8.34,4.21.48-.07.97.13,1.26.52,2.13,2.88,3.28,3.03,3.67,2.96.4-.07,1.43-.6,2.47-4.02.11-.35.35-.63.67-.8,2.7-1.35,16.38-8.02,20.75-7.13,4.3.87,10.41,4.21,10.66,4.35.31.17.55.47.64.81.09.35.04.72-.15,1.02-8,13.22-12.84,25.45-13.99,35.35-1.51,12.94,10.65,22.29,10.77,22.38.37.28.57.74.51,1.2l-1.15,9.98Z"/>
        <g>
          <g>
            <path class="cls-3" d="m391.15,24.02c-3.24,6.31-4.9,13.49-4.59,20.93.06,1.52.2,3.04.43,4.58.11.75.24,1.5.39,2.25.46,2.27,1.09,4.46,1.88,6.57.67,1.82,1.47,3.57,2.36,5.25,1.08,2.03,2.31,3.95,3.68,5.76.5.66,1.02,1.3,1.55,1.93,9.76,11.46,25.18,17.54,40.87,14.59,23.11-4.35,38.04-26.67,33.36-49.84-.91-4.46-2.47-8.64-4.58-12.43-.24-.45-.5-.89-.76-1.32-.7-1.17-1.45-2.29-2.25-3.38-1.85-2.51-3.96-4.8-6.28-6.84-2.31-2.04-4.84-3.83-7.52-5.33-.85-.48-1.72-.93-2.61-1.35-1.33-.63-2.69-1.2-4.08-1.69-6.93-2.47-14.56-3.2-22.26-1.75-13.29,2.5-23.88,10.95-29.59,22.08Z"/>
            <path class="cls-5" d="m400.41,75.16c-1.29-1.19-2.51-2.46-3.66-3.81-.53-.63-1.05-1.28-1.55-1.93-1.39-1.83-2.63-3.77-3.69-5.77-.91-1.71-1.71-3.48-2.37-5.26-.8-2.13-1.43-4.34-1.88-6.58-.16-.82-.29-1.56-.39-2.26-.22-1.51-.37-3.05-.43-4.59-.3-7.28,1.3-14.53,4.61-20.99,5.97-11.65,16.78-19.72,29.67-22.15,7.45-1.4,15.17-.8,22.33,1.76,1.36.48,2.73,1.05,4.09,1.69.87.41,1.75.87,2.61,1.35,2.69,1.51,5.22,3.3,7.54,5.35,2.34,2.05,4.46,4.36,6.29,6.86.8,1.08,1.56,2.22,2.26,3.39.28.47.53.9.77,1.32,2.15,3.87,3.7,8.06,4.59,12.46,2.28,11.29.03,22.71-6.34,32.17-6.32,9.39-15.95,15.71-27.11,17.81-13.44,2.53-27.3-1.58-37.32-10.82Zm57.46-62.33c-.25-.23-.5-.45-.75-.68-2.3-2.03-4.82-3.82-7.5-5.32-.86-.48-1.73-.93-2.6-1.35-1.35-.64-2.72-1.21-4.07-1.68-7.11-2.54-14.79-3.14-22.2-1.75-12.81,2.41-23.57,10.44-29.5,22.02-3.29,6.42-4.87,13.64-4.58,20.87.06,1.53.21,3.06.43,4.56.1.69.23,1.43.39,2.24.45,2.23,1.08,4.43,1.87,6.55.66,1.77,1.45,3.53,2.36,5.23,1.06,1.99,2.29,3.92,3.67,5.74.5.65,1.02,1.3,1.54,1.92,10.06,11.81,25.68,17.39,40.75,14.55,11.1-2.09,20.67-8.38,26.96-17.71,6.33-9.41,8.57-20.77,6.3-31.99-.89-4.38-2.42-8.55-4.56-12.4-.23-.42-.48-.85-.76-1.32-.7-1.16-1.45-2.29-2.25-3.37-1.63-2.21-3.48-4.27-5.51-6.14Z"/>
          </g>
          <g class="cls-6">
            <path class="cls-5" d="m437.71,85.86c-15.69,2.96-31.11-3.13-40.87-14.59-.53-.63-1.05-1.27-1.55-1.93-1.37-1.81-2.6-3.73-3.68-5.76-.89-1.68-1.69-3.43-2.36-5.25-.79-2.11-1.42-4.3-1.88-6.57-.15-.75-.28-1.5-.39-2.25-.23-1.53-.37-3.06-.43-4.58-.3-7.45,1.35-14.62,4.59-20.93,1.78-3.47,4.03-6.68,6.69-9.53-2.95,6.1-4.45,12.95-4.16,20.05.06,1.52.2,3.04.43,4.58.11.74.24,1.49.39,2.25.46,2.27,1.09,4.46,1.88,6.57.68,1.82,1.47,3.57,2.36,5.25,1.08,2.03,2.32,3.95,3.68,5.76.5.66,1.02,1.3,1.55,1.93,9.76,11.46,25.18,17.55,40.87,14.59,9.15-1.72,17.02-6.27,22.9-12.56-5.59,11.57-16.38,20.4-30.02,22.97Z"/>
          </g>
          <path class="cls-5" d="m399.86,75.76c-1.31-1.21-2.56-2.5-3.73-3.88-.54-.64-1.07-1.3-1.58-1.97-1.41-1.87-2.68-3.85-3.76-5.88-.93-1.74-1.74-3.55-2.41-5.36-.81-2.16-1.45-4.42-1.92-6.7-.17-.84-.3-1.59-.4-2.3-.23-1.53-.38-3.11-.44-4.67-.3-7.41,1.32-14.81,4.69-21.39h0c6.09-11.87,17.11-20.1,30.24-22.57,7.59-1.43,15.46-.81,22.75,1.79,1.38.49,2.78,1.07,4.16,1.72.89.42,1.79.89,2.66,1.38,2.74,1.53,5.32,3.37,7.68,5.44,2.38,2.1,4.54,4.44,6.41,6.98.81,1.1,1.59,2.26,2.3,3.45.29.47.55.92.78,1.35,2.19,3.93,3.76,8.21,4.67,12.69,2.33,11.5.03,23.14-6.46,32.78-6.44,9.57-16.26,16.01-27.64,18.16-13.69,2.58-27.81-1.61-38.02-11.02Zm57.46-62.33c-.24-.22-.49-.45-.74-.66-2.26-1.99-4.74-3.75-7.36-5.22-.84-.47-1.7-.92-2.55-1.32-1.32-.63-2.67-1.18-3.99-1.65-6.98-2.49-14.51-3.09-21.78-1.72-12.56,2.36-23.11,10.23-28.93,21.59h0c-3.23,6.3-4.78,13.37-4.49,20.47.06,1.5.2,3.01.42,4.48.1.68.22,1.4.38,2.21.44,2.18,1.06,4.34,1.83,6.42.65,1.74,1.42,3.47,2.31,5.14,1.04,1.95,2.25,3.85,3.6,5.63.49.64,1,1.27,1.52,1.89,9.88,11.6,25.19,17.06,39.98,14.28,10.89-2.05,20.27-8.22,26.44-17.37,6.21-9.23,8.41-20.37,6.18-31.37-.87-4.3-2.38-8.39-4.48-12.16-.23-.42-.47-.84-.74-1.29-.69-1.14-1.43-2.26-2.21-3.31-1.6-2.17-3.41-4.19-5.4-6.03Z"/>
          <path class="cls-5" d="m399.68,75.96c-1.32-1.22-2.57-2.52-3.75-3.9-.54-.64-1.08-1.31-1.59-1.98-1.42-1.88-2.7-3.87-3.79-5.92-.93-1.75-1.75-3.57-2.43-5.39-.81-2.18-1.46-4.45-1.93-6.74-.17-.84-.3-1.6-.4-2.31-.23-1.54-.38-3.12-.44-4.7-.3-7.46,1.33-14.91,4.72-21.53h0c6.12-11.95,17.22-20.23,30.43-22.71,7.64-1.44,15.56-.82,22.89,1.8,1.39.49,2.8,1.08,4.19,1.73.9.43,1.8.89,2.68,1.39,2.75,1.54,5.35,3.39,7.72,5.48,2.4,2.11,4.57,4.47,6.45,7.02.82,1.11,1.6,2.28,2.32,3.47.29.47.55.92.79,1.36,2.2,3.96,3.78,8.25,4.7,12.76,2.34,11.57.03,23.29-6.5,32.99-6.48,9.63-16.36,16.11-27.81,18.27-13.77,2.59-27.98-1.62-38.25-11.09Zm57.46-62.33c-.24-.22-.49-.44-.73-.66-2.25-1.98-4.71-3.72-7.31-5.18-.84-.47-1.69-.91-2.53-1.31-1.32-.62-2.65-1.18-3.96-1.64-6.94-2.48-14.42-3.07-21.64-1.71-12.48,2.35-22.96,10.17-28.74,21.45h0c-3.21,6.26-4.75,13.29-4.46,20.34.06,1.49.2,2.99.42,4.45.1.68.22,1.4.38,2.19.44,2.17,1.05,4.32,1.82,6.38.64,1.73,1.41,3.45,2.3,5.1,1.03,1.94,2.24,3.82,3.58,5.6.48.63.99,1.27,1.51,1.87,9.81,11.52,25.03,16.95,39.73,14.19,10.81-2.04,20.14-8.16,26.26-17.25,6.17-9.16,8.35-20.23,6.14-31.17-.87-4.27-2.36-8.33-4.45-12.08-.23-.42-.47-.83-.74-1.28-.68-1.14-1.42-2.24-2.19-3.29-1.59-2.15-3.39-4.16-5.37-5.99Z"/>
          <path class="cls-5" d="m387.48,34.27c-.18,30.51,29.4,51.87,55.25,36.6,17.59-10.39,20.74-35.79,9.43-52.19-8.23-11.94-21.44-20.07-43.28-12.63,0,0-9.14,4.79-13.2,10.94-4.07,6.14-6.98,12.82-6.98,12.82l-1.23,4.46Z"/>
          <path class="cls-4" d="m442.73,70.87c-25.85,15.27-55.43-6.09-55.25-36.6l.25-.9c11.58,25.61,40.72,39.26,67.16,24.3-2.68,5.36-6.73,9.99-12.16,13.2Z"/>
          <path class="cls-5" d="m397.33,70.36c-3.53-3.26-6.61-7.12-9.06-11.46l-.07-.16c-.81-2.18-1.46-4.44-1.93-6.74-.17-.84-.3-1.6-.4-2.31-.23-1.54-.38-3.12-.44-4.69-.3-7.45,1.33-14.88,4.72-21.49,6.11-11.93,17.19-20.19,30.38-22.67,7.63-1.44,15.53-.81,22.85,1.8l.11.04.1.06c4.85,2.96,9.22,7.23,13,12.72,6.8,9.87,9.27,23.01,6.59,35.15-2.41,10.94-8.64,19.86-17.55,25.12-9.7,5.73-20.29,7.29-30.63,4.52-6.5-1.74-12.56-5.17-17.67-9.88Zm-7.05-12.49c5.7,10.06,14.92,17.42,25.3,20.2,9.74,2.61,19.74,1.13,28.9-4.29,8.37-4.94,14.22-13.35,16.5-23.67,2.54-11.55.21-24.03-6.25-33.39-3.57-5.18-7.69-9.22-12.22-12.01-6.92-2.45-14.37-3.02-21.57-1.67-12.51,2.35-23,10.19-28.79,21.49h0c-3.21,6.27-4.76,13.31-4.47,20.37.06,1.49.2,2.99.42,4.46.1.68.22,1.4.38,2.2.43,2.14,1.04,4.27,1.8,6.31Z"/>
          <path class="cls-5" d="m400.61,66.56c-8.6-7.93-13.66-19.66-13.58-32.29l.02-.12,1.25-4.52c.03-.07,2.97-6.78,7.01-12.89,4.08-6.17,12.99-10.89,13.37-11.09l.06-.03c18.79-6.4,33.52-2.1,43.79,12.8,5.97,8.65,8.13,20.18,5.78,30.84-2.11,9.58-7.56,17.39-15.36,21.99-11.32,6.68-24.22,6.83-35.39.41-2.52-1.45-4.84-3.17-6.96-5.11Zm-12.68-32.22c-.07,15.39,7.62,29.39,20.09,36.56,10.89,6.26,23.46,6.11,34.48-.41,7.58-4.48,12.88-12.08,14.94-21.41,2.29-10.42.18-21.68-5.64-30.14-10.01-14.51-24.38-18.71-42.73-12.47-.58.31-9.17,4.97-13.01,10.77-3.86,5.83-6.71,12.24-6.93,12.72l-1.2,4.37Z"/>
          <path class="cls-3" d="m455.03,85.57c-6.63,5.1-15.25,5.42-19.26.71-4.01-4.71-1.89-12.66,4.74-17.76.04-.03.09-.07.13-.1,6.61-5.01,15.15-5.29,19.13-.61,3.1,3.64,2.54,9.21-.93,13.91-1.02,1.38-2.3,2.69-3.81,3.85Z"/>
          <g class="cls-6">
            <path class="cls-5" d="m455.03,85.57c-6.63,5.1-15.25,5.42-19.26.71-4.01-4.71-1.89-12.66,4.74-17.76.04-.03.09-.07.13-.1-.24,1.04-.22,2.36.93,3.28,2.03,1.61,9.21,1.76,9.21,1.76,0,0,3.52,3.56,8.06,8.26-1.02,1.38-2.3,2.69-3.81,3.85Z"/>
          </g>
          <path class="cls-5" d="m435.65,87.88c-.28-.26-.55-.54-.8-.83-1.79-2.1-2.56-4.78-2.25-7.77.45-4.29,3.06-8.56,7.17-11.72,7.12-5.48,16.49-5.73,20.91-.53,1.79,2.1,2.56,4.78,2.25,7.77-.45,4.29-3.06,8.56-7.17,11.72-6.71,5.17-15.44,5.67-20.11,1.36Zm22.59-19.94c-3.82-3.53-11.21-2.93-17,1.52-3.53,2.72-5.87,6.48-6.24,10.06-.24,2.32.34,4.38,1.69,5.97.19.23.4.44.62.64,3.82,3.53,11.21,2.93,17-1.52,3.53-2.72,5.87-6.48,6.24-10.06.24-2.32-.34-4.38-1.69-5.97-.19-.23-.4-.44-.62-.64Z"/>
          <ellipse class="cls-3" cx="449.25" cy="80.5" rx="12.37" ry="8.43" transform="translate(32.68 266.99) rotate(-34.28)"/>
          <g class="cls-6">
            <path class="cls-5" d="m439.43,87.99c3.06,3.53,9.93,3.04,15.35-1.09.59-.45,1.14-.92,1.64-1.41-4.48,1.88-9.12,1.52-11.49-1.23-2.68-3.11-1.59-8.25,2.31-12.26-1.21.54-2.4,1.25-3.52,2.1-5.42,4.14-7.34,10.35-4.28,13.89Z"/>
          </g>
          <path class="cls-5" d="m439.1,89.37c-.2-.19-.39-.38-.58-.59-1.34-1.55-1.93-3.57-1.7-5.83.36-3.47,2.66-7.13,6.16-9.8,6.01-4.58,13.48-4.99,16.99-.92,1.34,1.55,1.93,3.57,1.7,5.83-.36,3.47-2.66,7.13-6.16,9.8h0c-5.7,4.35-12.7,4.94-16.41,1.52Zm18.69-15.95c-2.79-2.57-8.73-1.89-13.35,1.64-2.98,2.28-4.93,5.32-5.23,8.14-.16,1.58.23,2.97,1.13,4.01,2.59,2.99,8.88,2.43,13.71-1.26h0c2.98-2.28,4.93-5.32,5.23-8.14.16-1.58-.23-2.97-1.13-4.01-.11-.13-.24-.26-.37-.38Z"/>
          <g class="cls-7">
            <path class="cls-3" d="m450.19,31.79s-8.52-14.8-22.79-17.23c-.01,0-.03,0-.04,0-3-.51-8.86.23-11.69,1.3-3.74,1.42-6.09,2.95-8.12,4.38-6.15,4.35-8.2,7.55-8.2,7.55.73-5.83,2.99-10.43,8.08-14.1.5-.36,1.03-.71,1.59-1.06.13-.08.26-.16.39-.23,0,0,0,0,0,0,1.18-.62,2.76-1.37,4.62-2.07,5.6-2.12,13.7-3.76,20.83.2,13.34,7.42,16.33,21.33,15.32,21.27Z"/>
          </g>
          <g class="cls-7">
            <ellipse class="cls-3" cx="441.48" cy="53.59" rx="6.29" ry="5.47" transform="translate(121.66 362.6) rotate(-50.94)"/>
          </g>
          <g class="cls-7">
            <ellipse class="cls-3" cx="433.86" cy="63.26" rx="2.73" ry="2.37" transform="translate(140.33 388.95) rotate(-56.27)"/>
          </g>
        </g>
        <path class="cls-5" d="m372.64,63.81l5.11,3.37c.42.27.1.95-.37.79,0,0-5.86-1.78-5.86-1.78-1.89-.69-.62-3.4,1.12-2.38h0Z"/>
        <path class="cls-5" d="m353.34,62.99s-.1-.1-.14-.15c-7.93-9.96-5.57-19.08-5.46-19.46.19-.7.92-1.11,1.62-.92.7.19,1.11.91.92,1.61h0c-.09.33-2.08,8.26,4.98,17.13.45.57.36,1.4-.21,1.85-.52.41-1.24.37-1.71-.06Z"/>
        <path class="cls-5" d="m371.98,99.06c2.78-1.07,5.8-1.36,8.74-.89,1.47.26,2.91.66,4.34,1.12,4.69,1.46,8.29,5.01,8.92,10,.1.74.11,1.53.11,2.28.01,1.35.04,4.97.05,6.37,0,0-1.13-1.29-1.13-1.29,3.62.54,6.93,2.81,8.57,6.11,2.31,4.54.27,9.83-3.13,13.17-.79.84-1.66,1.56-2.53,2.27-.56.46-1.39.37-1.85-.19-.47-.58-.36-1.44.23-1.88,4.68-3.51,8.17-9.59,3.29-14.43-1.33-1.3-3.12-2.17-4.95-2.45-.65-.1-1.12-.65-1.13-1.29,0,0-.03-4.24-.03-4.24,0-.39-.02-2.31-.02-2.65.04-4.69-2.91-7.93-7.25-9.28-1.25-.44-2.57-.7-3.9-.86-2.34-.35-5.78-.72-8.18-.99-.46,0-.59-.7-.15-.87h0Z"/>
        <path class="cls-5" d="m368.3,125.43c-.36-.33-.52-.85-.37-1.35l3.29-10.85c.21-.7.95-1.09,1.64-.88.69.21,1.09.95.88,1.64l-3.29,10.85c-.21.7-.95,1.09-1.64.88-.2-.06-.37-.16-.51-.29Z"/>
        <path class="cls-5" d="m368.21,139.61c-.18-.17-.31-.39-.34-.66-.99-7.15,6.82-12.06,13.71-16.38.73-.46,1.45-.91,2.14-1.36,9.85-6.32,14.87-1.87,15.08-1.68.45.41.47,1.1.06,1.55s-1.1.47-1.54.07c-.19-.16-4.11-3.42-12.41,1.9-.7.45-1.42.9-2.16,1.37-6.33,3.97-13.5,8.48-12.71,14.22.08.6-.34,1.15-.94,1.24-.34.05-.66-.07-.9-.28Z"/>
        <path class="cls-5" d="m371.09,144.22c-.15-.14-.26-.31-.34-.5-.82-2.19-.6-4.52.66-6.94,3.82-7.33,16.83-13.91,21.54-15.11,5.07-1.29,8.42,3,9.48,5.45.29.67-.02,1.44-.68,1.73-.67.29-1.44-.02-1.73-.68-.09-.21-2.26-5-6.42-3.95-4.24,1.08-16.44,7.24-19.85,13.78-.91,1.75-1.09,3.32-.53,4.79.26.68-.09,1.44-.77,1.7-.48.18-1,.06-1.36-.26Z"/>
        <path class="cls-5" d="m387.38,125.78c-.43-.4-.47-1.08-.08-1.53.4-.46,1.09-.51,1.55-.11l9.72,8.45s.02.01.02.02c.43.4.47,1.08.08,1.53-.4.46-1.09.51-1.55.11l-9.72-8.45s-.02-.01-.02-.02Z"/>
        <path class="cls-5" d="m380.83,130.26c-.31-.28-.44-.73-.3-1.15.19-.58.81-.89,1.38-.7.23.07.52.17,11.95,9.21.47.36.56,1.07.18,1.54-.38.47-1.07.56-1.54.18-4.06-3.22-10.7-8.44-11.44-8.92-.09-.04-.16-.1-.23-.16Zm.4.24s0,0,0,0c0,0,0,0,0,0Zm0,0s0,0,0,0c0,0,0,0,0,0Z"/>
        <path class="cls-5" d="m377.11,135.03c-.61-.56-1.03-.99-1.16-1.22-.3-.53-.12-1.2.41-1.5.52-.29,1.17-.13,1.48.38.53.69,5.19,4.54,9.43,7.89.48.37.56,1.07.18,1.54-.38.48-1.07.56-1.54.18-2.67-2.11-6.78-5.41-8.79-7.27Zm.74-2.33s0,.01.01.02c0,0,0-.01-.01-.02Z"/>
        <path class="cls-5" d="m379.75,145.39l-7.58-6.99c-.45-.41-.47-1.1-.06-1.55s1.1-.47,1.55-.06l7.58,6.99c.45.41.47,1.1.06,1.55s-1.1.47-1.55.06Z"/>
        <path class="cls-5" d="m370.37,118.95s-.03-.03-.05-.05c-.42-.44-.41-1.13.03-1.55,10.43-10.07,22.87-3.18,22.99-3.11.53.3.71.97.41,1.5s-.97.71-1.5.41c-.46-.26-11.16-6.13-20.39,2.78-.42.41-1.08.41-1.51.02Z"/>
        <path class="cls-5" d="m392.41,118.96c-2.78-1.12-5.98-.86-8.78.12-.25.1-.94.38-1.19.48-.89.42-1.8.94-2.63,1.47-.22.16-.49-.17-.27-.35.77-.64,1.65-1.3,2.51-1.84,2.22-1.34,4.71-2.21,7.33-2.32,1.3-.06,2.6.03,3.87.42,1.47.54.58,2.69-.85,2.03h0Z"/>
        <path class="cls-1" d="m364.71,75.29c2.61.64,11.4,2.93,17.78,6.34.47.25.69.81.53,1.33-.77,2.37-2.83,8.7-2.92,8.53-.11-.19-11.11-4.08-19.04-6.02-.62-.15-.99-.79-.81-1.4.58-1.97,1.87-6.02,3.23-8.26.25-.42.75-.62,1.22-.51Z"/>
        <path class="cls-5" d="m359.67,86.16c-.18-.17-.34-.36-.46-.58-.33-.57-.41-1.27-.22-1.9.65-2.2,1.95-6.24,3.37-8.57.55-.91,1.62-1.35,2.66-1.1h0c2.6.63,11.57,2.97,18.09,6.46,1.03.55,1.52,1.77,1.16,2.89q-3.02,9.34-4.04,9.44c-.3.03-.59-.05-.83-.2-1.1-.49-11.22-4.03-18.65-5.86-.4-.1-.77-.3-1.07-.58Zm4.86-9.56c-1.24,2.1-2.44,5.88-2.96,7.63,4.51,1.12,9.66,2.76,12.35,3.65,2.73.9,4.41,1.48,5.45,1.87.42-1.21,1.17-3.45,2.34-7.05-6.12-3.23-14.51-5.45-17.17-6.1Zm14.4,15.52s.05.09.08.12c-.03-.04-.05-.08-.08-.12Z"/>
        <path class="cls-5" d="m382.47,100.74c-.21-.2-.37-.47-.41-.78-.96-6.63,7.74-22.02,8.73-23.75.36-.63,1.17-.85,1.8-.49.63.36.85,1.17.49,1.8-2.58,4.49-9.11,17.21-8.41,22.06.1.72-.4,1.39-1.11,1.49-.41.06-.8-.08-1.08-.34Z"/>
        <path class="cls-5" d="m401.68,110.85c-.34-.31-.5-.8-.39-1.28l2.24-9.25c.17-.68-.05-1.41-.57-1.88l-3.48-3.21c-1.38-1.27-1.84-3.22-1.18-4.97l3.44-9.14c.26-.68,1.02-1.02,1.7-.77.68.26,1.02,1.02.77,1.7l-3.44,9.13c-.28.74-.08,1.57.5,2.11l3.48,3.21c1.22,1.12,1.74,2.83,1.34,4.44l-2.24,9.25c-.17.71-.88,1.14-1.59.97-.23-.05-.42-.16-.58-.31Z"/>
        <ellipse class="cls-2" cx="413.28" cy="94.89" rx="4.83" ry="4.58" transform="translate(63.39 334.44) rotate(-47.33)"/>
        <path class="cls-5" d="m409.24,99.27c-2.31-2.13-2.39-5.83-.16-8.25,2.22-2.41,5.92-2.64,8.23-.51,2.31,2.13,2.39,5.83.16,8.25-2.22,2.41-5.92,2.64-8.23.51Zm6.54-7.1c-1.4-1.29-3.67-1.12-5.05.38s-1.37,3.77.03,5.06,3.67,1.12,5.05-.38c1.38-1.5,1.37-3.77-.03-5.06Z"/>
        <path class="cls-5" d="m416,90.92c-1.51,1.16-2.84,2.36-3.45,4.1-.54,1.63-.51,3.51,1.2,4.53-.52.08-1.08-.07-1.56-.38-1.47-1.01-1.74-3.13-1.15-4.69.73-2.08,2.82-3.55,4.97-3.56h0Z"/>
        <path class="cls-5" d="m407.03,171.28c-.78-.71-1.31-1.68-1.5-2.73-.61-3.48-1.73-12.43.62-21.98-1.7-1.28-6.18-4.73-10.63-8.72h-.01c-.53-.5-.57-1.32-.09-1.86.48-.54,1.32-.59,1.86-.1,5.53,4.95,11.09,9.05,11.15,9.09.44.32.63.88.49,1.4-2.51,9.37-1.39,18.31-.79,21.71.12.68.54,1.26,1.14,1.57,6.32,3.31,18.78,3.22,22.45,3.11.7-.02,1.36-.37,1.76-.94,2.27-3.23,2.96-5.93,2.07-8.05-1.37-3.22-6.32-4.67-8.12-4.95-.71-.11-1.2-.78-1.1-1.5.02-.11,1.74-11.61,1.63-19.71-.1-7.67-12.54-20.22-12.67-20.35-.51-.51-.51-1.35,0-1.86.5-.5,1.31-.51,1.82-.04.01.01.03.03.04.04.54.54,13.33,13.44,13.44,22.18.09,6.82-1.04,15.68-1.49,18.91,2.33.59,7.17,2.26,8.86,6.25,1.27,3.01.49,6.57-2.34,10.59-.87,1.24-2.31,2.01-3.83,2.06-4.91.14-17.06.09-23.75-3.41-.37-.19-.71-.44-1.02-.72Z"/>
        <path class="cls-5" d="m428.6,158.44l-3.88,2.59c-.19.13-.44-.1-.32-.3,0,0,2.27-4.08,2.27-4.08.36-.65,1.19-.89,1.84-.53.88.46.92,1.78.09,2.31h0Z"/>
        <path class="cls-5" d="m405.65,165.99c-.38-.35-.47-.93-.19-1.38.32-.52.99-.68,1.51-.36,14.43,8.9,29.35,2.86,29.5,2.8.56-.23,1.2.03,1.43.59.23.56-.03,1.2-.59,1.43-.65.27-16.08,6.54-31.49-2.96-.06-.04-.12-.08-.17-.13Z"/>
        <path class="cls-5" d="m407.84,144.73l3.79,1.66c.21.08.16.42-.06.43,0,0-4.11.51-4.11.51-.75.09-1.43-.44-1.52-1.19-.16-1.02.97-1.85,1.9-1.42h0Z"/>
        <path class="cls-5" d="m406.48,149.73c-.37-.34-.47-.9-.21-1.35.3-.53.97-.71,1.5-.41,12.3,7.03,20.17-1.23,20.25-1.31.41-.44,1.1-.47,1.55-.06h0c.44.41.47,1.11.06,1.55-.09.1-9.15,9.6-22.95,1.72-.07-.04-.14-.09-.2-.15Z"/>
        <path class="cls-5" d="m351.73,64.81c-.28-.26-.44-.63-.42-1.04.04-.73.66-1.28,1.38-1.25.34.02,8.54.5,16.98,6.24.6.41.76,1.23.35,1.83s-1.23.76-1.83.35c-7.8-5.31-15.56-5.78-15.64-5.79-.32-.02-.6-.15-.82-.35Z"/>
        <path class="cls-5" d="m344.85,86.61c-.45-.41-.56-1.09-.24-1.64.37-.63,1.18-.83,1.8-.47.08.05,8.32,4.86,13.7,4.73.73-.02,1.33.56,1.35,1.28.02.73-.56,1.33-1.28,1.35-6.13.15-14.74-4.88-15.11-5.09-.08-.05-.16-.1-.22-.17Z"/>
        <path class="cls-5" d="m363.84,67.5l-3.11,5.85c-.05.09-.16.12-.25.08-.07-.04-.11-.12-.09-.2l1.39-6.48c.43-1.61,2.77-.76,2.06.75h0Z"/>
        <path class="cls-5" d="m357.21,82.04c-.83,2.15-2.13,5.35-2.85,7.49-.57,1.52-2.77.52-2-.91.63-1.04,1.56-2.41,2.24-3.42l2.28-3.34c.12-.18.41-.02.32.17h0Z"/>
        <path class="cls-5" d="m358.7,105.48c-3.24,2.11-8.42.77-11.83-.34-.3-.1-.19-.57.12-.51,1.79.24,3.68.4,5.47.26,1.53-.13,3.37-.42,4.46-1.35,1.31-1.14,3.03.74,1.78,1.94h0Z"/>
        <g class="cls-6">
          <path class="cls-5" d="m375.6,66.5l-.88-.59-2.94-.42c.1-.17.2-.33.3-.49,0,0-6.14-3.37-10.29-4.22-4.15-.84-19.9,7.02-19.9,7.02-1.85,6.1-4.68,6.57-8.46,1.46-8.37,1.28-11.46-5.51-10.08-11.46l3.43-5.91.14-.23s0,.05-.02.13c-.19,1.22-1.72,10.65,6.17,9.24,0,0,2.3,8.03,6.52,2.32,2.69-3.64,10.27-6.47,15.41-8.04,5.08-1.55,10.61-.96,15.16,1.79,2.09,1.26,4.27,3.03,6.29,5.51l.91,2.54c.38,1.07-.82,2-1.76,1.37Z"/>
        </g>
        <g class="cls-6">
          <path class="cls-5" d="m359.48,112.28c-5.85-.45-13.53-1.7-15.97-5.06-1.13-1.56-1.47-3.89-1.37-6.45,8.86,3.21,12.98-15.14,12.98-15.14l7.23-16.13.25-1.76-8.2-4.26s3.83-2.3,6.39-2.74c2.56-.44,11.99,4.9,11.99,4.9l-6.64,9.6-2.1-.05-3.56,8.17.21,2.54,1.78.34s-3,6.7-4.55,14.65c-.97,4.95.4,9.02,1.58,11.4Z"/>
        </g>
        <g class="cls-6">
          <path class="cls-5" d="m374.35,77.75s5.05,7.32-3.44,10.54l8.92,2.76,3.33-9.1-1.84-.92"/>
        </g>
        <g class="cls-6">
          <path class="cls-5" d="m405.79,78.37s5.37,4.01,5.46,8.17l10.55,5.83,3.02-6.61-6.88-1.86"/>
        </g>
        <g class="cls-6">
          <path class="cls-5" d="m411.2,99.22s-5.19,10.28-27.27-4.4l-.2,4.54,7.32,4.81,14.71,6.66s7.12,2.2,8.82-1.36c1.7-3.56,7.21-17.12,7.21-17.12l-5.55-3.06s3.08,6.43-5.05,9.92Z"/>
        </g>
        <g class="cls-6">
          <path class="cls-5" d="m385.3,100.77s2.9,9.03-2.38,18.09c0,0,7.94-2.68,10.22-.63,0,0,2.06-14.79-7.84-17.47Z"/>
        </g>
        <g class="cls-6">
          <path class="cls-5" d="m358.31,99.01s4.51,22.31,14.03,15.07l-3.72,9.92s-13.6-10.44-10.32-24.98Z"/>
        </g>
        <g class="cls-6">
          <path class="cls-5" d="m396.28,137.48c-.38.17-.78.34-1.18.51l-11.22,6.56c-5.16,3.25-13.78,2.25-15.6-7.41,2.42-3.75,4.88-6.4,4.88-6.4-1.64,3.11,4.95,1.27,4.95,1.27,6.39,7.73,18.52,4.69,18.52,4.69l-.34.78Z"/>
        </g>
        <g class="cls-6">
          <path class="cls-5" d="m406.93,111.9s8.12,5.12-6.37,18.58l-2.02,4.08s17.99-6.52,20.3-30.65l-5.51,6.92-2.56.91"/>
        </g>
        <g class="cls-6">
          <path class="cls-5" d="m431.23,174.68c-.7.02-1.59.04-2.61.04,8.95-11.23-10.95-12.57-10.95-12.57,0,0,1.85-6.48,2.27-17.61.41-11.13-10.24-17.42-10.24-17.42l6.79-9.34c2.82,2.98,12.17,13.39,12.26,20.44.09,7-1.14,16.36-1.53,19.12-.06.44.22.86.66.96,3.06.71,13.78,4.04,6.15,14.89-.64.91-1.68,1.47-2.8,1.5Z"/>
        </g>
        <g class="cls-6">
          <path class="cls-5" d="m410.93,146.65l-3.28.23c.06-.23.12-.46.18-.68,0,0-5.16-3.8-10.56-8.57l-.02-1.19,12.22-8.69s-6.88,8.01,1.47,18.9Z"/>
        </g>
      </g>
    </g>
  </g>
</svg>