<?xml version="1.0" encoding="UTF-8"?>
<svg id="Layer_2" data-name="Layer 2" xmlns="http://www.w3.org/2000/svg" viewBox="0 0 379.61 379.61">
  <defs>
    <style>
      .cls-1 {
        fill: #0086ff;
      }

      .cls-2 {
        fill: #000072;
      }

      .cls-3 {
        fill: #fff;
      }

      .cls-4 {
        fill: #61bbff;
      }

      .cls-5 {
        opacity: .3;
      }

      .cls-6 {
        opacity: .7;
      }
    </style>
  </defs>
  <g id="planets">
    <g id="blueplanet">
      <path class="cls-1" d="m356,109.44c9.64,19.94,15.38,40.77,17.5,61.61,7.65,75.05-31.49,150.21-103.33,184.95-78.68,38.05-171.04,15.25-223.75-49.87-8.78-10.84-16.47-22.85-22.81-35.96-3.15-6.51-5.89-13.12-8.19-19.8C-15.06,163.06,24.16,64.85,109.44,23.61c86.95-42.04,190.6-9.77,239,71.79,2.71,4.52,5.22,9.2,7.56,14.03Z"/>
      <path class="cls-4" d="m356,109.44c9.64,19.94,15.38,40.77,17.5,61.61-14.63,16.6-37.59,37.63-63.89,43.59-45.33,10.27-83.09,46.73-98.16,54.77-15.08,8.02-89.69,44.77-114.28,34.81-13.85-5.62-34.97-2.16-50.75,1.91-8.78-10.84-16.47-22.85-22.81-35.96-3.15-6.51-5.89-13.12-8.19-19.8,12.68-6.65,36.27-16.63,53.78-9.86,25.12,9.74,76.15-9.84,112.37-41.94s80.28-42,106.61-43.3c22.52-1.12,48.82-39.82,60.26-59.86,2.71,4.52,5.22,9.2,7.56,14.03Z"/>
      <g class="cls-5">
        <path class="cls-2" d="m373.5,171.04c-2.12-20.84-7.86-41.66-17.5-61.61-2.34-4.83-4.85-9.51-7.56-14.03-20.09-33.86-49.72-59.19-83.71-74.27,15.91,13.17,29.82,29.16,40.85,47.73,2.71,4.52,5.22,9.2,7.56,14.03,9.64,19.94,15.38,40.77,17.5,61.61,7.65,75.05-31.49,150.21-103.33,184.95-50.85,24.59-107.41,23.73-155.29,2.49,53.93,44.65,131.02,56.52,198.16,24.05,71.84-34.74,110.98-109.9,103.33-184.95Z"/>
      </g>
      <g class="cls-6">
        <path class="cls-3" d="m109.44,23.61C24.16,64.85-15.06,163.06,15.42,250.37c2.3,6.69,5.05,13.3,8.19,19.8,6.34,13.1,14.03,25.12,22.81,35.96,18.71,23.11,42.42,40.86,68.73,52.48-19.79-11.19-37.65-26.09-52.4-44.31-8.78-10.84-16.47-22.85-22.81-35.96-3.15-6.51-5.89-13.12-8.19-19.8-12.9-36.97-13.28-75.88-2.99-111.6.84-2.92,3.22-5.09,6.19-5.73,9.03-1.92,21.33-12.44,31.21-27.66,10.64-16.39,15.15-33.12,11.99-41.72-1.14-3.11-.4-6.58,2.03-8.84,13.21-12.33,28.46-22.92,45.58-31.2,50.71-24.52,107.09-23.72,154.9-2.65C229.75.39,166.06-3.77,109.44,23.61Z"/>
      </g>
      <path class="cls-2" d="m189.95,379.61c-21.01,0-42.09-3.53-62.52-10.64-47.86-16.66-86.36-50.96-108.42-96.58C-3.04,226.77-6.02,175.29,10.64,127.44,27.3,79.58,61.6,41.08,107.22,19.02,152.83-3.04,204.31-6.02,252.17,10.64c47.86,16.66,86.36,50.96,108.42,96.58,22.06,45.62,25.04,97.1,8.38,144.95-16.66,47.86-50.96,86.36-96.58,108.42-26.15,12.65-54.23,19.02-82.44,19.02Zm-.29-369.39c-26.7,0-53.26,6.03-78,17.99-43.16,20.87-75.62,57.31-91.38,102.59-15.76,45.28-12.95,93.99,7.92,137.15,20.87,43.16,57.31,75.62,102.59,91.38,45.28,15.76,93.99,12.95,137.15-7.92,43.16-20.87,75.62-57.31,91.38-102.59,15.76-45.28,12.95-93.99-7.92-137.15-20.87-43.16-57.31-75.62-102.59-91.38-19.32-6.73-39.28-10.07-59.15-10.07Z"/>
    </g>
  </g>
</svg>