<?xml version="1.0" encoding="UTF-8"?>
<svg id="Layer_2" data-name="Layer 2" xmlns="http://www.w3.org/2000/svg" viewBox="0 0 102.8 193.26">
  <defs>
    <style>
      .cls-1 {
        fill: #fff;
      }

      .cls-2 {
        fill: #111a28;
      }

      .cls-3 {
        fill: #22a7f0;
      }

      .cls-4 {
        fill: #371a45;
      }

      .cls-5 {
        fill: #37dbff;
      }

      .cls-6 {
        opacity: .3;
      }

      .cls-7 {
        opacity: .35;
      }

      .cls-8 {
        opacity: .5;
      }
    </style>
  </defs>
  <g id="Layer_2-2" data-name="Layer 2">
    <g>
      <g>
        <rect class="cls-1" x="16.78" y="76.67" width="69.24" height="66.07" rx="33.03" ry="33.03"/>
        <path class="cls-4" d="m75.22,76.67c5.97,0,10.8,4.84,10.8,10.8v44.46c0,5.97-4.84,10.8-10.8,10.8H27.58c-5.97,0-10.8-4.84-10.8-10.8v-44.46c0-5.97,4.84-10.8,10.8-10.8h47.63m0-2.28H27.58c-7.22,0-13.09,5.87-13.09,13.09v44.46c0,7.22,5.87,13.09,13.09,13.09h47.63c7.22,0,13.09-5.87,13.09-13.09v-44.46c0-7.22-5.87-13.09-13.09-13.09h0Z"/>
        <path class="cls-4" d="m41.07,179.62c-.21,0-.42-.06-.61-.18-5.83-3.66-14.39-2.04-14.48-2.03-.62.12-1.22-.28-1.34-.9-.12-.62.28-1.22.9-1.34.39-.08,9.52-1.82,16.13,2.33.53.34.7,1.04.36,1.58-.22.35-.59.53-.97.53Z"/>
        <path class="cls-1" d="m85.08,185.8c-.02.17.39,6.95-17.7,6.27-7.67-.29-12.88-1.76-14.75-5.79-1.67-3.61-1.43-17.76-1.43-17.76v-22.75h-.03v22.75s.09,5.23-.22,10.14c-.2,3.17-.56,6.2-1.21,7.62-1.87,4.04-6.23,5.5-13.9,5.79-18.09.68-18.54-6.1-18.56-6.27-.09-.94.02-1.81.27-2.6,1.53-4.7,8.21-6.89,8.21-6.89,0,0-4.26-16.18-5.72-29.96-.46-4.33-.69-8.71-.73-13.06-.19-17.93,2.74-35.53,5.51-48.06.85-3.82,1.68-7.18,2.4-9.92,1.35-5.13,2.33-8.13,2.33-8.13h43.26s1.03,3.16,2.44,8.54c.71,2.7,1.51,5.95,2.32,9.64,2.76,12.53,5.67,30.1,5.48,47.97-.05,4.34-.28,8.71-.74,13.03-1.47,13.78-5.72,29.96-5.72,29.96,0,0,9.13,3.01,8.48,9.5Z"/>
        <g class="cls-6">
          <path class="cls-4" d="m85.08,185.8c-.02.17-.47,6.95-18.56,6.27-7.67-.29-12.03-1.76-13.9-5.79-.65-1.42-1.02-4.45-1.21-7.62l-.17-10.21-.29,10.21c-.2,3.17-.56,6.2-1.21,7.62-1.87,4.04-6.23,5.5-13.9,5.79-18.09.68-18.54-6.1-18.56-6.27-.09-.94.02-1.81.27-2.6.65,1.08,2.61,2.63,8.34,3.42,9.31,1.28,19.3.14,21-6.05,1.28-4.66,3.38-27.76-3.7-30.78-10.94-4.68-14.95-8.43-11.91-9.04,1.55-.31,5.62.97,19.89.97s18.34-1.28,19.89-.97c3.04.61-.97,4.36-11.91,9.04-7.07,3.02-4.97,26.12-3.7,30.78,1.7,6.19,11.69,7.33,21,6.05,5.74-.79,7.69-2.34,8.34-3.42.26.79.37,1.66.27,2.6Z"/>
        </g>
        <path class="cls-4" d="m69.85,193.26c-.81,0-1.65-.02-2.52-.05-6.05-.23-13.3-1.16-15.74-6.45-.15-.32-.28-.72-.41-1.16-.12.45-.26.84-.41,1.16-1.97,4.26-6.29,6.13-14.89,6.45-18.13.68-19.62-5.97-19.74-7.31-.6-5.99,5.73-9.25,8.26-10.3-.94-3.75-4.25-17.38-5.5-29.14-1.84-17.33-.29-37.18,4.74-60.67.13-.62.74-1.01,1.36-.88.62.13,1.01.74.88,1.36-4.98,23.25-6.52,42.86-4.7,59.95,1.44,13.54,5.65,29.63,5.69,29.79l.27,1.04-1.02.34c-.08.03-8.26,2.81-7.7,8.3,0,.08.7,5.87,17.38,5.25,7.61-.29,11.35-1.77,12.9-5.13,1.03-2.22,1.3-9.51,1.34-14.29,0-.76,0-1.42,0-1.93,0-.38,0-.73-.01-1.03v-23.91s2.28,0,2.28,0l.02,1.14v22.75c0,.31,0,.66-.01,1.05,0,.51,0,1.17,0,1.93.03,4.8.31,12.08,1.34,14.3,1.5,3.25,5.74,4.83,13.76,5.13,9.72.36,13.74-1.44,15.4-3.01,1.02-.97,1.11-1.86,1.12-2.11v-.12c.56-5.5-7.61-8.28-7.7-8.31l-1.02-.34.27-1.04c.04-.16,4.25-16.26,5.69-29.79,1.78-16.77.33-36.01-4.46-58.81-.13-.62.27-1.22.88-1.35.62-.13,1.22.27,1.35.88,4.84,23.04,6.31,42.51,4.5,59.53-1.25,11.76-4.56,25.39-5.5,29.14,2.52,1.05,8.83,4.3,8.26,10.27-.02.64-.23,2.19-1.83,3.71-2.58,2.45-7.46,3.69-14.54,3.69Z"/>
        <path class="cls-4" d="m76.38,177.42c-.56-.15-1.21-.28-1.83-.39-.63-.11-1.26-.19-1.9-.26-1.27-.13-2.56-.18-3.85-.13-1.29.04-2.57.22-3.84.5-1.27.29-2.49.75-3.67,1.34,1.08-.75,2.25-1.4,3.5-1.89,1.25-.47,2.55-.85,3.88-1.09,1.33-.24,2.67-.39,4.03-.44.68-.03,1.36-.04,2.04-.02.69.02,1.35.05,2.08.13.63.07,1.08.64,1.01,1.27-.07.63-.64,1.08-1.27,1.01-.05,0-.11-.02-.16-.03h-.03Z"/>
        <path class="cls-4" d="m25.68,175.18c.73-.08,1.39-.12,2.08-.13.68-.02,1.36-.01,2.04.02,1.35.06,2.7.2,4.03.44,1.33.24,2.63.62,3.88,1.09,1.25.48,2.42,1.14,3.5,1.89-1.18-.59-2.4-1.05-3.67-1.34-1.27-.28-2.55-.45-3.84-.5-1.29-.04-2.57,0-3.85.13-.64.07-1.27.15-1.9.26-.62.1-1.27.24-1.83.39h-.02c-.61.17-1.24-.2-1.4-.81-.16-.61.2-1.24.82-1.4.05-.01.11-.02.16-.03Z"/>
        <g>
          <path class="cls-1" d="m35.76,128.34c-4.05,1.7-10.31,1.35-14.58.81-2.56-.32-4.36-2.78-3.98-5.43h0c.34-2.42,2.39-4.18,4.74-4.06,3.99.19,9.98.29,13.77-.59"/>
          <g class="cls-7">
            <path class="cls-4" d="m35.76,128.34c-4.05,1.7-10.31,1.35-14.58.81-2.56-.32-4.36-2.77-3.98-5.43.08-.56.25-1.09.5-1.57.68,1.31,1.94,2.27,3.48,2.46,4.26.54,10.51.89,14.56-.8l.02,4.53Z"/>
          </g>
          <path class="cls-4" d="m27.71,130.73c-2.35,0-4.68-.2-6.67-.45-1.51-.19-2.86-.97-3.8-2.21-.97-1.27-1.4-2.91-1.17-4.51.43-3.02,2.98-5.18,5.93-5.04,5.87.29,10.65.09,13.46-.56.57-.13,1.99-.15,2.84,2.49.96,2.98.76,7.74-2.1,8.95-2.39,1-5.45,1.34-8.49,1.34Zm-5.98-9.93c-1.7,0-3.14,1.3-3.4,3.09-.14,1.01.11,2.01.72,2.81.57.74,1.37,1.21,2.27,1.32,6.09.76,11.06.51,13.99-.73h0c.57-.24.99-1.07,1.15-2.28.28-2.16-.33-4.21-.74-4.76-3.86.83-9.63.76-13.83.56-.05,0-.11,0-.16,0Z"/>
          <g class="cls-6">
            <path class="cls-4" d="m84.1,132.8c-4.09.51-9.83.86-14.15-.32v2.18c0,3.01-2.37,5.47-5.27,5.47h-28.76c-2.9,0-5.27-2.46-5.27-5.47v-16.22c0-3,2.37-5.47,5.27-5.47h28.76c2.32,0,4.3,1.57,5,3.74.17.55.27,1.13.27,1.73v3.66c4.09.61,9.57.51,13.38.33.05,0,.1,0,.14,0,.31,3.41.53,6.89.63,10.38Z"/>
          </g>
          <path class="cls-1" d="m66.71,128.34c4.05,1.7,10.31,1.35,14.58.81,2.56-.32,4.36-2.78,3.98-5.43h0c-.34-2.42-2.39-4.18-4.74-4.06-3.99.19-9.98.29-13.77-.59"/>
          <g class="cls-7">
            <path class="cls-4" d="m81.28,129.15c-4.27.54-10.53.89-14.58-.81l.02-4.52c4.05,1.69,10.3,1.34,14.56.8,1.53-.19,2.8-1.16,3.48-2.47.25.47.42,1,.5,1.57.38,2.65-1.42,5.11-3.98,5.43Z"/>
          </g>
          <path class="cls-4" d="m74.75,130.73c-3.04,0-6.1-.34-8.49-1.34-2.87-1.21-3.06-5.97-2.1-8.95.85-2.64,2.27-2.62,2.84-2.49,2.81.65,7.59.85,13.46.56,2.95-.14,5.5,2.02,5.93,5.04.23,1.6-.2,3.24-1.17,4.51-.94,1.23-2.29,2.02-3.8,2.21-2,.25-4.33.45-6.67.45Zm-8.01-10.49c-.41.55-1.03,2.61-.74,4.76.16,1.21.58,2.04,1.15,2.28h0c2.94,1.23,7.9,1.49,13.99.73.9-.11,1.7-.58,2.27-1.33.61-.8.87-1.79.72-2.81-.26-1.84-1.79-3.17-3.56-3.08-4.2.2-9.97.27-13.83-.56Z"/>
          <path class="cls-1" d="m68.27,116.01v14.85c0,2.76-2.17,5.01-4.82,5.01h-26.33c-2.65,0-4.82-2.25-4.82-5.01v-14.85c0-2.75,2.17-5.01,4.82-5.01h26.33c2.12,0,3.93,1.44,4.57,3.42.16.5.25,1.03.25,1.58Z"/>
          <g class="cls-6">
            <path class="cls-4" d="m68.27,116.01v14.85c0,2.76-2.17,5.01-4.82,5.01h-26.33c-2.65,0-4.82-2.25-4.82-5.01v-5c4.54,2.61,13.54,6.53,22.58,3.3,4.41-1.58,9.47-7,9.47-7,0,0,.19,5.69,1.01,5.6,2.26-.25,2.24-11.76,2.67-13.33.16.5.25,1.03.25,1.58Z"/>
          </g>
          <path class="cls-4" d="m63.35,137.01h-26.15c-3.34,0-6.06-2.72-6.06-6.06v-15.04c0-3.34,2.72-6.06,6.06-6.06h26.15c3.34,0,6.06,2.72,6.06,6.06v15.04c0,3.34-2.72,6.06-6.06,6.06Zm-26.15-24.87c-2.08,0-3.77,1.69-3.77,3.77v15.04c0,2.08,1.69,3.77,3.77,3.77h26.15c2.08,0,3.77-1.69,3.77-3.77v-15.04c0-2.08-1.69-3.77-3.77-3.77h-26.15Z"/>
          <ellipse class="cls-3" cx="59.61" cy="123.43" rx="4.16" ry="4.32"/>
          <path class="cls-1" d="m63.77,123.44c0,.29-.03.58-.08.86-.38-1.98-2.07-3.47-4.08-3.47s-3.69,1.49-4.08,3.47c-.05-.28-.08-.56-.08-.86,0-2.39,1.86-4.32,4.16-4.32s4.16,1.94,4.16,4.32Z"/>
          <g class="cls-7">
            <path class="cls-4" d="m63.77,123.43c0,2.39-1.86,4.32-4.16,4.32s-4.16-1.93-4.16-4.32c0-.4.05-.79.15-1.16.49,1.82,2.1,3.16,4.01,3.16s3.52-1.34,4.01-3.16c.1.37.15.76.15,1.16Z"/>
          </g>
          <path class="cls-4" d="m59.61,128.61c-2.77,0-5.02-2.32-5.02-5.18s2.25-5.18,5.02-5.18,5.02,2.32,5.02,5.18-2.25,5.18-5.02,5.18Zm0-8.64c-1.82,0-3.3,1.55-3.3,3.46s1.48,3.46,3.3,3.46,3.3-1.55,3.3-3.46-1.48-3.46-3.3-3.46Z"/>
          <path class="cls-4" d="m47.82,137.01c-.63,0-1.14-.51-1.14-1.14v-7.6c0-1.52-.7-2.98-1.86-3.89l-.67-.52c-1.71-1.34-2.74-3.47-2.74-5.69v-7.17c0-.63.51-1.14,1.14-1.14s1.14.51,1.14,1.14v7.17c0,1.52.7,2.98,1.86,3.89l.67.52c1.71,1.34,2.74,3.47,2.74,5.69v7.6c0,.63-.51,1.14-1.14,1.14Z"/>
        </g>
        <path class="cls-4" d="m35.9,158.64c-4.86,0-10.23-.84-15.14-3.48-.4-.21-.55-.71-.34-1.11.21-.4.71-.55,1.11-.34,12.67,6.8,29.21.81,29.37.75.43-.16.9.06,1.06.49.16.43-.06.9-.48,1.06-.44.16-7.26,2.64-15.58,2.64Z"/>
        <path class="cls-4" d="m66.47,158.64c-8.32,0-15.13-2.47-15.58-2.64-.43-.16-.64-.63-.48-1.06.16-.43.63-.64,1.06-.49.17.06,16.7,6.05,29.37-.75.4-.21.9-.06,1.11.34.21.4.06.9-.34,1.11-4.91,2.64-10.29,3.48-15.14,3.48Z"/>
        <path class="cls-1" d="m39.59,145.2s4.7,2.1,11.59,2.1,11.61-2.1,11.61-2.1c0,0-3.12-2.47-11.61-2.47s-11.59,2.47-11.59,2.47Z"/>
        <g class="cls-6">
          <path class="cls-4" d="m39.59,145.2s4.7,2.1,11.59,2.1,11.61-2.1,11.61-2.1c0,0-3.12-2.47-11.61-2.47s-11.59,2.47-11.59,2.47Z"/>
        </g>
        <path class="cls-4" d="m38.01,144.67c2.2.52,4.45.92,6.68,1.2,2.23.28,4.47.44,6.71.47,2.24.01,4.49-.13,6.73-.39,2.23-.28,4.48-.69,6.67-1.27h.02c.2-.06.41.06.47.27.05.17-.03.35-.18.43-1.05.6-2.13,1.04-3.25,1.45-.55.21-1.12.37-1.69.54l-.85.24-.86.2c-2.31.53-4.68.79-7.05.81-2.37.01-4.75-.22-7.06-.73-1.16-.25-2.29-.6-3.41-1-1.11-.41-2.19-.87-3.23-1.51-.18-.11-.24-.35-.13-.53.09-.14.26-.21.41-.17h.02Z"/>
        <path class="cls-1" d="m92.85,128.58c-3.01,3.93-6.47,5.2-9.79,4.73-7-1-13.4-9.75-13.78-17.63-3.47.74-8.98.68-11.37-1.92-3.29-3.57-.43-8.43-.43-8.43,0,0-6.41.4-6.41-4.19,0-2.52,9.72-6.06,18.63-5.4,2.09.15,5.79.94,8.58,2.78-.43-3.82-1.4-7.51-2.28-10.6,0,0-.82.07-2.12.14-5.33.31-18.78.71-18.2-2.99.73-4.61,19.25-9.78,19.25-9.78.11.14.21.27.32.41,1.73,2.22,3.45,4.62,5.12,7.13,10.71,16.14,19.2,36.98,12.48,45.74Z"/>
        <path class="cls-4" d="m75.23,75.06c2.96,2.69,5.33,5.9,7.5,9.21,2.18,3.31,4.06,6.81,5.86,10.34.89,1.77,1.73,3.57,2.54,5.38.79,1.82,1.55,3.66,2.22,5.54.67,1.88,1.27,3.78,1.77,5.73.49,1.95.88,3.93,1.09,5.95.21,2.02.24,4.09-.09,6.17-.33,2.06-1.05,4.16-2.39,5.92-1.27,1.65-2.85,3.14-4.81,4.14-1.95,1-4.29,1.34-6.44.92-1.07-.2-2.12-.53-3.07-1l-.36-.17-.35-.19c-.23-.13-.47-.26-.69-.39-.44-.29-.89-.57-1.3-.9-1.68-1.26-3.11-2.79-4.31-4.46-1.22-1.67-2.19-3.5-2.93-5.43-.74-1.93-1.2-3.98-1.33-6.08l1.38,1.06c-1.83.38-3.67.5-5.53.39-.93-.06-1.86-.19-2.79-.42-.93-.23-1.87-.57-2.74-1.11-.44-.28-.86-.59-1.24-.98-.1-.09-.19-.19-.27-.29l-.24-.3-.24-.3c-.08-.1-.14-.22-.21-.33-.13-.23-.28-.44-.38-.69l-.3-.73-.2-.76c-.06-.25-.08-.51-.12-.77-.11-1.02-.02-2.03.2-2.99.11-.48.26-.94.42-1.4.09-.23.18-.45.28-.67.1-.23.2-.43.35-.69l1.06,1.72c-.27.01-.46.01-.69,0-.22,0-.44-.01-.65-.03-.43-.03-.87-.09-1.3-.17-.87-.17-1.76-.43-2.6-.93-.42-.25-.83-.57-1.18-.95-.35-.39-.65-.85-.85-1.34-.2-.49-.3-1-.34-1.5l-.02-.37v-.05s0-.07,0-.07v-.15c.03-.1.04-.21.06-.3.05-.17.11-.36.19-.5.08-.14.15-.3.24-.41.34-.49.71-.81,1.08-1.09.37-.29.74-.52,1.12-.74.75-.43,1.52-.78,2.29-1.08,1.55-.61,3.13-1.05,4.72-1.41,3.19-.69,6.46-1,9.75-.81,1.69.09,3.33.43,4.92.9,1.59.49,3.17,1.1,4.65,2.03l-1.87,1.15c-.12-.87-.25-1.74-.39-2.61l-.43-2.63c-.14-.88-.28-1.76-.39-2.66-.11-.9-.21-1.8-.23-2.74,0-.22.17-.4.38-.4.15,0,.28.08.35.19.47.81.86,1.65,1.2,2.5.35.85.64,1.73.89,2.61.25.89.46,1.79.63,2.7.17.91.3,1.83.39,2.76v.04c.07.66-.42,1.25-1.08,1.31-.29.03-.57-.05-.79-.2-1.18-.81-2.55-1.43-3.98-1.86-1.44-.43-2.92-.73-4.4-.81-3.04-.18-6.13.11-9.12.76-1.49.33-2.97.75-4.37,1.3-.7.28-1.38.59-2,.94-.3.18-.61.37-.86.57-.26.19-.48.41-.59.58-.04.05-.04.07-.06.1-.02.03,0,.04-.02.05,0,0,0,0,0,0,0,0,0,0,0,0,0,0,0,0,0,0v.03s.01.22.01.22c.03.29.08.56.18.81.2.48.56.88,1.08,1.19,1.03.62,2.59.84,3.93.8.64-.02,1.18.48,1.2,1.12,0,.21-.05.42-.14.6-.06.12-.16.31-.24.48-.08.17-.15.36-.22.54-.13.36-.25.74-.34,1.11-.17.75-.24,1.5-.16,2.22.03.18.04.36.08.53l.14.51.2.48c.06.16.18.3.26.46.05.07.08.16.14.23l.17.21.17.21.08.11.09.09c.23.24.51.45.81.64.61.38,1.33.65,2.1.84.77.19,1.57.3,2.39.36,1.63.1,3.31-.02,4.9-.35.62-.13,1.23.27,1.36.89.01.05.02.11.02.16h0c.21,3.66,1.66,7.28,3.83,10.29,1.09,1.51,2.37,2.88,3.83,3.97.36.29.75.52,1.12.77l.59.33.29.16.3.14c.8.4,1.65.66,2.5.82,1.71.32,3.46.07,5.01-.72,1.55-.79,2.9-2.03,4.02-3.49,1.05-1.38,1.66-3.09,1.94-4.89.29-1.8.26-3.69.07-5.57-.2-1.88-.56-3.76-1.03-5.62-.48-1.86-1.06-3.7-1.71-5.52-1.32-3.63-2.88-7.19-4.67-10.64-.89-1.72-1.83-3.43-2.83-5.1-.98-1.68-2-3.33-3.01-4.99-1.01-1.66-2.08-3.28-3.09-4.95-1.02-1.66-2.04-3.32-2.97-5.08h0c-.1-.19-.03-.43.16-.53.15-.08.32-.05.44.06Z"/>
        <path class="cls-4" d="m86.68,109.17c-.55-.97-1.18-1.94-1.83-2.86-.66-.92-1.36-1.81-2.1-2.66-.75-.84-1.54-1.63-2.37-2.34-.84-.7-1.73-1.31-2.66-1.8h-.02c-.56-.31-.78-1-.48-1.56.29-.56.98-.78,1.54-.48.03.01.05.03.08.05,1.08.68,2.03,1.47,2.9,2.32.85.87,1.63,1.78,2.35,2.73.71.96,1.36,1.95,1.96,2.96.6,1.02,1.16,2.04,1.66,3.13.13.29,0,.63-.28.76-.27.13-.59.02-.74-.24v-.02Z"/>
        <path class="cls-1" d="m44.66,105.34s2.86,4.86-.43,8.43c-2.39,2.59-7.9,2.66-11.37,1.92-.37,7.79-6.64,16.44-13.56,17.59-3.39.56-6.93-.67-10.01-4.7-6.75-8.81,1.86-29.82,12.65-45.99,1.72-2.58,3.49-5.03,5.27-7.3h0s14.82,8.31,14.82,8.31l-14.26,3.87-1.64.44c-.88,3.1-1.85,6.79-2.28,10.6,2.8-1.84,6.49-2.62,8.58-2.78,8.91-.66,18.62,2.88,18.62,5.4,0,4.6-6.41,4.19-6.41,4.19Z"/>
        <g class="cls-6">
          <path class="cls-4" d="m44.66,105.34s2.86,4.86-.43,8.43c-2.39,2.59-7.9,2.66-11.37,1.92-.37,7.79-6.64,16.44-13.56,17.59-3.39.56-6.93-.67-10.01-4.7-2.13-2.78-2.73-6.77-2.22-11.43.3,2.25,1.01,4.21,2.22,5.78,3.08,4.02,6.62,5.26,10.01,4.7,6.91-1.15,10.71-9.28,11.08-17.07,3.47.74,8.85,2.64,11.24.05,3.29-3.57-1.87-8.07-1.87-8.07,0,0,7.41,1.39,11.04.09-1.22,3.02-6.14,2.71-6.14,2.71Z"/>
        </g>
        <g class="cls-6">
          <path class="cls-4" d="m57.35,105.34s-2.86,4.86.43,8.43c2.39,2.59,7.9,2.66,11.37,1.92.37,7.79,6.64,16.44,13.56,17.59,3.39.56,6.93-.67,10.01-4.7,2.13-2.78,2.73-6.77,2.22-11.43-.3,2.25-1.01,4.21-2.22,5.78-3.08,4.02-6.62,5.26-10.01,4.7-6.91-1.15-10.71-9.28-11.08-17.07-3.47.74-8.85,2.64-11.24.05-3.29-3.57,1.87-8.07,1.87-8.07,0,0-7.41,1.39-11.04.09,1.22,3.02,6.14,2.71,6.14,2.71Z"/>
        </g>
        <path class="cls-4" d="m27.51,75.53c-.93,1.76-1.95,3.42-2.97,5.08-1.01,1.67-2.08,3.29-3.09,4.95-1.01,1.66-2.04,3.31-3.01,4.99-.99,1.67-1.93,3.37-2.83,5.1-1.79,3.45-3.36,7.01-4.67,10.64-.65,1.82-1.23,3.66-1.71,5.52-.47,1.86-.83,3.74-1.03,5.62-.19,1.88-.22,3.77.07,5.57.29,1.8.9,3.51,1.94,4.89,1.12,1.46,2.47,2.7,4.02,3.49,1.55.79,3.3,1.04,5.01.72.85-.16,1.7-.42,2.5-.82l.3-.14.29-.16.59-.33c.38-.26.77-.48,1.12-.77,1.47-1.09,2.74-2.47,3.83-3.97,2.17-3.01,3.62-6.64,3.83-10.28h0c.04-.64.58-1.12,1.21-1.08.06,0,.12.01.17.02,1.59.33,3.27.44,4.9.35.82-.06,1.62-.17,2.39-.36.77-.19,1.49-.46,2.1-.84.3-.19.58-.4.81-.64l.09-.09.08-.11.17-.21.17-.21c.05-.07.09-.15.14-.23.08-.15.19-.29.26-.46l.2-.48.14-.51c.04-.17.05-.35.08-.53.08-.72.01-1.47-.16-2.22-.08-.37-.2-.75-.34-1.11-.07-.18-.14-.36-.22-.54-.07-.17-.17-.36-.24-.48-.31-.56-.1-1.27.46-1.58.19-.1.4-.15.6-.14,1.34.04,2.9-.18,3.93-.8.52-.31.88-.71,1.08-1.19.1-.24.15-.52.18-.81v-.22s.01-.03.01-.03c0,0,0,0,0,0,0,0,0,0,0,0,0,0,0,.01,0,0-.02-.02,0-.02-.02-.05-.03-.03-.02-.06-.06-.1-.11-.17-.34-.39-.59-.58-.25-.2-.55-.39-.86-.57-.62-.35-1.3-.66-2-.94-1.4-.55-2.88-.97-4.37-1.3-2.99-.65-6.09-.93-9.12-.76-1.48.08-2.96.38-4.4.81-1.43.44-2.8,1.06-3.98,1.86-.55.37-1.29.23-1.67-.31-.16-.24-.23-.52-.2-.79v-.04c.09-.93.22-1.85.39-2.76.17-.91.39-1.81.63-2.7.25-.89.54-1.76.89-2.61.34-.85.73-1.69,1.2-2.5.11-.19.35-.25.54-.14.13.07.2.21.19.35-.02.93-.12,1.84-.23,2.74-.11.9-.25,1.78-.39,2.66l-.43,2.63c-.14.87-.27,1.74-.39,2.61l-1.87-1.15c1.48-.92,3.05-1.54,4.65-2.03,1.59-.48,3.23-.81,4.92-.9,3.29-.19,6.56.11,9.75.81,1.59.36,3.17.8,4.72,1.41.77.31,1.54.65,2.29,1.08.38.22.75.45,1.12.74.37.29.74.61,1.08,1.09.09.11.16.27.24.41.08.14.13.33.19.5.02.09.03.2.05.3v.15s.02.07.02.07v.05s-.02.37-.02.37c-.04.5-.14,1.01-.34,1.5-.2.49-.49.95-.85,1.34-.35.39-.76.7-1.18.95-.85.5-1.73.77-2.6.93-.44.08-.87.14-1.3.17-.22.02-.43.03-.65.03-.23,0-.42,0-.69,0l1.06-1.72c.15.26.24.46.35.69.1.22.19.45.28.67.17.46.32.92.42,1.4.22.95.32,1.97.2,2.99-.04.26-.06.51-.12.77l-.2.76-.3.73c-.1.24-.25.46-.38.69-.07.11-.13.23-.21.33l-.24.3-.24.3c-.08.1-.16.2-.27.29-.38.39-.8.71-1.24.98-.88.54-1.82.88-2.74,1.11-.93.23-1.87.36-2.79.42-1.86.11-3.7-.01-5.53-.39l1.38-1.06c-.13,2.1-.58,4.15-1.33,6.08-.75,1.93-1.71,3.76-2.93,5.43-1.21,1.67-2.63,3.2-4.31,4.46-.41.33-.86.6-1.3.9-.23.14-.46.26-.69.39l-.35.19-.36.17c-.96.47-2,.8-3.07,1-2.15.42-4.49.08-6.44-.92-1.96-1-3.54-2.5-4.81-4.14-1.34-1.76-2.06-3.86-2.39-5.92-.33-2.08-.29-4.15-.09-6.17.21-2.02.6-4,1.09-5.95.5-1.94,1.11-3.85,1.77-5.73.67-1.88,1.43-3.72,2.22-5.54.81-1.81,1.66-3.61,2.54-5.38,1.79-3.53,3.67-7.03,5.86-10.34,2.17-3.31,4.54-6.51,7.5-9.21.16-.14.4-.13.55.03.11.12.13.3.06.44h0Z"/>
        <path class="cls-4" d="m14.44,108.67c.5-1.09,1.06-2.11,1.66-3.13.6-1.01,1.26-2,1.96-2.96.72-.95,1.49-1.87,2.35-2.73.87-.85,1.82-1.64,2.9-2.32.53-.34,1.24-.18,1.58.36.34.53.18,1.24-.36,1.58-.03.02-.05.03-.08.04h-.03c-.93.5-1.82,1.11-2.66,1.81-.83.72-1.62,1.51-2.37,2.34-.74.85-1.44,1.74-2.1,2.66-.65.92-1.28,1.89-1.83,2.86v.02c-.16.27-.51.37-.79.22-.26-.15-.36-.47-.24-.74Z"/>
        <g>
          <g>
            <path class="cls-1" d="m93.08,56.51h0c-.48.03-.88-.35-.91-.84l-1.31-25.78c-.03-.49.34-.92.82-.95h0c4.99-.29,9.26,3.67,9.52,8.86l.45,8.79c.26,5.18-3.57,9.63-8.57,9.92Z"/>
            <path class="cls-4" d="m93.03,56.71c-.26,0-.5-.09-.7-.27-.22-.2-.35-.47-.36-.77l-1.31-25.78c-.03-.61.42-1.13,1.01-1.16,2.41-.14,4.74.68,6.56,2.31,1.92,1.72,3.05,4.11,3.18,6.74l.45,8.79c.27,5.29-3.66,9.84-8.76,10.14h0s-.04,0-.06,0Zm-.83-27.58c-.17,0-.34,0-.51.02-.36.02-.64.35-.62.73l1.31,25.78c0,.19.09.36.23.49.13.12.29.17.46.16h0c4.87-.29,8.63-4.64,8.37-9.7l-.45-8.79c-.13-2.52-1.21-4.81-3.04-6.45-1.61-1.44-3.63-2.22-5.75-2.22Z"/>
          </g>
          <g class="cls-7">
            <path class="cls-4" d="m101.44,42.46l.21,4.12c.26,5.18-3.57,9.63-8.57,9.92-.48.03-.88-.35-.91-.85l-.35-6.85c.15.3.46.5.81.48l.59-.04c3.95-.23,7.17-3.06,8.22-6.79Z"/>
          </g>
          <path class="cls-4" d="m93.03,57.65c-.49,0-.95-.18-1.32-.51-.41-.36-.65-.87-.68-1.42l-1.31-25.78c-.06-1.12.79-2.08,1.89-2.14,2.66-.16,5.23.75,7.24,2.55,2.1,1.89,3.34,4.51,3.49,7.39l.45,8.79c.29,5.8-4.03,10.79-9.64,11.12h0s-.08,0-.12,0Zm-1.01-27.58l1.28,25.27c4.22-.41,7.43-4.25,7.21-8.7l-.45-8.79c-.12-2.27-1.09-4.33-2.73-5.8-1.48-1.33-3.36-2.03-5.31-1.98Z"/>
          <g>
            <path class="cls-1" d="m9.72,33.77h0c.48-.03.88.35.91.84l1.31,25.78c.03.49-.34.92-.82.95h0c-4.99.29-9.26-3.67-9.52-8.86l-.45-8.79c-.26-5.18,3.57-9.63,8.57-9.92Z"/>
            <path class="cls-4" d="m10.6,61.55c-2.22,0-4.34-.82-6.02-2.33-1.92-1.72-3.05-4.11-3.18-6.74l-.45-8.79c-.27-5.29,3.66-9.84,8.76-10.14h0c.28-.02.55.08.76.27.22.2.35.47.36.77l1.31,25.78c.03.61-.42,1.13-1.01,1.16-.18.01-.36.02-.53.02Zm-.87-27.58c-4.87.29-8.63,4.64-8.37,9.7l.45,8.79c.13,2.52,1.21,4.81,3.04,6.45,1.74,1.56,3.96,2.34,6.26,2.21.36-.02.64-.35.62-.73l-1.31-25.78c0-.19-.09-.36-.23-.49-.13-.12-.29-.17-.46-.16h0Z"/>
          </g>
          <g class="cls-7">
            <path class="cls-4" d="m11.58,53.24l.36,7.15c.03.49-.34.92-.82.95-2.62.15-5.04-.87-6.79-2.62-1.58-1.58-2.6-3.77-2.73-6.23l-.19-3.7c1.58,3.17,4.86,5.24,8.52,5.03l.91-.05c.33-.02.6-.23.74-.51Z"/>
          </g>
          <path class="cls-4" d="m10.6,62.49c-2.45,0-4.79-.9-6.65-2.56-2.1-1.89-3.34-4.51-3.49-7.39L.01,43.75c-.29-5.8,4.03-10.79,9.64-11.12.53-.03,1.04.15,1.44.5.41.36.65.87.68,1.42l1.31,25.78c.06,1.12-.79,2.08-1.89,2.14-.2.01-.39.02-.59.02Zm-1.1-27.56c-4.22.41-7.43,4.25-7.21,8.7l.45,8.79c.12,2.27,1.09,4.33,2.73,5.8,1.48,1.33,3.35,2.02,5.31,1.98l-1.28-25.27Zm.29-.02h0,0Z"/>
          <g class="cls-6">
            <path class="cls-4" d="m80.37,82.84c-.89.88-1.83,1.71-2.79,2.5-1.19.97-2.42,1.88-3.7,2.72-6.73,4.41-14.72,6.91-23.25,6.78-8.47-.13-16.31-2.82-22.85-7.37-1.02-.71-2.01-1.46-2.96-2.26-1-.83-1.95-1.71-2.87-2.62,1.72-2.58,3.49-5.03,5.27-7.3h0c1.35-5.12,2.33-8.13,2.33-8.13h43.26s1.03,3.16,2.44,8.54c1.73,2.22,3.45,4.62,5.12,7.13Z"/>
          </g>
          <g>
            <ellipse class="cls-1" cx="51.41" cy="45.14" rx="44" ry="42.37" transform="translate(3.6 94.07) rotate(-86.95)"/>
            <path class="cls-4" d="m51.24,89.34c-.21,0-.41,0-.62,0-11.07-.16-21.48-4.71-29.31-12.8-8.26-8.53-12.69-19.91-12.48-32.03C9.27,20.13,28.7.6,52.19.94c11.07.16,21.48,4.71,29.31,12.8,8.26,8.53,12.69,19.91,12.48,32.03h-.21s.21,0,.21,0c-.43,24.15-19.54,43.57-42.73,43.57Zm.32-87.99C28.59,1.35,9.67,20.58,9.25,44.51c-.21,12.01,4.18,23.28,12.36,31.74,7.75,8.01,18.06,12.51,29.02,12.67.2,0,.41,0,.61,0,22.97,0,41.9-19.23,42.32-43.16h0c.21-12.01-4.18-23.28-12.36-31.74C73.45,6.02,63.14,1.52,52.18,1.35c-.2,0-.41,0-.61,0Z"/>
          </g>
          <g class="cls-7">
            <path class="cls-4" d="m93.47,39.67c.23,1.99.34,4.03.3,6.1-.43,24.29-19.75,43.71-43.14,43.36-23.4-.35-42.01-20.33-41.59-44.62.01-.7.04-1.4.08-2.09,2.48,21.46,19.88,38.21,41.29,38.52,22.72.34,41.59-17.96,43.06-41.27Z"/>
          </g>
          <path class="cls-4" d="m51.24,90.27c-.21,0-.42,0-.63,0-11.32-.17-21.96-4.82-29.97-13.08-8.44-8.72-12.96-20.33-12.74-32.7C8.34,19.82,27.86,0,51.57,0c.21,0,.42,0,.63,0,11.32.17,21.96,4.82,29.97,13.08,8.44,8.71,12.96,20.33,12.74,32.7-.44,24.66-19.96,44.49-43.67,44.49Zm.32-87.99C29.1,2.29,10.6,21.11,10.18,44.53c-.21,11.76,4.09,22.79,12.1,31.07,7.58,7.83,17.65,12.23,28.36,12.39.2,0,.4,0,.6,0,22.46,0,40.97-18.82,41.38-42.24h0c.21-11.76-4.09-22.79-12.1-31.07-7.58-7.83-17.65-12.23-28.36-12.39-.2,0-.4,0-.6,0Z"/>
          <path class="cls-4" d="m93.61,46.89c-.03,8.61-2.74,16.6-7.37,23.22-3.47,4.96-17.68,13.65-35.2,13.83-16.24.16-30.99-8.81-34.43-13.77-4.58-6.61-7.25-14.6-7.22-23.21.07-22.78,18.95-32.24,42.21-32.26,23.26-.02,42.08,9.41,42.01,32.19Z"/>
          <g class="cls-8">
            <ellipse class="cls-1" cx="79.94" cy="44.14" rx="7.78" ry="5.44" transform="translate(23.15 115.65) rotate(-80.45)"/>
          </g>
          <g class="cls-8">
            <ellipse class="cls-1" cx="73.23" cy="59.57" rx="3.57" ry="2.96" transform="translate(-3.55 114.48) rotate(-74.69)"/>
          </g>
          <g class="cls-7">
            <path class="cls-2" d="m85.49,25.65c5.13,5.1,8.15,12.1,8.12,21.25-.03,8.61-2.74,16.6-7.36,23.22-3.47,4.96-17.68,13.65-35.2,13.83-6.19.06-12.15-1.2-17.36-3.06,21.53-.7,38.84-11.36,43.14-17.51,5.87-8.4,9.32-18.55,9.35-29.47.01-2.92-.23-5.67-.69-8.25Z"/>
          </g>
          <path class="cls-4" d="m12.63,29c-.25,0-.5-.08-.71-.24-.48-.38-.58-1.06-.23-1.55,7.48-11.36,21.94-17.88,39.68-17.89h.06c17.59,0,31.98,6.28,39.51,17.23.33.43.33,1.04-.05,1.46-.42.47-1.14.51-1.61.09l-.1-.09-.09-.12c-7.08-10.36-20.81-16.29-37.66-16.29h-.06c-16.97.01-30.75,6.17-37.79,16.89l-.06.08c-.23.29-.56.44-.9.44Z"/>
          <g class="cls-8">
            <path class="cls-1" d="m18.81,60.84s-6.73-22.47,4.97-31.43c11.69-8.97,28.48-8.94,28.08-7.83,0,0-18.59,4.69-25.91,19.94-5.64,11.77-7.14,19.32-7.14,19.32Z"/>
          </g>
        </g>
        <path class="cls-4" d="m93.05,108.99c-.28,0-.55-.14-.71-.4-2.01-3.34-7.75-3.58-7.8-3.59-.45-.02-.81-.4-.79-.85.02-.45.39-.82.85-.79.27,0,6.68.27,9.16,4.38.23.39.11.89-.28,1.13-.13.08-.28.12-.42.12Z"/>
        <path class="cls-4" d="m8.99,108.99c-.14,0-.29-.04-.42-.12-.39-.23-.51-.74-.28-1.13,2.47-4.11,8.89-4.37,9.16-4.38.45-.02.83.34.85.79.02.45-.34.83-.79.85-.09,0-5.8.25-7.8,3.59-.15.26-.43.4-.71.4Z"/>
      </g>
      <g>
        <path class="cls-5" d="m35.58,49.19c.47-.55-.02-1.39-.73-1.22-3.78.88-11.05,3.16-13.27,8-2.97,6.48.95,11.39,5.29,10.02,6.26-1.98,1.71-8.66,8.71-16.79Z"/>
        <g class="cls-6">
          <path class="cls-1" d="m24.87,66.17c-1.86-1.71-2.62-5.08-.8-9.05,1.84-4.01,7.17-6.27,11.08-7.42.14-.17.28-.35.43-.52.47-.55-.02-1.39-.73-1.23-3.78.88-11.05,3.16-13.27,8-2.5,5.45-.12,9.8,3.29,10.21Z"/>
        </g>
        <g class="cls-7">
          <path class="cls-4" d="m26.86,65.98c6.26-1.98,1.71-8.66,8.71-16.79.47-.55-.02-1.39-.73-1.23-.33.08-.68.16-1.05.26-6.96,6.57-4.16,13.32-10.37,14.19-.99.14-1.91-.02-2.7-.42.69,3.12,3.33,4.88,6.14,3.99Z"/>
        </g>
        <path class="cls-4" d="m37.16,48.69c0,.5-.18,1-.52,1.4h0c-3.2,3.72-3.78,7.01-4.3,9.91-.55,3.11-1.07,6.05-5.05,7.31-2.33.74-4.69.08-6.31-1.75-1.7-1.92-2.76-5.61-.66-10.19,2.44-5.32,9.96-7.78,14.22-8.77.9-.21,1.83.18,2.31.97.21.35.31.73.31,1.11Zm-2.63-.42s0,0,0,0h0s0,0,0,0Zm-12.59,12.05c0,1.5.49,2.66,1.13,3.39.88.99,2.11,1.33,3.38.93,2.28-.72,2.6-2.01,3.15-5.13.46-2.58,1.06-6,3.73-9.72-3.48,1-8.8,3.08-10.48,6.74-.65,1.42-.91,2.69-.91,3.79Z"/>
      </g>
    </g>
  </g>
</svg>