<?xml version="1.0" encoding="UTF-8"?>
<svg id="Layer_2" data-name="Layer 2" xmlns="http://www.w3.org/2000/svg" viewBox="0 0 106.93 202.19">
  <defs>
    <style>
      .cls-1 {
        fill: #fff;
      }

      .cls-2 {
        fill: #64ee30;
      }

      .cls-3 {
        fill: #220f2d;
      }

      .cls-4 {
        fill: #371a45;
      }

      .cls-5 {
        opacity: .3;
      }

      .cls-6 {
        opacity: .4;
      }
    </style>
  </defs>
  <g id="Layer_2-2" data-name="Layer 2">
    <g>
      <g>
        <path class="cls-2" d="m96.76,118.64c-6.89-16.68-14.75-19.85-14.75-19.85h0s22.75-12.55,20.96-40.26c-1.79-27.71-20.54-47.15-49.5-47.15S5.76,30.81,3.97,58.52c-1.79,27.71,20.96,40.26,20.96,40.26,0,0-7.86,3.17-14.75,19.85-6.89,16.68-8.96,25.51-8.82,32.68.14,7.17,8.55,11.17,15.44,8.69,0,0-.83,15.03.97,25.09,0,0-6.89,1.65-6.07,9.65.83,8,28.26,6.89,30.75,3.58,2.48-3.31,5.24-32.91,7.08-33.64.11-.05.23-.09.35-.13,2.32-.83,4.89-.83,7.21,0,.12.04.23.09.35.13,1.84.74,4.6,30.33,7.08,33.64,2.48,3.31,29.92,4.41,30.75-3.58.83-8-6.07-9.65-6.07-9.65,1.79-10.06.97-25.09.97-25.09,6.89,2.48,15.3-1.52,15.44-8.69.14-7.17-1.93-15.99-8.82-32.68Z"/>
        <g class="cls-6">
          <path class="cls-1" d="m98.63,41.63s-9.14-30.26-44.05-30.26S8.81,34.72,8,38.58c0,0,8.85-13.03,26.14-19.62.6,2.16,5.73,3.03,11.64,1.94,5.62-1.04,9.95-3.49,10.17-5.65,29.76.76,42.69,26.38,42.69,26.38Z"/>
        </g>
        <g class="cls-6">
          <ellipse class="cls-1" cx="58.78" cy="22.65" rx="3.45" ry="2.3" transform="translate(-3.45 12.88) rotate(-12.15)"/>
        </g>
        <path class="cls-2" d="m30.31,16.33s-2.03-9.84-7.64-9.93c-5.61-.09-6.43,9.93-6.43,9.93,0,0,2.39,3.22,0,6.07-2.39,2.85-7.54.37-7.9-3.49-.37-3.86,3.58-3.89,3.58-3.89,0,0,1.19-9.99,8.92-13.12,7.72-3.13,13.52,7.74,15.17,12.14,0,0-4.06,1.46-5.69,2.29Z"/>
        <path class="cls-2" d="m76.77,16.33s2.03-9.84,7.64-9.93c5.61-.09,6.43,9.93,6.43,9.93,0,0-2.39,3.22,0,6.07s7.54.37,7.9-3.49c.37-3.86-3.58-3.89-3.58-3.89,0,0-1.19-9.99-8.92-13.12-7.72-3.13-13.52,7.74-15.17,12.14,0,0,4.06,1.46,5.69,2.29Z"/>
        <g class="cls-6">
          <path class="cls-1" d="m10.63,22.65s-.82-4.07.92-4.57c1.75-.51,1.88-.74,2.39-2.44s1.88-10.75,8.78-11.72c6.89-.97,10.85,11.03,10.85,11.03,0,0,.81-.48.96-.53s1.31-.84,1.17-1.17S30.03,1.75,23.64,1.35c-6.39-.41-10.04,7.75-10.54,9.23-.51,1.49-1.18,4.44-1.18,4.44,0,0-2.42-.44-3.37,2.04-.95,2.49.96,4.98,2.08,5.59Z"/>
        </g>
        <g class="cls-6">
          <path class="cls-1" d="m96.3,22.65s.82-4.07-.92-4.57c-1.75-.51-1.88-.74-2.39-2.44s-1.88-10.75-8.78-11.72c-6.89-.97-10.85,11.03-10.85,11.03,0,0-.81-.48-.96-.53s-1.31-.84-1.17-1.17,5.67-11.51,12.06-11.92c6.39-.41,10.04,7.75,10.54,9.23.51,1.49,1.18,4.44,1.18,4.44,0,0,2.42-.44,3.37,2.04.95,2.49-.96,4.98-2.08,5.59Z"/>
        </g>
        <g class="cls-6">
          <path class="cls-1" d="m13.74,124.09c-2.79,6.49-4.78,11.88-5.5,11.57-.72-.31.09-6.2,2.88-12.69,2.79-6.49,6.51-11.13,7.23-10.82.72.31-1.82,5.45-4.62,11.95Z"/>
        </g>
        <g class="cls-6">
          <path class="cls-1" d="m11.87,192.63s2.57-4.37,6.99-5.54c4.41-1.17,9.33-1.11,9.33-1.11,0,0-1.85-1.77-7.71-1.4l-.45-.05s-1.03-5.14-1.17-12.58c-.14-7.45-2.01-9.88-2.01-9.88,0,0-.34,4.27-.2,9.97s.87,11.63.87,11.63c0,0,.24,1.56-.74,1.91s-5.01,2.23-4.92,7.06Z"/>
        </g>
        <g class="cls-6">
          <path class="cls-1" d="m93.47,124.09c2.79,6.49,4.78,11.88,5.5,11.57.72-.31-.09-6.2-2.88-12.69-2.79-6.49-6.51-11.13-7.23-10.82-.72.31,1.82,5.45,4.62,11.95Z"/>
        </g>
        <g class="cls-6">
          <path class="cls-1" d="m95.34,192.63s-2.57-4.37-6.99-5.54c-4.41-1.17-9.33-1.11-9.33-1.11,0,0,1.85-1.77,7.71-1.4l.45-.05s1.03-5.14,1.17-12.58c.14-7.45,2.01-9.88,2.01-9.88,0,0,.34,4.27.2,9.97s-.87,11.63-.87,11.63c0,0-.24,1.56.74,1.91.97.35,5.01,2.23,4.92,7.06Z"/>
        </g>
        <g class="cls-5">
          <path class="cls-4" d="m85.16,156.14c4.47,2.59,4.58,8.55,4.58,8.55l.05-3.55s.09-.9.75-.94c.66-.03,7.39,2.05,12.29-3.01,4.9-5.06,1.94-13.61,1.18-16.59-.76-2.97-1.93-6.88-1.93-6.88,0,0-2.53,10.55-5.4,11.93-2.87,1.38-4.44-6.8-7.49-15.63-3.05-8.82-5.88-15.45-10.98-20.69,0,0,3.8,37.32-24.89,37.32s-24.68-37.32-24.68-37.32c-5.1,5.23-8.14,11.86-11.19,20.69-3.05,8.82-4.63,17-7.49,15.63-2.87-1.38-5.4-11.93-5.4-11.93,0,0-1.17,3.91-1.93,6.88-.76,2.97-3.72,11.53,1.18,16.59,4.9,5.06,11.63,2.97,12.29,3.01.66.03.75.94.75.94l.05,3.55s.11-5.96,4.58-8.55c4.47-2.59,14.57,1.24,17.48,7.45,2.91,6.2.83,29.92-6.11,31.57-6.94,1.65-21.16-1.79-21.16-1.79,0,0,.35,2.42,1.13,3.57,5.5,5.15,19.71,3.8,24.24,3.34,4.53-.46,6.25-2.49,6.25-2.49l1.47-6.83s4.04-23.66,4.46-25.19c.42-1.53-.46-2.68-.46-2.68,1.42-1.19,4.55-1.33,4.55-1.33,0,0,3.13.14,4.55,1.33,0,0-.89,1.15-.46,2.68.42,1.53,4.46,25.19,4.46,25.19l1.47,6.83s1.72,2.03,6.25,2.49c4.53.46,18.74,1.82,24.24-3.34.78-1.15,1.13-3.57,1.13-3.57,0,0-14.22,3.45-21.16,1.79-6.94-1.65-9.02-25.37-6.11-31.57,2.91-6.2,13.01-10.04,17.48-7.45Z"/>
        </g>
        <g class="cls-5">
          <path class="cls-4" d="m98.97,40.79s8.61,43.89-45.5,43.89S7.98,40.79,7.98,40.79c-5.85,13.98-5.3,32.48,1.87,42.36,7.21,9.93,14.82,14.83,14.82,14.83l1.6.44,1.61-.29,6.04-1.21c2.67-.18,6.09.07,9.32.46,6.8.83,13.68.83,20.48,0,3.23-.39,6.65-.65,9.32-.46l6.04,1.21,1.61.29,1.6-.44s7.61-4.9,14.82-14.83c7.17-9.87,7.72-28.37,1.87-42.36Z"/>
        </g>
        <path class="cls-4" d="m77.91,202.19c-6.67,0-13.04-1.12-14.48-3.05-1.38-1.84-2.49-8.47-4.15-19.17-.88-5.65-1.96-12.61-2.66-14.15-2.03-.72-4.26-.72-6.29,0-.7,1.54-1.78,8.5-2.66,14.15-1.66,10.7-2.77,17.32-4.15,19.17-2.33,3.11-17.41,4.11-26.01,1.73-4.46-1.24-6.86-3.25-7.15-5.98-.65-6.3,3.08-9.52,5.89-10.7-1.23-7.97-1.03-18.23-.88-22.39-3.69.76-7.65.02-10.7-2.08C1.73,157.69.07,154.71,0,151.34c-.15-7.88,2.43-17.51,8.93-33.22,4.98-12.06,10.51-17.29,13.43-19.37-2.19-1.5-5.94-4.4-9.62-8.85-5.14-6.21-11.07-16.71-10.11-31.47.91-14.13,6.09-26.18,14.97-34.84,9.1-8.88,21.5-13.57,35.87-13.57s26.78,4.69,35.87,13.57c8.88,8.66,14.05,20.71,14.97,34.84.95,14.76-4.97,25.26-10.11,31.47-3.68,4.45-7.43,7.35-9.62,8.85,2.92,2.08,8.45,7.32,13.43,19.37h0c6.49,15.71,9.08,25.33,8.93,33.22-.07,3.37-1.72,6.35-4.66,8.37-3.05,2.1-7.01,2.84-10.7,2.08.15,4.17.36,14.42-.88,22.39,2.81,1.18,6.54,4.4,5.89,10.7-.28,2.74-2.69,4.75-7.14,5.98-3.26.9-7.45,1.32-11.53,1.32Zm-24.44-39.6c1.37,0,2.75.23,4.06.7.13.05.26.1.39.15,1.39.56,1.92,2.67,4.01,16.11,1.08,6.98,2.57,16.53,3.65,17.97,1.26,1.51,15,3.24,23.64.61,2.04-.62,4.51-1.74,4.69-3.53.69-6.69-4.82-8.15-5.05-8.21-.68-.17-1.13-.85-1-1.54,1.74-9.79.95-24.64.95-24.78-.02-.45.18-.88.54-1.15.36-.27.83-.34,1.26-.19,3.33,1.2,7.31.71,10.14-1.24,2.21-1.52,3.45-3.73,3.5-6.21.14-7.48-2.38-16.8-8.72-32.14h0c-6.54-15.82-13.95-19.09-14.02-19.12-.47-.2-.8-.66-.82-1.17-.03-.51.24-1,.69-1.25.22-.12,21.98-12.5,20.26-39-1.8-27.88-20.71-45.9-48.16-45.9S7.11,30.73,5.31,58.61c-1.71,26.5,20.05,38.88,20.27,39,.45.25.72.74.69,1.26-.03.52-.36.97-.84,1.16-.06.03-7.48,3.31-14.01,19.12-6.34,15.34-8.87,24.65-8.72,32.14.05,2.48,1.29,4.69,3.5,6.21,2.83,1.95,6.81,2.44,10.14,1.24.42-.15.9-.08,1.26.19.36.27.56.7.54,1.15,0,.15-.8,14.99.95,24.78.12.7-.32,1.38-1.01,1.54-.23.06-5.74,1.52-5.04,8.21.19,1.79,2.65,2.91,4.69,3.53,8.65,2.63,22.38.91,23.65-.61,1.08-1.44,2.56-10.99,3.65-17.96,2.09-13.45,2.61-15.56,4-16.12.13-.05.26-.1.4-.15,1.31-.47,2.68-.7,4.05-.7Z"/>
        <path class="cls-4" d="m15.45,159.9c1.22-14.93,5.41-39.56,13.74-51.89.07-.11.25-.02.2.1-4.81,12.52-7.92,25.48-9.7,38.74-.61,4.41-1.17,8.85-1.56,13.25-.19,1.73-2.76,1.55-2.68-.21h0Z"/>
        <path class="cls-4" d="m88.71,160.1c-1.63-17.71-4.8-35.34-11.26-51.98-.05-.11.13-.22.2-.1,5.64,8.5,8,18.69,10.32,28.49,1.59,7.73,2.82,15.52,3.42,23.4.08,1.75-2.5,1.97-2.68.2h0Z"/>
        <path class="cls-4" d="m17.81,151.96c-.06,0-.12,0-.18-.01-.36-.05-.66-.23-.87-.49-.14-.13-.9-.79-2.28-1.12-.72-.17-1.16-.9-.99-1.62s.9-1.16,1.62-.99c.85.21,4.25,1.4,4.03,3.06-.09.68-.67,1.17-1.33,1.17Zm-1.21-.75c.03.07.07.12.1.17-.04-.05-.07-.11-.1-.17Zm-.13-.76h0Zm0,0h0s0,0,0,0Zm0,0s0,0,0,0c0,0,0,0,0,0Zm0,0h0s0,0,0,0Zm0,0s0,0,0,0c0,0,0,0,0,0Z"/>
        <path class="cls-4" d="m7.04,144.43c.64,2.34,1.05,4.9,2.61,6.61,1.84,1.67,3.06-.47,3.69-2.1.6-1.53,1.02-3.26,1.43-4.97.11-.48.83-.44.89.04.45,3.5.07,9.86-4.54,10.3-3.71.12-5.31-4.05-5.25-7.11,0-.94.05-1.86.27-2.79.06-.25.3-.4.55-.34.18.04.31.19.34.36h0Z"/>
        <path class="cls-4" d="m17.35,183.81c3.44-1.11,9.83-.57,12,2.66.05.08,0,.2-.1.19-1.14.01-2.04-.23-2.96-.42-2.69-.6-5.56-.45-8.22.16-1.66.34-2.31-2.03-.71-2.58h0Z"/>
        <path class="cls-4" d="m24.44,97.53c3.35-1.24,6.8-1.77,10.32-2.07,3.47-.18,6.96-.53,10.35.55.1.03.11.2,0,.22-3.29.99-6.72.95-10.06,1.58-3.25.56-6.58,1.22-9.69,2.24-1.65.51-2.5-1.86-.91-2.52h0Z"/>
        <path class="cls-4" d="m56.24,164.04c2.94-4.98,7.58-8.79,12.64-11.46,1.66-.9,3.46-1.55,5.36-1.79.06,0,.12.04.13.1,0,.04-.01.08-.04.11-.72.66-1.49,1.15-2.24,1.68-1.08.75-2.3,1.51-3.38,2.27-3.25,2.34-6.21,5.12-8.65,8.28-.52.68-1.07,1.46-1.49,2.16-.93,1.47-3.14.2-2.32-1.35h0Z"/>
        <path class="cls-4" d="m89.12,151.96c-.66,0-1.24-.49-1.33-1.17-.22-1.67,3.18-2.86,4.03-3.06.72-.18,1.45.27,1.62.99s-.27,1.45-.99,1.62c-1.39.33-2.15.99-2.28,1.12-.21.26-.51.44-.87.49-.06,0-.12.01-.18.01Zm1.21-.75c-.03.06-.06.12-.1.17.03-.05.07-.1.1-.17Zm.13-.76h0Zm0,0h0s0,0,0,0Zm0,0s0,0,0,0c0,0,0,0,0,0Zm0,0h0s0,0,0,0Zm0,0s0,0,0,0c0,0,0,0,0,0Z"/>
        <path class="cls-4" d="m100.79,144.41c.55,2.9.43,6.07-1.61,8.47-1.26,1.43-3.66,1.94-5.28.82-2.86-2.11-2.98-6.53-2.62-9.68.07-.5.81-.52.9-.02.64,2.43,1.05,4.93,2.5,6.93,1.39,1.77,3.15-.06,3.75-1.65.64-1.44,1.05-3.15,1.47-4.84.09-.47.8-.48.9-.02h0Z"/>
        <path class="cls-4" d="m88.77,186.37c-1.71-.39-3.59-.57-5.37-.49-2.01,0-3.61.75-5.72.78-.1,0-.16-.11-.11-.19,1.23-1.9,3.48-2.49,5.54-2.94,2.16-.4,4.33-.37,6.46.28.71.23,1.09.98.87,1.69-.22.71-.98,1.08-1.67.88h0Z"/>
        <path class="cls-4" d="m81.52,100.03c-3.09-1.01-6.4-1.67-9.63-2.22-3.34-.63-6.77-.59-10.06-1.58-.1-.03-.11-.19,0-.22,1.7-.56,3.43-.73,5.16-.73,4.34-.02,8.71.34,12.93,1.44,1.21.43,3.97.61,3.34,2.55-.27.69-1.05,1.02-1.73.76h0Z"/>
        <ellipse class="cls-4" cx="50.26" cy="64.42" rx="1.52" ry="2.56"/>
        <ellipse class="cls-4" cx="55.82" cy="64.42" rx="1.52" ry="2.56"/>
        <path class="cls-4" d="m13.54,24.98c-.57,0-1.17-.09-1.77-.28-2.61-.81-4.53-3.09-4.77-5.66-.18-1.89.49-3.07,1.09-3.73.81-.9,1.87-1.3,2.67-1.48.55-2.79,2.66-10.37,9.57-13.16,2.25-.91,4.52-.87,6.76.11,6.25,2.74,9.79,11.79,10.17,12.81.13.34.11.71-.04,1.04-.15.33-.43.58-.76.7-.04.01-4,1.45-5.54,2.23-.37.19-.81.19-1.19.01-.38-.18-.65-.53-.73-.94h0c-.51-2.44-2.64-8.8-6.34-8.86-3.65-.07-4.78,6.47-5.02,8.25.96,1.6,1.83,4.65-.36,7.26-.94,1.12-2.27,1.71-3.73,1.71ZM23.59,2.69c-.75,0-1.49.15-2.25.46-6.91,2.8-8.08,11.94-8.09,12.03-.08.67-.65,1.18-1.32,1.18-.33,0-1.33.16-1.86.75-.34.38-.47.93-.4,1.67.17,1.74,1.62,2.96,2.9,3.35.63.2,1.82.38,2.64-.6,1.64-1.95.12-4.16-.05-4.41-.19-.26-.28-.59-.26-.9.04-.46,1-11.16,7.69-11.16.03,0,.07,0,.1,0,5.11.08,7.6,6.35,8.51,9.39,1.01-.42,2.16-.87,3.02-1.19-1.46-3.3-4.48-8.4-8.22-10.04-.81-.36-1.62-.54-2.42-.54Z"/>
        <path class="cls-4" d="m93.54,24.98c-1.46,0-2.79-.59-3.73-1.71-2.19-2.61-1.32-5.66-.36-7.26-.24-1.77-1.35-8.25-4.97-8.25-.02,0-.03,0-.05,0-3.7.06-5.84,6.41-6.34,8.86-.09.41-.36.76-.73.94-.38.18-.82.18-1.19-.01-1.55-.78-5.5-2.21-5.54-2.23-.34-.12-.61-.37-.76-.7s-.16-.7-.04-1.04c.38-1.02,3.93-10.06,10.17-12.81,2.23-.98,4.51-1.02,6.76-.11,6.91,2.8,9.02,10.37,9.57,13.16.8.18,1.86.58,2.68,1.48.59.66,1.27,1.84,1.09,3.73-.25,2.58-2.16,4.85-4.77,5.66-.6.19-1.2.28-1.77.28Zm-9.05-19.91c6.69,0,7.65,10.7,7.69,11.16.03.33-.07.65-.26.91-.17.24-1.69,2.45-.05,4.4.82.98,2.01.79,2.64.6,1.28-.4,2.73-1.62,2.9-3.35.07-.75-.06-1.29-.41-1.67-.55-.61-1.6-.74-1.85-.74-.68,0-1.24-.51-1.32-1.18-.01-.09-1.21-9.25-8.09-12.03-1.57-.64-3.1-.61-4.67.08-3.75,1.65-6.76,6.74-8.22,10.04.86.32,2.02.77,3.02,1.19.91-3.04,3.4-9.31,8.51-9.39.03,0,.07,0,.1,0Z"/>
        <g>
          <g>
            <ellipse class="cls-4" cx="76.52" cy="52.78" rx="19.23" ry="5.55" transform="translate(-14.49 71.71) rotate(-46.35)"/>
            <path class="cls-3" d="m90.45,39.22s-14.2,6.9-27.81,25.79c0,0,.64-6.46,11.39-17.61,10.75-11.15,15.77-8.82,16.42-8.18Z"/>
            <g class="cls-6">
              <path class="cls-1" d="m90.45,39.22s-3.33,8.57-12.68,18.2c-7.78,8.02-14.74,9.04-14.74,9.04,0,0,1,3.88,11.33-4.31,10.33-8.19,16.94-18.57,16.09-22.94Z"/>
            </g>
            <path class="cls-4" d="m68.89,52.18c2.28-2.77,4.89-5.48,7.6-7.87,3.93-3.47,7.65-5.88,10.46-6.81,2.91-.95,4.51-.2,4.52,2.11.01,4.68-6.68,14.39-14.92,21.66-3.93,3.47-7.65,5.88-10.46,6.81-2.91.95-4.51.2-4.52-2.11h0c0-2.31,1.58-5.88,4.48-10.04.87-1.24,1.82-2.5,2.84-3.74Zm14.4.48c3.62-4.41,6.03-8.7,6.02-11.15,0-1.79-1.3-2.35-3.64-1.58-2.44.8-5.7,2.93-9.17,5.99-3.48,3.06-6.73,6.67-9.16,10.17-2.33,3.35-3.62,6.18-3.61,7.97h0c0,1.79,1.3,2.35,3.64,1.58,2.44-.8,5.7-2.93,9.17-5.99,2.48-2.18,4.79-4.6,6.75-6.99Z"/>
          </g>
          <g>
            <ellipse class="cls-4" cx="76.52" cy="52.78" rx="5.55" ry="19.23" transform="translate(-14.49 71.71) rotate(-46.35)"/>
            <path class="cls-3" d="m90.08,66.72s-6.9-14.2-25.79-27.81c0,0,6.46.64,17.61,11.39,11.15,10.75,8.82,15.77,8.18,16.42Z"/>
            <g class="cls-6">
              <path class="cls-1" d="m90.08,66.72s-8.57-3.33-18.2-12.68c-8.02-7.78-9.04-14.74-9.04-14.74,0,0-3.88,1,4.31,11.33,8.19,10.33,18.57,16.94,22.94,16.09Z"/>
            </g>
            <path class="cls-4" d="m77.12,45.15c2.77,2.28,5.48,4.89,7.87,7.6,3.47,3.93,5.88,7.65,6.81,10.46.95,2.91.2,4.51-2.11,4.52-4.68.01-14.39-6.68-21.66-14.92-3.47-3.93-5.88-7.65-6.81-10.46-.95-2.91-.2-4.51,2.11-4.52h0c2.31,0,5.88,1.58,10.04,4.48,1.24.87,2.5,1.82,3.74,2.84Zm-.48,14.4c4.41,3.62,8.7,6.03,11.15,6.02,1.79,0,2.35-1.3,1.58-3.64-.8-2.44-2.93-5.7-5.99-9.17-3.06-3.48-6.67-6.73-10.17-9.16-3.35-2.33-6.18-3.62-7.97-3.61h0c-1.79,0-2.35,1.3-1.58,3.64.8,2.44,2.93,5.7,5.99,9.17,2.18,2.48,4.6,4.79,6.99,6.75Z"/>
          </g>
        </g>
        <g>
          <g>
            <ellipse class="cls-4" cx="29.79" cy="52.79" rx="19.23" ry="5.55" transform="translate(-28.97 37.9) rotate(-46.35)"/>
            <path class="cls-3" d="m43.72,39.23s-14.2,6.9-27.81,25.79c0,0,.64-6.46,11.39-17.61,10.75-11.15,15.77-8.82,16.42-8.18Z"/>
            <g class="cls-6">
              <path class="cls-1" d="m43.72,39.23s-3.33,8.57-12.68,18.2c-7.78,8.02-14.74,9.04-14.74,9.04,0,0,1,3.88,11.33-4.31,10.33-8.19,16.94-18.57,16.09-22.94Z"/>
            </g>
            <path class="cls-4" d="m22.16,52.19c2.28-2.77,4.89-5.48,7.6-7.87,3.93-3.47,7.65-5.88,10.46-6.81,2.91-.95,4.51-.2,4.52,2.11.01,4.68-6.68,14.39-14.92,21.66-3.93,3.47-7.65,5.88-10.46,6.81-2.91.95-4.51.2-4.52-2.11h0c0-2.31,1.58-5.88,4.48-10.04.87-1.24,1.82-2.5,2.84-3.74Zm14.4.48c3.62-4.41,6.03-8.7,6.02-11.15,0-1.79-1.3-2.35-3.64-1.58-2.44.8-5.7,2.93-9.17,5.99-3.48,3.06-6.73,6.67-9.16,10.17-2.33,3.35-3.62,6.18-3.61,7.97h0c0,1.79,1.3,2.35,3.64,1.58,2.44-.8,5.7-2.93,9.17-5.99,2.48-2.18,4.79-4.6,6.75-6.99Z"/>
          </g>
          <g>
            <ellipse class="cls-4" cx="29.79" cy="52.79" rx="5.55" ry="19.23" transform="translate(-28.97 37.9) rotate(-46.35)"/>
            <path class="cls-3" d="m43.35,66.73s-6.9-14.2-25.79-27.81c0,0,6.46.64,17.61,11.39,11.15,10.75,8.82,15.77,8.18,16.42Z"/>
            <g class="cls-6">
              <path class="cls-1" d="m43.35,66.73s-8.57-3.33-18.2-12.68c-8.02-7.78-9.04-14.74-9.04-14.74,0,0-3.88,1,4.31,11.33,8.19,10.33,18.57,16.94,22.94,16.09Z"/>
            </g>
            <path class="cls-4" d="m30.39,45.16c2.77,2.28,5.48,4.89,7.87,7.6,3.47,3.93,5.88,7.65,6.81,10.46.95,2.91.2,4.51-2.11,4.52-4.68.01-14.39-6.68-21.66-14.92-3.47-3.93-5.88-7.65-6.81-10.46-.95-2.91-.2-4.51,2.11-4.52h0c2.31,0,5.88,1.58,10.04,4.48,1.24.87,2.5,1.82,3.74,2.84Zm-.48,14.4c4.41,3.62,8.7,6.03,11.15,6.02,1.79,0,2.35-1.3,1.58-3.64-.8-2.44-2.93-5.7-5.99-9.17-3.06-3.48-6.67-6.73-10.17-9.16-3.35-2.33-6.18-3.62-7.97-3.61h0c-1.79,0-2.35,1.3-1.58,3.64.8,2.44,2.93,5.7,5.99,9.17,2.18,2.48,4.6,4.79,6.99,6.75Z"/>
          </g>
        </g>
      </g>
      <path class="cls-4" d="m60.97,83.36c0-.05,0-.1-.02-.14-.45-1.68-1.42-3.11-2.7-4.29-4.61-4.06-11.6-1.73-12.58,4.36,0,.04-.01.08,0,.12,0,.05,0,.1.02.14.45,1.68,1.42,3.11,2.7,4.28,4.61,4.06,11.6,1.73,12.58-4.36,0-.04.01-.08,0-.12Z"/>
    </g>
  </g>
</svg>