<?xml version="1.0" encoding="UTF-8"?>
<svg id="Layer_2" data-name="Layer 2" xmlns="http://www.w3.org/2000/svg" viewBox="0 0 66.15 71.1">
  <defs>
    <style>
      .cls-1 {
        fill: #ff3b3b;
      }

      .cls-2 {
        fill: #fff;
      }

      .cls-3 {
        fill: #d62d2d;
      }

      .cls-4 {
        fill: #371a45;
      }

      .cls-5 {
        opacity: .5;
      }

      .cls-6 {
        opacity: .7;
      }
    </style>
  </defs>
  <g id="Layer_2-2" data-name="Layer 2">
    <g>
      <path class="cls-1" d="m2.8,38.32c.27.76.59,1.51.96,2.25,4.73,9.41,12.53,7.65,12.53,7.65,0,0,3.37,3.86,4.5,5.19,1.98,2.32,4.15,3.88,6.36,4.89,8.84,4.05,18.31-.7,18.69-1l6.35-4.89c8.37-3.9,4.89-26.1,4.89-26.1,0,0-.27-2.64-1.53-5.54-1.49-3.45-4.39-7.27-9.9-7.48,0-.02-.02-.05-.03-.08C40.99-.64,29.83.8,22.64,3.36,11.44,7.34-2.37,23.77,2.8,38.32Z"/>
      <g class="cls-5">
        <path class="cls-2" d="m25.14,10.25S8.21,15.44,8.85,31.64c0,0,5.29-13.65,16.3-21.38Z"/>
      </g>
      <g class="cls-6">
        <path class="cls-2" d="m30.89,27.5c-1.08-3.21,9.6-19.23,24.67-6.72-1.49-3.45-4.39-7.27-9.9-7.48,0-.02-.02-.05-.03-.08-1.02-.02-2.1.05-3.25.23-15.57,2.5-11.61,13.72-11.49,14.04Z"/>
      </g>
      <path class="cls-3" d="m2.8,38.32c.27.76.59,1.51.96,2.25,4.73,9.41,12.53,7.65,12.53,7.65,0,0,3.37,3.86,4.5,5.19,1.98,2.32,4.15,3.88,6.36,4.89-.32-1.5-.29-4.3,2.4-8.23,4.18-6.11,11.04-5.02,12.96-15.51,6.34-1.71,3.42-7.13,3.42-7.13,0,0,.4-2.93-2.46-3.46-3.57-.67-6.83,5.18-12.23,4.17-3.29-3.55.32-10.18,3.9-12.2-3.68.78-5.68.1-8.29,8.42-3.98,12.69-16.38,18.61-24.06,13.95Z"/>
      <g class="cls-6">
        <path class="cls-2" d="m3.76,40.58c.69,1.38,1.46,2.52,2.25,3.46C-.91,26.26,11,11.75,24.8,6.67c5.7-2.1,14.43-2.39,19.89,4.14C39.62-.46,29.39.95,22.64,3.36,10.86,7.55-3.81,25.51,3.76,40.58Z"/>
      </g>
      <path class="cls-4" d="m35.02,61.61c-5.04,0-10.81-1.61-15.5-7.1-.82-.97-2.87-3.31-3.89-4.48-3.46.31-9.58-1.15-13.37-8.7-2.92-5.81-3.01-12.48-.27-19.31C5.6,13.02,13.86,4.7,22.08,1.77c6.45-2.3,11.96-2.36,16.38-.2,3.76,1.83,6.58,5.24,8.42,10.14,8.27,1.04,11.38,9.71,11.87,14.39.4,2.6,3.34,23.55-5.85,27.84-.84.39-1.84.03-2.23-.81-.39-.84-.03-1.84.81-2.23,5.89-2.75,4.79-18.88,3.95-24.32,0-.03,0-.06-.01-.09-.05-.45-1.28-11.2-9.82-11.52-.7-.03-1.31-.48-1.53-1.15-1.52-4.58-3.9-7.69-7.08-9.24-3.58-1.75-8.22-1.63-13.79.35-6.22,2.21-14.44,9.22-18.1,18.33-1.65,4.12-2.97,10.34.15,16.55,4.04,8.05,10.41,6.82,10.68,6.77.59-.12,1.22.08,1.62.54.14.16,3.39,3.88,4.52,5.2,9.06,10.61,22.35,3.85,22.84,3.59.73-.49,1.72-.34,2.27.37.57.73.43,1.79-.31,2.35-.93.71-5.88,2.97-11.85,2.97Zm9.87-5.68s-.05.04-.07.05c.02-.02.05-.03.07-.05Z"/>
      <path class="cls-4" d="m41.68,34.7l-1.63-4.78,2.2,1.31c-1.65.53-3.23.83-4.96.93-3.03.23-6.63-.89-7.92-3.95-1.03-2.28-1.35-4.93-.5-7.36,1.16-3.44,4.06-5.82,7.17-7.3,3.04-1.42,6.36-2.04,9.67-1.94.93.03,1.66.8,1.63,1.73-.03.93-.82,1.67-1.75,1.63-5.1-.12-11.56,1.84-13.54,6.95-.6,1.68-.3,3.66.55,5.23.95,1.49,2.65,1.69,4.53,1.64,1.32-.06,2.76-.34,4.02-.74h.9c.72,0,1.31.59,1.3,1.31l-.02,5.07c0,.95-1.36,1.17-1.66.26h0Z"/>
      <path class="cls-4" d="m15.9,46.6c4.81-1.18,9.5-3.65,12.77-7.43,2-2.29,3.31-5.08,3.88-8.08.22-1.04,1.78-.79,1.66.28-.41,3.31-1.69,6.57-3.74,9.24-3.42,4.5-8.44,7.58-13.8,9.25-2.24.54-3.03-2.74-.77-3.27h0Z"/>
      <path class="cls-4" d="m40.83,28.21c1.71-.68,3.33-1.29,5.16-1.69.46-.1.91.2,1,.66.08.38-.11.75-.44.93-1.02.61-2.06,1.41-3.02,2.18-.32.26-.66.54-.96.8-2.1,1.62-4.15-1.76-1.74-2.87h0Z"/>
      <path class="cls-1" d="m29.05,59.24c1.26,8.29,8.94,10.17,8.94,10.17,3.83.28,16.17-8.15,22.57-14.96.59-.63,1.14-1.25,1.61-1.84,1.41-1.75,2.27-3.31,2.31-4.47.15-5.8-7.02-11.33-7.02-11.33-.87,1.08-1.78,2.14-2.71,3.18-3.36,3.76-7.04,7.2-10.58,10.1-6.45,5.3-12.42,8.8-15.12,9.17Z"/>
      <g class="cls-6">
        <path class="cls-2" d="m54.75,39.98c1.68.82,3.63,2.17,5.4,4.37,2.58,3.21,2.52,6.25,2.02,8.26,1.41-1.75,2.27-3.31,2.31-4.47.15-5.8-7.02-11.33-7.02-11.33-.87,1.08-1.78,2.14-2.71,3.18Z"/>
      </g>
      <path class="cls-3" d="m29.05,59.24c1.26,8.29,8.94,10.17,8.94,10.17,3.83.28,16.17-8.15,22.57-14.96-2.81,2.56-6.77,4.85-11.91,4.82-7.52-.03-6.3-5.38-4.48-9.19-6.45,5.3-12.42,8.8-15.12,9.17Z"/>
      <path class="cls-4" d="m38.16,71.1c-.1,0-.19,0-.29-.01-.09,0-.19-.02-.28-.04-.36-.09-8.78-2.26-10.2-11.55-.07-.45.05-.9.32-1.26s.67-.6,1.12-.66c3.74-.51,17.29-9.4,27.32-21.84.57-.71,1.61-.83,2.33-.28.32.25,7.84,6.13,7.67,12.71-.07,2.51-2.61,6.05-7.56,10.53-5.61,5.08-15.84,12.39-20.44,12.39Zm-7.12-10.64c1.53,5.34,6.33,7.02,7.22,7.29,2.48-.04,11.14-5.24,18.09-11.53,4.72-4.27,6.43-7.05,6.45-8.13.09-3.3-3.01-6.92-5.13-8.9-8.62,10.21-20.49,19.12-26.63,21.27Z"/>
    </g>
  </g>
</svg>