<?xml version="1.0" encoding="UTF-8"?>
<svg id="Layer_2" data-name="Layer 2" xmlns="http://www.w3.org/2000/svg" viewBox="0 0 70.74 63.95">
  <defs>
    <style>
      .cls-1 {
        fill: #31c418;
      }

      .cls-2 {
        fill: none;
        stroke: #000072;
        stroke-miterlimit: 10;
        stroke-width: 11px;
      }
    </style>
  </defs>
  <g id="Layer_2-2" data-name="Layer 2">
    <path class="cls-2" d="m60.08,10.03c-3.2-3.03-7.4-4.64-11.81-4.52-5.31.14-10.17,2.8-13.17,7.15-3.22-4.18-8.22-6.57-13.53-6.43-4.41.12-8.51,1.95-11.55,5.15-3.04,3.2-4.64,7.4-4.52,11.81.18,6.68,3.49,13.6,9.83,20.57,5.26,5.78,11.51,10.38,15.83,13.22,1.49.98,3.21,1.47,4.93,1.47,1.88,0,3.76-.59,5.33-1.75,4.16-3.07,10.16-8,15.09-14.05,5.96-7.3,8.89-14.39,8.71-21.07-.12-4.41-1.95-8.51-5.15-11.55Z"/>
    <path class="cls-1" d="m60.08,10.03c-3.2-3.03-7.4-4.64-11.81-4.52-5.31.14-10.17,2.8-13.17,7.15-3.22-4.18-8.22-6.57-13.53-6.43-4.41.12-8.51,1.95-11.55,5.15-3.04,3.2-4.64,7.4-4.52,11.81.18,6.68,3.49,13.6,9.83,20.57,5.26,5.78,11.51,10.38,15.83,13.22,1.49.98,3.21,1.47,4.93,1.47,1.88,0,3.76-.59,5.33-1.75,4.16-3.07,10.16-8,15.09-14.05,5.96-7.3,8.89-14.39,8.71-21.07-.12-4.41-1.95-8.51-5.15-11.55Z"/>
  </g>
</svg>