<?xml version="1.0" encoding="UTF-8"?>
<svg id="Layer_2" data-name="Layer 2" xmlns="http://www.w3.org/2000/svg" viewBox="0 0 73.3 64.97">
  <defs>
    <style>
      .cls-1 {
        fill: #fc4f8b;
      }

      .cls-2 {
        fill: #ed2f86;
      }

      .cls-3 {
        fill: #fff;
      }

      .cls-4 {
        fill: #371a45;
      }

      .cls-5 {
        opacity: .5;
      }
    </style>
  </defs>
  <g id="Layer_2-2" data-name="Layer 2">
    <g>
      <path class="cls-1" d="m72.57,19.74c.5,18.39-18.91,35.12-28.91,42.5-3.47,2.56-8.17,2.69-11.77.32C21.51,55.73,1.23,40.07.73,21.68.44,10.88,8.95,1.9,19.75,1.61c6.86-.18,12.99,3.18,16.62,8.44C39.7,4.61,45.64.91,52.5.73c10.79-.29,19.77,8.22,20.07,19.01Z"/>
      <g class="cls-5">
        <path class="cls-3" d="m43.87,11.32c-.16-1.2,3.72-6.2,12.9-4.02,7.42,1.76,10.51,7.45,10.02,8.29-.26.44-5.57-3-11.79-3.82-5.19-.69-11.05.13-11.12-.44Z"/>
      </g>
      <g class="cls-5">
        <path class="cls-3" d="m72.5,21.89c-.75-10.36-9.53-18.05-20.02-18.12-6.38-.04-14.76,3.85-14.45,9.36-3.63-5.25-11.45-8.66-18.31-8.48C9.73,4.92,1.68,12.65.79,22.37c-.03-.39-.05-.78-.06-1.18C.44,10.4,8.95,1.42,19.74,1.13c6.86-.18,12.99,3.19,16.62,8.44C39.7,4.13,45.64.43,52.5.25c10.79-.29,19.77,8.22,20.07,19.01.02.88,0,1.76-.06,2.63Z"/>
      </g>
      <path class="cls-2" d="m43.19,58.42c-3.23,2.34-7.61,2.46-10.97.29C22.54,52.47,3.64,38.14,3.18,21.32c-.04-1.35.08-2.68.34-3.96.99,7.98,7.37,15.23,14.36,20.91,7.61-8.42,45.13-5.77,52.13-20.38.07.55.11,1.1.13,1.66.46,16.82-17.62,32.12-26.94,38.87Z"/>
      <path class="cls-4" d="m37.54,64.97c-2.11,0-4.22-.6-6.05-1.8-5.3-3.49-12.97-9.13-19.42-16.22C4.29,38.39.23,29.89,0,21.7c-.15-5.41,1.82-10.56,5.55-14.49C9.28,3.28,14.31,1.04,19.73.89c6.52-.17,12.65,2.75,16.6,7.89C40,3.44,45.96.18,52.48,0c5.41-.14,10.56,1.82,14.49,5.55,3.93,3.72,6.17,8.76,6.32,14.17.22,8.2-3.37,16.89-10.68,25.86-6.06,7.43-13.42,13.48-18.52,17.25-1.93,1.43-4.24,2.14-6.55,2.14ZM20.28,2.33c-.17,0-.34,0-.51,0-5.03.14-9.7,2.22-13.16,5.87-3.46,3.65-5.29,8.43-5.15,13.45.21,7.84,4.14,16.02,11.68,24.31,6.35,6.98,13.92,12.55,19.15,15.99,3.33,2.19,7.73,2.08,10.94-.29,5.04-3.72,12.29-9.69,18.26-17,7.08-8.68,10.57-17.06,10.36-24.9h0c-.14-5.03-2.22-9.7-5.87-13.16-3.65-3.46-8.43-5.29-13.45-5.15-6.39.17-12.2,3.53-15.54,8.97-.13.21-.35.34-.6.34-.25.01-.48-.11-.61-.31-3.54-5.12-9.3-8.13-15.49-8.13Z"/>
      <path class="cls-4" d="m36.99,9.69c.62,1.34,1.14,2.71,1.58,4.12.07.22-.06.46-.28.53-.21.06-.42-.04-.51-.23-.3-.64-.63-1.28-.97-1.9-.34-.61-.71-1.24-1.08-1.82-.53-.88.79-1.61,1.26-.71h0Z"/>
    </g>
  </g>
</svg>