<?xml version="1.0" encoding="UTF-8"?>
<svg id="Layer_2" data-name="Layer 2" xmlns="http://www.w3.org/2000/svg" viewBox="0 0 74.73 95.06">
  <defs>
    <style>
      .cls-1 {
        fill: #fff;
      }

      .cls-2 {
        fill: #371a45;
      }

      .cls-3 {
        opacity: .25;
      }
    </style>
  </defs>
  <g id="Layer_2-2" data-name="Layer 2">
    <path class="cls-1" d="m44.14,47.96c-2.31,9.68,4.1,37.43-.87,42.25-3.83,3.72-15.28,2.85-23.36,3.09-10.14.3-17.77-2.83-18.15-10.37-.04-.87.01-1.81.17-2.8.9-5.57,7.15-7.36,7.15-7.36,0,0-11.76-36.86,11.54-60.53,3.88-3.94,8.73-7.51,14.76-10.49l37.59,22.24c-12.91,11.53-25.73,10.94-28.85,23.97Z"/>
    <g class="cls-3">
      <path class="cls-2" d="m44.14,47.96c-2.31,9.68,4.1,37.43-.87,42.25-3.83,3.72-15.28,2.85-23.36,3.09-10.14.3-17.77-2.83-18.15-10.37,7.91,6.25,26.55,5.61,35.07,1.74,5.14-2.34,4.2-10.19,3.57-19.44-.59-8.63.02-20.11-7.33-28.23-9.36-10.35-12.01-18.97-12.45-24.75,3.88-3.94,8.73-7.51,14.76-10.49l37.59,22.24c-12.91,11.53-25.73,10.94-28.85,23.97Z"/>
    </g>
    <path class="cls-2" d="m18.55,95.06c-7.35,0-12.82-1.82-15.88-5.3-2.27-2.59-3.1-5.93-2.46-9.92.75-4.69,4.54-7.09,6.76-8.12-1.04-3.88-3.39-14.42-2.34-26.79C5.85,30.67,12.03,11.32,34.62.18c.86-.43,1.91-.07,2.34.79.43.86.07,1.91-.79,2.34C19.24,11.66,9.8,25.73,8.12,45.12c-1.27,14.64,2.59,26.99,2.63,27.12.14.45.1.94-.13,1.35-.22.42-.6.72-1.06.85-.05.01-5.21,1.58-5.91,5.95-.47,2.92.08,5.29,1.64,7.07,2.5,2.85,7.68,4.3,14.56,4.09,1.61-.05,3.31-.05,5.11-.06,6.47-.02,14.51-.04,17.09-2.54,2.23-2.16,1.3-13.32.62-21.46-.66-7.96-1.29-15.48-.23-19.94,2.08-8.7,8.15-11.9,15.18-15.6,4.36-2.3,9.31-4.9,14.2-9.27.72-.64,1.82-.58,2.46.14.64.72.58,1.82-.14,2.46-5.22,4.66-10.36,7.37-14.9,9.76-6.79,3.58-11.7,6.16-13.41,13.32-.94,3.92-.3,11.5.31,18.84,1.09,13.04,1.52,21.17-1.66,24.26-3.58,3.48-11.68,3.5-19.51,3.52-1.78,0-3.46.01-5.02.06-.48.01-.95.02-1.41.02Z"/>
    <g>
      <path class="cls-1" d="m9.09,72.77s10.09-3.14,25.81,1.82"/>
      <path class="cls-2" d="m8.57,71.1c6.67-1.47,13.63-.75,20.21.77,2.16.5,4.27,1.18,6.38,1.88.46.15.71.64.56,1.1-.14.44-.6.69-1.04.58-4.15-1.12-8.41-1.91-12.71-2.14-4.16-.17-8.39-.02-12.39,1.15-2.28.7-3.31-2.64-1.02-3.34h0Z"/>
    </g>
  </g>
</svg>