<?xml version="1.0" encoding="UTF-8"?>
<svg id="Layer_2" data-name="Layer 2" xmlns="http://www.w3.org/2000/svg" viewBox="0 0 70.24 76.63">
  <defs>
    <style>
      .cls-1 {
        fill: #00c9ff;
      }

      .cls-2 {
        fill: #fff;
      }

      .cls-3 {
        fill: #fff5a4;
      }

      .cls-4 {
        fill: #ffce00;
      }

      .cls-5 {
        fill: #e2e2e2;
      }

      .cls-6 {
        fill: #999;
      }

      .cls-7 {
        fill: #945cc6;
      }

      .cls-8 {
        fill: #b8c5d3;
      }

      .cls-9 {
        fill: #102770;
      }

      .cls-10 {
        fill: #371a45;
      }

      .cls-11 {
        fill: #7a7a7a;
      }

      .cls-12 {
        opacity: .3;
      }

      .cls-13 {
        opacity: .5;
      }
    </style>
  </defs>
  <g id="planets">
    <g>
      <g>
        <ellipse class="cls-5" cx="46.19" cy="28.31" rx="2.72" ry="6.63" transform="translate(-7.06 38.27) rotate(-42.1)"/>
        <path class="cls-10" d="m48.27,26.44c2.48,2.75,3.57,5.82,2.43,6.86s-4.09-.36-6.58-3.11c-2.48-2.75-3.57-5.82-2.43-6.86s4.09.36,6.58,3.11Zm-4.03,3.64c2.42,2.68,5.27,4.07,6.35,3.09s-.01-3.95-2.44-6.63c-2.42-2.68-5.27-4.07-6.35-3.09s.01,3.95,2.44,6.63Z"/>
      </g>
      <g>
        <ellipse class="cls-2" cx="46.19" cy="28.31" rx="2.72" ry="6.63" transform="translate(-7.06 38.27) rotate(-42.1)"/>
        <path class="cls-10" d="m48.27,26.44c2.48,2.75,3.57,5.82,2.43,6.86s-4.09-.36-6.58-3.11c-2.48-2.75-3.57-5.82-2.43-6.86s4.09.36,6.58,3.11Zm-4.03,3.64c2.42,2.68,5.27,4.07,6.35,3.09s-.01-3.95-2.44-6.63c-2.42-2.68-5.27-4.07-6.35-3.09s.01,3.95,2.44,6.63Z"/>
      </g>
      <g class="cls-12">
        <ellipse class="cls-10" cx="46.19" cy="28.31" rx="2.72" ry="6.63" transform="translate(-7.06 38.27) rotate(-42.1)"/>
      </g>
      <path class="cls-10" d="m48.57,26.16c2.73,3.02,3.76,6.22,2.4,7.45s-4.44-.12-7.17-3.14c-2.73-3.02-3.76-6.22-2.4-7.45s4.44.12,7.17,3.14Zm-4.03,3.64c2.35,2.61,4.98,3.77,5.76,3.06s-.11-3.44-2.47-6.04-4.98-3.77-5.76-3.06.11,3.44,2.47,6.04Z"/>
      <g>
        <ellipse class="cls-2" cx="33.66" cy="17.05" rx="2.72" ry="6.63" transform="translate(-.76 32.51) rotate(-51.04)"/>
        <path class="cls-10" d="m37.17,16.52c.59.65,1.07,1.31,1.42,1.95.67,1.22.77,2.21.29,2.8-.48.59-1.47.7-2.8.3-1.31-.39-2.79-1.22-4.18-2.35-1.39-1.12-2.51-2.4-3.17-3.59-.67-1.22-.77-2.21-.29-2.8.48-.59,1.47-.7,2.8-.3,1.31.39,2.79,1.22,4.18,2.35.65.52,1.24,1.08,1.75,1.65Zm-6.89.95c.51.56,1.09,1.11,1.73,1.63,1.37,1.11,2.83,1.93,4.12,2.32,1.26.38,2.2.29,2.63-.25.43-.54.32-1.47-.31-2.63-.65-1.18-1.76-2.44-3.13-3.54-1.37-1.11-2.83-1.93-4.12-2.32-1.26-.38-2.2-.29-2.63.25-.43.54-.32,1.47.31,2.63.34.63.82,1.28,1.4,1.92Z"/>
      </g>
      <path class="cls-10" d="m37.48,16.24c.61.67,1.11,1.36,1.48,2.03.75,1.38.84,2.54.25,3.27-.59.73-1.74.89-3.25.44-1.36-.41-2.89-1.27-4.32-2.42-1.43-1.15-2.59-2.47-3.27-3.72-.75-1.38-.84-2.54-.25-3.27.59-.73,1.74-.89,3.25-.44,1.36.41,2.89,1.27,4.32,2.42.66.54,1.27,1.11,1.79,1.69Zm-6.89.95c.49.54,1.06,1.08,1.68,1.58,1.33,1.07,2.74,1.87,3.98,2.24,1.06.32,1.88.28,2.19-.11.31-.39.18-1.19-.35-2.16-.62-1.13-1.7-2.35-3.02-3.42-1.33-1.07-2.74-1.87-3.98-2.24-1.06-.32-1.88-.28-2.19.11-.31.39-.18,1.19.35,2.16.33.6.79,1.22,1.34,1.84Z"/>
      <g>
        <ellipse class="cls-2" cx="56.13" cy="41.91" rx="2.72" ry="6.63" transform="translate(-13.78 37.53) rotate(-33.17)"/>
        <path class="cls-10" d="m57.01,38.48c.51.57,1.01,1.21,1.46,1.9.97,1.49,1.65,3.05,1.91,4.39.26,1.36.06,2.34-.58,2.76-.64.42-1.62.21-2.76-.58-1.12-.77-2.28-2.02-3.25-3.51-.97-1.49-1.65-3.05-1.91-4.39-.26-1.36-.06-2.34.58-2.76.64-.42,1.62-.21,2.76.58.6.41,1.21.96,1.79,1.61Zm-1.64,6.76c.58.64,1.18,1.18,1.77,1.58,1.09.75,2,.95,2.58.57.58-.38.76-1.3.51-2.6-.25-1.32-.92-2.86-1.89-4.33-.96-1.47-2.1-2.71-3.21-3.47-1.09-.75-2-.95-2.58-.57-.58.38-.76,1.3-.51,2.6.25,1.32.92,2.86,1.89,4.33.45.69.94,1.33,1.45,1.89Z"/>
      </g>
      <g class="cls-12">
        <ellipse class="cls-10" cx="33.66" cy="17.05" rx="2.72" ry="6.63" transform="translate(-.76 32.51) rotate(-51.04)"/>
      </g>
      <g class="cls-12">
        <ellipse class="cls-10" cx="56.13" cy="41.91" rx="2.72" ry="6.63" transform="translate(-13.78 37.53) rotate(-33.17)"/>
      </g>
      <path class="cls-10" d="m57.32,38.2c.53.58,1.03,1.24,1.5,1.96,1,1.54,1.7,3.15,1.97,4.54.3,1.54.03,2.67-.76,3.19-.79.51-1.93.31-3.22-.58-1.17-.8-2.36-2.09-3.37-3.63-1-1.54-1.7-3.15-1.97-4.54-.3-1.54-.03-2.67.76-3.19.79-.51,1.93-.31,3.22.58.63.43,1.26,1,1.87,1.67Zm-1.64,6.76c.55.61,1.13,1.13,1.69,1.52.91.63,1.7.84,2.12.57.42-.27.54-1.08.33-2.17-.24-1.27-.89-2.75-1.83-4.18-.94-1.43-2.04-2.62-3.1-3.35-.91-.63-1.7-.84-2.12-.57-.42.27-.54,1.08-.33,2.17.24,1.27.89,2.75,1.83,4.18.44.67.92,1.29,1.41,1.84Z"/>
      <g>
        <ellipse class="cls-6" cx="40.63" cy="33.34" rx="7.49" ry="29.72" transform="translate(-11.87 35.84) rotate(-42.1)"/>
        <path class="cls-10" d="m46.25,28.26c5.33,5.9,9.76,11.96,12.47,17.08,2.73,5.15,3.4,8.74,1.89,10.11s-5.02.34-9.87-2.9c-4.82-3.22-10.41-8.24-15.73-14.13-5.33-5.9-9.76-11.96-12.47-17.08-2.73-5.15-3.4-8.74-1.89-10.11s5.02-.34,9.87,2.9c4.82,3.22,10.41,8.24,15.73,14.13Zm-11.12,10.05c10.96,12.13,22.34,19.76,25.37,17.02s-3.41-14.84-14.37-26.96c-10.96-12.13-22.34-19.76-25.37-17.02-3.03,2.74,3.41,14.84,14.37,26.96Z"/>
      </g>
      <g>
        <path class="cls-2" d="m21.15,10.98c.56-.28,1.29-.33,2.16-.19,4.8.79,13.97,7.67,22.88,17.52,8.91,9.85,14.82,19.67,15.12,24.53.06.88-.08,1.6-.41,2.13-2.51.8-12.53-7.47-23.06-19.12S20.11,13.4,21.15,10.98Z"/>
        <path class="cls-10" d="m46.27,28.24c8.74,9.68,14.83,19.56,15.15,24.59.06.92-.08,1.66-.42,2.19l-.02.03h-.04c-2.6.83-12.56-7.4-23.17-19.14-10.61-11.74-17.79-22.48-16.71-24.98l.02-.03.03-.02c.57-.28,1.32-.35,2.22-.2,4.98.82,14.2,7.88,22.94,17.55Zm14.57,26.64c.3-.5.42-1.18.37-2.03-.31-4.99-6.38-14.82-15.09-24.47S28.23,11.71,23.29,10.89c-.85-.14-1.54-.08-2.06.16-.95,2.46,6.35,13.29,16.69,24.73,10.34,11.44,20.37,19.8,22.91,19.1Z"/>
      </g>
      <g class="cls-12">
        <path class="cls-10" d="m21.15,10.98c.56-.28,1.29-.33,2.16-.19,3.94,1.57,12.49,9.01,21.39,18.86,8.91,9.85,15.44,19.11,16.61,23.19.06.88-.08,1.6-.41,2.13-2.51.8-12.53-7.47-23.06-19.12S20.11,13.4,21.15,10.98Z"/>
      </g>
      <path class="cls-10" d="m46.56,27.98c5.35,5.92,9.8,12.02,12.53,17.16,2,3.77,3.94,8.68,1.8,10.61-2.14,1.93-6.82-.49-10.38-2.86-4.85-3.24-10.46-8.28-15.81-14.2-5.35-5.92-9.8-12.02-12.53-17.16-2-3.77-3.94-8.68-1.8-10.61s6.82.49,10.38,2.86c4.85,3.24,10.46,8.28,15.81,14.2Zm-11.12,10.05c11.72,12.97,22.28,19.26,24.79,16.99s-2.68-13.4-14.4-26.37c-11.72-12.97-22.28-19.26-24.79-16.99s2.68,13.4,14.4,26.37Z"/>
      <g>
        <path class="cls-7" d="m1.27,2.98l2.12-1.91c3.94-3.56,21.82,9.8,39.93,29.84,18.11,20.04,29.6,39.18,25.65,42.74l-2.12,1.91"/>
        <path class="cls-10" d="m43.38,30.85c8.76,9.7,16.26,19.49,21.11,27.56,4.87,8.11,6.48,13.54,4.54,15.29l-2.12,1.91-.11-.12,2.12-1.91c3.9-3.53-7.61-22.65-25.66-42.63C25.21,10.98,7.34-2.4,3.44,1.13l-2.12,1.91-.11-.12,2.12-1.91c1.94-1.75,7.18.4,14.75,6.06,7.55,5.64,16.53,14.08,25.29,23.78Z"/>
      </g>
      <g class="cls-12">
        <path class="cls-10" d="m2.4,1.96l.98-.89c3.94-3.56,21.82,9.8,39.93,29.84,18.11,20.04,29.6,39.18,25.65,42.74l-.98.89c3.94-3.56-7.54-22.7-25.65-42.74C24.22,11.75,6.35-1.61,2.4,1.96Z"/>
      </g>
      <path class="cls-10" d="m43.69,30.57c8.78,9.72,16.29,19.53,21.15,27.63,3.52,5.87,7.16,13.38,4.46,15.81l-2.12,1.91c-.2.18-.52.17-.7-.04s-.17-.52.04-.7l2.12-1.91c3.27-2.95-6.27-20.55-25.69-42.04C23.53,9.75,6.99-1.52,3.72,1.44l-2.12,1.91c-.2.18-.52.17-.7-.04s-.17-.52.04-.7L3.05.7c2.69-2.44,9.8,1.94,15.28,6.04,7.57,5.65,16.57,14.12,25.35,23.83Z"/>
      <ellipse class="cls-8" cx="34.1" cy="39.31" rx="9.62" ry="48.91" transform="translate(-17.56 33.01) rotate(-42.1)"/>
      <g class="cls-13">
        <path class="cls-2" d="m39.2,33.76c1.16,1.28,1.33,2.95.4,3.79s-2.57.5-3.73-.78-1.33-2.95-.4-3.79,2.57-.5,3.73.78Zm-2.6,2.35c.76.84,1.83,1.17,2.33.71s.29-1.55-.47-2.39-1.83-1.17-2.33-.71-.29,1.55.47,2.39Z"/>
      </g>
      <g class="cls-13">
        <path class="cls-2" d="m25.88,19.94c.48.53.8,1.15.92,1.77.14.74-.04,1.41-.48,1.85-.45.44-1.12.61-1.86.47-.67-.13-1.35-.52-1.91-1.08-1.22-1.23-1.47-2.88-.57-3.77h0c.89-.89,2.55-.62,3.77.61.05.05.09.1.14.15Zm-2.73,2.21s.07.07.11.11c.41.41.92.71,1.39.8.24.05.68.08.97-.2.29-.28.25-.73.21-.96-.09-.48-.38-.99-.79-1.4-.8-.8-1.88-1.08-2.36-.6-.46.46-.24,1.46.48,2.25Z"/>
      </g>
      <g class="cls-13">
        <path class="cls-2" d="m12.85,9.66c1.09,1.21,1.29,2.77.43,3.62-.45.44-1.12.61-1.86.47-.67-.13-1.35-.52-1.91-1.08-.55-.56-.93-1.24-1.06-1.92-.14-.74.04-1.41.48-1.85h0c.45-.44,1.12-.61,1.86-.47.67.13,1.35.51,1.91,1.08.05.05.1.1.14.15Zm-2.73,2.2s.07.07.11.11c.41.41.92.71,1.39.8.24.05.68.08.97-.2.48-.48.21-1.56-.58-2.37-.41-.41-.92-.71-1.39-.8-.24-.05-.68-.08-.97.2h0c-.28.28-.25.73-.21.96.08.43.33.9.68,1.29Z"/>
      </g>
      <g class="cls-13">
        <path class="cls-2" d="m51.29,48.05c.05.05.09.1.13.16,1.1,1.33,1.2,3.01.23,3.81h0c-.97.8-2.6.38-3.69-.95-.5-.61-.81-1.32-.88-2.01-.07-.75.17-1.4.65-1.8.93-.77,2.47-.41,3.56.8Zm-.27,3.2c.52-.43.36-1.54-.36-2.41-.72-.87-1.77-1.25-2.3-.82-.31.25-.32.7-.29.94.05.48.28,1.02.66,1.47.72.87,1.77,1.25,2.3.82h0Z"/>
      </g>
      <g class="cls-13">
        <path class="cls-2" d="m60.2,62.06c.05.05.09.1.14.16.5.61.81,1.32.88,2.01.07.75-.17,1.4-.65,1.8-.49.4-1.17.51-1.89.29-.66-.2-1.3-.64-1.8-1.25-.5-.61-.81-1.32-.88-2.01-.07-.75.17-1.4.65-1.8.93-.77,2.46-.41,3.56.8Zm-2.47,2.5c.36.39.79.68,1.22.81.23.07.67.15.98-.11h0c.31-.25.32-.7.3-.94-.05-.48-.28-1.02-.66-1.47-.72-.87-1.77-1.25-2.29-.82-.31.25-.32.7-.3.94.05.48.28,1.02.66,1.47.03.04.07.08.1.12Zm2.51,1.09h0s0,0,0,0Z"/>
      </g>
      <g class="cls-13">
        <path class="cls-2" d="m11.66,20.9c1.84-1.67,12.99,5.41,23.51,17.05,10.52,11.64,16.44,23.44,14.59,25.11s-11.87-6.42-22.39-18.06c-10.52-11.64-17.56-22.43-15.71-24.1Z"/>
      </g>
      <g class="cls-12">
        <path class="cls-10" d="m18.4,26.23s-2.26-8.24-1.74-10.6c.52-2.37.33-5.77.33-5.77,0,0-20.08-15.02-15.79-1.89,0,0-.61-3.74,1.09-4.11,2.47-.53,7.6,2.2,10.59,4.36,1.6,1.15,2.54,3.01,2.52,4.98-.04,2.61.25,6.81,1.86,11.77.55,1.7,1.15,1.27,1.15,1.27Z"/>
      </g>
      <g class="cls-12">
        <path class="cls-10" d="m45.14,55.82s7.97,3.08,10.37,2.8c2.41-.28,5.77.26,5.77.26,0,0,12.91,21.49.29,15.9,0,0,3.75,1.01,4.2-.67.76-2.84-1.32-7.57-3.15-10.77-1.05-1.83-2.92-3.03-5.01-3.23-2.61-.25-6.67-.97-11.32-3.02-1.64-.72-1.15-1.27-1.15-1.27Z"/>
      </g>
      <g class="cls-12">
        <path class="cls-10" d="m45.51,55.85s11.73,4.28,15.78,2.89c0,0-7.18-11.62-20.1-25.92S17.1,10.28,17.1,10.28c0,0-1.42,12.17,1.9,16.43,3.31,4.26,1.33.89,1.33.89,0,0-2.59-7.83-2.42-13.27.03-.83.99-1.27,1.62-.74,3.36,2.82,12.16,10.45,20.91,20.12,8.64,9.56,15.09,18.68,17.54,22.28.47.69-.07,1.61-.9,1.54-.93-.08-2.15-.23-3.59-.52-2.41-.49-8.25-2.37-8.25-2.37l.28,1.18Z"/>
      </g>
      <g>
        <path class="cls-9" d="m12.48,23.25c2.12-1.92,11.76,5.28,21.52,16.08,9.76,10.8,15.95,21.11,13.82,23.03s-19.89-17.55-19.89-17.55c0,0-17.57-19.64-15.45-21.56Z"/>
        <path class="cls-10" d="m34.07,39.26c9.95,11.01,16.02,21.19,13.82,23.18s-18.21-15.55-20.03-17.55c-1.81-2.02-17.58-19.77-15.44-21.71s11.72,5.08,21.66,16.08Zm-6.07,5.48c4.92,5.39,18.06,19.06,19.74,17.54.97-.88.07-3.81-2.47-8.05-2.61-4.34-6.64-9.61-11.36-14.83-4.72-5.22-9.55-9.76-13.61-12.79-3.96-2.96-6.79-4.15-7.76-3.28-1.68,1.52,10.59,15.97,15.46,21.41Z"/>
      </g>
      <g>
        <path class="cls-9" d="m36,41.5c-.12-.14-.24-.29-.37-.43h0c-.5-.6-1.03-1.19-1.57-1.79-.93-1.03-1.85-2-2.76-2.91h0c-5.22-5.25-9.87-8.44-11.03-7.39-.98.89,4.62,7.7,7.81,11.42.04.05.08.1.12.14.26.31.51.59.73.84.76.87,1.24,1.41,1.24,1.41,0,0,.38.41,1,1.08.04.04.08.09.12.13.35.37.77.82,1.24,1.31,3.41,3.58,9.42,9.6,10.39,8.73,1.13-1.02-1.42-5.76-5.9-11.3-.02-.02-.03-.04-.05-.06l-.97-1.17Z"/>
        <path class="cls-10" d="m34.14,39.2c.53.59,1.06,1.19,1.57,1.78.13.16.26.3.38.44h0s.97,1.17.97,1.17c.02.03.04.05.05.06,3.9,4.82,7.23,10.23,5.89,11.45-.78.71-4.33-2.23-10.53-8.74-.47-.49-.89-.94-1.24-1.31l-.12-.13c-.62-.67-1-1.08-1-1.08,0,0-.5-.55-1.24-1.42-.22-.25-.47-.54-.73-.85l-.12-.14c-4.1-4.78-8.78-10.67-7.8-11.56,1.39-1.26,6.61,2.81,11.17,7.39.93.93,1.86,1.91,2.76,2.92Zm1.79,2.36c-.12-.14-.24-.29-.37-.43-1.4-1.64-2.87-3.23-4.33-4.7-5.23-5.26-9.81-8.36-10.89-7.39-.65.59,2.27,4.81,7.81,11.27l.13.14c.26.31.51.59.73.84.75.86,1.24,1.41,1.24,1.41,0,0,.37.41,1,1.08l.12.13c.35.37.77.82,1.24,1.31,5.77,6.05,9.6,9.31,10.24,8.72,1.04-.94-1.44-5.64-5.91-11.16-.01-.02-.03-.04-.05-.06l-.97-1.18Z"/>
      </g>
      <g>
        <path class="cls-11" d="m12.48,23.25c.25-.22.6-.32,1.03-.31.68,4.12,15.6,20.8,15.6,20.8,0,0,15.08,16.53,19.12,17.62-.03.44-.17.77-.41,1-2.12,1.92-19.89-17.55-19.89-17.55,0,0-17.57-19.64-15.45-21.56Z"/>
        <path class="cls-10" d="m48.34,61.29v.09c-.04.47-.19.83-.45,1.07-2.14,1.93-18.21-15.55-20.03-17.55-1.81-2.02-17.58-19.77-15.44-21.71.26-.24.63-.35,1.11-.34h.09s.01.09.01.09c.67,4.05,15.43,20.58,15.58,20.74.15.16,15.11,16.52,19.07,17.59l.08.02Zm-19.3-17.48c-.61-.68-14.76-16.53-15.61-20.76-.38,0-.67.1-.88.28-1.68,1.52,10.59,15.97,15.46,21.41,4.92,5.39,18.06,19.06,19.74,17.54.21-.19.33-.47.37-.84-4.13-1.28-18.47-16.96-19.08-17.63Z"/>
      </g>
      <path class="cls-10" d="m41.57,32.49c8.78,9.72,16.29,19.53,21.15,27.63,3.52,5.87,7.16,13.38,4.46,15.81s-9.8-1.94-15.28-6.04c-7.57-5.65-16.57-14.12-25.35-23.83-8.78-9.72-16.29-19.53-21.15-27.63C1.88,12.56-1.76,5.05.94,2.62s9.8,1.94,15.28,6.04c7.57,5.65,16.57,14.12,25.35,23.83Zm-14.28,12.9c19.42,21.49,35.96,32.76,39.23,29.8s-6.27-20.55-25.69-42.04S4.87.4,1.6,3.35s6.27,20.55,25.69,42.04Z"/>
      <path class="cls-1" d="m13.06,23.2c2.1-1.89,11.6,5.21,21.23,15.86,9.63,10.65,15.73,20.83,13.64,22.72-7.35,6.64-25.83,16.47-39.85.96s-2.37-32.91,4.98-39.55Z"/>
      <g class="cls-13">
        <path class="cls-2" d="m47.99,60.43c-7.35,6.64-25.83,16.47-39.85.96-4.93-5.45-6.68-11.14-6.56-16.51-.46,5.76,1.15,11.96,6.49,17.87,14.01,15.51,32.5,5.68,39.85-.96.38-.34.49-.96.36-1.79-.07.17-.16.32-.29.43Z"/>
      </g>
      <path class="cls-10" d="m34.79,38.62c7.19,7.95,16.74,20.82,13.59,23.67-1.85,1.67-8.59,7.25-17.75,8.95-8.85,1.64-16.81-1.14-23.04-8.03-14.15-15.65-2.9-33.33,5.03-40.49,3.15-2.85,14.99,7.96,22.18,15.91Zm-26.21,23.68c13.43,14.87,31.32,5.84,38.9-1.01.43-.39.38-2.35-2.55-7.23-2.55-4.26-6.51-9.42-11.14-14.54-4.63-5.12-9.37-9.58-13.34-12.55-4.56-3.41-6.51-3.66-6.94-3.26-3.67,3.32-8.31,9.3-10.31,16.14-2.42,8.28-.61,15.84,5.37,22.46Z"/>
      <g>
        <ellipse class="cls-4" cx="37.85" cy="35.85" rx="1.75" ry="2.59" transform="translate(-14.27 34.63) rotate(-42.1)"/>
        <path class="cls-10" d="m39.22,34.61c.99,1.1,1.19,2.55.43,3.24s-2.18.35-3.18-.75-1.19-2.55-.43-3.24,2.18-.35,3.18.75Zm-2.6,2.35c.92,1.02,2.21,1.35,2.89.74s.47-1.93-.44-2.95-2.21-1.35-2.89-.74-.47,1.93.44,2.95Z"/>
      </g>
      <g class="cls-12">
        <path class="cls-9" d="m36.11,33.93c.14-.13.3-.21.48-.27-.3.72-.02,1.79.75,2.64s1.8,1.24,2.55,1.01c-.07.17-.18.33-.31.45-.72.65-2.07.31-3.03-.75s-1.15-2.44-.44-3.09Z"/>
        <path class="cls-10" d="m36.77,33.5l-.08.2c-.29.71,0,1.72.73,2.53s1.71,1.2,2.44.98l.21-.06-.08.2c-.08.19-.19.36-.34.49-.76.69-2.18.35-3.18-.75s-1.19-2.55-.43-3.24c.15-.13.32-.23.52-.29l.21-.06Zm-.15,3.45c.92,1.02,2.21,1.35,2.89.74.07-.07.14-.14.19-.23-.77.11-1.72-.3-2.43-1.09s-1.03-1.77-.84-2.53c-.09.04-.17.1-.24.17-.67.61-.47,1.93.44,2.95Z"/>
      </g>
      <path class="cls-10" d="m39.51,34.35c1.16,1.28,1.33,2.95.4,3.79s-2.57.5-3.73-.78-1.33-2.95-.4-3.79,2.57-.5,3.73.78Zm-2.6,2.35c.76.84,1.83,1.17,2.33.71s.29-1.55-.47-2.39-1.83-1.17-2.33-.71-.29,1.55.47,2.39Z"/>
      <g>
        <ellipse class="cls-4" cx="24.46" cy="21.96" rx="1.75" ry="2.59" transform="translate(-8.37 23.57) rotate(-44.73)"/>
        <path class="cls-10" d="m25.9,20.79c.43.48.72,1.03.83,1.58.12.61-.02,1.15-.37,1.5-.36.35-.89.48-1.5.36-.6-.12-1.2-.46-1.7-.97-.5-.5-.84-1.11-.95-1.71-.12-.61.02-1.15.37-1.5h0c.36-.35.89-.48,1.5-.36.6.12,1.2.46,1.7.97.04.04.09.09.13.13Zm-2.73,2.2s.08.09.12.13c.47.48,1.04.8,1.6.91.54.11,1.01,0,1.32-.3.31-.3.42-.77.32-1.32-.11-.56-.42-1.13-.89-1.61-.47-.48-1.04-.8-1.6-.91-.54-.11-1.01,0-1.32.3h0c-.31.3-.42.77-.32,1.32.1.51.37,1.03.77,1.48Z"/>
      </g>
      <g class="cls-12">
        <path class="cls-9" d="m22.73,20.04c.27-.26.64-.38,1.05-.37-.01.01-.03.02-.04.04-.69.68-.43,2.05.58,3.07.61.62,1.37.96,2.01.98-.7.63-2.04.36-3.03-.64-1-1.02-1.26-2.39-.58-3.07Z"/>
        <path class="cls-10" d="m24.05,19.57l-.19.17s-.02.02-.03.03c-.31.31-.42.77-.32,1.32.11.56.42,1.13.89,1.61.57.58,1.3.93,1.94.95h.26s-.19.18-.19.18c-.75.68-2.14.4-3.17-.64-.5-.51-.84-1.11-.95-1.71-.12-.61.02-1.15.38-1.5.28-.28.67-.42,1.12-.4h.26Zm.08,3.15c-.43-.48-.72-1.03-.83-1.58-.1-.53-.01-1,.24-1.35-.3.03-.55.15-.73.33h0c-.31.3-.42.77-.32,1.32.11.56.42,1.13.89,1.61.84.85,1.97,1.17,2.67.79-.62-.1-1.27-.45-1.8-.98-.04-.04-.08-.09-.12-.13Z"/>
      </g>
      <path class="cls-10" d="m26.2,20.52c.48.53.8,1.15.92,1.77.14.74-.04,1.41-.48,1.85-.45.44-1.12.61-1.86.47-.67-.13-1.35-.52-1.91-1.08-.55-.56-.93-1.24-1.06-1.92-.14-.74.04-1.41.48-1.85h0c.45-.44,1.12-.61,1.86-.47.67.13,1.35.52,1.91,1.08.05.05.09.1.14.15Zm-2.73,2.21s.07.07.1.11c.41.41.92.71,1.39.8.24.05.68.08.97-.2.28-.28.25-.73.21-.96-.09-.48-.38-.99-.79-1.4-.41-.41-.92-.71-1.39-.8-.24-.05-.68-.08-.97.2h0c-.28.28-.25.73-.21.96.08.43.33.9.68,1.29Z"/>
      <g>
        <ellipse class="cls-4" cx="11.43" cy="11.68" rx="1.75" ry="2.59" transform="translate(-4.91 11.43) rotate(-44.76)"/>
        <path class="cls-10" d="m12.87,10.51c.43.48.72,1.03.82,1.58.12.61-.02,1.15-.37,1.5-.36.35-.89.48-1.5.36-.6-.12-1.2-.46-1.7-.97-1.04-1.05-1.3-2.5-.58-3.21.36-.35.89-.48,1.5-.36.6.12,1.2.46,1.7.97.04.04.09.09.13.13Zm-2.73,2.2s.08.09.12.13c.47.48,1.04.8,1.6.91.54.11,1.01,0,1.32-.31.31-.3.42-.77.32-1.32-.11-.56-.42-1.13-.9-1.61-.47-.48-1.04-.8-1.6-.91-.54-.11-1.01,0-1.32.31-.62.61-.41,1.84.46,2.79Z"/>
      </g>
      <g class="cls-12">
        <path class="cls-9" d="m9.61,9.84c.48-.47,1.29-.49,2.08-.1-.33.03-.63.15-.86.37-.69.68-.43,2.05.58,3.07.3.31.64.55.98.71-.69.06-1.53-.29-2.21-.97-1.01-1.01-1.27-2.39-.58-3.07Z"/>
        <path class="cls-10" d="m12.08,9.81l-.38.03c-.32.03-.59.14-.79.34-.64.64-.39,1.95.58,2.92.29.29.62.53.96.69l.35.17-.38.03c-.74.06-1.62-.32-2.29-1-.5-.5-.84-1.11-.95-1.71-.12-.61.02-1.15.37-1.5h0c.5-.49,1.34-.54,2.2-.12l.35.17Zm-.87,3.3c-.94-1.04-1.15-2.39-.45-3.08.15-.15.35-.27.57-.33-.66-.23-1.27-.15-1.65.22-.31.3-.42.77-.32,1.32.11.56.42,1.13.9,1.6.51.51,1.14.85,1.71.93-.23-.15-.44-.32-.64-.52-.04-.04-.08-.09-.12-.13Z"/>
      </g>
      <path class="cls-10" d="m13.16,10.24c.48.53.8,1.15.92,1.77.14.74-.04,1.41-.48,1.85-.45.44-1.12.61-1.86.47-.67-.13-1.35-.52-1.91-1.08-1.22-1.22-1.47-2.88-.58-3.77.45-.44,1.12-.61,1.86-.47.67.13,1.35.52,1.91,1.08.05.05.09.1.14.15Zm-2.73,2.2s.07.08.11.11c.41.41.92.71,1.39.8.24.05.68.08.97-.2.28-.28.25-.73.21-.96-.09-.48-.38-.99-.79-1.4-.41-.41-.92-.71-1.39-.8-.24-.05-.68-.08-.97.2-.46.46-.24,1.46.48,2.25Z"/>
      <g>
        <ellipse class="cls-4" cx="50" cy="50.22" rx="1.75" ry="2.59" transform="translate(-20.52 43.24) rotate(-39.48)"/>
        <path class="cls-10" d="m51.31,48.9s.08.09.12.14c.45.55.73,1.19.79,1.79.06.62-.12,1.14-.51,1.46-.39.32-.93.4-1.53.22-.59-.17-1.16-.57-1.61-1.12-.45-.55-.73-1.19-.79-1.79-.06-.62.12-1.14.51-1.46.39-.32.93-.4,1.53-.22.53.16,1.06.5,1.49.98Zm-2.47,2.5c.41.45.9.77,1.39.92.53.16,1.01.09,1.34-.18h0c.33-.27.49-.73.44-1.28-.05-.57-.32-1.16-.74-1.68-.43-.52-.96-.89-1.51-1.05-.53-.16-1.01-.09-1.34.18-.33.27-.49.73-.44,1.28.05.57.32,1.16.74,1.68.04.05.08.09.11.13Z"/>
      </g>
      <g class="cls-12">
        <path class="cls-9" d="m48.35,48.22c.35-.29.83-.35,1.33-.23-.09.04-.17.09-.24.15-.74.61-.61,2.01.29,3.11.48.59,1.09.98,1.67,1.11-.77.37-1.93-.05-2.75-1.04-.91-1.1-1.04-2.49-.29-3.11Z"/>
        <path class="cls-10" d="m49.99,47.96l-.26.13c-.08.04-.15.09-.22.14-.7.58-.56,1.91.31,2.96.45.55,1.04.94,1.61,1.08l.28.07-.26.13c-.83.4-2.04-.05-2.87-1.07-.94-1.14-1.07-2.61-.28-3.26h0c.36-.3.86-.39,1.42-.25l.28.07Zm-.22,3.5s-.08-.09-.12-.13c-.94-1.14-1.07-2.6-.28-3.25,0,0,.02-.01.03-.02-.38-.04-.72.05-.98.26-.7.58-.56,1.91.31,2.96.67.81,1.62,1.25,2.33,1.11-.46-.18-.92-.5-1.29-.92Z"/>
      </g>
      <path class="cls-10" d="m51.6,48.64s.09.1.13.15c.5.61.81,1.32.88,2.01.07.75-.17,1.4-.65,1.8-.48.4-1.17.51-1.89.29-.66-.19-1.3-.64-1.8-1.25-.5-.61-.81-1.32-.88-2.01-.07-.75.17-1.4.65-1.8.48-.4,1.17-.51,1.89-.29.6.18,1.19.56,1.67,1.09Zm-2.47,2.49c.36.39.79.69,1.22.81.23.07.67.15.98-.11h0c.31-.26.32-.7.29-.94-.05-.48-.28-1.02-.66-1.47-.37-.45-.85-.79-1.32-.93-.23-.07-.67-.15-.98.11-.31.26-.32.7-.29.94.05.48.28,1.02.66,1.47.03.04.07.08.1.11Zm2.51,1.09h0s0,0,0,0Z"/>
      <g>
        <g>
          <ellipse class="cls-3" cx="58.91" cy="64.22" rx="1.75" ry="2.59" transform="translate(-27.39 52.06) rotate(-39.44)"/>
          <path class="cls-10" d="m60.2,62.92s.08.09.12.14c.45.55.73,1.18.78,1.78.06.61-.12,1.13-.5,1.44-.78.64-2.17.24-3.11-.9-.45-.55-.73-1.18-.78-1.78-.06-.61.12-1.13.5-1.44.75-.61,2.06-.27,2.99.76Zm-2.47,2.49c.87.97,2.09,1.3,2.77.74.34-.28.5-.74.45-1.3-.05-.57-.32-1.17-.75-1.69-.88-1.07-2.17-1.46-2.88-.87-.34.28-.5.74-.45,1.3.05.57.32,1.17.75,1.69.04.05.08.09.11.13Z"/>
        </g>
        <path class="cls-10" d="m60.51,62.64c.05.05.09.1.14.16.5.61.81,1.32.88,2.01.07.75-.17,1.4-.65,1.8-.97.8-2.6.38-3.69-.95-.5-.61-.81-1.32-.88-2.01-.07-.75.17-1.4.65-1.8.93-.77,2.46-.41,3.56.8Zm-2.46,2.5c.71.79,1.69,1.11,2.19.7.31-.25.32-.7.3-.94-.05-.48-.28-1.02-.66-1.47-.72-.87-1.77-1.25-2.29-.82-.31.25-.32.7-.3.94.05.48.28,1.02.66,1.47.03.04.07.08.1.12Z"/>
      </g>
      <g>
        <ellipse class="cls-4" cx="58.91" cy="64.22" rx="1.75" ry="2.59" transform="translate(-27.39 52.06) rotate(-39.44)"/>
        <path class="cls-10" d="m60.22,62.91s.08.09.12.14c.45.55.73,1.19.79,1.79.06.62-.12,1.14-.51,1.46-.79.65-2.2.24-3.14-.9-.45-.55-.73-1.19-.79-1.79-.06-.62.12-1.14.51-1.46.76-.62,2.08-.28,3.02.76Zm-2.47,2.49c.86.96,2.06,1.29,2.73.74.33-.27.49-.73.44-1.28-.05-.57-.32-1.16-.74-1.68-.87-1.06-2.15-1.45-2.85-.87-.33.27-.49.73-.44,1.28.05.57.32,1.16.74,1.68.04.05.08.09.11.13Z"/>
      </g>
      <g class="cls-12">
        <path class="cls-9" d="m57.27,62.23c.54-.45,1.4-.36,2.18.15-.37-.02-.7.07-.97.28-.75.61-.62,2.01.29,3.11.25.3.52.55.81.73-.67-.04-1.44-.46-2.03-1.17-.91-1.1-1.04-2.49-.29-3.11Z"/>
        <path class="cls-10" d="m59.83,62.51l-.39-.02c-.35-.02-.66.07-.9.26-.33.27-.49.73-.44,1.28.05.57.32,1.16.74,1.68.24.29.5.53.79.71l.33.21-.39-.02c-.73-.04-1.51-.5-2.1-1.21-.45-.55-.73-1.19-.79-1.79-.06-.62.12-1.14.51-1.46h0c.56-.46,1.47-.4,2.3.15l.33.21Zm-1.02,3.47s-.08-.09-.12-.14c-.45-.55-.73-1.19-.79-1.79-.06-.62.12-1.14.51-1.46.19-.16.42-.25.67-.29-.67-.33-1.33-.33-1.76.02h0c-.33.27-.49.73-.44,1.28.05.57.32,1.16.74,1.68.44.54.99.91,1.54,1.06-.13-.11-.25-.23-.37-.36Z"/>
      </g>
      <path class="cls-10" d="m60.51,62.64c.05.05.09.1.14.16.5.61.81,1.32.88,2.01.07.75-.17,1.4-.65,1.8-.97.8-2.6.38-3.69-.95-.5-.61-.81-1.32-.88-2.01-.07-.75.17-1.4.65-1.8.93-.77,2.46-.41,3.56.8Zm-2.46,2.5c.71.79,1.69,1.11,2.19.7.31-.25.32-.7.3-.94-.05-.48-.28-1.02-.66-1.47-.72-.87-1.77-1.25-2.29-.82-.31.25-.32.7-.3.94.05.48.28,1.02.66,1.47.03.04.07.08.1.12Z"/>
      <path class="cls-10" d="m17.53,9.66c.11.12.16.29.11.45-1.71,6.8,1.36,14.47,1.4,14.54.1.25-.02.54-.27.65-.25.1-.54-.02-.65-.27-.13-.33-3.23-8.04-1.44-15.16.07-.27.34-.43.6-.36.1.02.18.08.25.15Z"/>
      <path class="cls-10" d="m61.56,58.38c.06.07.11.16.12.26.04.27-.15.52-.42.56-6.66.98-13.46-2.22-14.76-2.87-.25-.12-.34-.42-.22-.67.12-.25.42-.34.67-.22,1.25.63,7.81,3.71,14.17,2.78.17-.03.33.04.44.16Z"/>
      <g class="cls-13">
        <path class="cls-2" d="m40.78,62.44s-2.76,3.44-8.95,4.03c-5.29.5-4.83-2.85-2.06-3.52,3.8-.92,6.78-2.51,9.83-4.35,1.74-1.05,4.48.61,1.18,3.84Z"/>
      </g>
      <g class="cls-13">
        <path class="cls-2" d="m25.11,64.21c.77.32,2.54,1.87.35,3.23-2.19,1.36-4.56-.19-4.57-1.51,0-.77,2.11-2.62,4.23-1.72Z"/>
      </g>
      <g class="cls-13">
        <path class="cls-2" d="m59.03,71.88c-2.7-.85-5.98-3.04-8.2-5.75-2.01-2.45,2.7,1.08,4.41,2.26,1.24.85,3.83,2.18,4.87,2.97,1.04.79.62,1.05-1.08.52Z"/>
      </g>
      <g class="cls-12">
        <path class="cls-10" d="m14.71,24.36c-6.37,5.75-16,19.7-8.86,33.38,0,0,0,.01,0,.02-.04-.61-.18-2.95.05-6.11.93-12.65,15.98-18.72,25.43-10.25,5.74,5.15,11.81,11.92,15.91,20.07.11.22.22.43.33.64.08-.07.16-.14.23-.21,2.07-1.87-3.95-11.9-13.44-22.4-6.87-7.61-13.68-13.37-17.7-15.27-.89-.26-1.55-.23-1.95.13Z"/>
      </g>
    </g>
  </g>
</svg>