<?xml version="1.0" encoding="UTF-8"?>
<svg id="Layer_2" data-name="Layer 2" xmlns="http://www.w3.org/2000/svg" viewBox="0 0 305.28 252.88">
  <defs>
    <style>
      .cls-1 {
        fill: #fff;
      }

      .cls-2 {
        fill: #ffda22;
      }

      .cls-3 {
        fill: #371a45;
      }

      .cls-4 {
        opacity: .35;
      }

      .cls-5 {
        opacity: .5;
      }
    </style>
  </defs>
  <g id="planets">
    <g>
      <path class="cls-2" d="m302.57,135.13c-3.05,12.17-7.6,23.86-13.47,34.82-10.82,20.24-26.17,37.97-45.02,51.62-16.27,11.79-35.16,20.53-56.01,25.19C105.98,265.15,24.53,213.5,6.15,131.42-4.06,85.84,7.34,40.43,33.56,5.92c4.9-6.45,15.19-3.39,15.69,4.69.18,2.73.42,5.47.74,8.21.62,5.25,1.51,10.54,2.69,15.8,2.5,11.15,6.15,21.73,10.82,31.65.84,1.77,1.7,3.51,2.59,5.24,2.19,4.23,4.56,8.33,7.11,12.28,1.84,2.87,3.78,5.66,5.8,8.37.98,1.32,1.98,2.62,3,3.9,2.55,3.21,5.23,6.31,8.03,9.29,1.52,1.63,3.08,3.23,4.68,4.79,1.12,1.09,2.25,2.17,3.41,3.23,4.24,3.91,8.7,7.56,13.35,10.95.43.32.86.62,1.29.93,2.6,1.86,5.25,3.63,7.96,5.32.63.39,1.26.78,1.89,1.16,2.7,1.64,5.46,3.18,8.26,4.64,1.51.8,3.04,1.56,4.58,2.3.32.16.65.32.98.47.23.11.45.22.69.32.5.23,1,.46,1.5.68,2.66,1.2,5.35,2.33,8.07,3.38.82.32,1.64.62,2.47.92.89.32,1.78.64,2.67.95,2.35.81,4.74,1.57,7.13,2.26,3.73,1.09,7.5,2.03,11.32,2.83,3.91.81,7.87,1.48,11.85,1.98,5.29.67,10.65,1.07,16.04,1.18,5.06.1,10.18-.05,15.31-.48,1.05-.08,2.1-.18,3.15-.29,2.26-.23,4.52-.51,6.79-.84,3.72-.55,7.46-1.23,11.19-2.07.25-.06.49-.11.74-.17,10.66-2.44,20.81-5.95,30.35-10.39,8.28-3.84,16.1-8.39,23.4-13.54,6.59-4.65,15.46,1.42,13.49,9.25Z"/>
      <g class="cls-4">
        <path class="cls-3" d="m23.73,20.56C6.39,51.97.01,89.6,8.47,127.37c18.38,82.08,99.83,133.72,181.91,115.34,20.86-4.67,39.74-13.41,56.01-25.2,11.76-8.51,22.15-18.62,30.93-29.93-4.49,4.17-9.25,8.08-14.25,11.71-16.27,11.79-35.16,20.53-56.02,25.2-48.96,10.97-97.7-2.99-132.96-33.46,1.92-.65,3.69-1.65,5.24-2.99-.28.24-.57.47-.86.69-.69-.58-1.38-1.16-2.07-1.75,2.32-.79,4.42-2.07,6.18-3.86.45-.46.86-.94,1.25-1.44,0,0,0,0,0,0,3.64-9.04.44-21.97-8.68-31.87-11.18-12.15-27.04-15.12-35.4-6.64-.61.62-1.17,1.28-1.66,1.99-5.69-11.17-10.09-23.22-12.95-36.01-8.45-37.72-2.1-75.31,15.18-106.7-2.49.04-4.99,1.13-6.78,3.48-7.08,9.32-13.07,19.43-17.85,30.13,2.38-5.32,5.06-10.49,8.02-15.49Z"/>
      </g>
      <g class="cls-4">
        <ellipse class="cls-3" cx="231.04" cy="183.19" rx="17.16" ry="14.63" transform="translate(-2.02 2.57) rotate(-.64)"/>
      </g>
      <g class="cls-4">
        <ellipse class="cls-3" cx="140.51" cy="161.41" rx="12.69" ry="20.37" transform="translate(-41.32 274.24) rotate(-80.78)"/>
      </g>
      <ellipse class="cls-2" cx="140.11" cy="165.46" rx="7.99" ry="17.78" transform="translate(-45.66 277.24) rotate(-80.78)"/>
      <ellipse class="cls-2" cx="234.58" cy="188.3" rx="12.89" ry="10.4" transform="translate(-45.35 78.18) rotate(-17.28)"/>
      <path class="cls-2" d="m164.23,215.27c0,1.42-.18,2.86-.56,4.27-2.67,10.02-14.11,15.48-25.54,12.18-8.59-2.48-14.74-9.19-16.13-16.61l42.23.16Z"/>
      <path class="cls-3" d="m164.77,215.27c.47,5.2-1.98,10.64-6.13,14.05-2.05,1.74-4.48,2.98-7.03,3.79-2.56.77-5.24,1.1-7.9.97-5.31-.24-10.49-2.24-14.56-5.6-2.05-1.65-3.76-3.71-5.1-5.95-1.33-2.25-2.18-4.78-2.48-7.33-.03-.24.14-.45.38-.48.21-.03.41.11.47.31h0c1.32,4.75,4.35,8.78,8.19,11.57,3.85,2.78,8.52,4.45,13.23,4.61,2.35.09,4.71-.15,6.96-.81,2.25-.62,4.38-1.67,6.25-3.06,3.73-2.78,6.27-7.18,6.65-12.05.02-.3.28-.52.58-.49.27.02.47.23.49.49h0Z"/>
      <path class="cls-2" d="m55.4,129.73c-5.35-.73-10.52.09-14.94,2.7-8.01,4.72-11.28,13.91-10.45,24.65.54,7.05,3.04,14.63,7.57,21.75,11.43,17.98,31.44,26.22,44.7,18.4,4.94-2.91,8.24-7.63,9.86-13.34,2.73-9.63.2-21.78-6.98-33.07l-29.76-21.1Z"/>
      <path class="cls-3" d="m40.46,132.42c-2.08,1.46-3.86,3.28-5.25,5.32-1.38,2.05-2.4,4.31-3.03,6.68-.65,2.36-.96,4.8-1.01,7.25-.04,2.44.1,4.91.49,7.32.38,2.42,1.01,4.79,1.75,7.12.78,2.32,1.72,4.59,2.84,6.76,2.21,4.37,5,8.46,8.32,12.05,3.27,3.62,7.08,6.78,11.3,9.18,4.19,2.45,8.84,4.1,13.62,4.57,2.39.25,4.8.06,7.14-.41,2.33-.52,4.6-1.43,6.63-2.76,2.05-1.3,3.84-3.01,5.33-4.99,1.48-1.99,2.66-4.24,3.54-6.62-.26,1.24-.6,2.48-1.04,3.68-.45,1.2-1,2.37-1.65,3.5-1.3,2.25-3.06,4.26-5.13,5.91-2.09,1.64-4.52,2.84-7.07,3.63-2.57.75-5.27,1.06-7.93.95-5.36-.16-10.51-1.92-15.16-4.39-4.64-2.52-8.76-5.9-12.32-9.75-3.51-3.9-6.47-8.28-8.72-13.01-2.21-4.74-3.8-9.82-4.3-15.05-.53-5.2-.15-10.56,1.65-15.51.94-2.45,2.24-4.77,3.94-6.74.22-.24.42-.5.64-.73l.7-.68c.45-.47.97-.86,1.46-1.27.5-.41,1.06-.73,1.58-1.09.54-.33,1.12-.62,1.67-.93Z"/>
      <path class="cls-3" d="m230.71,199.02c-3.7.17-7.5-.71-10.81-2.61-1.64-.97-3.15-2.18-4.43-3.64-1.26-1.47-2.29-3.17-2.93-5.05-1.33-3.74-.88-8.04.96-11.55.92-1.76,2.2-3.3,3.66-4.6,1.46-1.29,3.1-2.39,4.87-3.18,1.77-.78,3.64-1.32,5.54-1.64,1.91-.28,3.84-.31,5.75-.13,1.91.24,3.79.69,5.58,1.39,1.79.71,3.46,1.71,4.96,2.91,3.03,2.37,5.22,5.91,5.77,9.74.27,1.91.18,3.86-.35,5.69-.26.91-.61,1.8-1.04,2.63-.42.84-1.01,1.58-1.53,2.35-.13.2-.4.25-.6.11-.19-.13-.24-.39-.12-.59l.02-.03c1.88-2.97,2.62-6.55,1.85-9.85-.7-3.29-2.74-6.2-5.46-8.17-5.41-4.03-13.13-4.61-19.18-1.8-3.01,1.41-5.68,3.63-7.23,6.51-1.57,2.84-1.99,6.28-1.03,9.41.94,3.14,3.19,5.88,6.01,7.77,2.83,1.91,6.25,2.98,9.76,3.24.3.02.52.28.5.57-.02.27-.24.49-.51.5Z"/>
      <path class="cls-3" d="m253.5,174.13c2.11,2.96,3.36,6.6,3.48,10.33.14,3.74-.93,7.49-2.83,10.72-1.87,3.27-4.65,5.93-7.78,7.94-3.15,1.99-6.68,3.35-10.34,3.99-3.65.63-7.41.62-11.05-.08-3.63-.7-7.14-2.1-10.21-4.18-3.06-2.06-5.73-4.78-7.51-8.02-1.76-3.24-2.64-6.96-2.38-10.58.02-.24.22-.42.46-.4.22.02.39.19.4.41h0c.16,3.47,1.25,6.8,3.07,9.65,1.82,2.86,4.39,5.17,7.24,6.94,5.76,3.53,12.86,4.64,19.46,3.43,3.3-.61,6.5-1.78,9.33-3.56,1.44-.85,2.74-1.91,3.97-3.03.58-.59,1.16-1.2,1.69-1.83l.76-.99c.13-.17.26-.33.38-.5l.33-.53.66-1.06c.2-.36.36-.74.55-1.11.4-.73.63-1.53.92-2.31.16-.39.24-.79.33-1.2l.28-1.22c.08-.83.22-1.65.25-2.49.14-3.35-.74-6.74-2.38-9.77-.14-.26-.04-.59.22-.73.24-.13.54-.06.69.16Z"/>
      <g class="cls-4">
        <path class="cls-3" d="m129.51,215.06c.77,4.39,4.59,8.27,10.03,9.62,7.24,1.78,14.61-1.63,16.47-7.62.26-.85.4-1.7.42-2.54.45-9.41-7.62-13.62-14.32-13.77-7.57-.16-13.9,4.6-12.6,14.31Z"/>
      </g>
      <path class="cls-2" d="m130.25,215.59c.77,4.39,4.59,8.27,10.03,9.62,7.24,1.78,14.61-1.63,16.47-7.62.26-.85.4-1.7.42-2.54-1.92-2.97-5.21-5.33-9.36-6.35-7.35-1.81-14.83,1.24-17.56,6.89Z"/>
      <path class="cls-3" d="m146.18,200.69c2.86.61,5.58,2.07,7.71,4.21,1.06,1.08,1.96,2.32,2.65,3.7.68,1.38,1.12,2.9,1.27,4.46.17,1.55,0,3.19-.51,4.68-.48,1.51-1.27,2.94-2.3,4.15-2.11,2.4-5.06,3.91-8.11,4.44-6.13,1.04-12.63-1.63-16.14-6.68-1.75-2.5-2.7-5.64-2.35-8.69.33-3.04,1.96-5.87,4.33-7.61h0c.19-.14.46-.1.6.09.13.17.11.41-.04.56-1.93,1.92-3.05,4.49-3.1,7.09-.08,2.59.91,5.12,2.48,7.15,3.18,4.07,8.72,6.16,13.72,5.25,2.48-.46,4.84-1.63,6.48-3.47,1.63-1.83,2.54-4.29,2.4-6.78-.11-2.5-1.18-4.98-2.87-6.98-1.68-2.03-3.97-3.56-6.52-4.54h0c-.28-.11-.42-.42-.31-.7.1-.25.36-.39.61-.33Z"/>
      <g class="cls-4">
        <ellipse class="cls-3" cx="61.48" cy="164.69" rx="21.29" ry="29.3" transform="translate(-90.99 77.19) rotate(-39.68)"/>
      </g>
      <ellipse class="cls-2" cx="58.92" cy="170.58" rx="16.01" ry="25.39" transform="translate(-102.44 89.76) rotate(-44.34)"/>
      <path class="cls-3" d="m66.06,190.83c2.64.22,5.3-.04,7.71-.91,2.41-.86,4.56-2.34,6.19-4.25,1.64-1.9,2.79-4.22,3.41-6.68.64-2.46.86-5.05.67-7.63-.36-5.16-2.06-10.23-4.68-14.75-2.59-4.54-6.08-8.58-10.24-11.68-4.13-3.1-9.06-5.24-14.07-5.51-2.49-.13-4.98.29-7.21,1.3-2.23,1.02-4.19,2.59-5.64,4.61-1.47,2.01-2.43,4.41-2.97,6.92-.55,2.52-.64,5.16-.4,7.78.44,5.27,2.3,10.42,4.95,15.11.15.27.06.6-.21.76-.25.14-.56.07-.73-.16-3.19-4.54-5.43-9.82-6.31-15.43-.43-2.8-.45-5.7.01-8.56.45-2.86,1.48-5.69,3.15-8.17,1.66-2.48,4.01-4.57,6.74-5.86,2.73-1.32,5.78-1.89,8.74-1.8,2.97.08,5.88.76,8.58,1.83,2.71,1.07,5.23,2.52,7.56,4.21,4.64,3.42,8.4,7.89,11.21,12.85,2.76,4.99,4.59,10.59,4.78,16.38.11,2.88-.22,5.81-1.07,8.62-.86,2.79-2.32,5.46-4.37,7.6-2.06,2.13-4.67,3.7-7.48,4.48-2.81.79-5.75.81-8.52.3-.37-.07-.62-.43-.55-.8.06-.35.38-.59.73-.56h0Z"/>
      <path class="cls-3" d="m124.47,152.46c-1.76,1.61-3.01,3.71-3.05,5.91l-.02.82.11.81c.02.27.1.54.18.8.09.26.13.53.24.78.23.5.41,1.03.73,1.5.15.24.27.49.44.72l.51.68c1.39,1.8,3.25,3.28,5.27,4.47,2.01,1.22,4.22,2.13,6.49,2.83.57.16,1.14.34,1.72.47l1.75.38,1.77.27c.59.07,1.18.12,1.78.18,2.38.18,4.77.08,7.1-.33,2.32-.43,4.61-1.17,6.55-2.46,1.01-.6,1.83-1.42,2.58-2.3.72-.91,1.21-1.97,1.53-3.11v-.04c.08-.23.31-.36.54-.3.21.06.33.26.31.46-.15,1.3-.53,2.62-1.24,3.77-.71,1.13-1.61,2.17-2.67,2.97-2.09,1.67-4.57,2.72-7.11,3.33-2.54.63-5.17.83-7.76.73-2.6-.09-5.18-.55-7.68-1.27-2.5-.73-4.91-1.79-7.16-3.17-1.12-.69-2.17-1.5-3.17-2.38-.49-.45-.96-.93-1.43-1.41l-.64-.78c-.21-.26-.43-.52-.61-.81l-.56-.85c-.19-.28-.32-.61-.48-.91-.34-.59-.55-1.27-.78-1.92-.11-.33-.15-.68-.23-1.02-.07-.34-.14-.68-.14-1.04l-.05-1.05.11-1.05c.18-1.39.75-2.71,1.52-3.82.78-1.12,1.79-2.02,2.88-2.73.25-.16.58-.09.74.16.15.22.1.52-.09.69Z"/>
      <path class="cls-3" d="m136.03,180.14c3.02.94,6.11,1.28,9.16,1.11,3.05-.18,6.08-.85,8.91-1.98,2.84-1.11,5.51-2.69,7.72-4.74,2.2-2.05,3.88-4.68,4.23-7.79h0c.03-.25.24-.42.48-.39.2.02.35.18.38.37.24,1.69-.04,3.45-.65,5.08-.62,1.62-1.59,3.1-2.73,4.38-2.28,2.59-5.23,4.47-8.36,5.77-1.57.65-3.21,1.11-4.88,1.45-1.67.29-3.37.46-5.07.41-3.39-.08-6.8-.93-9.65-2.69-.25-.16-.33-.49-.18-.74.13-.21.39-.3.62-.23h0Z"/>
      <g class="cls-5">
        <path class="cls-1" d="m301.9,129.08c-1.86-4.95-8.21-7.64-13.24-4.09-15.92,11.23-34.28,19.57-54.48,24.1-34.09,7.63-68.07,3.19-97.47-10.5.78.61,1.57,1.2,2.35,1.77-.15-.07-.31-.13-.46-.2-.5-.22-1-.45-1.5-.68-.23-.11-.46-.22-.69-.32-.33-.15-.65-.31-.98-.47-1.17-.56-2.32-1.14-3.47-1.73-.37-.19-.74-.38-1.11-.57-2.62-1.37-5.2-2.81-7.74-4.34-.17-.1-.35-.2-.52-.31-.64-.38-1.26-.77-1.89-1.16-2.71-1.68-5.36-3.46-7.96-5.32-.43-.31-.86-.61-1.29-.93-2.32-1.7-4.6-3.46-6.82-5.28-1.11-.91-2.21-1.84-3.3-2.79s-2.16-1.91-3.22-2.88c-.45-.41-.88-.82-1.32-1.23-.41-.39-.82-.78-1.23-1.17-.29-.28-.58-.55-.86-.83-1.6-1.56-3.16-3.15-4.68-4.79-.52-.56-1.04-1.13-1.56-1.69-2.24-2.46-4.4-4.99-6.47-7.6-.38-.47-.75-.95-1.12-1.43-.63-.82-1.26-1.64-1.88-2.47-.13-.18-.27-.36-.4-.55-.99-1.35-1.96-2.71-2.91-4.09-.84-1.23-1.67-2.47-2.48-3.73-2.55-3.96-4.92-8.05-7.11-12.28-.58-1.11-1.13-2.24-1.68-3.36-.31-.62-.61-1.25-.91-1.88-4.66-9.92-8.32-20.5-10.82-31.65-.44-1.97-.83-3.95-1.19-5.93-.6-3.29-1.11-6.59-1.5-9.87-.06-.53-.11-1.06-.16-1.6-.23-2.21-.43-4.42-.57-6.62-.07-1.15-.35-2.19-.77-3.13-1.44-3.17-4.65-5.02-7.93-5.05-.49,0-.98.04-1.47.12-.31.05-.61.12-.91.2-.35.1-.7.22-1.04.36-.21.09-.42.19-.63.3-.23.12-.45.25-.67.39-.83.54-1.6,1.24-2.27,2.12-.1.13-.19.25-.28.38,5-1.55,10.96,1.68,11.33,7.79.18,2.73.42,5.47.74,8.21.62,5.25,1.51,10.54,2.69,15.8,2.5,11.15,6.15,21.73,10.82,31.65.84,1.77,1.7,3.51,2.6,5.24,2.19,4.23,4.56,8.33,7.11,12.28,1.84,2.87,3.78,5.66,5.8,8.37.98,1.32,1.98,2.62,3,3.9,2.55,3.21,5.23,6.31,8.03,9.29,1.52,1.63,3.08,3.23,4.68,4.79,1.12,1.09,2.25,2.17,3.41,3.23,4.24,3.91,8.7,7.56,13.35,10.95.43.32.86.62,1.29.93,2.6,1.86,5.25,3.63,7.96,5.32.63.39,1.26.78,1.89,1.16,2.7,1.64,5.46,3.18,8.26,4.64,1.51.8,3.04,1.56,4.58,2.3.32.16.65.32.98.47.23.11.45.22.69.32.5.23,1,.46,1.5.68,2.66,1.2,5.35,2.33,8.07,3.38.82.32,1.64.62,2.47.92.89.32,1.78.64,2.67.95,2.35.81,4.74,1.57,7.13,2.26,2.89.85,5.81,1.6,8.76,2.27,57.69,21.72,120.05-16.16,128.17-14.69,5.11.93,3.99,8.69,1.66,16.08-2.39,6.4-5.21,12.62-8.42,18.62-10,18.7-23.87,35.25-40.79,48.43.13-.09.25-.18.38-.27,0,0,.01,0,.02-.01.38-.27.74-.56,1.12-.83,1.28-.95,2.55-1.91,3.8-2.9,1.59-1.25,3.15-2.53,4.68-3.83,3.51-3,6.88-6.14,10.08-9.43,2.01-2.06,3.96-4.18,5.85-6.34,1.89-2.17,3.71-4.39,5.47-6.65.88-1.13,1.74-2.28,2.59-3.44,4.24-5.79,8.06-11.87,11.44-18.19.73-1.37,1.45-2.75,2.14-4.14.35-.7.69-1.39,1.02-2.1,4.36-9.12,7.83-18.69,10.31-28.58.56-2.23.23-4.31-.67-6.05Z"/>
      </g>
      <path class="cls-3" d="m155,252.88c-30.56,0-60.77-9.15-86.48-26.42-30.27-20.33-52.45-50.7-62.45-85.52-.45-1.56-.83-2.97-1.17-4.3-.35-1.38-.7-2.81-1.05-4.36-.26-1.14-.5-2.28-.73-3.41-.23-1.14-.45-2.28-.65-3.41-.2-1.1-.38-2.21-.56-3.31-.1-.6-.18-1.2-.27-1.8-.06-.44-.12-.87-.18-1.3l-.05-.36c-.08-.6-.15-1.17-.22-1.76-.07-.57-.14-1.13-.2-1.7-.06-.57-.12-1.13-.18-1.7-.06-.55-.11-1.12-.16-1.69-.05-.61-.1-1.16-.14-1.71l-.02-.28c-.04-.47-.07-.94-.1-1.41-.01-.18-.03-.41-.04-.63l-.08-1.3c-.03-.55-.06-1.11-.08-1.68-.12-2.72-.17-5.47-.15-8.18v-1.22c.02-.72.04-1.43.07-2.14.01-.4.02-.76.04-1.12.09-2.38.24-4.81.44-7.19l.11-1.29c.02-.19.04-.38.06-.57.04-.5.1-1.05.16-1.61.23-2.12.51-4.32.85-6.54.08-.53.16-1.08.26-1.63.69-4.27,1.58-8.59,2.65-12.82.26-1.01.52-2.02.79-3.03.6-2.18,1.23-4.3,1.87-6.3.13-.43.28-.88.43-1.33.69-2.09,1.45-4.25,2.27-6.41.35-.92.71-1.83,1.07-2.74.52-1.3,1.06-2.61,1.62-3.89.28-.65.57-1.3.86-1.95,1.92-4.28,4.06-8.53,6.38-12.64.79-1.4,1.62-2.81,2.45-4.19.47-.78.96-1.57,1.45-2.35.52-.84,1.06-1.67,1.6-2.5.94-1.43,1.93-2.89,3.03-4.45.69-.98,1.39-1.94,2.1-2.89.35-.48.71-.95,1.07-1.42.24-.32.49-.62.76-.9.05-.05.11-.13.19-.2.11-.11.22-.22.33-.32.07-.07.13-.13.21-.19.06-.05.12-.1.18-.15l.1-.08c.14-.12.23-.19.33-.26l.11-.09c.07-.06.14-.11.22-.17l.09-.06c1.75-1.25,3.84-1.94,6.03-1.99.01,0,.08,0,.14,0h.3s.04,0,.04,0c.46,0,.93.05,1.41.12,5.06.73,8.91,4.6,9.56,9.64.03.25.06.51.08.78.05.78.1,1.53.16,2.28.04.49.08.95.12,1.41.07.82.15,1.64.24,2.45.05.53.11,1.03.16,1.53.33,2.87.74,5.76,1.23,8.59.08.5.17.98.26,1.45.09.52.19,1.01.28,1.5.24,1.23.49,2.46.76,3.68l.15.66c.1.43.19.86.29,1.29l.06.25c.13.56.26,1.09.39,1.62.08.34.16.65.24.96.12.48.24.94.36,1.4.04.15.06.24.09.33l.02.09c.16.63.34,1.25.51,1.87.2.71.4,1.4.6,2.08.27.93.56,1.84.85,2.76.15.48.3.95.46,1.43l.31.94c7.11,21.18,18.61,40.08,34.18,56.17,25.36,26.21,59.21,42.33,95.32,45.41,8.45.72,17.02.72,25.48-.02.34-.03.67-.06.99-.09l.49-.05c.25-.02.5-.05.76-.08.58-.05,1.12-.11,1.65-.17.34-.04.66-.08.99-.12.93-.11,1.83-.23,2.74-.36,1.17-.16,2.34-.34,3.5-.52.67-.11,1.36-.23,2.06-.35.72-.13,1.44-.26,2.16-.4l.12-.02c.71-.14,1.42-.28,2.14-.43.68-.14,1.36-.29,2.04-.44,3.68-.82,7.39-1.79,11.03-2.89.61-.19,1.2-.37,1.79-.55.61-.19,1.2-.39,1.79-.58.58-.19,1.14-.38,1.7-.57l.08-.03c10.98-3.78,21.51-8.84,31.3-15.05l.45-.29c.36-.23.71-.45,1.07-.68l1.21-.8c.64-.42,1.26-.84,1.89-1.27l1.52-1.06c1.3-.92,2.76-1.55,4.29-1.84.25-.05.5-.09.76-.12.47-.06.95-.09,1.46-.08l.64.03c.75.05,1.5.19,2.22.39,1.55.45,3.01,1.23,4.25,2.27,1.67,1.42,2.88,3.25,3.5,5.3.47,1.58.58,3.23.31,4.89-.02.14-.05.33-.09.52-.04.21-.08.37-.13.54-.32,1.27-.68,2.63-1.1,4.12-.19.69-.39,1.37-.59,2.06-.59,2.01-1.25,4.06-1.95,6.11-.52,1.5-.99,2.82-1.44,4.03-2.21,5.92-4.8,11.74-7.69,17.3-.3.58-.6,1.15-.9,1.72-.35.65-.7,1.29-1.05,1.93-.32.57-.64,1.15-.96,1.73-.85,1.49-1.61,2.77-2.33,3.94-1.48,2.43-3.05,4.86-4.67,7.21-.1.15-.2.29-.3.43l-.5.72c-.16.23-.32.45-.48.68l-.05.07s-.07.1-.12.16l-.25.35c-.17.24-.34.47-.51.71l-.39.53c-.1.14-.2.28-.31.42-.18.25-.37.51-.56.76l-.06.08c-.13.18-.26.35-.4.53-.18.24-.36.48-.54.72l-.46.6c-.11.15-.22.29-.33.43-.06.08-.12.16-.19.24-.37.47-.73.94-1.11,1.41-.04.06-.1.14-.18.22-.23.3-.47.59-.7.88l-.11.13c-.15.19-.31.37-.46.56-.41.5-.86,1.04-1.31,1.58-.07.09-.11.13-.15.18-.08.09-.14.16-.2.23-.19.22-.37.44-.56.65-.18.21-.37.44-.58.67-.09.11-.19.22-.28.33l-.22.26c-.27.31-.54.61-.81.92l-.23.26c-.31.35-.65.71-.98,1.08-.12.14-.24.27-.36.4l-.14.16c-.29.31-.55.59-.82.87l-.03.03c-.12.13-.24.26-.36.38-.2.22-.44.47-.68.72l-.32.34c-.24.24-.47.49-.71.73l-.33.34c-.39.4-.78.79-1.17,1.18-.07.07-.14.14-.21.21l-.97.95c-.08.09-.2.2-.33.32l-.78.75c-.3.29-.6.58-.91.86-.33.32-.68.64-1.03.96-.15.14-.29.28-.45.41-.39.36-.78.72-1.18,1.07-.13.12-.3.27-.47.42l-.11.1c-.08.08-.21.18-.33.29l-.07.06c-.13.11-.28.25-.45.39-.21.19-.46.4-.72.62l-.07.06c-.05.05-.1.09-.15.13l-.12.1c-.42.37-.85.73-1.28,1.09-.13.11-.29.24-.45.38-.34.29-.73.61-1.11.92l-.24.2c-.08.07-.16.14-.24.2-.12.1-.24.2-.36.29-.35.29-.71.57-1.07.86l-.03.03-.53.41c-.3.24-.6.47-.91.71-.13.1-.29.23-.46.35-.46.36-.91.7-1.35,1.03-.24.19-.52.4-.81.6-.26.19-.54.4-.83.61h0s-1.91,1.38-1.91,1.38c-.06.05-.17.12-.28.2-.34.24-.69.48-1.04.72l-.35.24c-.91.63-1.88,1.29-3.07,2.06-1.38.9-2.65,1.7-3.88,2.45-.42.26-.88.54-1.34.81-.08.05-.15.1-.23.14-.24.15-.49.29-.74.43-.23.14-.5.3-.77.45-.35.2-.72.42-1.1.63l-.31.17c-.47.27-.95.53-1.43.8-.09.05-.2.11-.31.17-.38.21-.77.42-1.16.63-.41.22-.85.46-1.3.69-.31.16-.61.32-.9.47-.11.06-.22.12-.34.18-.13.07-.26.13-.39.2-.33.17-.66.34-.99.5-.59.3-1.19.59-1.8.88-.89.43-1.79.85-2.69,1.27l-1.93.9h-.02c-.1.04-.21.08-.31.13l-1.41.63h-.02c-.31.13-.62.26-.93.38l-.62.26c-.3.12-.56.23-.83.34-.1.05-.21.09-.32.13-.18.08-.37.15-.55.23l-.33.13c-.23.09-.47.18-.7.27-.05.02-.12.05-.19.08l-.38.15c-.35.14-.66.26-.97.37l-.1.04c-.11.04-.22.09-.33.13-.04.02-.08.03-.12.05-.21.08-.42.16-.64.24-.17.07-.35.14-.53.2-.1.04-.21.07-.32.11-.09.04-.18.07-.27.1-.14.05-.28.1-.42.15-.25.09-.5.18-.76.27l-.88-2.28.8,2.3-.56.2c-.14.05-.28.1-.43.15-.28.1-.56.19-.85.29l-.65.22c-.4.14-.82.27-1.24.41l-1.27.41c-.42.13-.84.26-1.26.39-.62.19-1.24.38-1.86.55-.11.04-.21.07-.32.1-.23.07-.45.13-.68.2v.02s-2.1.57-2.1.57c-.45.12-.91.24-1.37.36l-.91.23c-.24.07-.51.13-.79.2-.17.05-.34.09-.52.13-.31.08-.62.15-.92.22-.16.04-.31.08-.47.11-.24.06-.48.11-.71.17l-.12.03c-.29.07-.59.13-.88.2-.24.06-.52.12-.8.18l-.33.07c-.23.05-.46.1-.69.15-.17.04-.34.07-.51.11l-.03.05-1.22.2c-.45.09-.9.18-1.34.26-.3.06-.56.11-.82.15l-.31.06c-.39.07-.79.15-1.19.22l-.17.03c-.09.02-.17.03-.26.04-.52.09-1.1.19-1.67.28l-.39.06c-.45.07-.89.14-1.33.2-.36.05-.73.11-1.11.16l-2.28.31c-.57.07-1.14.14-1.71.21-.4.05-.8.09-1.2.13l-.5.05c-5.26.55-10.53.82-15.78.82ZM36.33,6.48l-.04.03c-.08.08-.13.12-.18.17l-.17.18c-.14.15-.28.31-.41.49-.35.46-.7.93-1.05,1.39-.69.93-1.37,1.86-2.03,2.8-1.06,1.51-2.02,2.92-2.93,4.3-.52.8-1.04,1.6-1.55,2.41-.48.76-.95,1.53-1.41,2.29-.81,1.33-1.61,2.7-2.37,4.05-2.24,3.98-4.32,8.1-6.18,12.24h0c-.28.63-.56,1.26-.83,1.89-.53,1.23-1.06,2.5-1.57,3.76-.36.89-.7,1.76-1.04,2.65-.79,2.09-1.53,4.18-2.2,6.22-.14.43-.28.84-.41,1.26-.63,1.95-1.24,4.01-1.82,6.12-.27.97-.52,1.95-.77,2.94-1.03,4.1-1.9,8.28-2.57,12.42-.09.53-.17,1.04-.24,1.56-.33,2.16-.6,4.29-.82,6.35-.06.53-.11,1.05-.16,1.58-.02.21-.04.37-.05.52l-.11,1.26c-.2,2.31-.34,4.66-.43,6.98-.02.35-.03.69-.03,1.02v.07c-.03.68-.04,1.35-.05,2.03v1.21c-.04,2.62.01,5.28.13,7.92.02.55.05,1.08.08,1.62l.07,1.26c.01.2.03.41.04.61.03.48.06.92.1,1.37l.02.3c.04.53.09,1.06.13,1.58.05.6.11,1.15.16,1.7.05.56.11,1.11.17,1.65.06.55.13,1.09.19,1.64.07.57.14,1.13.22,1.69l.05.35c.06.42.12.84.18,1.26.09.58.17,1.16.27,1.75.17,1.07.35,2.14.54,3.21.2,1.1.41,2.2.63,3.31.22,1.09.46,2.2.71,3.3.34,1.51.68,2.89,1.02,4.23.33,1.29.7,2.66,1.14,4.17,18.62,64.8,77.66,108.43,143.82,108.43,5.19,0,10.42-.27,15.69-.82l.49-.05c.38-.04.77-.08,1.15-.13.55-.06,1.1-.13,1.65-.2l2.22-.3c.36-.05.72-.1,1.09-.16.44-.06.86-.13,1.28-.2l.39-.06c.54-.09,1.09-.18,1.64-.27l.18-.03c.09-.02.17-.03.26-.04.33-.06.71-.13,1.1-.2l.33-.06c.24-.04.49-.09.73-.14.12-.02.24-.04.35-.07l.04-.07,1.34-.2c.43-.09.89-.18,1.35-.28.22-.04.43-.09.63-.14l.34-.07c.25-.06.51-.11.78-.17.28-.06.52-.11.75-.17l.12-.03c.26-.06.53-.12.79-.19l.14-.03c.06-.01.12-.03.19-.05l.1-.02c.29-.07.6-.14.89-.21.16-.04.29-.07.42-.11l.12-.03c.24-.06.47-.11.7-.18l.93-.24c.42-.11.87-.23,1.32-.35l1.06-.29c.56-.16,1.13-.32,1.69-.48l.2-.06c.62-.17,1.23-.36,1.85-.55.41-.13.82-.26,1.23-.38l1.22-.39c.41-.13.81-.27,1.22-.4l.66-.22c.27-.09.52-.17.76-.26l.14-.05c.06-.02.12-.04.18-.06l.58-.2c.08-.03.16-.06.24-.08.2-.07.42-.15.64-.23l.1-.03c.1-.03.2-.07.3-.11l.33-.12c.11-.04.22-.08.32-.11.14-.05.26-.1.38-.14l.08-.03c.2-.07.4-.14.59-.22l.19-.07c.08-.03.17-.06.25-.1l.16-.06c.31-.11.58-.22.85-.33l.57-.23c.24-.09.47-.18.71-.28l.33-.13c.16-.07.35-.14.53-.22l.32-.13c.25-.1.5-.2.75-.3l.62-.27c.38-.16.73-.31,1.08-.46.21-.09.43-.19.65-.28l.54-.24c.42-.19.85-.38,1.27-.57l1.1-.62.12.06c.79-.36,1.57-.73,2.34-1.1.58-.28,1.16-.57,1.73-.85.32-.16.64-.32.95-.48l.08-.04c.09-.04.18-.09.27-.13l.12-.06c.06-.03.11-.06.17-.09l.07-.04c.29-.15.57-.3.86-.45.46-.24.88-.46,1.29-.68.41-.22.78-.42,1.16-.63l.22-.11c.5-.27.96-.53,1.42-.79l.31-.18c.36-.2.71-.4,1.07-.61.26-.15.49-.28.72-.42.27-.16.51-.3.75-.44l.15-.1c.45-.26.89-.53,1.33-.8,1.22-.74,2.44-1.51,3.77-2.38,1.15-.75,2.09-1.38,2.96-1.98l.36-.25c.34-.23.68-.47,1.02-.7.09-.06.14-.1.19-.13l1.47-1.06c.44-.32.86-.63,1.28-.93.27-.19.51-.37.74-.55.47-.35.9-.68,1.32-1.01l.1-.08c.11-.08.21-.16.31-.24.34-.26.63-.49.92-.72l.46-.37c.37-.29.74-.59,1.11-.89l.06-.04c.07-.06.15-.11.22-.17l.54-.44c.37-.3.74-.61,1.11-.92.16-.13.28-.23.4-.33.45-.37.85-.72,1.26-1.07l.36-.31c.22-.19.45-.38.66-.58.18-.15.3-.26.43-.38l.11-.1c.09-.07.17-.15.25-.22l.15-.13c.14-.13.29-.25.43-.38.42-.37.8-.72,1.18-1.07l.06-.05c.1-.09.2-.18.3-.28l.07-.06c.34-.3.66-.62.99-.93.3-.28.58-.55.87-.83l.82-.78c.1-.09.16-.16.23-.22l1.18-1.17c.37-.37.75-.74,1.11-1.12l.35-.36c.24-.25.47-.48.69-.71l.3-.31c.23-.24.45-.47.67-.71.13-.13.21-.23.3-.32l.07-.07c.28-.3.53-.56.78-.83l.15-.16c.1-.11.19-.21.29-.32l.05-.06c.33-.36.66-.72.98-1.08l.24-.27c.23-.26.49-.55.74-.83.04-.04.07-.08.11-.12l.12-.14c.07-.08.15-.17.22-.25l.08-.09c.18-.2.36-.41.54-.62.18-.21.34-.39.5-.59.11-.13.22-.26.33-.39.01-.02.05-.06.09-.11.39-.46.81-.97,1.23-1.48.17-.2.31-.37.44-.53l.1-.12c.24-.29.48-.59.72-.9l.17-.21c.35-.44.7-.88,1.04-1.32.04-.05.07-.09.11-.14l.17-.21c.05-.06.1-.12.15-.19l.54-.7c.16-.21.32-.42.47-.63l.09-.12c.11-.14.22-.28.32-.42l.04-.06c.19-.26.37-.5.55-.75l.05-.07c.06-.08.13-.17.19-.26l.45-.61c.15-.21.31-.42.46-.64l.44-.61c.16-.23.32-.45.48-.68l.31-.45.2-.29c.1-.14.17-.23.23-.33,1.58-2.29,3.1-4.64,4.54-7.01.69-1.13,1.43-2.37,2.25-3.8.31-.55.63-1.12.94-1.68.35-.62.68-1.25,1.02-1.87.29-.55.59-1.11.88-1.67,2.79-5.38,5.3-11.02,7.44-16.76.44-1.17.9-2.45,1.39-3.9.67-1.98,1.31-3.97,1.88-5.92.2-.66.39-1.33.57-1.99.4-1.44.75-2.75,1.07-4.01.03-.13.05-.22.07-.32.02-.07.03-.15.04-.24.16-.99.1-1.91-.16-2.78-.34-1.14-1.03-2.17-1.97-2.98-.71-.6-1.56-1.05-2.45-1.31-.51-.15-1.04-.22-1.58-.23h-.18c-.22,0-.41.01-.6.04h-.09c-.12.02-.24.04-.36.07-.86.17-1.68.52-2.44,1.06l-1.51,1.06c-.66.46-1.32.9-1.98,1.33l-1.22.81c-.38.25-.76.49-1.14.73l-.45.28c-10.12,6.41-21,11.64-32.34,15.55l-.08.03c-.58.2-1.17.4-1.76.59-.6.2-1.22.4-1.85.6-.59.19-1.2.38-1.81.56-3.79,1.15-7.62,2.15-11.42,3-.7.16-1.4.3-2.1.45-.75.16-1.49.3-2.24.45l-.13.03c-.74.14-1.48.28-2.22.41-.7.12-1.4.24-2.11.36-1.22.2-2.42.38-3.62.54-.94.13-1.88.26-2.83.37-.35.04-.69.08-1.04.12-.56.06-1.13.13-1.7.18-.25.03-.52.06-.8.08l-.49.05c-.35.03-.69.07-1.04.09-8.72.76-17.58.77-26.3.02-37.28-3.18-72.23-19.83-98.41-46.88-16.08-16.62-27.96-36.14-35.3-58.01l-.32-.97c-.16-.49-.32-.98-.47-1.48-.3-.95-.6-1.89-.88-2.84-.21-.71-.42-1.43-.62-2.15-.18-.63-.36-1.27-.53-1.92-.04-.15-.08-.3-.12-.45-.12-.46-.25-.94-.37-1.42-.08-.32-.17-.66-.25-1-.13-.53-.27-1.09-.4-1.65l-.06-.24c-.11-.47-.21-.92-.31-1.37l-.16-.74c-.27-1.21-.52-2.47-.77-3.73-.1-.52-.2-1.04-.3-1.57-.09-.49-.18-1-.27-1.51-.51-2.9-.93-5.89-1.27-8.85-.06-.53-.12-1.05-.17-1.58-.09-.82-.17-1.67-.24-2.52-.04-.49-.09-.98-.12-1.47-.06-.76-.12-1.55-.17-2.35,0-.14-.02-.3-.04-.45-.43-3.29-3.03-5.11-5.42-5.45-.26-.04-.52-.06-.75-.07h-.3c-1.24.04-2.39.42-3.36,1.11l-.61.49Zm148.57,241.09h0s-.03-.13-.03-.13l.03.13Zm31.68-12.86s0,0,0,0h0Zm60.33-49.71s-.02.02-.02.03l.02-.03ZM15.78,35.86h0,0Z"/>
      <path class="cls-2" d="m49.67,81.44c.47-4.14.21-8.82-.9-13.68-3.32-14.58-13.03-25.2-21.69-23.73-8.65,1.47-12.98,14.49-9.65,29.06,3.32,14.58,13.03,25.2,21.69,23.73l10.55-15.38Z"/>
      <path class="cls-3" d="m24.93,45.25c-2.16,1.5-3.75,3.68-4.83,6.08-1.08,2.4-1.7,5.02-2.05,7.66-.35,2.64-.41,5.33-.27,8,.07,1.33.19,2.67.39,3.97.1.65.21,1.3.37,1.92.2.64.38,1.28.59,1.91,1.66,5.05,3.93,9.9,7.14,14.03.79,1.04,1.65,2.01,2.58,2.91.92.91,1.92,1.73,2.98,2.44,1.06.71,2.21,1.29,3.42,1.7,1.21.38,2.49.58,3.81.53h.01c.24-.01.44.17.45.41,0,.21-.13.38-.32.44-1.38.38-2.88.45-4.33.21-1.45-.23-2.84-.75-4.13-1.41-1.29-.67-2.48-1.51-3.59-2.43-1.09-.94-2.1-1.97-3.03-3.05-3.68-4.39-6.07-9.67-7.34-15.13-.17-.68-.29-1.37-.42-2.06-.15-.72-.26-1.42-.34-2.12-.17-1.4-.26-2.79-.3-4.19-.07-2.79.11-5.58.56-8.35.46-2.76,1.22-5.49,2.5-8.03,1.26-2.53,3.13-4.83,5.56-6.34.25-.16.58-.08.74.17.15.24.08.56-.15.72Z"/>
      <g class="cls-4">
        <path class="cls-3" d="m23.24,67.79c.48,4.46,1.97,8.69,4.02,12.04,2.41,3.93,5.59,6.66,8.86,7.15,6.06.92,10.12-6.18,9.07-15.86-1-9.24-6.29-17.48-12.05-19.01-.27-.08-.55-.13-.83-.17-6.06-.92-10.12,6.18-9.07,15.86Z"/>
      </g>
      <ellipse class="cls-2" cx="35.84" cy="77.04" rx="7.91" ry="14.2" transform="translate(-30.69 24.19) rotate(-26.59)"/>
      <path class="cls-3" d="m44.47,77.49c.11-3.08-.29-6.16-1.17-9.09-.83-2.94-2.12-5.73-3.82-8.18-.88-1.2-1.84-2.33-2.93-3.26-1.08-.93-2.3-1.67-3.55-2.01-1.24-.35-2.51-.27-3.6.26-1.1.52-2.01,1.51-2.7,2.69-.69,1.19-1.16,2.57-1.45,4-.3,1.43-.43,2.91-.42,4.41-.03.75.06,1.5.09,2.24.1.75.15,1.5.3,2.24.23,1.49.63,2.96,1.08,4.4.49,1.43,1.07,2.83,1.77,4.17.71,1.33,1.54,2.6,2.5,3.75.97,1.14,2.09,2.15,3.36,2.9,1.26.74,2.71,1.18,4.18,1.04h0c.24-.02.45.15.47.39.02.22-.13.41-.33.46-1.66.38-3.44.06-4.96-.65-1.54-.7-2.87-1.75-4.05-2.92-1.16-1.19-2.14-2.52-3.02-3.92-.87-1.4-1.55-2.9-2.17-4.42-.55-1.54-1.08-3.11-1.38-4.73-.19-.8-.27-1.63-.41-2.44-.06-.83-.18-1.65-.17-2.48-.07-1.66.06-3.34.39-5.01.33-1.66.85-3.32,1.73-4.88.86-1.54,2.18-2.99,3.95-3.84,1.75-.86,3.84-.94,5.62-.41,1.79.53,3.29,1.55,4.57,2.7,1.28,1.16,2.34,2.48,3.25,3.88.89,1.41,1.63,2.89,2.26,4.41.57,1.54,1.08,3.1,1.4,4.7.68,3.18.84,6.5.28,9.69-.05.29-.33.49-.62.43-.27-.05-.45-.28-.44-.55h0Z"/>
    </g>
  </g>
</svg>