<?xml version="1.0" encoding="UTF-8"?>
<svg id="Layer_2" data-name="Layer 2" xmlns="http://www.w3.org/2000/svg" viewBox="0 0 1306.13 175.46">
  <defs>
    <style>
      .cls-1 {
        fill: #ff9d33;
      }

      .cls-2 {
        fill: #ffd243;
      }

      .cls-3 {
        fill: #371b45;
      }
    </style>
  </defs>
  <g id="Layer_2-2" data-name="Layer 2">
    <g>
      <polygon class="cls-1" points="9.53 52.11 9.56 124.94 1289.56 124.94 1289.56 49.59 1121.76 28.17 1006.27 22.6 809.75 8.62 614.05 5.14 389.04 10.11 284.28 22.54 174.64 30.27 31.99 48.84 9.53 52.11"/>
      <g>
        <path class="cls-2" d="m547.09,116.62c7.88-5.89,13.24-13.14,15.02-21.28,3.21-14.76-6.21-28.23-23.14-38.19-11.1-6.54-25.49-11.2-41.77-12.88-41.1-4.24-78.73,12.14-84.05,36.58-1.98,9.1.79,18.03,7.17,25.87,10.76,13.24,31.93,22.54,57.73,25.21"/>
        <path class="cls-3" d="m560.55,95c.49-3.73.18-7.46-.89-10.92-1.05-3.47-2.88-6.68-5.14-9.55-2.25-2.9-4.96-5.48-7.91-7.78-2.93-2.33-6.11-4.39-9.43-6.23-6.61-3.65-13.75-6.45-21.13-8.42-7.36-2.06-14.98-3.24-22.63-3.89-15.29-1.21-30.9.21-45.45,4.91-7.23,2.42-14.24,5.64-20.27,10.2-6.02,4.5-11.08,10.46-13.3,17.78v.02c-.21.68-.93,1.06-1.61.86-.62-.19-.99-.8-.9-1.42.31-2.06.83-4.1,1.55-6.07.74-1.97,1.68-3.86,2.76-5.66,2.18-3.61,4.98-6.8,8.07-9.62,6.24-5.59,13.59-9.73,21.28-12.73,7.69-3.06,15.76-4.96,23.9-6.08,8.15-1.13,16.41-1.26,24.6-.72,8.2.57,16.33,2.04,24.28,4.29,3.97,1.14,7.86,2.58,11.67,4.22,3.8,1.66,7.53,3.52,11.06,5.75,3.51,2.22,6.9,4.68,10.04,7.48,3.1,2.84,5.97,6.02,8.32,9.61,2.32,3.6,4.12,7.64,4.9,11.91.39,2.13.53,4.31.42,6.45-.13,2.14-.51,4.25-1.1,6.27-.25.85-1.13,1.33-1.98,1.08-.77-.22-1.24-.97-1.14-1.74v-.02Z"/>
        <path class="cls-1" d="m491.04,122.51c31.49-1.41,55.52-17.85,53.68-36.71-1.85-18.86-28.88-32.99-60.37-31.58-31.49,1.41-55.52,17.85-53.68,36.7,1.85,18.86,28.88,33,60.37,31.58"/>
        <path class="cls-2" d="m487.67,104.5c26.55-2.83,45.65-16.23,42.67-29.92-2.98-13.69-26.91-22.49-53.46-19.66-26.54,2.83-45.65,16.23-42.67,29.92,2.98,13.69,26.91,22.49,53.46,19.66"/>
        <path class="cls-3" d="m443.3,67.75c-1.8,1.55-3.48,3.21-4.89,5.04-1.45,1.8-2.66,3.74-3.52,5.79-.87,2.04-1.44,4.17-1.6,6.31-.16,2.14.07,4.27.65,6.31,1.13,4.11,3.67,7.83,6.87,10.94,3.18,3.15,7.02,5.74,11.11,7.87,4.12,2.1,8.48,3.78,12.97,5.08,4.51,1.26,9.13,2.17,13.81,2.68,9.35,1.14,18.88.83,28.05-.95,9.13-1.77,18.08-5.15,25.04-10.67,3.45-2.75,6.3-6.11,7.83-9.91,1.54-3.8,1.8-7.96.56-11.94-1.21-4.01-3.81-7.71-7-10.94-3.19-3.25-7.08-5.92-11.19-8.23-8.28-4.6-17.65-7.38-27.23-9.02h-.01c-.7-.12-1.17-.79-1.05-1.49.11-.65.69-1.1,1.32-1.07,9.98.45,20.03,2.53,29.38,6.79,4.65,2.17,9.13,4.88,13.11,8.41,3.97,3.49,7.44,7.92,9.38,13.29.96,2.67,1.49,5.56,1.48,8.47,0,2.91-.57,5.81-1.58,8.51-2.03,5.43-5.7,9.89-9.82,13.38-4.14,3.53-8.82,6.17-13.64,8.23-4.83,2.07-9.84,3.54-14.91,4.59-5.07,1.05-10.23,1.57-15.37,1.71-5.15.16-10.29-.14-15.39-.78-10.17-1.42-20.28-4.28-29.38-9.48-4.52-2.62-8.84-5.76-12.47-9.74-3.59-3.96-6.56-8.83-7.71-14.35-.56-2.74-.62-5.61-.18-8.36.45-2.75,1.36-5.39,2.68-7.76,1.3-2.38,2.95-4.5,4.78-6.37,1.84-1.87,3.89-3.46,6.02-4.89.73-.49,1.72-.3,2.21.43.46.68.32,1.58-.28,2.1l-.02.02Z"/>
        <path class="cls-2" d="m170.93,98.61c4.96-4.85,8.03-10.41,8.51-16.27.87-10.61-6.97-19.14-19.72-24.53-8.37-3.53-18.85-5.45-30.38-5.11-29.11.87-53.87,15.81-55.31,33.38-.54,6.54,2.23,12.52,7.42,17.41,8.75,8.25,24.4,12.77,42.68,12.23"/>
        <path class="cls-3" d="m178.44,82.27c.02-2.67-.53-5.27-1.59-7.62-1.05-2.36-2.63-4.46-4.49-6.29-1.85-1.84-3.99-3.41-6.27-4.76-2.27-1.37-4.7-2.53-7.2-3.52-4.98-1.96-10.25-3.26-15.62-3.97-5.36-.76-10.81-.89-16.24-.61-10.84.58-21.65,3.07-31.4,7.76-4.84,2.38-9.45,5.33-13.23,9.12-1.9,1.88-3.56,3.99-4.91,6.29-1.3,2.31-2.25,4.84-2.68,7.51v.02c-.07.44-.49.73-.92.67-.4-.07-.69-.42-.68-.81.08-2.92.78-5.84,1.97-8.54,1.2-2.69,2.87-5.15,4.76-7.39,3.83-4.45,8.57-7.99,13.65-10.77,5.08-2.81,10.51-4.91,16.08-6.41,5.57-1.54,11.31-2.38,17.06-2.77,5.76-.36,11.56-.1,17.29.72,5.72.89,11.39,2.4,16.73,4.8,2.65,1.21,5.24,2.6,7.68,4.25,2.42,1.68,4.71,3.61,6.68,5.87,1.95,2.27,3.58,4.89,4.53,7.77.96,2.87,1.21,5.96.77,8.87-.08.54-.59.92-1.14.84-.5-.08-.85-.51-.85-1"/>
        <path class="cls-1" d="m132.32,107.95c21.87-3.92,37.13-17.64,34.08-30.64-3.05-13-23.25-20.36-45.11-16.44-21.87,3.92-37.13,17.64-34.08,30.64,3.05,13,23.25,20.36,45.11,16.44"/>
        <path class="cls-2" d="m128.29,95.68c18.28-4.45,30.38-15.59,27.02-24.87-3.36-9.29-20.89-13.21-39.17-8.76-18.28,4.45-30.38,15.59-27.02,24.87,3.36,9.29,20.89,13.21,39.18,8.76"/>
        <path class="cls-3" d="m93.78,74.05c-1.13,1.24-2.16,2.56-2.99,3.97-.87,1.39-1.55,2.87-1.99,4.39-.91,3.05-.74,6.27.49,9.06,1.18,2.82,3.32,5.23,5.87,7.13,2.54,1.94,5.48,3.41,8.56,4.53,6.18,2.21,12.89,3.12,19.55,2.99,6.67-.07,13.34-1.18,19.62-3.29,6.25-2.1,12.23-5.32,16.62-9.89,2.17-2.27,3.88-4.93,4.61-7.8.74-2.86.51-5.87-.77-8.59-1.25-2.73-3.46-5.11-6.01-7.07-2.57-1.98-5.56-3.48-8.66-4.71-6.25-2.47-13.09-3.45-19.94-3.66h-.01c-.44-.02-.79-.39-.78-.83.01-.41.34-.74.74-.77,3.5-.28,7.05-.3,10.58.07,3.53.34,7.05,1,10.5,2.04,3.43,1.09,6.79,2.57,9.86,4.65,3.06,2.06,5.86,4.81,7.68,8.33,1.84,3.49,2.42,7.79,1.47,11.67-.9,3.92-3.03,7.32-5.56,10.12-2.54,2.82-5.54,5.08-8.69,6.95-3.16,1.88-6.51,3.37-9.93,4.56-6.87,2.37-14.09,3.44-21.3,3.5-7.2-.03-14.49-1.08-21.29-3.83-3.38-1.39-6.67-3.16-9.55-5.58-2.86-2.4-5.36-5.48-6.67-9.18-1.31-3.69-1.14-7.82.22-11.33.67-1.77,1.59-3.4,2.68-4.88,1.1-1.47,2.37-2.78,3.7-3.97.41-.37,1.04-.33,1.41.08.34.38.33.96,0,1.33v.02Z"/>
        <path class="cls-2" d="m336.42,158.31c4.96-4.85,8.03-10.41,8.51-16.27.87-10.61-6.97-19.14-19.72-24.53-8.37-3.53-18.85-5.45-30.38-5.11-29.11.87-53.87,15.81-55.31,33.38-.54,6.54,2.23,12.52,7.42,17.41,8.75,8.25,24.4,12.77,42.68,12.23"/>
        <path class="cls-3" d="m343.94,141.96c.02-2.67-.53-5.27-1.59-7.62-1.05-2.36-2.63-4.46-4.49-6.29-1.85-1.84-3.99-3.41-6.27-4.76-2.27-1.37-4.7-2.53-7.2-3.52-4.98-1.96-10.25-3.26-15.62-3.97-5.36-.76-10.81-.89-16.24-.61-10.84.58-21.65,3.07-31.4,7.76-4.84,2.38-9.45,5.33-13.23,9.12-1.9,1.88-3.56,3.99-4.91,6.29-1.3,2.31-2.25,4.84-2.68,7.51v.02c-.07.44-.49.73-.92.67-.4-.07-.69-.42-.68-.81.08-2.92.78-5.84,1.97-8.54,1.2-2.69,2.87-5.15,4.76-7.39,3.83-4.45,8.57-7.99,13.65-10.77,5.08-2.81,10.51-4.91,16.08-6.41,5.57-1.54,11.31-2.38,17.06-2.77,5.76-.36,11.56-.1,17.29.72,5.72.89,11.39,2.4,16.73,4.8,2.65,1.21,5.24,2.6,7.68,4.25,2.42,1.68,4.71,3.61,6.68,5.87,1.95,2.27,3.58,4.89,4.53,7.77.96,2.87,1.21,5.96.77,8.87-.08.54-.59.92-1.14.84-.5-.08-.85-.51-.85-1"/>
        <path class="cls-1" d="m297.82,167.64c21.87-3.92,37.13-17.64,34.08-30.64-3.05-13-23.25-20.36-45.11-16.44-21.87,3.92-37.13,17.64-34.08,30.64,3.05,13,23.25,20.36,45.11,16.44"/>
        <path class="cls-2" d="m293.79,155.37c18.28-4.45,30.38-15.59,27.02-24.87-3.36-9.29-20.89-13.21-39.17-8.76-18.28,4.45-30.38,15.59-27.02,24.87,3.36,9.29,20.89,13.21,39.18,8.76"/>
        <path class="cls-3" d="m259.28,133.74c-1.13,1.24-2.16,2.56-2.99,3.97-.87,1.39-1.55,2.87-1.99,4.39-.91,3.05-.74,6.27.49,9.06,1.18,2.82,3.32,5.23,5.87,7.13,2.54,1.94,5.48,3.41,8.56,4.53,6.18,2.21,12.89,3.12,19.55,2.99,6.67-.07,13.34-1.18,19.62-3.29,6.25-2.1,12.23-5.32,16.62-9.89,2.17-2.27,3.88-4.93,4.61-7.8.74-2.86.51-5.87-.77-8.59-1.25-2.73-3.46-5.11-6.01-7.07-2.57-1.98-5.56-3.48-8.66-4.71-6.25-2.47-13.09-3.45-19.94-3.66h-.01c-.44-.02-.79-.39-.78-.83.01-.41.34-.74.74-.77,3.5-.28,7.05-.3,10.58.07,3.53.34,7.05,1,10.5,2.04,3.43,1.09,6.79,2.57,9.86,4.65,3.06,2.06,5.86,4.81,7.68,8.33,1.84,3.49,2.42,7.79,1.47,11.67-.9,3.92-3.03,7.32-5.56,10.12-2.54,2.82-5.54,5.08-8.69,6.95-3.16,1.88-6.51,3.37-9.93,4.56-6.87,2.37-14.09,3.44-21.3,3.5-7.2-.03-14.49-1.08-21.29-3.83-3.38-1.39-6.67-3.16-9.55-5.58-2.86-2.4-5.36-5.48-6.67-9.18-1.31-3.69-1.14-7.82.22-11.33.67-1.77,1.59-3.4,2.68-4.88,1.1-1.47,2.37-2.78,3.7-3.97.41-.37,1.04-.33,1.41.08.34.38.33.96,0,1.33v.02Z"/>
        <path class="cls-2" d="m372.02,75.32c5.22-3.34,8.64-7.32,9.55-11.67,1.65-7.88-5.39-14.7-17.47-19.46-7.93-3.12-18.05-5.15-29.37-5.56-28.57-1.02-53.95,8.73-56.68,21.78-1.02,4.86,1.25,9.48,5.96,13.43,7.96,6.66,22.94,10.94,40.88,11.58"/>
        <path class="cls-3" d="m380.59,63.45c.27-2.34-.27-4.6-1.48-6.52-1.16-1.95-2.93-3.55-4.83-4.96-3.88-2.77-8.48-4.73-13.15-6.26-9.38-3.08-19.41-4.29-29.38-4.48-9.99-.14-20.03.9-29.64,3.48-4.78,1.34-9.48,3.03-13.72,5.5-2.12,1.22-4.1,2.67-5.81,4.36-1.69,1.7-3.09,3.7-3.75,6.01h0c-.12.43-.57.68-.99.56-.39-.11-.63-.49-.57-.89.38-2.73,1.7-5.27,3.4-7.37,1.69-2.14,3.76-3.9,5.93-5.45,4.39-3.05,9.25-5.25,14.24-6.91,4.99-1.68,10.13-2.81,15.31-3.56,5.18-.78,10.42-1.07,15.65-1.06,10.45.08,20.99,1.52,30.96,5.18,4.93,1.91,9.77,4.28,13.94,7.86,2.06,1.79,3.93,3.95,5.15,6.55.6,1.3.99,2.71,1.12,4.15.14,1.43-.05,2.87-.42,4.21-.15.53-.7.84-1.23.7-.48-.13-.78-.59-.73-1.07v-.03Z"/>
        <path class="cls-1" d="m333.5,85.47c21.71-1.68,37.68-11.06,35.68-20.94-2.01-9.89-21.24-16.54-42.95-14.86-21.71,1.68-37.68,11.06-35.68,20.94,2.01,9.89,21.24,16.54,42.95,14.86"/>
        <path class="cls-2" d="m330.48,76.07c18.24-2.28,30.92-9.91,28.33-17.04-2.59-7.13-19.47-11.06-37.71-8.78-18.24,2.28-30.92,9.91-28.33,17.04,2.59,7.13,19.47,11.06,37.71,8.78"/>
        <path class="cls-3" d="m298.21,58.2c-2.42,1.78-4.61,3.95-5.68,6.44-1.1,2.5-.76,5.13.8,7.27,1.5,2.18,3.9,3.91,6.46,5.26,2.57,1.38,5.38,2.42,8.26,3.24,5.78,1.61,11.83,2.41,17.89,2.57,6.06.2,12.15-.24,18.08-1.35,5.9-1.1,11.75-2.92,16.63-5.93,2.4-1.5,4.54-3.4,5.62-5.58,1.08-2.17.97-4.49-.41-6.69-1.34-2.2-3.66-4.05-6.15-5.57-2.51-1.53-5.3-2.71-8.16-3.71-5.75-1.98-11.86-3.08-18.03-3.7-.44-.04-.77-.43-.72-.87.04-.41.38-.72.78-.73,6.32-.14,12.71.47,18.95,2.09,3.11.83,6.19,1.93,9.13,3.47,2.92,1.54,5.8,3.54,7.91,6.59,1.03,1.52,1.86,3.36,2.04,5.37.22,2-.17,4.04-.99,5.78-1.65,3.51-4.41,5.91-7.21,7.8-2.83,1.9-5.88,3.26-8.96,4.37-3.09,1.09-6.25,1.94-9.43,2.56-6.37,1.25-12.85,1.6-19.28,1.36-6.43-.34-12.87-1.27-19.08-3.31-3.09-1.03-6.14-2.29-9.01-4.02-2.83-1.74-5.59-3.9-7.48-7.02-.93-1.55-1.56-3.38-1.61-5.28-.07-1.89.42-3.75,1.28-5.31,1.74-3.15,4.5-5.21,7.29-6.81.48-.27,1.09-.11,1.36.37.25.44.13,1-.27,1.3h-.01Z"/>
      </g>
      <g>
        <path class="cls-2" d="m836.28,67.15c-8.72,4.57-15.16,10.88-18.2,18.64-5.51,14.06,1.66,28.85,16.8,41.38,9.93,8.22,23.39,15.1,39.2,19.33,39.91,10.7,79.66.48,88.79-22.81,3.4-8.67,2.07-17.92-2.98-26.68-8.53-14.78-27.96-27.31-53.01-34.03"/>
        <path class="cls-3" d="m819.57,86.36c-1.08,3.61-1.36,7.34-.85,10.92.49,3.6,1.78,7.05,3.57,10.25,1.76,3.22,4.03,6.19,6.58,8.93,2.52,2.76,5.34,5.3,8.32,7.64,5.95,4.66,12.55,8.54,19.53,11.66,6.94,3.2,14.27,5.57,21.73,7.42,14.91,3.62,30.54,4.68,45.66,2.35,7.52-1.24,14.95-3.32,21.63-6.86,6.66-3.49,12.6-8.57,15.95-15.45v-.02c.32-.64,1.09-.9,1.73-.59.58.28.85.95.66,1.55-.63,1.98-1.47,3.91-2.5,5.75-1.04,1.82-2.27,3.54-3.63,5.15-2.72,3.22-6,5.92-9.49,8.22-7.04,4.54-14.96,7.45-23.03,9.2-8.07,1.8-16.35,2.41-24.56,2.21-8.23-.17-16.4-1.35-24.41-3.19-8-1.86-15.81-4.6-23.29-8.08-3.74-1.76-7.35-3.79-10.85-6.01-3.49-2.24-6.88-4.67-10.01-7.43-3.12-2.74-6.07-5.71-8.73-8.98-2.61-3.3-4.94-6.89-6.69-10.81-1.72-3.92-2.86-8.19-2.95-12.54-.04-2.17.16-4.33.6-6.43.46-2.1,1.17-4.12,2.07-6.02.38-.8,1.33-1.13,2.13-.76.72.34,1.07,1.16.85,1.9v.02Z"/>
        <path class="cls-1" d="m892.56,70.21c-31.32-3.59-57.65,8.83-58.81,27.74-1.16,18.91,23.29,37.15,54.61,40.74,31.32,3.59,57.65-8.83,58.81-27.74,1.16-18.91-23.29-37.15-54.61-40.74"/>
        <path class="cls-2" d="m893.03,88.52c-26.66-1.41-47.64,8.79-46.87,22.78.77,13.99,23.01,26.47,49.67,27.88,26.66,1.41,47.64-8.79,46.87-22.78-.77-13.99-23.01-26.47-49.67-27.88"/>
        <path class="cls-3" d="m931.02,131.84c2.02-1.24,3.94-2.62,5.63-4.2,1.71-1.54,3.22-3.28,4.4-5.16,1.18-1.88,2.08-3.89,2.58-5.98.5-2.09.61-4.23.36-6.34-.46-4.23-2.38-8.31-5.05-11.89-2.64-3.62-6.02-6.78-9.73-9.53-3.73-2.73-7.78-5.08-12.01-7.07-4.25-1.96-8.67-3.59-13.21-4.84-9.05-2.61-18.51-3.81-27.85-3.5-9.29.3-18.67,2.22-26.41,6.57-3.84,2.17-7.18,5.04-9.3,8.55-2.12,3.5-3.04,7.57-2.44,11.71.56,4.15,2.54,8.22,5.18,11.91,2.64,3.71,6.05,6.97,9.74,9.9,7.45,5.85,16.26,10.08,25.46,13.22h.01c.67.23,1.03.96.8,1.64-.21.62-.85.97-1.48.84-9.78-2.03-19.38-5.67-27.94-11.35-4.25-2.88-8.24-6.26-11.61-10.38-3.36-4.08-6.09-9-7.15-14.61-.53-2.79-.59-5.73-.12-8.6.46-2.88,1.48-5.65,2.9-8.15,2.86-5.04,7.2-8.86,11.82-11.66,4.64-2.83,9.68-4.7,14.77-5.96,5.1-1.28,10.28-1.94,15.45-2.17,5.18-.24,10.34.07,15.45.75,5.11.66,10.14,1.76,15.08,3.21,9.81,3.01,19.34,7.43,27.51,14.02,4.05,3.3,7.82,7.08,10.77,11.59,2.92,4.48,5.08,9.76,5.34,15.39.12,2.8-.27,5.63-1.14,8.28-.88,2.64-2.19,5.11-3.87,7.24-1.66,2.14-3.62,3.98-5.73,5.54-2.12,1.55-4.39,2.8-6.72,3.87-.8.37-1.75.02-2.11-.78-.34-.74-.07-1.61.61-2.03h.02Z"/>
        <path class="cls-2" d="m1050.89,59.35c-5.66,4-9.57,9.01-10.98,14.71-2.54,10.34,3.85,20,15.59,27.34,7.7,4.81,17.75,8.37,29.19,9.86,28.88,3.75,55.69-7.08,59.9-24.2,1.56-6.37-.22-12.71-4.57-18.36-7.34-9.53-22.07-16.48-40.2-18.83"/>
        <path class="cls-3" d="m1040.88,74.3c-.45,2.63-.32,5.29.36,7.78.66,2.5,1.89,4.82,3.43,6.92,1.53,2.11,3.4,4,5.44,5.7,2.03,1.72,4.24,3.24,6.55,4.62,4.61,2.73,9.61,4.85,14.79,6.39,5.17,1.6,10.53,2.59,15.93,3.18,10.79,1.14,21.86.4,32.24-2.69,5.16-1.59,10.17-3.76,14.51-6.91,2.18-1.55,4.15-3.37,5.84-5.43,1.65-2.08,2.99-4.43,3.83-6.99v-.02c.14-.42.6-.65,1.02-.51.39.13.61.52.54.91-.54,2.87-1.69,5.64-3.3,8.12-1.61,2.47-3.65,4.63-5.87,6.55-4.48,3.79-9.73,6.53-15.18,8.47-5.46,1.97-11.15,3.18-16.89,3.78-5.74.64-11.54.56-17.28.03-5.74-.55-11.43-1.73-16.96-3.45-5.51-1.79-10.86-4.18-15.76-7.39-2.43-1.61-4.76-3.39-6.91-5.41-2.13-2.04-4.08-4.31-5.67-6.85-1.56-2.55-2.76-5.39-3.24-8.39-.49-2.99-.25-6.07.65-8.88.17-.52.73-.81,1.25-.65.48.15.76.64.68,1.12"/>
        <path class="cls-1" d="m1090.49,56.24c-22.21.41-39.45,11.54-38.5,24.86.95,13.32,19.73,23.78,41.94,23.37,22.21-.41,39.45-11.54,38.5-24.86-.95-13.32-19.73-23.78-41.94-23.37"/>
        <path class="cls-2" d="m1092.52,68.99c-18.75,1.5-32.46,10.58-30.62,20.28,1.84,9.7,18.54,16.35,37.29,14.85,18.75-1.5,32.46-10.58,30.62-20.28-1.84-9.7-18.54-16.35-37.29-14.85"/>
        <path class="cls-3" d="m1123.17,95.82c1.31-1.05,2.54-2.19,3.59-3.45,1.07-1.24,1.99-2.59,2.66-4.02,1.38-2.87,1.73-6.08.95-9.02-.72-2.97-2.46-5.69-4.67-7.97-2.2-2.32-4.87-4.23-7.73-5.83-5.76-3.17-12.23-5.12-18.83-6.04-6.6-.98-13.35-.95-19.89.14-6.5,1.09-12.92,3.31-17.98,7.13-2.51,1.9-4.61,4.26-5.79,6.97-1.18,2.71-1.43,5.72-.6,8.61.8,2.9,2.6,5.59,4.82,7.93,2.22,2.36,4.93,4.31,7.8,6.02,5.78,3.43,12.38,5.47,19.11,6.78h.01c.43.09.72.51.64.94-.08.4-.45.68-.85.65-3.5-.28-7.01-.82-10.44-1.74-3.43-.89-6.81-2.1-10.05-3.68-3.22-1.62-6.3-3.61-9-6.16-2.7-2.52-5.03-5.68-6.27-9.44-1.26-3.74-1.15-8.08.4-11.76,1.51-3.72,4.15-6.75,7.09-9.11,2.95-2.38,6.27-4.14,9.68-5.48,3.42-1.35,6.96-2.29,10.53-2.93,7.16-1.25,14.46-1.17,21.58-.08,7.1,1.17,14.14,3.36,20.42,7.16,3.12,1.91,6.08,4.18,8.55,7.02,2.44,2.83,4.43,6.26,5.13,10.12.71,3.85-.11,7.91-2.01,11.16-.94,1.64-2.11,3.1-3.42,4.39-1.32,1.28-2.78,2.37-4.29,3.34-.46.3-1.08.16-1.38-.3-.28-.43-.18-1,.21-1.31h.02Z"/>
      </g>
      <path class="cls-3" d="m1306.13,48.48c-2.03,1.19-4.09,2.38-6.15,3.55-2.23,1.28-4.51,2.55-6.78,3.8C853.95-6.71,446.9-6.71,12.93,55.84c-2.28-1.26-4.56-2.53-6.78-3.8-2.06-1.18-4.11-2.37-6.15-3.55.93-.35,2.01-.64,3.23-.81C222.19,15.94,431.69.35,643.76,0h7.25c214.57,0,427.87,15.6,651.84,47.67,1.25.17,2.35.45,3.28.81Z"/>
    </g>
  </g>
</svg>