<?xml version="1.0" encoding="UTF-8"?>
<svg id="Layer_2" data-name="Layer 2" xmlns="http://www.w3.org/2000/svg" viewBox="0 0 53.37 71.98">
  <defs>
    <style>
      .cls-1 {
        opacity: .1;
      }

      .cls-2 {
        fill: #f2101c;
      }

      .cls-3 {
        fill: #ffa21a;
      }

      .cls-4 {
        fill: #fff;
      }

      .cls-5 {
        fill: #ffc82c;
      }

      .cls-6 {
        fill: #371a45;
      }

      .cls-7 {
        opacity: .41;
      }
    </style>
  </defs>
  <g id="Layer_2-2" data-name="Layer 2">
    <g>
      <path class="cls-5" d="m2.05,69.71s.12-9.6.46-23.98C2.98,25.68,4.83,3.52,8.33,2.21c3.51-1.31,17.03,11.03,27.53,25.46,8.5,11.69,16.41,25.16,16.41,25.16,0,0-24.05,19.15-50.22,16.88Z"/>
      <g class="cls-7">
        <path class="cls-4" d="m2.05,69.71c1.34.11,2.67.18,3.99.18.07-4.17.19-10.97.38-19.39.47-20.06,2.32-42.21,5.82-43.52,2.77-1.03,11.79,6.45,20.64,16.76C22.94,11.08,11.51,1.01,8.33,2.21c-3.49,1.31-5.35,23.47-5.82,43.52-.34,14.38-.46,23.98-.46,23.98Z"/>
      </g>
      <g class="cls-1">
        <circle class="cls-6" cx="17.19" cy="22.09" r="7.45" transform="translate(-4.69 4.63) rotate(-13.52)"/>
      </g>
      <circle class="cls-2" cx="16.8" cy="20.49" r="5.27" transform="translate(-4.33 4.5) rotate(-13.52)"/>
      <g class="cls-7">
        <path class="cls-4" d="m11.68,21.72c.12.48.29.93.53,1.35.09-2.3,1.68-4.36,4.03-4.93s4.71.55,5.83,2.55c.02-.48-.03-.96-.14-1.44-.68-2.83-3.52-4.57-6.35-3.89-2.83.68-4.57,3.52-3.89,6.35Z"/>
      </g>
      <path class="cls-6" d="m10.16,22.08c-.88-3.66,1.38-7.36,5.05-8.24,3.66-.88,7.36,1.38,8.24,5.05.88,3.66-1.38,7.36-5.05,8.24-3.66.88-7.36-1.38-8.24-5.04Zm3.04-.73c.48,1.99,2.48,3.22,4.47,2.74s3.22-2.48,2.74-4.47-2.48-3.22-4.47-2.74-3.22,2.48-2.74,4.47Z"/>
      <circle class="cls-2" cx="13.67" cy="37.35" r="5.45"/>
      <g class="cls-7">
        <path class="cls-4" d="m8.36,38.54c.59-1.69,2-3.05,3.87-3.5,2.93-.7,5.87,1.09,6.58,4.02l.02.07c.33-.95.4-2.01.15-3.06-.7-2.93-3.64-4.73-6.57-4.02-2.9.7-4.69,3.59-4.04,6.49Z"/>
      </g>
      <path class="cls-6" d="m6.86,38.99c-.9-3.76,1.42-7.55,5.18-8.46s7.55,1.42,8.46,5.18-1.42,7.55-5.18,8.46-7.55-1.42-8.46-5.18Zm3.04-.73c.5,2.08,2.6,3.37,4.69,2.87s3.37-2.6,2.87-4.69c-.5-2.08-2.6-3.37-4.69-2.87s-3.37,2.6-2.87,4.69Z"/>
      <circle class="cls-2" cx="30.71" cy="38.7" r="5.24"/>
      <g class="cls-7">
        <path class="cls-4" d="m25.62,39.92c.2.82.58,1.56,1.09,2.16-.26-2.57,1.41-5,3.99-5.62,1.99-.48,3.99.24,5.23,1.71-.02-.24-.06-.47-.12-.7-.68-2.81-3.51-4.54-6.32-3.87-2.81.68-4.55,3.5-3.87,6.32Z"/>
      </g>
      <path class="cls-6" d="m24.1,40.29c-.88-3.65,1.38-7.33,5.02-8.2,3.65-.88,7.33,1.38,8.2,5.02.88,3.65-1.38,7.33-5.02,8.2-3.65.88-7.33-1.38-8.2-5.02Zm3.04-.73c.47,1.97,2.46,3.19,4.43,2.71s3.19-2.46,2.71-4.43-2.46-3.19-4.43-2.71c-1.97.47-3.19,2.46-2.71,4.43Z"/>
      <path class="cls-3" d="m2.05,69.71c26.16,2.28,50.21-16.88,50.21-16.88,0,0-2.57-4.38-6.35-10.31-7.83,5.03-23.23,13.31-43.69,16.42-.13,6.74-.18,10.77-.18,10.77Z"/>
      <g class="cls-7">
        <path class="cls-4" d="m2.06,69.71c26.16,2.28,50.21-16.88,50.21-16.88,0,0-1-1.71-2.68-4.43-4.46,3.29-24.97,17.42-47.46,16.32-.05,3.2-.08,4.99-.08,4.99Z"/>
      </g>
      <path class="cls-6" d="m4.1,71.93h0C1.76,71.83-.03,69.92,0,67.59c.03-1.83.07-4.81.15-8.68.02-1.01.77-1.87,1.77-2.02,20.29-3.09,35.57-11.42,42.87-16.11.46-.3,1.03-.4,1.57-.28.54.12,1.01.45,1.31.91,2.13,3.34,3.88,6.19,4.97,8,1.38,2.28.75,5.27-1.44,6.8-5.18,3.63-16.48,10.68-30.23,13.98-5.33,1.28-11.02,2-16.87,1.75Zm.18-11.21c-.06,3.02-.09,5.38-.12,6.92,0,.06.05.12.11.12h0c19.68.86,37.7-10.19,44.53-14.98.41-.28.52-.81.27-1.23-.88-1.46-2.2-3.62-3.81-6.17-7.89,4.83-22.3,12.19-40.99,15.34Z"/>
      <path class="cls-6" d="m2.55,61c-.61.09-1.22-.09-1.69-.49s-.72-.99-.71-1.61c.07-3.67.16-8.15.28-13.22.26-11.02.89-21.31,1.79-28.98C3.84,2.78,5.84.92,7.59.26c1.05-.39,3.85-1.44,13.28,7.25,5.55,5.11,11.62,12.01,16.66,18.95,3.1,4.26,6.51,9.29,10.13,14.95.62.97.34,2.25-.63,2.87-6.42,4.12-18.76,10.95-35.16,14.9-2.98.72-6.1,1.34-9.34,1.83Zm31.63-32.1C23.38,14.07,12,4.64,9.13,4.21c-1.82,2.46-3.98,17.53-4.54,41.57-.1,3.96-.17,7.56-.23,10.7,17.59-3.1,31.16-10.02,38.66-14.61-3.15-4.87-6.12-9.23-8.85-12.97Z"/>
    </g>
  </g>
</svg>