<?xml version="1.0" encoding="UTF-8"?>
<svg id="Layer_2" data-name="Layer 2" xmlns="http://www.w3.org/2000/svg" viewBox="0 0 465.29 450.65">
  <defs>
    <style>
      .cls-1 {
        fill: #fff;
      }

      .cls-2 {
        fill: #ffda22;
      }

      .cls-3 {
        fill: #371a45;
      }

      .cls-4 {
        opacity: .35;
      }

      .cls-5 {
        opacity: .5;
      }
    </style>
  </defs>
  <g id="Layer_2-2" data-name="Layer 2">
    <g>
      <path class="cls-2" d="m349.65,431.28l-109.5-52.44-105.27,60.49c-21.12,12.15-46.98-5.22-43.78-29.35l16.03-120.35L17.05,208.19c-18.06-16.32-9.54-46.27,14.39-50.68l67.7-12.44s.04-.01.04-.01l51.69-9.51,49.61-110.81c9.93-22.22,41.05-23.4,52.64-1.99l57.78,106.8,120.74,12.94c24.19,2.59,34.92,31.82,18.14,49.45l-83.71,87.96,20.53,97.53,4.49,21.28c4.99,23.82-19.47,43.06-41.46,32.56Z"/>
      <g class="cls-4">
        <path class="cls-3" d="m431.66,142.49l-1.84-.2c9.57,14.71,11.2,25.1-13.82,47.52-18.39,16.48-46.88,42.12-66.29,59.6-12.77,11.5-18.06,29.15-13.7,45.77,8.48,32.36,14.75,83.65,6.9,92.79-11.62,13.53-108.83-55.23-108.83-55.23,0,0-97.21,68.76-108.83,55.23-7.66-8.92-2.12-58.04,6.3-90.48,4.6-17.69-1.76-36.43-16.16-47.7-20.73-16.22-49.95-39.67-67.45-56.31-11.91-11.34-16.68-26.2-10.83-37.02l-5.65,1.05c-23.95,4.4-32.47,34.37-14.4,50.68l90.07,81.46-16.03,120.34c-.1.75-.17,1.5-.22,2.24.04-.74.12-1.49.22-2.24l.51-3.83c4.29,18.08,25.45,28.81,43.26,18.58l105.26-60.51,109.51,52.45c17.65,8.42,36.87-2.31,41.2-19.18l.26,1.23-4.47-21.28-20.54-97.53,83.72-87.95c16.77-17.64,6.04-46.87-18.15-49.46Z"/>
      </g>
      <g class="cls-5">
        <path class="cls-1" d="m456.78,172.66c-3.07-10.81-12.17-19.84-25.13-21.24l-1.84-.2-99.25,2.12c-28.26.6-53.79-16.78-63.6-43.29l-24.89-67.31c-11.6-21.43-22.46-20.25-32.4,1.99l-20.39,68.84c-8,27.02-32.21,46.03-60.36,47.39l-91.83,4.44-5.65,1.05c-11.98,2.21-20.1,10.79-22.96,20.89-4.55-15.67,4.75-33.78,22.96-37.13l5.65-1.05,62.04-11.39s.04,0,.04,0l51.69-9.52,49.61-110.8c9.94-22.24,41.05-23.42,52.65-1.99l57.78,106.79,118.9,12.74,1.84.2c19.24,2.06,29.95,20.97,25.13,37.48Z"/>
      </g>
      <path class="cls-3" d="m120.21,450.65c-7.13,0-14.23-2.1-20.45-6.27-11.7-7.85-17.81-21.4-15.95-35.36l15.51-116.52L12.12,213.66c-10.45-9.45-14.55-23.73-10.7-37.29,3.85-13.55,14.84-23.55,28.7-26.1l115.61-21.26,48.03-107.29C199.52,8.87,211.84.56,225.92.03c14.08-.54,26.99,6.84,33.69,19.23l55.94,103.38,116.88,12.53c14.01,1.5,25.72,10.65,30.58,23.87,4.85,13.23,1.84,27.78-7.88,37.99l-81.04,85.15,24.2,115.03c2.9,13.79-2.18,27.76-13.26,36.46-11.08,8.7-25.85,10.33-38.56,4.25l-106.03-50.76-101.92,58.57c-5.73,3.29-12.03,4.92-18.32,4.93ZM227.36,14.73c-.3,0-.59,0-.89.02-8.56.32-15.76,5.18-19.27,13l-49.61,110.82c-.99,2.21-3.01,3.79-5.39,4.23l-119.42,21.96c-8.43,1.55-14.86,7.4-17.2,15.64-2.34,8.24.06,16.59,6.41,22.34l90.07,81.43c1.8,1.63,2.68,4.03,2.36,6.43l-16.02,120.36c-1.13,8.49,2.44,16.41,9.56,21.19,7.12,4.77,15.8,5.07,23.23.8l105.28-60.49c2.1-1.21,4.66-1.3,6.85-.26l109.52,52.43c7.73,3.7,16.36,2.75,23.1-2.54,6.74-5.29,9.71-13.46,7.94-21.84l-25-118.82c-.5-2.37.2-4.84,1.87-6.59l83.71-87.96c5.91-6.21,7.67-14.71,4.72-22.76-2.95-8.04-9.8-13.39-18.32-14.31l-120.73-12.94c-2.41-.26-4.54-1.69-5.69-3.82l-57.78-106.79c-3.94-7.27-11.1-11.54-19.29-11.54Z"/>
    </g>
  </g>
</svg>