<?xml version="1.0" encoding="UTF-8"?>
<svg id="Layer_2" data-name="Layer 2" xmlns="http://www.w3.org/2000/svg" xmlns:xlink="http://www.w3.org/1999/xlink" viewBox="0 0 166.6 166.6">
  <defs>
    <style>
      .cls-1 {
        fill: none;
      }

      .cls-2 {
        clip-path: url(#clippath);
      }

      .cls-3 {
        fill: #000072;
      }

      .cls-4 {
        fill: #ea3f24;
      }

      .cls-5 {
        fill: #fff;
      }

      .cls-6 {
        fill: #ff7a45;
      }

      .cls-7 {
        fill: #232323;
      }

      .cls-8 {
        opacity: .3;
      }

      .cls-9 {
        opacity: .6;
      }
    </style>
    <clipPath id="clippath">
      <circle class="cls-1" cx="83.3" cy="83.3" r="80.92" transform="translate(-34.5 83.3) rotate(-45)"/>
    </clipPath>
  </defs>
  <g id="planets">
    <g>
      <circle class="cls-4" cx="83.3" cy="83.3" r="80.92"/>
      <g class="cls-2">
        <g>
          <path class="cls-6" d="m-3.86,32.87S52.83-11.53,78.9-1.79C104.96,7.95,36.13,24.55,4.58,53.78c-31.55,29.22,20.37-20.57,72.53-24.76,52.16-4.18,13.19,14.75,27.84,12,14.65-2.75,35.08-3.11,15.41,6.34-19.67,9.45-44.13,5.89-54.75,11.93-10.62,6.04-53.1,27.7-46.92,28.13s43.37-25.04,53.8-20.63c10.42,4.41,21.66,9.41,53.02-1.09,31.36-10.5,15.99-21.9,33.39-21.98,17.39-.08-2.28,33.44-40.55,35-38.27,1.56-48.19-9.76-59.18,3.89-10.99,13.65-2.06,4.51-18.91,13.62-16.85,9.1-31.06,10.02-34.04,17.14-2.98,7.12,19.81-5.22,36.11-13.27,16.3-8.05,18.27-20.23,29.97-12.43,11.7,7.8,55.49,9.65,66.84,2.05,11.34-7.6,25.87,8.73-13.17,11.85-39.03,3.12-56.93-.79-62.34-3.14-5.42-2.35,5.51,7.37-15.76,20.18-21.28,12.81-46.73,8.69-37.34,21.18s15.41-5.75,43.78-12.53c28.37-6.78,18.23-24.9,36.92-16.08,18.69,8.82,6.11,19.85,31.01,5.01,24.9-14.84,38.58-21.38,29.61-10.22-8.97,11.17-69.81,45.88-73.28,22.36,0,0-5.29-3.81-9.98,2.71-4.69,6.52-2.78,11.6-21.41,16.43-18.62,4.83-11.05,22.65-2.24,21.57,8.81-1.08,46.52-23.4,52.34-20.75,5.82,2.65-2.49,11.19,23.35-4.52,25.84-15.71,53.18-26.64,40.26-4.4-12.91,22.23-65.53,27.57-65.93,15.41-.4-12.16-.05,12.59-28.31,17.55-28.27,4.96,107.86,44.61,130.51-28.81,22.66-73.42-70.03-10.64-62.63-15.92,7.41-5.28,22.45-18.85,28.68-31.38,6.23-12.53,5.22-23.15-7.46-17.13-12.68,6.02-13.63.26,6.85-11.98,20.48-12.24,24.59-51.34,7.34-39.94-17.25,11.4-13.92,10.41-29.85,20.26-15.93,9.85-9.35-5.41-2.92-8.71s12.53-8.46,6.79-11.68c-5.74-3.22-14.26,6.68-20.92,6.69-6.67,0-1.69-6.99,5.37-7.74s15.63-11.72,2.23-16.97c-13.4-5.25-26.01,19.27-34.13,15.02-8.12-4.25-10.57-2.75-17.28-2.02-6.71.72,1.37-7.07,9.15-5.64,7.78,1.43,23.12-4.84,26.09-13.06,2.98-8.21-7.88-29.63-33.36-21.61C55.62-10.26,8.15,2.87-3.86,32.87Z"/>
          <path class="cls-6" d="m3.23,36.62c2.26-2.29,15.99-14.05,23.7-11.38,7.71,2.67,33.18-17.3,31.31-11.24-1.87,6.06-36.31,19.74-51.82,31.89-15.51,12.15-30.46,28.81-16.22,24.01,14.24-4.8,26.77-15.3,33.76-12.77,6.99,2.54,57.31-19.56,42.46-10.67-14.85,8.89-48.37,19.38-52.01,27.89-3.65,8.5-7.87,3.2-3.8-2.74,4.07-5.93-11.85-12.45-14.64,4.3-2.78,16.75-9.27,29.9.69,26.31,9.96-3.6,21.28-6.16,34.37-12.61,13.09-6.45.91,4.83-12.66,9.07-13.57,4.24-26.78,14.05-26.38,17.02.4,2.97,5.83,8.87,18.6,3.16s6.31,6.12,23.32-2.76,5.88,2.28-13.12,9.21c-19,6.93-19.64,11.83-22.16,8.16s-27.63-43.28-15.1-75.11"/>
        </g>
        <g class="cls-8">
          <path class="cls-7" d="m20.7,134.56c17.71,16.74,42.73,25.34,68.64,21.12,44.11-7.19,74.04-48.77,66.85-92.88-2.38-14.58-8.52-27.59-17.26-38.25C121.28,7.87,96.36-.72,70.55,3.4c0,0,0,0,0,0,9.14,3.79,17.18,9.92,23.27,17.76,9.32,8.37,15.96,19.84,18.13,33.17,5.06,31.03-16,60.29-47.04,65.34-21.34,3.48-41.84-5.4-54.2-21.38,0,0,0,0,0,0-3-2.7-5.72-5.72-8.11-9.02-.07-1-.13-2.01-.17-3.01.12,3.33.44,6.68.99,10.05,2.83,17.35,10.99,32.48,22.51,44.05-1.84-1.84-3.59-3.78-5.25-5.8Z"/>
        </g>
      </g>
      <g class="cls-9">
        <path class="cls-5" d="m89.31,7.02c17.26,0,33.25,5.41,46.39,14.63C121.59,9.63,103.29,2.38,83.3,2.38,38.61,2.38,2.38,38.61,2.38,83.3c0,12.32,2.76,24,7.69,34.45,4.51,8.56,10.5,16.21,17.64,22.62-12.03-14.12-19.31-32.42-19.31-52.43C8.4,43.25,44.62,7.02,89.31,7.02Z"/>
      </g>
      <path class="cls-3" d="m83.3,166.6C37.37,166.6,0,129.23,0,83.3S37.37,0,83.3,0s83.3,37.37,83.3,83.3-37.37,83.3-83.3,83.3Zm0-161.84C39.99,4.76,4.76,39.99,4.76,83.3s35.23,78.54,78.54,78.54,78.54-35.23,78.54-78.54S126.61,4.76,83.3,4.76Z"/>
    </g>
  </g>
</svg>