<?xml version="1.0" encoding="UTF-8"?>
<svg id="Layer_2" data-name="Layer 2" xmlns="http://www.w3.org/2000/svg" viewBox="0 0 344.09 223.58">
  <defs>
    <style>
      .cls-1 {
        fill: #000072;
      }

      .cls-2 {
        fill: #fff;
      }

      .cls-3 {
        fill: #ffc524;
      }

      .cls-4 {
        fill: #ffb600;
      }

      .cls-5 {
        fill: #ff8500;
      }

      .cls-6 {
        fill: #232323;
      }

      .cls-7 {
        opacity: .3;
      }

      .cls-8 {
        opacity: .6;
      }

      .cls-9 {
        opacity: .7;
      }
    </style>
  </defs>
  <g id="planets">
    <g>
      <g>
        <circle class="cls-3" cx="166.18" cy="108.38" r="105.43"/>
        <path class="cls-5" d="m253.44,140.22c-27.39-10.48-53.79-23.33-81.29-33.53-24.1-8.93-47.09-20.54-69.43-33.18-9.58-5.42-19.05-11.04-28.49-16.71-8.38,14.91-13.24,32.06-13.46,50.34,2.89,1.28,5.79,2.53,8.69,3.79,40.37,17.61,81.51,33.74,124.01,45.47,19.22,5.31,38.96,11.64,59.03,12.53,5.25-7.48,9.56-15.67,12.75-24.4-3.95-1.37-7.89-2.8-11.81-4.3Z"/>
        <path class="cls-5" d="m82.84,43.81c19.42,11.65,39.03,23.04,59.38,33,23.4,11.44,48.04,19.84,71.95,30.11,18.29,7.85,36.51,16.06,55.3,22.68,1.4-6.85,2.14-13.95,2.14-21.21s-.77-14.67-2.23-21.66c-19.55-4.37-38.54-11.24-57.55-17.52-25.93-8.57-51.95-16.83-77.63-26.14-12.34-4.48-24.52-9.37-37.05-13.32-.29-.09-.59-.18-.88-.27-4.9,4.35-9.4,9.15-13.42,14.33Z"/>
        <path class="cls-5" d="m182.44,169.47c-21.98-6.36-43.62-13.85-64.99-22.01-18.69-7.13-37.08-14.94-55.45-22.83,7.82,50.51,51.48,89.17,104.18,89.17,28.88,0,55.04-11.62,74.08-30.42-19.62-2.54-38.91-8.44-57.82-13.92Z"/>
        <g class="cls-7">
          <path class="cls-6" d="m248.14,164.69s0,0,0,0c-14.29,8.15-30.8,12.83-48.43,12.83-54.14,0-98.03-43.89-98.03-98.03,0-27.87,11.65-53.01,30.33-70.86-6.31,2.16-12.35,4.91-18.05,8.17,3.25-1.86,6.61-3.55,10.07-5.06-32.03,18.09-53.67,52.44-53.67,91.85,0,58.23,47.2,105.43,105.43,105.43,15.01,0,29.29-3.15,42.21-8.8-4.66,2.64-9.55,4.93-14.62,6.84,23.46-8.85,42.94-25.83,54.99-47.51-3.29,1.91-6.71,3.64-10.23,5.16Z"/>
        </g>
        <path class="cls-5" d="m130.38,25.14c25.43,9.52,51.22,18,77.06,26.32,18.84,6.07,37.53,13,56.72,17.95C248.67,30.47,210.64,2.95,166.18,2.95c-20.03,0-38.76,5.59-54.71,15.29,6.33,2.21,12.62,4.54,18.92,6.89Z"/>
        <g class="cls-8">
          <path class="cls-2" d="m211.77,14.43c27.82,18.98,46.08,50.93,46.08,87.14,0,58.23-47.2,105.43-105.43,105.43-15.2,0-29.64-3.22-42.7-9.01,16.88,11.49,37.27,18.22,59.24,18.22,58.23,0,105.43-47.2,105.43-105.43,0-42.98-25.73-79.94-62.62-96.35Z"/>
        </g>
        <path class="cls-1" d="m166.18,216.76c-59.76,0-108.38-48.62-108.38-108.38S106.42,0,166.18,0s108.38,48.62,108.38,108.38-48.62,108.38-108.38,108.38Zm0-210.85c-56.5,0-102.47,45.97-102.47,102.47s45.97,102.47,102.47,102.47,102.47-45.97,102.47-102.47S222.68,5.9,166.18,5.9Z"/>
      </g>
      <g>
        <path class="cls-4" d="m249.99,42.22c20.39-1.8,34.78,1.56,39.2,10.69,10.09,20.86-35.81,63.91-102.52,96.17-66.7,32.26-128.95,41.5-139.04,20.64-4.38-9.06,1.8-22.3,15.65-37.03l-2.48-26.13C17.55,140.91-5.31,176.52,5.69,199.27c16.66,34.45,104.64,26.36,196.51-18.07,91.87-44.43,152.85-108.37,136.19-142.81-11-22.75-53.1-26.94-106.89-14.38l18.49,18.21Z"/>
        <g class="cls-7">
          <path class="cls-1" d="m338.39,38.38c-1.23-2.55-2.88-4.85-4.86-6.94,12.68,34.97-47.54,96.93-137.23,140.3C111.24,212.88,29.53,222.86,4.66,196.78c.31.84.64,1.67,1.04,2.48,16.66,34.45,104.64,26.36,196.51-18.07,91.87-44.43,152.85-108.37,136.19-142.81Z"/>
        </g>
        <g>
          <g class="cls-9">
            <path class="cls-2" d="m340.13,43.07c-.44-1.61-1.01-3.18-1.73-4.68-11-22.75-53.1-26.94-106.89-14.38l8.68,8.56c47.92-10.57,85.95-7.5,99.94,10.5Z"/>
          </g>
          <g class="cls-9">
            <path class="cls-2" d="m61.97,118.87l-1.17-12.32C17.55,140.91-5.31,176.52,5.69,199.27c.83,1.71,1.83,3.31,3,4.8-6-22.1,15.1-54,53.28-85.2Z"/>
          </g>
        </g>
        <path class="cls-1" d="m58.92,223.58c-29.03,0-48.61-7.96-55.89-23.02-11.35-23.47,9.56-59.48,55.93-96.31l4.26-3.39,3.13,32.88-.92.97c-13.39,14.24-18.77,26.22-15.14,33.72,8.2,16.95,64.44,12.15,135.09-22.01,70.66-34.17,109.34-75.27,101.14-92.23-3.66-7.57-16.55-10.77-36.28-9.03l-1.36.12-23.28-22.93,5.22-1.22c57.67-13.48,98.87-7.5,110.22,15.97,8.63,17.85-1.28,43.06-27.92,70.99-25.96,27.22-64.9,54.13-109.65,75.77-44.74,21.64-90.02,35.45-127.48,38.9-6.01.55-11.71.83-17.09.83Zm-.55-111.27C17.89,145.6-1.23,178.17,8.35,197.98c7.37,15.25,31.84,22.13,67.12,18.89,36.77-3.38,81.32-16.99,125.45-38.33,44.12-21.34,82.46-47.81,107.94-74.53,24.45-25.64,34.25-49.09,26.88-64.34-9.59-19.83-47.03-25.06-98.31-13.97l13.67,13.47c21.89-1.72,35.97,2.58,40.75,12.45,5.49,11.35-2.72,28.13-23.1,47.25-19.57,18.36-48.27,37.14-80.79,52.86-32.52,15.73-65.05,26.56-91.6,30.5-27.65,4.1-45.89.11-51.38-11.23-4.74-9.81.53-23.4,15.24-39.35l-1.84-19.34Z"/>
      </g>
    </g>
  </g>
</svg>