<?xml version="1.0" encoding="UTF-8"?>
<svg id="Layer_2" data-name="Layer 2" xmlns="http://www.w3.org/2000/svg" viewBox="0 0 112.15 71.22">
  <defs>
    <style>
      .cls-1 {
        fill: #0080ff;
      }

      .cls-2 {
        fill: #f90000;
      }

      .cls-3 {
        fill: #fff;
      }

      .cls-4 {
        fill: #e8e8e8;
      }

      .cls-5 {
        fill: #ffce00;
      }

      .cls-6 {
        fill: #c92424;
      }

      .cls-7 {
        fill: #c4c5c6;
      }

      .cls-8 {
        fill: #d6d6d6;
      }

      .cls-9 {
        fill: #e23d3d;
      }

      .cls-10 {
        fill: #0e62dd;
      }

      .cls-11 {
        fill: #371a45;
      }

      .cls-12 {
        opacity: .7;
      }
    </style>
  </defs>
  <g id="Layer_2-2" data-name="Layer 2">
    <g>
      <g>
        <path class="cls-5" d="m21.93,26s-11.47-.69-11.47,6.36v6.51S-.37,53.95,2.89,68.95h19.85s-3.29-20.51,6.76-26.31c10.05-5.8-7.56-16.64-7.56-16.64Z"/>
        <path class="cls-11" d="m22.73,71.22H2.89c-1.07,0-1.99-.74-2.22-1.79-3.09-14.23,5.45-28.15,7.52-31.26v-5.81c0-2.14.8-4.02,2.31-5.45,3.76-3.54,10.78-3.23,11.56-3.18.37.02.73.14,1.05.33,1.98,1.22,11.83,7.62,11.74,14.23-.02,1.78-.78,4.31-4.23,6.31-7.12,4.11-6.5,18.71-5.66,23.99.1.66-.08,1.33-.52,1.83-.43.51-1.06.8-1.73.8Zm-17.94-4.54h15.39c-.55-6.06-.87-20.78,8.18-26.01,1.94-1.12,1.96-2.11,1.96-2.44.04-2.88-5.12-7.44-9.08-9.98-1.85,0-5.86.3-7.63,1.97-.6.57-.88,1.25-.88,2.14v6.51c0,.48-.15.94-.43,1.32-.1.14-9.35,13.25-7.52,26.48Z"/>
      </g>
      <polygon class="cls-4" points="85.66 30.78 48.96 32.87 48.96 24.36 85.66 26.45 85.66 30.78"/>
      <polygon class="cls-7" points="85.66 28.37 85.66 30.78 48.96 32.86 48.96 28.85 85.66 28.37"/>
      <path class="cls-11" d="m48.96,35.14c-.58,0-1.14-.22-1.56-.62-.45-.43-.71-1.03-.71-1.65v-8.5c0-.62.26-1.22.71-1.65.45-.43,1.05-.66,1.69-.62l36.7,2.09c1.2.07,2.14,1.06,2.14,2.27v4.33c0,1.2-.94,2.2-2.14,2.27l-36.7,2.09s-.09,0-.13,0Zm36.7-4.36h0,0Zm-34.43-4.01v3.7l32.16-1.83v-.04l-32.16-1.83Z"/>
      <circle class="cls-9" cx="83.82" cy="28.61" r="6.45"/>
      <path class="cls-3" d="m90.26,28.61c0,.52-.06,1.03-.18,1.52-.68-2.83-3.22-4.93-6.27-4.93s-5.59,2.11-6.27,4.93c-.12-.48-.18-.99-.18-1.52,0-3.56,2.89-6.44,6.45-6.44s6.45,2.88,6.45,6.44Z"/>
      <path class="cls-6" d="m90.26,28.61c0,3.56-2.88,6.45-6.45,6.45s-6.45-2.88-6.45-6.45c0-.84.16-1.65.45-2.38.95,2.38,3.28,4.07,5.99,4.07s5.05-1.69,5.99-4.07c.3.73.45,1.54.45,2.38Z"/>
      <path class="cls-11" d="m83.82,37.33c-4.81,0-8.72-3.91-8.72-8.72s3.91-8.72,8.72-8.72,8.72,3.91,8.72,8.72-3.91,8.72-8.72,8.72Zm0-12.89c-2.3,0-4.18,1.87-4.18,4.18s1.87,4.18,4.18,4.18,4.18-1.87,4.18-4.18-1.87-4.18-4.18-4.18Z"/>
      <path class="cls-1" d="m51.81,43.67c-7.09.47-13.98.47-21.07,0-5.25-.34-9.35-4.68-9.35-9.94,0-3.41,0-6.83,0-10.24,0-5.26,4.1-9.59,9.35-9.94,7.09-.47,13.98-.47,21.07,0,5.25.34,9.35,4.68,9.35,9.94v10.24c0,5.26-4.1,9.59-9.35,9.94Z"/>
      <g class="cls-12">
        <path class="cls-3" d="m61.15,23.49v4.25c0-5.26-4.1-9.59-9.35-9.93-7.09-.47-13.98-.47-21.07,0-5.25.34-9.34,4.68-9.34,9.93v-4.25c0-5.26,4.1-9.59,9.34-9.94,7.1-.47,13.98-.47,21.07,0,5.25.35,9.35,4.68,9.35,9.94Z"/>
      </g>
      <path class="cls-10" d="m61.15,24.25v9.49c0,5.26-4.1,9.59-9.35,9.94-7.09.47-13.98.47-21.07,0-5.25-.35-9.34-4.68-9.34-9.94v-9.49c0,5.26,4.1,9.59,9.34,9.94,7.1.47,13.98.47,21.07,0,5.25-.35,9.35-4.68,9.35-9.94Z"/>
      <path class="cls-10" d="m45.28,34.48l-4.22,4.27,1.96-4.23c.75,0,1.5-.02,2.26-.04Z"/>
      <path class="cls-11" d="m41.27,46.29c-3.54,0-7.09-.12-10.68-.35-6.43-.42-11.47-5.78-11.47-12.2v-10.24c0-6.42,5.04-11.78,11.47-12.2,7.19-.47,14.18-.47,21.37,0,6.43.42,11.47,5.78,11.47,12.2v10.24c0,6.42-5.04,11.78-11.47,12.2-3.59.24-7.14.35-10.68.35Zm0-30.82c-3.45,0-6.89.11-10.39.34-4.05.27-7.22,3.64-7.22,7.67v10.24c0,4.04,3.17,7.41,7.22,7.67,6.99.46,13.78.46,20.77,0h0c4.05-.27,7.22-3.64,7.22-7.67v-10.24c0-4.04-3.17-7.41-7.22-7.67-3.49-.23-6.94-.34-10.39-.34Z"/>
      <polygon class="cls-3" points="39.69 20.82 35.49 27.91 40.4 27.91 37.58 32.98 43.73 32.98 41.06 38.76 48.55 31.16 42.98 31.16 46.56 25.99 41.8 25.99 45.87 20.82 39.69 20.82"/>
      <path class="cls-8" d="m45.28,34.48l-4.22,4.27,1.96-4.23c.75,0,1.5-.02,2.26-.04Z"/>
      <path class="cls-2" d="m78.76,38.84c6.13,3.25,9.73,9.76,12.23,15.98,0,0-3.22,1.08-3.22,1.08-.93-4.9-2.48-13.86,3.65-15.96,1.18-.38,2.74-.04,3.7.35,3.57,1.52,6.49,3.78,9.48,6.14l-2.63,2.03c-1.8-4.29-3.09-8.6-2.49-13.36.65-5.61,5.77-8.37,11-8.19,0,0,0,3.41,0,3.41-2.42-.03-4.89-.38-7.03-1.75-6.55-4.47-4.03-13.73-1.48-19.8,0,0,2.63,2.03,2.63,2.03-1.94,1.57-3.88,3.01-6.02,4.34-2.36,1.42-5.57,3.36-8.38,1.63-4.7-3.09-3.3-10.77-2.43-15.44,0,0,3.22,1.08,3.22,1.08-2.49,6.23-6.15,12.65-12.23,15.98-.85.45-1.69-.73-.99-1.39,3.25-3.45,5.68-7.53,7.91-11.69.75-1.4,1.44-2.84,2.19-4.27.4-.91,1.48-1.32,2.37-.85.71.37,1.04,1.18.85,1.93-.58,3.05-1.81,9.56.83,11.7.61.32.94.31,1.98-.07,3.05-1.3,5.91-3.5,8.54-5.58,1.35-1.13,3.38.43,2.64,2.02-2.86,6.57-4.99,17.03,5.42,16.72,2.22.07,2.24,3.33,0,3.41-7.28-.13-8.7,4.75-7.29,11.01.42,1.93,1.09,3.93,1.87,5.7.38.86,0,1.87-.87,2.25-.6.27-1.28.15-1.76-.23-1.78-1.44-3.7-2.86-5.64-4.06-2.26-1.29-5.11-3.39-6.09.31-.79,3.1-.27,6.66.38,9.81.29.89-.19,1.84-1.08,2.13-.9.3-1.81-.21-2.14-1.05-1.46-2.84-2.89-5.68-4.54-8.39-1.66-2.67-3.44-5.24-5.56-7.56-.67-.68.14-1.8.99-1.39h0Z"/>
    </g>
  </g>
</svg>