<?xml version="1.0" encoding="UTF-8"?>
<svg id="Layer_2" data-name="Layer 2" xmlns="http://www.w3.org/2000/svg" viewBox="0 0 118.03 118.03">
  <defs>
    <style>
      .cls-1 {
        fill: #000072;
      }

      .cls-2 {
        fill: #ffda22;
      }
    </style>
  </defs>
  <g id="Layer_2-2" data-name="Layer 2">
    <g>
      <g>
        <path class="cls-1" d="m106.03,59.03c0,4.49-9.2,8.4-22.95,10.56-6.94,1.09-12.4,6.55-13.49,13.49-2.16,13.74-6.07,22.95-10.56,22.95s-8.4-9.2-10.56-22.95c-1.09-6.94-6.55-12.41-13.49-13.49-13.75-2.16-22.98-6.07-22.98-10.56s9.22-8.43,22.96-10.57c6.95-1.08,12.42-6.55,13.51-13.5,2.16-13.76,6.07-22.96,10.56-22.96s8.4,9.2,10.56,22.96c1.09,6.95,6.56,12.42,13.51,13.5,13.73,2.14,22.93,6.06,22.93,10.57Z"/>
        <path class="cls-1" d="m59.03,118.03c-17.23,0-21.13-24.9-22.41-33.09-.28-1.78-1.72-3.22-3.5-3.5-8.19-1.28-33.12-5.19-33.12-22.42s24.93-21.16,33.12-22.43c1.78-.28,3.22-1.72,3.5-3.5C37.9,24.92,41.81,0,59.03,0s21.13,24.92,22.41,33.1c.28,1.78,1.72,3.22,3.5,3.5,8.18,1.27,33.08,5.16,33.08,22.43s-24.9,21.13-33.09,22.42c-1.78.28-3.22,1.72-3.5,3.5-1.28,8.18-5.19,33.09-22.42,33.09Zm-17.1-59.01c7.99,2.83,14.27,9.1,17.1,17.08,2.84-7.99,9.11-14.26,17.1-17.08-7.99-2.83-14.26-9.1-17.1-17.08-2.83,7.99-9.11,14.26-17.1,17.08Z"/>
      </g>
      <path class="cls-2" d="m106.03,59.03c0,4.49-9.2,8.4-22.95,10.56-6.94,1.09-12.4,6.55-13.49,13.49-2.16,13.74-6.07,22.95-10.56,22.95s-8.4-9.2-10.56-22.95c-1.09-6.94-6.55-12.41-13.49-13.49-13.75-2.16-22.98-6.07-22.98-10.56s9.22-8.43,22.96-10.57c6.95-1.08,12.42-6.55,13.51-13.5,2.16-13.76,6.07-22.96,10.56-22.96s8.4,9.2,10.56,22.96c1.09,6.95,6.56,12.42,13.51,13.5,13.73,2.14,22.93,6.06,22.93,10.57Z"/>
    </g>
  </g>
</svg>