<?xml version="1.0" encoding="UTF-8"?>
<svg id="Layer_2" data-name="Layer 2" xmlns="http://www.w3.org/2000/svg" viewBox="0 0 35.12 35.12">
  <defs>
    <style>
      .cls-1 {
        fill: #fff;
      }
    </style>
  </defs>
  <g id="planets">
    <path class="cls-1" d="m35.12,17.57c0,1.68-3.44,3.14-8.57,3.94-2.59.41-4.63,2.45-5.04,5.04-.8,5.13-2.27,8.57-3.94,8.57s-3.14-3.44-3.94-8.57c-.41-2.59-2.45-4.63-5.04-5.04-5.14-.8-8.58-2.27-8.58-3.94s3.44-3.15,8.58-3.95c2.6-.4,4.64-2.45,5.05-5.04.81-5.14,2.27-8.58,3.94-8.58s3.14,3.44,3.94,8.58c.41,2.59,2.45,4.64,5.05,5.04,5.13.8,8.56,2.26,8.56,3.95Z"/>
  </g>
</svg>