<?xml version="1.0" encoding="UTF-8"?>
<svg id="Layer_2" data-name="Layer 2" xmlns="http://www.w3.org/2000/svg" viewBox="0 0 368.44 241.4">
  <defs>
    <style>
      .cls-1 {
        fill: #ffde3e;
      }

      .cls-2 {
        fill: #fff;
      }

      .cls-3 {
        fill: #9157c3;
      }

      .cls-4 {
        fill: #b6c2dd;
      }

      .cls-5 {
        fill: #111a28;
      }

      .cls-6 {
        fill: #371a45;
      }

      .cls-7 {
        fill: #191919;
      }

      .cls-8 {
        fill: #5ac8ff;
      }

      .cls-9 {
        fill: #8382c4;
      }

      .cls-10 {
        fill: #4aadff;
      }

      .cls-11 {
        fill: #8388b2;
      }

      .cls-12 {
        opacity: .2;
      }

      .cls-13 {
        opacity: .25;
      }

      .cls-14 {
        opacity: .35;
      }

      .cls-15 {
        opacity: .6;
      }

      .cls-16 {
        opacity: .5;
      }
    </style>
  </defs>
  <g id="Layer_2-2" data-name="Layer 2">
    <g>
      <g>
        <path class="cls-6" d="m17.87,105.96l1.56,28.48c.1,1.76-1.26,3.27-3.02,3.37-1.76.1-3.27-1.25-3.37-3.02,0-.12,0-.23,0-.35l1.56-28.48c.05-.9.82-1.6,1.73-1.55.84.05,1.5.73,1.55,1.55Z"/>
        <g>
          <circle class="cls-1" cx="16.24" cy="105.96" r="5.13"/>
          <path class="cls-6" d="m16.24,113.39c-4.09,0-7.42-3.33-7.42-7.42s3.33-7.42,7.42-7.42,7.42,3.33,7.42,7.42-3.33,7.42-7.42,7.42Zm0-10.26c-1.56,0-2.83,1.27-2.83,2.83s1.27,2.83,2.83,2.83,2.83-1.27,2.83-2.83-1.27-2.83-2.83-2.83Z"/>
        </g>
      </g>
      <g>
        <g>
          <ellipse class="cls-1" cx="184.22" cy="201.08" rx="93.47" ry="38.03"/>
          <g class="cls-13">
            <path class="cls-6" d="m219.56,232.04c-51.62,0-93.47-17.03-93.47-38.03,0-12.1,13.89-22.88,35.53-29.84-40.7,4.11-70.87,19.07-70.87,36.9,0,21,41.85,38.03,93.47,38.03,21.89,0,42.01-3.06,57.94-8.19-7.24.73-14.81,1.12-22.6,1.12Z"/>
          </g>
          <path class="cls-6" d="m184.22,241.4c-53.7,0-95.77-17.71-95.77-40.32s42.07-40.32,95.77-40.32,95.77,17.71,95.77,40.32-42.07,40.32-95.77,40.32Zm0-76.05c-49.42,0-91.18,16.36-91.18,35.73s41.75,35.73,91.18,35.73,91.18-16.36,91.18-35.73-41.75-35.73-91.18-35.73Z"/>
        </g>
        <path class="cls-4" d="m366.15,155.83c0,37.95-81.46,68.74-181.93,68.74S2.3,193.78,2.3,155.83c0-.83.09-1.67.27-2.52,5.13-24.88,84.5-57.97,181.65-57.97s176.43,33.04,181.65,57.92v.03c.18.85.28,1.7.28,2.53Z"/>
        <path class="cls-3" d="m366.15,155.83c0,37.95-81.46,68.74-181.93,68.74S2.3,193.78,2.3,155.83c0-.83.09-1.67.27-2.52,5.19,32.66,84.54,58.59,181.65,58.59s176.49-25.94,181.65-58.61c.18.85.28,1.7.28,2.53Z"/>
        <g class="cls-13">
          <path class="cls-6" d="m361.01,164.57c-19.34,30.11-91.15,52.47-176.79,52.47S27.05,194.76,7.55,164.74c-2.66-3.69-4.36-7.51-4.98-11.43-.17.84-.27,1.69-.27,2.52,0,37.95,81.45,68.74,181.92,68.74s181.93-30.78,181.93-68.74c0-.84-.09-1.68-.28-2.53-.61,3.86-2.27,7.63-4.86,11.27Z"/>
        </g>
        <g class="cls-15">
          <path class="cls-2" d="m2.57,158.76c5.13-24.88,84.5-57.97,181.65-57.97s176.43,33.04,181.65,57.92v.03c.03.13.04.26.06.39.14-1.09.21-2.19.21-3.3,0-.84-.09-1.68-.28-2.53v-.03c-5.23-24.88-84.56-57.92-181.65-57.92S7.7,128.43,2.57,153.31c-.17.84-.27,1.69-.27,2.52,0,1.1.08,2.2.21,3.28.02-.12.03-.23.06-.35Z"/>
        </g>
        <g class="cls-13">
          <path class="cls-6" d="m101.67,151.9s-14.92,13.87-26.61,28.95c-3.62,4.67-1.63,11.51,3.93,13.5,16.01,5.73,50.56,15.42,105.23,17.55,0,0-74.77,1.74-126.56-17.46,0,0,16.73-27.24,41.06-44.28l2.95,1.73Z"/>
        </g>
        <g class="cls-13">
          <path class="cls-6" d="m263.53,153.29s14.16,7.25,30.33,28.74c3.45,4.59,1.63,11.2-3.7,13.34-13.07,5.23-41.09,13.27-94.38,16.41,0,0,79.71-2.51,115-17.34,0,0-17.47-28.78-41.06-43.95l-6.19,2.8Z"/>
        </g>
        <g class="cls-13">
          <path class="cls-6" d="m273.84,148.84s17.76,11.4,32.66,29.34c4.11,4.95,10.76,6.98,16.88,5.02,10.34-3.3,26.17-9.61,38.65-20.16,0,0-9.58,19.05-51.26,31.39,0,0-16.7-29.54-41.06-43.95l4.12-1.65Z"/>
        </g>
        <g class="cls-13">
          <path class="cls-6" d="m2.57,153.31s10.99,16.73,38.2,28.59c7.36,3.21,15.93,1.36,21.26-4.64,7.71-8.7,19.99-21.21,32.28-28.16l4.42,1.07s-22.05,15.41-41.06,44.28c0,0-52.56-16.36-55.1-41.13Z"/>
        </g>
        <g>
          <ellipse class="cls-1" cx="131.04" cy="183.29" rx="12.03" ry="9.57" transform="translate(-93.22 205.13) rotate(-60)"/>
          <g class="cls-15">
            <path class="cls-2" d="m137.05,172.88c-4.58-2.64-10.98-.12-14.3,5.63-.63,1.09-1.1,2.22-1.43,3.35,3.5-3.61,8.4-4.87,12.11-2.73,3.71,2.14,5.08,7.02,3.69,11.85.82-.85,1.56-1.82,2.19-2.91,3.32-5.75,2.31-12.56-2.27-15.2Z"/>
          </g>
          <path class="cls-6" d="m128.99,197.04c-1.78,0-3.53-.43-5.11-1.34-5.66-3.27-7.06-11.5-3.11-18.34,1.86-3.23,4.64-5.7,7.83-6.95,3.36-1.33,6.78-1.16,9.61.48,2.83,1.63,4.68,4.5,5.22,8.08.51,3.38-.24,7.02-2.11,10.25-2.85,4.93-7.71,7.82-12.32,7.82Zm4.06-22.92c-.89,0-1.83.19-2.77.56-2.22.87-4.18,2.64-5.53,4.98-2.68,4.65-2.04,10.06,1.43,12.06,3.47,2,8.48-.15,11.16-4.79,1.35-2.33,1.9-4.92,1.54-7.28-.32-2.16-1.38-3.86-2.97-4.78-.85-.49-1.83-.74-2.86-.74Z"/>
        </g>
        <g>
          <ellipse class="cls-1" cx="40.97" cy="148.61" rx="12.03" ry="9.57" transform="translate(-63.72 35.46) rotate(-27.36)"/>
          <g class="cls-15">
            <path class="cls-2" d="m51.65,143.08c-2.43-4.69-9.18-6.02-15.08-2.97-.93.48-1.78,1.05-2.54,1.67,4.49-.68,8.72.95,10.53,4.46,2.04,3.95.36,9.02-3.74,12.35,1.51-.23,3.06-.72,4.55-1.49,5.9-3.05,8.71-9.33,6.29-14.02Z"/>
          </g>
          <path class="cls-6" d="m38.85,161.05c-.94,0-1.86-.09-2.76-.27-3.55-.7-6.33-2.68-7.83-5.59-1.5-2.9-1.52-6.32-.04-9.62,1.4-3.12,3.99-5.78,7.31-7.5,7.02-3.63,15.17-1.86,18.17,3.95,3.01,5.81-.26,13.49-7.27,17.12h0c-2.42,1.25-5.03,1.9-7.58,1.9Zm6.52-3.94h0,0Zm-2.23-16.35c-1.77,0-3.68.45-5.5,1.4-2.39,1.24-4.25,3.12-5.23,5.3-.89,2-.92,4-.08,5.63.85,1.64,2.49,2.77,4.64,3.19,2.35.46,4.95.03,7.34-1.21h0c4.77-2.47,7.15-7.37,5.3-10.93-1.14-2.2-3.62-3.38-6.48-3.38Z"/>
        </g>
        <g>
          <ellipse class="cls-1" cx="237.4" cy="183.29" rx="9.57" ry="12.03" transform="translate(-59.84 143.26) rotate(-30)"/>
          <g class="cls-15">
            <path class="cls-2" d="m231.39,172.88c4.58-2.64,10.98-.12,14.3,5.63.63,1.09,1.1,2.22,1.43,3.35-3.5-3.61-8.4-4.87-12.11-2.73-3.71,2.14-5.08,7.02-3.69,11.85-.82-.85-1.56-1.82-2.19-2.91-3.32-5.75-2.31-12.56,2.27-15.2Z"/>
          </g>
          <path class="cls-6" d="m239.43,197.06c-1.46,0-2.97-.29-4.47-.88-3.18-1.25-5.96-3.72-7.83-6.95-1.86-3.23-2.61-6.87-2.11-10.25.53-3.58,2.39-6.45,5.22-8.08,5.66-3.27,13.49-.36,17.44,6.48,1.86,3.23,2.61,6.87,2.11,10.25-.53,3.58-2.39,6.45-5.22,8.08-1.57.91-3.32,1.36-5.14,1.36Zm-4.01-22.95c-1.02,0-2,.24-2.88.75-1.59.92-2.65,2.62-2.97,4.78-.35,2.36.2,4.95,1.54,7.28,1.35,2.34,3.31,4.1,5.53,4.98,2.04.8,4.03.74,5.63-.18,1.59-.92,2.65-2.62,2.97-4.78.35-2.36-.2-4.95-1.54-7.28-2-3.47-5.3-5.55-8.28-5.55Z"/>
        </g>
        <g>
          <ellipse class="cls-1" cx="327.47" cy="148.61" rx="9.57" ry="12.03" transform="translate(44.97 371.14) rotate(-62.64)"/>
          <g class="cls-15">
            <path class="cls-2" d="m316.79,143.08c2.43-4.69,9.18-6.02,15.08-2.97.93.48,1.78,1.05,2.54,1.67-4.49-.68-8.72.95-10.53,4.46-2.05,3.95-.36,9.02,3.74,12.35-1.51-.23-3.06-.72-4.55-1.49-5.9-3.05-8.71-9.33-6.29-14.02Z"/>
          </g>
          <path class="cls-6" d="m329.6,161.05c-2.54,0-5.16-.65-7.58-1.9h0c-7.02-3.63-10.28-11.31-7.27-17.12,1.5-2.9,4.28-4.89,7.83-5.59,3.36-.66,7.03-.08,10.34,1.64,3.31,1.71,5.91,4.38,7.31,7.5,1.48,3.3,1.47,6.72-.04,9.62-1.5,2.9-4.28,4.89-7.83,5.59-.9.18-1.83.27-2.76.27Zm-5.47-5.98c2.39,1.24,5,1.67,7.34,1.21,2.15-.42,3.8-1.56,4.64-3.19.85-1.63.82-3.63-.08-5.63-.98-2.18-2.83-4.06-5.23-5.3-2.4-1.24-5.01-1.67-7.34-1.21-2.15.42-3.8,1.56-4.64,3.19-1.84,3.56.54,8.46,5.3,10.93h0Z"/>
        </g>
        <g>
          <path class="cls-6" d="m184.22,213.74c-1.01,0-1.84-.82-1.84-1.84v-51.95c0-1.01.82-1.84,1.84-1.84s1.84.82,1.84,1.84v51.95c0,1.01-.82,1.84-1.84,1.84Z"/>
          <path class="cls-6" d="m310.78,196.28c-.63,0-1.24-.32-1.58-.9-.15-.25-15-24.88-40.55-43.08-.83-.59-1.02-1.74-.43-2.56.59-.82,1.73-1.02,2.56-.43,26.2,18.67,41.42,43.94,41.57,44.19.52.87.23,2-.64,2.52-.29.18-.62.26-.94.26Z"/>
          <path class="cls-6" d="m57.66,196.28c-.32,0-.64-.08-.94-.26-.87-.52-1.16-1.65-.64-2.52.15-.25,15.37-25.52,41.57-44.19.83-.59,1.97-.39,2.56.43.59.83.4,1.97-.43,2.56-25.55,18.2-40.4,42.83-40.55,43.08-.34.58-.95.9-1.58.9Z"/>
          <path class="cls-6" d="m184.22,213.74c-47.05,0-91.75-6.09-125.88-17.15C23.82,185.41,3.37,170.14.75,153.58c-.16-1,.53-1.94,1.53-2.1,1-.16,1.94.53,2.1,1.53,2.39,15.12,21.96,29.36,55.09,40.1,33.77,10.94,78.08,16.97,124.75,16.97s90.98-6.03,124.75-16.97c33.14-10.73,52.7-24.97,55.09-40.1.16-1,1.08-1.69,2.1-1.53,1,.16,1.69,1.1,1.53,2.1-2.62,16.56-23.07,31.83-57.59,43.02-34.13,11.06-78.84,17.15-125.88,17.15Z"/>
        </g>
        <g class="cls-15">
          <path class="cls-2" d="m289.39,149.11c-12.4,6.06-44.18,17.71-105.17,17.71s-92.77-11.65-105.17-17.71c-3.92-1.91-6.23-6.47-5.68-11.19,0-.03,0-.06.01-.09.82-6.96,5.52-12.87,12.13-15.23,13.87-4.97,43.28-12,98.71-12s84.85,7.03,98.71,12c6.6,2.37,11.31,8.27,12.13,15.23,0,.03,0,.06.01.09.55,4.72-1.76,9.29-5.68,11.19Z"/>
        </g>
        <path class="cls-6" d="m184.22,226.86c-48.86,0-94.84-7.2-129.45-20.28C19.45,193.23,0,175.21,0,155.82c0-13.69,20.48-29.32,54.8-41.8,37.15-13.52,83.11-20.96,129.43-20.96s92.28,7.45,129.43,20.96c34.31,12.49,54.8,28.11,54.8,41.8,0,19.38-19.45,37.41-54.77,50.75-34.61,13.08-80.59,20.28-129.45,20.28Zm0-129.21c-99.16,0-179.63,35.2-179.63,58.18,0,17.34,18.4,33.84,51.8,46.46,34.11,12.89,79.51,19.98,127.83,19.98s93.72-7.1,127.83-19.98c33.4-12.62,51.8-29.12,51.8-46.46,0-22.97-80.47-58.18-179.63-58.18Z"/>
        <path class="cls-8" d="m283.71,140.97c-11.73,7.17-41.8,20.98-99.49,20.98s-87.76-13.81-99.49-20.98c-3.71-2.26-5.9-7.67-5.37-13.26.32-3.4.8-7.62,1.52-12.43,1.14-7.53,2.87-16.5,5.52-26.05C97.11,50.54,122.78,2.3,184.22,2.3s87.12,48.24,97.83,86.93c2.65,9.55,4.38,18.52,5.52,26.05.72,4.81,1.2,9.03,1.52,12.43.52,5.6-1.66,11-5.37,13.26Z"/>
        <g class="cls-13">
          <path class="cls-6" d="m129.22,21.82c.41-.57.66-.87.66-.87l-1.43-.85c-23.05,17.56-35.42,45.18-42.06,69.14-2.65,9.55-4.38,18.52-5.52,26.05-.72,4.81-1.2,9.03-1.52,12.43-.52,5.6,1.66,11,5.37,13.26,11.73,7.17,41.8,20.98,99.49,20.98s87.76-13.81,99.49-20.98c3.71-2.26,5.9-7.67,5.37-13.26-.32-3.4-.8-7.62-1.52-12.43-.5-3.28-1.11-6.85-1.86-10.61-.73-.04-1.45-.09-2.18-.13C84.68,92.87,123.32,29.98,129.22,21.82Z"/>
        </g>
        <path class="cls-4" d="m285.26,144.71c-11.91,5.22-42.45,15.25-101.03,15.25s-89.12-10.04-101.03-15.25c-3.77-1.64-5.99-5.57-5.45-9.64.32-2.47.81-5.54,1.54-9.04,1.16-5.47,2.91-11.99,5.6-18.94,10.83-3.38,39.07-9.66,99.34-9.66s88.52,6.28,99.34,9.66c2.69,6.94,4.44,13.46,5.6,18.94.73,3.5,1.22,6.57,1.54,9.04.53,4.07-1.69,8-5.45,9.64Z"/>
        <path class="cls-11" d="m283.72,140.96c-6.41,3.91-18.27,9.81-37.13,14.35-15.78,2.66-36.29,4.65-62.36,4.65s-46.58-1.99-62.36-4.65c-18.86-4.54-30.73-10.44-37.13-14.35-3.7-2.26-5.89-7.67-5.37-13.27.05-.59.11-1.18.18-1.82,2.72-1.57,27.31-14.35,104.69-14.35s101.97,12.78,104.69,14.35c.07.64.13,1.23.18,1.82.52,5.6-1.67,11-5.37,13.27Z"/>
        <g class="cls-13">
          <path class="cls-6" d="m290.24,133.61c-.84,2.99-2.61,5.5-4.99,6.83-11.91,6.68-42.45,19.52-101.03,19.52s-89.12-12.85-101.03-19.52c-2.38-1.33-4.15-3.84-4.99-6.83.28-2.25.63-4.73,1.07-7.42,0,0,22.53-18.56,104.95-18.56s104.95,18.56,104.95,18.56c.44,2.69.79,5.17,1.07,7.42Z"/>
        </g>
        <g class="cls-15">
          <path class="cls-2" d="m79.27,131.54c1.16-5.47,2.91-11.99,5.6-18.94,10.83-3.38,39.07-9.66,99.34-9.66s88.52,6.28,99.34,9.66c2.69,6.94,4.44,13.46,5.6,18.94.56,2.67.98,5.09,1.28,7.18.32-1.16.42-2.4.26-3.65-.32-2.47-.81-5.54-1.54-9.04-1.16-5.47-2.91-11.99-5.6-18.94-10.83-3.38-39.07-9.66-99.34-9.66s-88.52,6.28-99.34,9.66c-2.69,6.94-4.44,13.46-5.6,18.94-.73,3.5-1.22,6.57-1.54,9.04-.16,1.25-.06,2.49.26,3.65.31-2.09.72-4.51,1.28-7.18Z"/>
        </g>
        <g>
          <path class="cls-6" d="m289.16,128.33c-.42,0-.85-.12-1.23-.36-.29-.18-23.49-14.14-103.71-14.14s-103.48,14-103.7,14.14c-1.06.69-2.49.38-3.17-.69-.69-1.07-.38-2.49.69-3.17.94-.61,24.04-14.87,106.19-14.87s105.24,14.26,106.19,14.87c1.07.69,1.37,2.11.69,3.17-.44.68-1.18,1.05-1.93,1.05Z"/>
          <path class="cls-6" d="m84.88,109.39c-.98,0-1.88-.63-2.19-1.61-.38-1.21.3-2.5,1.51-2.88,11.69-3.65,40.23-9.76,100.03-9.76s88.34,6.12,100.03,9.76c1.21.38,1.89,1.67,1.51,2.88-.38,1.21-1.67,1.88-2.88,1.51-11.44-3.57-39.47-9.55-98.66-9.55s-87.22,5.99-98.66,9.56c-.23.07-.46.1-.68.1Z"/>
        </g>
        <g>
          <path class="cls-2" d="m162.7,159.47c-1.37-.04-2.75-.08-4.13-.15-8.71-.39-17.4-1.3-24.19-2.19-7.78-.99-13.07-1.93-13.07-1.93v-43.05c0-3.68,1.35-7.04,3.57-9.62,2.71-3.14,6.71-5.13,11.19-5.13h24.52l.17,4.83.26,7.63,1,29.37.69,20.24Z"/>
          <g class="cls-13">
            <path class="cls-6" d="m162.01,139.82l-1.22,17.05-1.73,2.45c-7.47-.37-14.91-1.27-20.73-2.12v-45.62c0-1.37.35-2.74,1.08-3.84.69-1.03,1.8-1.98,3.52-2.03,2.73-.08,12.57-.04,18-.03l.22,5.62.86,28.51Z"/>
          </g>
          <path class="cls-6" d="m125.32,101.66l14.53,5.07c.2.07.3.28.23.48-.06.18-.24.28-.42.25h-.02s-15.07-2.71-15.07-2.71h-.06c-.87-.17-1.44-1-1.29-1.86.16-.87.98-1.44,1.85-1.29.08.01.17.04.24.06Z"/>
          <path class="cls-6" d="m162.7,161.06s-.02,0-.04,0c-19.87-.48-41.41-4.25-41.63-4.29-.76-.13-1.31-.79-1.31-1.56v-43.05c0-9.01,7.33-16.34,16.34-16.34h24.53c.85,0,1.56.68,1.58,1.53l2.11,62.07c.02.44-.15.86-.46,1.17-.3.3-.7.47-1.13.47Zm-39.81-7.19c4.78.79,21.83,3.43,38.16,3.97l-2-58.85h-22.99c-7.26,0-13.17,5.91-13.17,13.17v41.71Z"/>
        </g>
        <g>
          <path class="cls-2" d="m251.64,131.82h-33.12l-5.38,3.75-2.57,1.79-.41.29-12.24-26.26-3.07-6.58,1.4-1.4,2.64-2.64s3.71,1.41,8.5,5.25c3.34,2.68,7.21,6.54,10.7,11.92,0,0,21.93-2.41,30.11,0,2.42.71,4.22,2.21,5.55,3.99.86,1.12,1.52,2.36,2.04,3.56,1.28,2.98-.89,6.31-4.14,6.31Z"/>
          <g class="cls-13">
            <path class="cls-6" d="m251.64,131.82h-33.12l-5.38,3.75c-.73-.13-1.16-.23-1.24-.27-.32-.16-4.67-9.28-4.67-9.28l-5.16-13.88s3.75,4.07,7.22,8.21c3.19,3.79,7.88,5.98,12.84,5.98h7.21s.84-3.74,3.49-4.12c0,0,1.83,7.59,6.98,6.23,0,0,3.31.95,2.88-4.75,0,0,.93,4.12,2.28,4.55,1.35.43,1.99-3.72,1.92-4.55,0,0,1.47,4.36,2.37,4.36s1.79-1.94,1.39-4.36c0,0,1.61,4.06,2.38,4.06s2.7-2.23.95-5.26c-.13-.22-.19-.39-.21-.54.86,1.12,1.52,2.36,2.04,3.56,1.28,2.98-.89,6.31-4.14,6.31Z"/>
          </g>
          <g>
            <path class="cls-6" d="m233.26,122.4c-.15,1.03-.21,2.1-.16,3.08.06.99.26,1.91.71,2.65.44.73,1.04,1.32,1.88,1.69l.29.16.34.1c.22.07.44.15.66.23l1.44.3.15.03c.66.14,1.09.79.95,1.45-.13.64-.75,1.06-1.39.96-.6-.1-1.2-.19-1.8-.33-.3-.1-.6-.2-.9-.31l-.44-.17-.43-.24c-1.17-.55-2.2-1.62-2.77-2.83-.57-1.23-.7-2.55-.56-3.75.15-1.22.52-2.34,1.15-3.37.14-.23.43-.3.66-.16.17.1.25.29.23.48v.04Z"/>
            <path class="cls-6" d="m241.25,131.03c.35-.3.78-.88,1.06-1.42.3-.56.53-1.17.65-1.81.12-.64.18-1.32.09-2-.06-.69-.25-1.36-.48-2.04h0c-.02-.07.01-.14.08-.17.06-.02.11,0,.15.05.4.61.79,1.26,1.04,1.97.28.71.43,1.48.49,2.27.06.79-.02,1.6-.21,2.39-.21.81-.45,1.52-.97,2.35v.02c-.38.58-1.15.75-1.73.39-.58-.37-.75-1.14-.39-1.72.06-.1.15-.2.24-.27Z"/>
            <path class="cls-6" d="m245.45,131.03c.35-.3.78-.88,1.06-1.42.3-.56.53-1.17.65-1.81.12-.64.17-1.32.09-2-.06-.69-.25-1.36-.48-2.04h0c-.02-.07.01-.14.08-.17.05-.02.11,0,.14.05.4.61.79,1.26,1.04,1.97.28.71.43,1.48.49,2.27.06.79-.02,1.6-.21,2.39-.21.81-.45,1.52-.97,2.35v.02c-.38.58-1.15.75-1.73.39-.58-.37-.75-1.14-.39-1.72.07-.1.15-.2.24-.27Z"/>
            <path class="cls-6" d="m249.2,131.03c.35-.3.78-.88,1.06-1.42.3-.56.53-1.17.65-1.81.12-.64.17-1.32.09-2-.06-.69-.25-1.36-.48-2.04h0c-.02-.07.01-.14.08-.17.05-.02.11,0,.14.05.4.61.79,1.26,1.04,1.97.28.71.43,1.48.49,2.27.06.79-.02,1.6-.21,2.39-.21.81-.45,1.52-.97,2.35v.02c-.38.58-1.15.75-1.73.39-.58-.37-.75-1.14-.39-1.72.07-.1.15-.2.24-.27Z"/>
            <path class="cls-6" d="m237.83,124.74c.67.29,1.28.69,1.85,1.19.55.5,1.08,1.1,1.41,1.9.35.78.42,1.84.03,2.74-.35.93-1.03,1.52-1.67,2.05-.52.43-1.3.36-1.73-.16-.43-.52-.36-1.3.16-1.73.02-.02.05-.04.07-.06l.12-.08c.43-.31.89-.6,1.1-.96.23-.34.34-.75.26-1.28-.08-.52-.33-1.1-.67-1.65-.33-.56-.73-1.11-1.15-1.65h0c-.06-.09-.05-.21.03-.28.06-.04.13-.05.19-.02Z"/>
          </g>
          <path class="cls-6" d="m207.44,133.05c-.13,0-.25-.02-.38-.06-.65-.21-1-.9-.79-1.55,3.56-10.96,11-14.45,11.31-14.6.62-.28,1.35,0,1.63.61.28.62,0,1.34-.61,1.63h0c-.07.03-6.79,3.25-10,13.12-.17.52-.65.85-1.17.85Z"/>
          <path class="cls-6" d="m210.16,138.88c-.11,0-.21-.01-.32-.04-.35-.09-.64-.34-.79-.67l-15.31-32.83c-.22-.47-.12-1.02.25-1.39l4.04-4.03c.34-.34.85-.45,1.31-.28.44.17,10.83,4.24,19.38,17.02,3.99-.41,22.29-2.09,29.85.12,3.51,1.03,6.34,3.74,8.19,7.84.83,1.84.67,3.95-.43,5.66-1.12,1.73-3.02,2.77-5.08,2.77h-32.32l-8.05,5.61c-.21.15-.45.22-.7.22Zm-13.83-33.8l14.33,30.73,7.17-5c.21-.14.45-.22.7-.22h32.71c1.22,0,2.35-.62,3.01-1.65.66-1.02.75-2.22.26-3.31-1.57-3.47-3.8-5.66-6.65-6.49-7.85-2.3-29.42.02-29.63.04-.46.05-.91-.16-1.16-.55-6.95-10.69-15.42-15.22-17.9-16.38l-2.84,2.83Z"/>
        </g>
        <g>
          <path class="cls-2" d="m213.95,159.1c-21.98,2.19-44.86,1.09-56.47.24-4.88-.35-7.76-.66-7.76-.66-.95-4.25-1.46-8.4-1.65-12.39-.27-5.48.08-10.66.78-15.42,1.4-9.49,4.21-17.25,6.37-22.18,1.65-3.76,2.93-5.88,2.93-5.88h37.53c.19.2.38.4.56.62,1.7,1.92,3.25,4.15,4.66,6.58,4.61,8.02,7.68,18.27,9.67,27.35,2.62,11.9,3.38,21.74,3.38,21.74Z"/>
          <g class="cls-13">
            <path class="cls-6" d="m159.39,116.98s-7.96,13.99-4.8,22.93c3.16,8.93,27.82,1.87,27.82,1.87l-6.85,6h-27.94s-.62-16.28,3.47-21.28c4.09-4.99,8.29-9.52,8.29-9.52Z"/>
          </g>
          <g class="cls-13">
            <path class="cls-6" d="m171.4,144.83v7.53c0,2.26,1.83,4.09,4.09,4.09h33.06v-7.35l-37.14-4.27Z"/>
          </g>
          <path class="cls-6" d="m197.53,107.02c-.85-1.19-1.75-2.32-2.74-3.37l.9.39h-37.53l1.05-.59c-2.28,4.03-4.12,8.49-5.63,12.96-1.51,4.49-2.63,9.12-3.38,13.79-.74,4.68-1.07,9.42-.97,14.15.11,4.73.69,9.44,1.69,14.06l-1.07-.96c5.29.52,10.64.9,15.97,1.18,5.34.28,10.68.44,16.02.5,5.34.07,10.68,0,16.02-.19,5.34-.17,10.66-.57,15.97-1.05l-1.1,1.37c-.56-3.96-1.24-7.95-1.94-11.91-.7-3.97-1.53-7.91-2.38-11.84-.89-3.92-1.85-7.83-3.02-11.67l-3.63-11.51h0c-.06-.19.04-.39.23-.45.15-.05.32.01.4.15,2.24,3.45,3.81,7.27,5.12,11.14,1.29,3.88,2.37,7.81,3.37,11.76,1.01,3.95,1.77,7.95,2.52,11.95.38,2,.7,4.01.99,6.02.3,2.02.58,4.02.79,6.07l.13,1.26-1.23.1h0c-5.37.49-10.74.89-16.12,1.06-5.38.19-10.76.27-16.14.2-5.38-.06-10.75-.22-16.12-.5-5.37-.28-10.72-.65-16.1-1.19l-.88-.09-.19-.87c-1.03-4.78-1.63-9.65-1.74-14.53-.11-4.88.24-9.77,1-14.59.78-4.81,1.93-9.57,3.48-14.19,1.56-4.63,3.4-9.11,5.85-13.45l.34-.6h38.78l.36.39c1.07,1.14,2.05,2.36,2.95,3.62.39.55.27,1.32-.29,1.71-.55.39-1.32.27-1.71-.29h0Z"/>
        </g>
        <g>
          <rect class="cls-2" x="171.93" y="127.23" width="42.64" height="26.2" rx="13.1" ry="13.1"/>
          <g class="cls-13">
            <path class="cls-6" d="m214.57,136.09v9.41c0,2.76-2.24,4.99-4.99,4.99h-32.66c-2.75,0-4.99-2.23-4.99-4.99v-9.41c0,2.76,2.23,4.99,4.99,4.99h32.66c2.75,0,4.99-2.23,4.99-4.99Z"/>
          </g>
          <g>
            <path class="cls-6" d="m192.38,154.62c-.66,0-1.19-.53-1.19-1.19v-10.81c0-.61-.49-1.1-1.1-1.1-1.92,0-3.48-1.56-3.48-3.48v-10.81c0-.66.53-1.19,1.19-1.19s1.19.53,1.19,1.19v10.81c0,.61.49,1.1,1.1,1.1,1.92,0,3.48,1.56,3.48,3.48v10.81c0,.66-.53,1.19-1.19,1.19Z"/>
            <path class="cls-6" d="m183.73,154.62c-3.41,0-6.18-2.77-6.18-6.18v-16.22c0-3.41,2.77-6.18,6.18-6.18.66,0,1.19.53,1.19,1.19s-.53,1.19-1.19,1.19c-2.09,0-3.8,1.7-3.8,3.8v16.22c0,2.09,1.7,3.8,3.8,3.8.66,0,1.19.53,1.19,1.19s-.53,1.19-1.19,1.19Z"/>
          </g>
          <g>
            <ellipse class="cls-10" cx="205.81" cy="139.91" rx="5.51" ry="6.4"/>
            <g class="cls-15">
              <path class="cls-2" d="m205.04,136.46c3.04,0,5.51,2.87,5.51,6.4,0,.11,0,.22-.01.32.49-.96.78-2.07.78-3.27,0-3.53-2.47-6.4-5.51-6.4s-5.35,2.69-5.49,6.08c.96-1.87,2.72-3.13,4.73-3.13Z"/>
            </g>
            <path class="cls-6" d="m207.22,145.23c-2.59,0-4.7-2.39-4.7-5.32s2.11-5.32,4.7-5.32,4.7,2.39,4.7,5.32-2.11,5.32-4.7,5.32Zm0-8.97c-1.67,0-3.02,1.64-3.02,3.65s1.36,3.65,3.02,3.65,3.02-1.64,3.02-3.65-1.36-3.65-3.02-3.65Z"/>
            <path class="cls-6" d="m205.81,147.5c-3.69,0-6.7-3.41-6.7-7.59s3.01-7.59,6.7-7.59,6.7,3.41,6.7,7.59-3.01,7.59-6.7,7.59Zm0-12.8c-2.38,0-4.31,2.34-4.31,5.21s1.94,5.21,4.31,5.21,4.31-2.34,4.31-5.21-1.94-5.21-4.31-5.21Z"/>
          </g>
          <path class="cls-6" d="m209.58,154.62h-32.66c-3.41,0-6.18-2.77-6.18-6.18v-16.22c0-3.41,2.77-6.18,6.18-6.18h32.66c3.41,0,6.18,2.77,6.18,6.18v16.22c0,3.41-2.77,6.18-6.18,6.18Zm-32.66-26.2c-2.09,0-3.8,1.7-3.8,3.8v16.22c0,2.09,1.7,3.8,3.8,3.8h32.66c2.09,0,3.8-1.7,3.8-3.8v-16.22c0-2.09-1.7-3.8-3.8-3.8h-32.66Z"/>
        </g>
        <g>
          <rect class="cls-2" x="147.11" y="137.41" width="26.95" height="6.98" rx="3.49" ry="3.49"/>
          <g class="cls-13">
            <path class="cls-6" d="m172.01,140.9h-22.85c-1.03,0-1.87-.76-2.02-1.75-.01.1-.03.2-.03.3v2.88c0,1.13.92,2.05,2.05,2.05h22.85c1.13,0,2.05-.92,2.05-2.05v-2.88c0-.1-.02-.2-.03-.3-.15.99-.99,1.75-2.02,1.75Z"/>
          </g>
          <path class="cls-6" d="m172.01,145.61h-22.85c-1.8,0-3.27-1.47-3.27-3.27v-2.88c0-1.8,1.47-3.27,3.27-3.27h22.85c1.8,0,3.27,1.47,3.27,3.27v2.88c0,1.8-1.47,3.27-3.27,3.27Zm-22.85-6.98c-.46,0-.83.37-.83.83v2.88c0,.46.37.83.83.83h22.85c.46,0,.83-.37.83-.83v-2.88c0-.46-.37-.83-.83-.83h-22.85Z"/>
        </g>
        <g>
          <path class="cls-2" d="m166.1,157.03c.34,1.48.21,2.6.21,2.6,0,0-3.56-.05-8.83-.29-8.64-.39-21.86-1.3-31.39-3.35,0,0-7.07-14.34,3.95-30.82,6.08-9.08,13.58-15.98,19.08-20.34h0c.07-.06.15-.12.22-.17,4.36-3.44,7.42-5.24,7.42-5.24l6.35,3.4,8.28,4.44s-3.7,2.74-7.15,5.51c-1.94,1.56-3.79,3.14-4.89,4.25-4.09,4.15-7.7,9.3-10.51,13.86-3.84,6.22-6.18,11.34-6.18,11.34l5.4,4.08,1.65,1.25s5.3-5.81,8.49-4.58c3.2,1.22,0,7.44,0,7.44,5.54,1.01,7.33,4.28,7.89,6.64Z"/>
          <g class="cls-13">
            <path class="cls-6" d="m166.31,159.63s-24.89-.35-40.22-3.65c0,0-7.07-14.34,3.95-30.82,6.08-9.08,13.58-15.98,19.08-20.34h0s-23.89,27.31-17.18,40.9c6.54,13.25,32.85,11.4,34.15,11.3.34,1.48.21,2.6.21,2.6Z"/>
          </g>
          <path class="cls-6" d="m126.09,157.57c-.17,0-.33-.03-.5-.08-.83-.28-1.28-1.18-1-2.01,4.4-13.2,17.36-14.79,17.91-14.85.88-.1,1.66.53,1.75,1.4.1.87-.53,1.65-1.4,1.75h0c-.47.05-11.51,1.46-15.25,12.7-.22.66-.84,1.08-1.5,1.09Z"/>
          <path class="cls-6" d="m159.71,117.39c-1.7,1.85-3.29,3.78-4.77,5.79-1.45,2.04-2.85,4.11-4.13,6.26-1.28,2.15-2.48,4.35-3.59,6.59-1.09,2.24-2.18,4.53-3.09,6.79h0s-.51-1.87-.51-1.87l7.02,5.36-2.05.19c1.16-1.21,2.32-2.26,3.68-3.23.68-.48,1.4-.93,2.22-1.31.8-.37,1.74-.7,2.88-.68.14,0,.28,0,.42.02l.45.1c.3.07.59.15.87.32.28.15.57.3.81.56.25.24.48.48.63.77.66,1.15.63,2.24.55,3.15-.22,1.85-.8,3.33-1.54,4.88h0s-1.07-2.16-1.07-2.16c.6.16,1.21.3,1.81.48.59.24,1.19.41,1.76.73,1.16.55,2.22,1.37,3.12,2.34.9.98,1.53,2.18,1.92,3.42.19.62.32,1.25.39,1.89.07.66.09,1.24.02,1.99h0c-.06.61-.58,1.06-1.18,1.06h-.02c-6.78-.12-13.52-.42-20.27-.96-6.75-.56-13.49-1.28-20.19-2.67h-.04c-.37-.09-.66-.34-.8-.66-1.28-2.92-1.89-5.83-2.2-8.86-.29-3.01-.14-6.05.39-9.01.48-2.98,1.5-5.84,2.72-8.58l.99-2.02c.32-.68.76-1.29,1.13-1.94.4-.63.76-1.29,1.18-1.9l1.28-1.81c3.42-4.82,7.41-9.19,11.7-13.22,4.33-4,8.9-7.67,13.97-10.83.37-.23.82-.23,1.18-.04h.03s14.63,7.85,14.63,7.85c.6.32.82,1.06.5,1.66-.32.6-1.06.82-1.66.5l-14.63-7.84,1.2-.02c-4.79,2.99-9.35,6.63-13.54,10.51-4.18,3.93-8.06,8.19-11.38,12.85l-1.23,1.75c-.41.59-.74,1.2-1.12,1.8-.35.61-.77,1.19-1.06,1.82l-.93,1.89c-1.14,2.56-2.09,5.22-2.53,7.99-.49,2.75-.62,5.57-.36,8.35.06.7.14,1.39.27,2.08.1.69.26,1.37.41,2.05.33,1.33.76,2.72,1.28,3.88l-.84-.66c6.5,1.35,13.19,2.07,19.87,2.62,6.69.52,13.41.88,20.11,1.03l-1.2,1.05h0c.03-.85-.12-1.93-.45-2.81-.34-.9-.82-1.73-1.49-2.39-.68-.65-1.45-1.21-2.36-1.59-.43-.22-.93-.33-1.39-.5l-1.49-.32c-.83-.18-1.36-1-1.18-1.83.02-.11.06-.21.1-.31v-.02s.01,0,.01,0c.57-1.19,1.1-2.62,1.21-3.82.07-.59-.02-1.12-.14-1.29-.09-.16-.28-.27-.67-.29-.39-.02-.96.13-1.52.41-.57.26-1.15.62-1.72,1.03-1.12.8-2.24,1.82-3.19,2.82h-.01c-.54.59-1.42.65-2.04.19l-7.08-5.28c-.59-.44-.78-1.22-.51-1.87h0c1.08-2.41,2.24-4.67,3.53-6.91,1.28-2.23,2.64-4.42,4.08-6.54,1.44-2.13,3.01-4.18,4.68-6.13,1.68-1.95,3.54-3.75,5.52-5.39.22-.18.55-.15.73.07.17.2.16.49-.02.68h-.01Z"/>
        </g>
        <path class="cls-9" d="m282.35,134.48l-1.61,8.34s-25.66,13.14-65.9,17.55c-4.84.53-9.9.94-15.14,1.17l7.06-23.28c1.13-3.72,4.31-6.27,7.98-6.41l63.61-2.43c2.56-.1,4.53,2.38,4.01,5.06Z"/>
        <g class="cls-15">
          <path class="cls-2" d="m282.35,134.48l-.4,2.09c-.74-1.14-1.99-1.9-3.41-1.84l-56.61,2.16c1.31-3.28,4.29-5.48,7.69-5.61l48.72-1.86c2.56-.1,4.53,2.38,4.01,5.06Z"/>
        </g>
        <path class="cls-6" d="m214.86,161.55c-.14,0-.29-.02-.43-.06-.79-.24-1.23-1.07-.99-1.86l6.78-22.36c1.3-4.3,5.06-7.31,9.34-7.47.84,0,1.51.61,1.54,1.43.03.82-.61,1.51-1.43,1.55-3.01.12-5.67,2.27-6.61,5.36l-6.78,22.36c-.19.64-.79,1.06-1.42,1.06Z"/>
        <path class="cls-6" d="m199.7,163.03c-.46,0-.89-.21-1.18-.58-.3-.38-.39-.88-.25-1.35l7.06-23.28c1.31-4.3,5.06-7.31,9.34-7.47l63.6-2.43c1.61-.07,3.16.63,4.25,1.89,1.16,1.36,1.63,3.16,1.29,4.94l-1.61,8.34c-.09.45-.38.83-.78,1.04-.33.17-33.06,16.68-81.65,18.89-.02,0-.05,0-.07,0Zm78.79-32.13s-.06,0-.09,0l-63.61,2.43c-3.01.12-5.67,2.27-6.61,5.36l-6.45,21.26c43.06-2.35,72.99-15.9,77.68-18.14l1.47-7.61c.17-.89-.06-1.77-.63-2.44-.47-.55-1.1-.85-1.78-.85Z"/>
        <g class="cls-13">
          <path class="cls-6" d="m229.82,131.18c-3.4.13-6.38,2.33-7.69,5.61-.11.25-.21.53-.29.8l-6.78,22.37s0,.11-.02.31c-4.56.5-9.3.88-14.22,1.13-.31.01-.61.03-.93.05l7.06-23.28c1.13-3.72,4.31-6.27,7.98-6.41l14.89-.57Z"/>
        </g>
        <g class="cls-15">
          <path class="cls-2" d="m287.94,133.71c.67-1.62,1.08-3.45,1.19-5.36-.01-.22-.02-.43-.04-.65-.32-3.4-.8-7.62-1.52-12.43-1.14-7.53-2.87-16.5-5.52-26.05C271.34,50.54,245.67,2.3,184.22,2.3c-41.84,0-67.1,22.38-82.33,48.87,15.77-23.66,40.58-42.6,79.61-42.6,62.4,0,88.47,48.34,99.35,87.11,2.69,9.57,4.44,18.56,5.6,26.1.7,4.58,1.17,8.61,1.49,11.92Z"/>
        </g>
        <g class="cls-13">
          <path class="cls-6" d="m207.39,106.05c-2.04,1.49-4.21,2.81-6.49,3.97-.97.5-1.97.96-2.98,1.39-2.66,1.13-5.46,2.02-8.38,2.66-8.71,1.91-17.38,1.32-25.28-1.3-3.15-1.04-6.17-2.41-9.03-4.07-2.05-1.19-4.01-2.54-5.87-4.03,4.36-3.44,7.42-5.24,7.42-5.24l6.35,3.4h32.56c.19.2.38.4.56.62l2.64-2.64s3.71,1.41,8.5,5.25Z"/>
        </g>
        <path class="cls-6" d="m184.22,164.24c-23.31,0-44.47-2.25-62.9-6.69-18.89-4.55-30.98-10.46-37.79-14.62-4.47-2.73-7.06-8.93-6.46-15.44.05-.58.11-1.2.18-1.86,1.66-16.18,6.74-47.42,22.11-74.66C118.45,17.15,147,0,184.22,0s65.78,17.15,84.86,50.97c15.37,27.24,20.45,58.48,22.11,74.68.07.64.13,1.25.18,1.86.6,6.49-2,12.69-6.46,15.42h0c-6.81,4.16-18.9,10.08-37.79,14.62-18.43,4.44-39.59,6.69-62.9,6.69Zm0-159.64c-81.19,0-98.66,84.98-102.41,121.52-.07.63-.13,1.21-.17,1.77-.44,4.75,1.32,9.31,4.28,11.12,6.53,3.99,18.16,9.67,36.47,14.08,18.08,4.35,38.88,6.56,61.82,6.56s43.75-2.21,61.82-6.56c18.31-4.41,29.94-10.09,36.48-14.08,2.96-1.81,4.72-6.37,4.28-11.1-.05-.59-.11-1.16-.17-1.78-3.75-36.55-21.22-121.54-102.41-121.54Zm99.5,136.37h0,0Z"/>
        <g>
          <g>
            <circle class="cls-2" cx="179.27" cy="62.78" r="47.81"/>
            <g class="cls-13">
              <path class="cls-6" d="m225.96,52.52c1.33,6.07,1.45,12.13.51,17.91-3.89,17.63-17.65,32.31-36.45,36.44-25.79,5.67-51.28-10.64-56.95-36.43-.74-3.37-1.11-6.74-1.12-10.05,5.83,23.53,29.39,38.27,53.21,33.03,24.22-5.32,39.53-29.27,34.21-53.49-.41-1.87-.93-3.68-1.56-5.44,3.83,5.22,6.67,11.3,8.15,18.03Z"/>
            </g>
            <g>
              <path class="cls-6" d="m161.69,92.67s.08.07.12.1c5.41,4.46,12.78,8.11,22.36,8.02,20.02-.2,30.95-8.21,37.18-17.4,1.36-2.01,2.5-4.07,3.47-6.12,4.57-9.74.94-25.61.94-25.61,0,0-.16-.89-.62-2.34-2.25-7.15-11.53-27.87-42.06-21.16-22.08,4.85-29.95,19.18-32.56,31.07,0,.05-.02.11-.03.16-2.64,12.32,1.53,25.21,11.2,33.28Z"/>
              <g class="cls-14">
                <path class="cls-5" d="m161.69,92.67s.08.07.12.1c5.41,4.46,12.78,8.11,22.36,8.02,20.02-.2,30.95-8.21,37.18-17.4-48.33,24.38-65.8-9.45-70.87-24-2.64,12.32,1.53,25.21,11.2,33.28Z"/>
              </g>
              <g class="cls-16">
                <path class="cls-2" d="m195.68,36.23s15.54,5.79,21.94,33.56c0,0,9.92-33.03-21.94-33.56Z"/>
              </g>
              <g class="cls-16">
                <circle class="cls-2" cx="165.94" cy="63.71" r="5.41" transform="translate(87.02 222.98) rotate(-84.64)"/>
              </g>
              <g class="cls-16">
                <circle class="cls-2" cx="171.4" cy="79.06" r="4.16"/>
              </g>
              <path class="cls-6" d="m183.81,101.86c-8.4,0-16.03-2.78-22.67-8.27-10.05-8.3-14.51-21.55-11.65-34.58,2.59-11.77,10.47-26.85,33.37-31.88,12.11-2.66,22.25-1.37,30.13,3.83,11.22,7.41,13.72,19.97,13.82,20.5.11.58-.27,1.13-.84,1.24-.57.11-1.13-.27-1.24-.84-.02-.12-2.45-12.24-12.92-19.14-7.38-4.86-16.97-6.05-28.48-3.52-21.8,4.79-29.3,19.1-31.75,30.26-2.69,12.25,1.49,24.7,10.93,32.49,6.26,5.17,13.43,7.78,21.32,7.78.12,0,.23,0,.35,0,24.78-.24,35.26-12.57,39.68-22.88.23-.54.85-.79,1.4-.56.54.23.79.86.56,1.4-4.67,10.88-15.69,23.91-41.61,24.16-.13,0-.25,0-.38,0Z"/>
            </g>
            <path class="cls-6" d="m185.27,106.06c-21.34,0-36.89-12.26-41.56-33.49-5.07-23.05,10.03-46.78,32.96-51.82.59-.18,16.79-4.94,31.9,2.74.6.31.85,1.05.54,1.65-.31.61-1.05.85-1.65.54-14.21-7.22-30-2.6-30.16-2.55-21.72,4.78-35.95,27.17-31.17,48.92,5.03,22.89,23.54,34.7,48.29,30.83,9.91-1.55,18.61-7.15,24.5-15.77,6.44-9.42,8.73-21.25,6.27-32.44-.15-.66.27-1.32.94-1.46.66-.15,1.32.27,1.46.94,2.6,11.85.19,24.37-6.64,34.35-6.28,9.18-15.57,15.15-26.15,16.81-3.28.51-6.46.76-9.51.76Z"/>
            <path class="cls-6" d="m179.26,111.82c-22.52,0-42.85-15.64-47.88-38.51-2.81-12.79-.47-25.91,6.58-36.95,7.06-11.03,17.99-18.66,30.78-21.47,26.41-5.8,52.61,10.96,58.42,37.37h0c5.8,26.41-10.96,52.61-37.37,58.42-3.53.78-7.06,1.15-10.53,1.15Zm.02-95.62c-3.3,0-6.65.35-10.01,1.09-12.15,2.67-22.53,9.91-29.24,20.39-6.7,10.48-8.92,22.94-6.26,35.09,5.51,25.08,30.41,41,55.49,35.49,25.08-5.51,41.01-30.4,35.49-55.49-4.78-21.73-24.1-36.58-45.48-36.58Z"/>
          </g>
          <g>
            <g>
              <path class="cls-2" d="m152.31,74.67c1.78,8.08-.62,15.47-5.35,16.51l-6.55,1.44c1.16-.25,2.18-.89,3.03-1.83,2.63-2.88,3.66-8.59,2.32-14.68-.14-.64-.3-1.26-.48-1.86-1.55-5.19-4.56-9.14-7.78-10.49-1.17-.5-2.36-.65-3.52-.39l6.55-1.44c3.72-.82,7.77,2.53,10.2,7.92.66,1.47,1.2,3.09,1.58,4.83Z"/>
              <g class="cls-13">
                <path class="cls-7" d="m140.4,92.62c.07-.01.13-.03.2-.05,0,0,0,0,0,0l-.2.04Z"/>
              </g>
              <g class="cls-12">
                <path class="cls-6" d="m152.31,74.67c.67,3.04.75,5.98.33,8.52-2.24,4.36-7.5,5.58-7.5,5.58,0,0-.22.17-.58.44,1.76-3.13,2.31-7.97,1.19-13.1-.14-.64-.3-1.26-.48-1.86,5.66-1.07,4.88-4.36,4.88-4.36,0,0,.2-.02.58-.05.66,1.47,1.2,3.09,1.58,4.83Z"/>
              </g>
              <path class="cls-6" d="m140.63,93.66l-.46-2.08h0c.91-.2,1.74-.71,2.47-1.51,2.45-2.69,3.28-8.21,2.07-13.74-1.21-5.53-4.29-10.19-7.64-11.6-1-.42-1.97-.54-2.88-.33l-.46-2.08s0,0,.01,0l6.54-1.44c2.68-.59,5.52.57,8.01,3.27,2.35,2.54,4.14,6.2,5.04,10.29h0c1.93,8.79-.78,16.59-6.16,17.78l-6.55,1.44s0,0,0,0Zm-1.61-30.32c3.54,2.1,6.52,6.86,7.77,12.54,1.25,5.68.54,11.25-1.8,14.64l1.73-.38c4.08-.9,6.16-7.88,4.54-15.25h0c-.82-3.73-2.43-7.03-4.53-9.3-1.96-2.12-4.09-3.05-5.99-2.64l-1.73.38Z"/>
            </g>
            <g>
              <path class="cls-2" d="m145.76,76.11c1.34,6.1.3,11.8-2.32,14.68-.85.94-1.87,1.57-3.03,1.83-4.73,1.04-10.01-4.66-11.78-12.75-1.78-8.08.62-15.47,5.35-16.51,1.16-.25,2.35-.1,3.52.39,3.59,1.51,6.92,6.26,8.26,12.35Z"/>
              <g class="cls-13">
                <path class="cls-6" d="m145.47,74.94c.96,5.63-.11,10.79-2.56,13.47-.85.94-1.87,1.57-3.03,1.83-4.5.99-9.48-4.12-11.49-11.56-.02-.11-.04-.21-.05-.31,2.41,3.64,5.62,5.69,8.62,5.03,1.16-.25,2.18-.89,3.03-1.83,2.41-2.64,3.47-7.66,2.6-13.18,1.21,1.83,2.22,4.06,2.89,6.55Z"/>
              </g>
              <path class="cls-6" d="m139.26,93.81c-2.25,0-4.57-1.18-6.64-3.42-2.35-2.54-4.14-6.2-5.04-10.29-.9-4.09-.8-8.16.26-11.45,1.13-3.49,3.23-5.74,5.9-6.33,1.35-.3,2.75-.15,4.16.45,4.02,1.69,7.51,6.83,8.89,13.1h0c1.38,6.27.37,12.4-2.58,15.63-1.03,1.13-2.24,1.85-3.59,2.15-.45.1-.91.15-1.37.15Zm-4.16-29.51c-.3,0-.6.03-.9.1-1.91.42-3.44,2.16-4.33,4.91-.95,2.94-1.03,6.61-.21,10.34.82,3.73,2.43,7.03,4.53,9.3,1.96,2.12,4.09,3.06,5.99,2.64.91-.2,1.75-.71,2.47-1.51,2.45-2.69,3.28-8.21,2.07-13.74-1.21-5.53-4.29-10.19-7.64-11.6-.68-.29-1.34-.43-1.98-.43Z"/>
            </g>
          </g>
        </g>
      </g>
    </g>
  </g>
</svg>