<?xml version="1.0" encoding="UTF-8"?>
<svg id="Layer_2" data-name="Layer 2" xmlns="http://www.w3.org/2000/svg" viewBox="0 0 1949.64 1697.8">
  <defs>
    <style>
      .cls-1 {
        opacity: .1;
      }

      .cls-2 {
        fill: #f2101c;
      }

      .cls-3 {
        fill: #ffa21a;
      }

      .cls-4 {
        fill: #fff;
      }

      .cls-5 {
        fill: #ffd403;
      }

      .cls-6 {
        fill: #ffc82c;
      }

      .cls-7 {
        fill: #64ee30;
      }

      .cls-8 {
        fill: #220f2d;
      }

      .cls-9 {
        fill: #371a45;
      }

      .cls-10 {
        fill: #33aef2;
      }

      .cls-11 {
        opacity: .3;
      }

      .cls-12 {
        opacity: .25;
      }

      .cls-13 {
        opacity: .4;
      }

      .cls-14 {
        opacity: .41;
      }

      .cls-15 {
        opacity: .35;
      }

      .cls-16 {
        opacity: .6;
      }

      .cls-17 {
        opacity: .5;
      }
    </style>
  </defs>
  <g id="Layer_2-2" data-name="Layer 2">
    <g>
      <g>
        <g>
          <path class="cls-7" d="m659.59,914.74c-29.92-72.41-64.03-86.17-64.03-86.17h0s98.74-54.46,90.96-174.74c-7.78-120.28-89.16-204.66-214.83-204.66s-207.05,84.38-214.83,204.66c-7.78,120.28,90.96,174.74,90.96,174.74,0,0-34.11,13.76-64.03,86.17-29.92,72.41-38.9,110.71-38.3,141.83.6,31.12,37.1,48.47,67.02,37.7,0,0-3.59,65.23,4.19,108.91,0,0-29.92,7.18-26.33,41.89,3.59,34.71,122.68,29.92,133.45,15.56,10.77-14.36,22.74-142.82,30.72-146.02.5-.2,1-.39,1.51-.57,10.09-3.62,21.21-3.62,31.29,0,.51.18,1.01.37,1.51.57,7.98,3.19,19.95,131.65,30.72,146.02,10.77,14.36,129.86,19.15,133.45-15.56,3.59-34.71-26.33-41.89-26.33-41.89,7.78-43.69,4.19-108.91,4.19-108.91,29.92,10.77,66.42-6.58,67.02-37.7.6-31.12-8.38-69.42-38.3-141.83Z"/>
          <g class="cls-13">
            <path class="cls-4" d="m667.73,580.5s-39.69-131.33-191.18-131.33-198.7,101.35-202.22,118.1c0,0,38.43-56.54,113.45-85.15,2.61,9.38,24.88,13.15,50.51,8.4,24.39-4.51,43.18-15.14,44.15-24.51,129.18,3.3,185.3,114.5,185.3,114.5Z"/>
          </g>
          <g class="cls-13">
            <ellipse class="cls-4" cx="494.73" cy="498.14" rx="14.96" ry="9.97" transform="translate(-93.8 115.34) rotate(-12.15)"/>
          </g>
          <path class="cls-7" d="m371.19,470.71s-8.81-42.69-33.15-43.09c-24.34-.4-27.93,43.09-27.93,43.09,0,0,10.37,13.96,0,26.33-10.37,12.37-32.71,1.6-34.31-15.16-1.6-16.76,15.56-16.88,15.56-16.88,0,0,5.19-43.36,38.7-56.93,33.51-13.56,58.67,33.57,65.84,52.69,0,0-17.61,6.35-24.71,9.94Z"/>
          <path class="cls-7" d="m572.85,470.71s8.81-42.69,33.15-43.09c24.34-.4,27.93,43.09,27.93,43.09,0,0-10.37,13.96,0,26.33,10.37,12.37,32.71,1.6,34.31-15.16,1.6-16.76-15.56-16.88-15.56-16.88,0,0-5.19-43.36-38.7-56.93-33.51-13.56-58.67,33.57-65.84,52.69,0,0,17.61,6.35,24.71,9.94Z"/>
          <g class="cls-13">
            <path class="cls-4" d="m285.76,498.14s-3.57-17.66,4.01-19.85c7.58-2.19,8.18-3.19,10.37-10.57,2.19-7.38,8.18-46.68,38.1-50.87,29.92-4.19,47.08,47.87,47.08,47.87,0,0,3.5-2.07,4.16-2.29s5.67-3.66,5.08-5.06c-.59-1.4-24.6-49.94-52.32-51.72-27.73-1.77-43.57,33.63-45.76,40.08-2.2,6.45-5.1,19.26-5.1,19.26,0,0-10.49-1.92-14.62,8.87-4.13,10.8,4.16,21.62,9.02,24.26Z"/>
          </g>
          <g class="cls-13">
            <path class="cls-4" d="m657.59,498.14s3.57-17.66-4.01-19.85c-7.58-2.19-8.18-3.19-10.37-10.57-2.19-7.38-8.18-46.68-38.1-50.87-29.92-4.19-47.08,47.87-47.08,47.87,0,0-3.5-2.07-4.16-2.29-.66-.22-5.67-3.66-5.08-5.06.59-1.4,24.6-49.94,52.32-51.72,27.73-1.77,43.57,33.63,45.76,40.08,2.2,6.45,5.1,19.26,5.1,19.26,0,0,10.49-1.92,14.62,8.87,4.13,10.8-4.16,21.62-9.02,24.26Z"/>
          </g>
          <g class="cls-13">
            <path class="cls-4" d="m299.26,938.4c-12.13,28.18-20.73,51.56-23.87,50.21-3.14-1.35.38-26.91,12.51-55.1,12.13-28.18,28.26-48.32,31.4-46.97,3.14,1.35-7.92,23.67-20.04,51.85Z"/>
          </g>
          <g class="cls-13">
            <path class="cls-4" d="m291.16,1235.89s11.17-18.95,30.32-24.04c19.15-5.09,40.47-4.81,40.47-4.81,0,0-8.01-7.69-33.44-6.08l-1.95-.22s-4.48-22.3-5.08-54.62c-.6-32.31-8.71-42.88-8.71-42.88,0,0-1.46,18.55-.87,43.28.6,24.73,3.79,50.47,3.79,50.47,0,0,1.03,6.77-3.19,8.27-4.23,1.5-21.74,9.68-21.34,30.63Z"/>
          </g>
          <g class="cls-13">
            <path class="cls-4" d="m645.33,938.4c12.13,28.18,20.73,51.56,23.87,50.21,3.14-1.35-.38-26.91-12.51-55.1-12.13-28.18-28.26-48.32-31.4-46.97-3.14,1.35,7.92,23.67,20.04,51.85Z"/>
          </g>
          <g class="cls-13">
            <path class="cls-4" d="m653.43,1235.89s-11.17-18.95-30.32-24.04c-19.15-5.09-40.47-4.81-40.47-4.81,0,0,8.01-7.69,33.44-6.08l1.95-.22s4.48-22.3,5.08-54.62c.6-32.31,8.71-42.88,8.71-42.88,0,0,1.46,18.55.87,43.28-.6,24.73-3.79,50.47-3.79,50.47,0,0-1.03,6.77,3.19,8.27,4.23,1.5,21.74,9.68,21.34,30.63Z"/>
          </g>
          <g class="cls-11">
            <path class="cls-9" d="m609.25,1077.51c19.41,11.25,19.87,37.1,19.87,37.1l.23-15.39s.37-3.91,3.23-4.06c2.86-.15,32.07,8.9,53.35-13.05,21.28-21.95,8.41-59.09,5.12-71.99-3.29-12.9-8.38-29.86-8.38-29.86,0,0-10.99,45.78-23.44,51.77-12.45,5.98-19.27-29.52-32.52-67.82-13.25-38.3-25.52-67.08-47.65-89.79,0,0,16.5,162-108.03,162s-107.12-162-107.12-162c-22.13,22.71-35.32,51.49-48.56,89.79-13.25,38.3-20.07,73.81-32.52,67.82-12.45-5.98-23.44-51.77-23.44-51.77,0,0-5.09,16.96-8.38,29.86-3.29,12.9-16.16,50.03,5.12,71.99,21.28,21.95,50.49,12.9,53.35,13.05,2.86.15,3.23,4.06,3.23,4.06l.23,15.39s.46-25.85,19.87-37.1c19.41-11.25,63.24,5.39,75.88,32.31,12.65,26.93,3.61,129.86-26.5,137.04-30.11,7.18-91.84-7.78-91.84-7.78,0,0,1.5,10.5,4.89,15.49,23.87,22.37,85.54,16.48,105.19,14.48,19.65-2,27.12-10.82,27.12-10.82l6.36-29.65s17.53-102.68,19.36-109.33c1.84-6.65-2.01-11.62-2.01-11.62,6.15-5.18,19.75-5.79,19.75-5.79,0,0,13.59.61,19.75,5.79,0,0-3.85,4.97-2.01,11.62,1.84,6.65,19.36,109.33,19.36,109.33l6.36,29.65s7.48,8.82,27.12,10.82c19.65,2,81.32,7.89,105.19-14.48,3.39-4.98,4.89-15.49,4.89-15.49,0,0-61.73,14.96-91.84,7.78-30.11-7.18-39.15-110.11-26.5-137.04,12.65-26.93,56.47-43.57,75.88-32.31Z"/>
          </g>
          <g class="cls-11">
            <path class="cls-9" d="m669.21,576.88s37.38,190.5-197.48,190.5-197.48-190.5-197.48-190.5c-25.39,60.69-22.99,140.98,8.12,183.84,31.28,43.09,64.32,64.36,64.32,64.36l6.93,1.9,7.01-1.27,26.2-5.25c11.6-.8,26.44.31,40.46,2.01,29.52,3.58,59.38,3.58,88.9,0,14.02-1.7,28.86-2.81,40.46-2.01l26.2,5.25,7.01,1.27,6.93-1.9s33.04-21.27,64.32-64.36c31.11-42.86,33.51-123.14,8.12-183.84Z"/>
          </g>
          <path class="cls-9" d="m577.76,1277.37c-28.97,0-56.58-4.86-62.87-13.25-6-8.01-10.82-36.77-18.03-83.2-3.81-24.5-8.5-54.74-11.53-61.41-8.81-3.14-18.49-3.14-27.29,0-3.03,6.67-7.73,36.91-11.54,61.42-7.21,46.42-12.03,75.19-18.03,83.19-10.13,13.5-75.55,17.86-112.9,7.51-19.35-5.36-29.79-14.1-31.01-25.97-2.83-27.32,13.35-41.32,25.57-46.43-5.36-34.61-4.46-79.11-3.8-97.19-16.02,3.31-33.19.09-46.44-9.03-12.77-8.79-19.95-21.69-20.24-36.34-.66-34.21,10.57-75.98,38.74-144.17,21.62-52.33,45.63-75.06,58.3-84.08-9.5-6.5-25.8-19.11-41.77-38.41-22.31-26.95-48.03-72.53-43.89-136.57,3.97-61.35,26.43-113.64,64.96-151.23,39.48-38.52,93.32-58.88,155.7-58.88s116.22,20.36,155.7,58.88c38.53,37.59,60.99,89.89,64.96,151.23,4.14,64.04-21.58,109.62-43.89,136.57-15.97,19.3-32.27,31.91-41.77,38.41,12.67,9.02,36.68,31.76,58.3,84.08h0c28.17,68.19,39.4,109.95,38.74,144.17-.28,14.64-7.47,27.55-20.24,36.34-13.24,9.12-30.41,12.34-46.44,9.03.66,18.09,1.56,62.59-3.8,97.19,12.21,5.11,28.39,19.11,25.57,46.43-1.23,11.87-11.66,20.61-31.01,25.97-14.16,3.92-32.35,5.73-50.03,5.73Zm-106.08-171.87c5.97,0,11.94,1.02,17.62,3.05.56.2,1.13.41,1.69.64,6.05,2.42,8.32,11.57,17.39,69.94,4.7,30.28,11.15,71.74,15.84,77.99,5.47,6.57,65.09,14.07,102.63,2.64,8.85-2.69,19.56-7.53,20.36-15.3,3-29.02-20.9-35.37-21.92-35.63-2.97-.75-4.89-3.67-4.35-6.68,7.57-42.5,4.14-106.93,4.11-107.57-.11-1.95.77-3.83,2.34-5,1.57-1.17,3.62-1.47,5.46-.81,14.45,5.21,31.74,3.1,44.03-5.37,9.59-6.6,14.98-16.17,15.19-26.96.63-32.48-10.35-72.91-37.86-139.49h0c-28.37-68.65-60.54-82.87-60.87-83.01-2.06-.87-3.46-2.84-3.58-5.08-.12-2.23,1.03-4.34,2.99-5.42.95-.53,95.4-54.25,87.96-169.26-7.83-121.01-89.87-199.21-209.01-199.21s-201.19,78.19-209.02,199.21c-7.44,115.01,87.01,168.73,87.96,169.26,1.97,1.09,3.13,3.21,2.99,5.46-.14,2.24-1.55,4.21-3.63,5.05-.28.12-32.46,14.35-60.82,82.99-27.52,66.59-38.48,107-37.86,139.49.21,10.78,5.6,20.35,15.19,26.96,12.3,8.47,29.58,10.58,44.03,5.37,1.83-.66,3.89-.36,5.46.81,1.57,1.17,2.45,3.04,2.34,5-.03.64-3.46,65.07,4.11,107.57.54,3.04-1.38,5.97-4.38,6.69-.99.25-24.89,6.6-21.89,35.62.8,7.77,11.52,12.61,20.36,15.3,37.54,11.43,97.15,3.93,102.64-2.66,4.68-6.24,11.12-47.7,15.83-77.97,9.07-58.38,11.35-67.53,17.38-69.95.58-.23,1.15-.44,1.72-.65,5.67-2.03,11.64-3.05,17.6-3.05Z"/>
          <path class="cls-9" d="m306.69,1093.84c5.31-64.8,23.47-171.7,59.64-225.21.3-.46,1.08-.07.86.45-20.86,54.33-34.36,110.59-42.12,168.17-2.66,19.12-5.07,38.41-6.76,57.51-.82,7.52-11.97,6.75-11.62-.92h0Z"/>
          <path class="cls-9" d="m624.66,1094.69c-7.07-76.85-20.82-153.37-48.87-225.6-.22-.5.56-.94.86-.45,24.48,36.9,34.74,81.1,44.78,123.65,6.9,33.57,12.26,67.34,14.86,101.56.36,7.6-10.85,8.53-11.63.85h0Z"/>
          <path class="cls-9" d="m316.92,1059.39c-.25,0-.51-.02-.77-.05-1.55-.2-2.87-1-3.78-2.12-.6-.56-3.9-3.41-9.91-4.86-3.13-.75-5.05-3.91-4.3-7.03.76-3.13,3.9-5.06,7.03-4.3,3.7.89,18.44,6.07,17.49,13.3-.38,2.94-2.89,5.07-5.77,5.07Zm-5.24-3.25c.14.28.29.53.43.74-.16-.23-.31-.48-.43-.74Zm-.56-3.3h0Zm0-.01h0s0,0,0,0Zm0-.01s0,0,0,0c0,0,0,0,0,0Zm0,0h0s0,0,0,0Zm0-.01s0,0,0,0c0,0,0,0,0,0Z"/>
          <path class="cls-9" d="m270.17,1026.68c2.79,10.14,4.55,21.27,11.33,28.71,8,7.27,13.29-2.02,16.02-9.13,2.61-6.65,4.41-14.13,6.19-21.55.46-2.08,3.61-1.92,3.86.19,1.95,15.18.32,42.81-19.7,44.69-16.11.54-23.05-17.57-22.78-30.85-.03-4.1.24-8.08,1.19-12.12.25-1.07,1.32-1.73,2.39-1.48.78.18,1.34.8,1.49,1.54h0Z"/>
          <path class="cls-9" d="m314.95,1197.62c14.92-4.83,42.67-2.46,52.06,11.52.23.35-.04.85-.45.84-4.95.05-8.85-1-12.86-1.82-11.67-2.59-24.13-1.93-35.67.68-7.22,1.5-10.03-8.82-3.08-11.22h0Z"/>
          <path class="cls-9" d="m345.7,823.13c14.53-5.37,29.53-7.67,44.79-9,15.06-.8,30.21-2.29,44.9,2.38.45.14.46.85-.01.97-14.26,4.3-29.15,4.12-43.66,6.87-14.12,2.41-28.55,5.28-42.06,9.74-7.14,2.2-10.87-8.05-3.96-10.95h0Z"/>
          <path class="cls-9" d="m483.72,1111.82c12.75-21.6,32.89-38.15,54.85-49.73,7.2-3.9,15.01-6.72,23.28-7.77.28-.03.53.16.56.44.02.18-.05.35-.19.46-3.13,2.84-6.48,5-9.72,7.3-4.69,3.27-9.98,6.58-14.67,9.83-14.09,10.17-26.94,22.23-37.56,35.95-2.24,2.95-4.64,6.34-6.49,9.38-4.04,6.39-13.63.85-10.07-5.86h0Z"/>
          <path class="cls-9" d="m626.46,1059.39c-2.88,0-5.39-2.14-5.77-5.07-.95-7.23,13.79-12.4,17.49-13.3,3.13-.76,6.28,1.17,7.03,4.3.76,3.13-1.17,6.28-4.3,7.03-6.02,1.45-9.31,4.3-9.91,4.86-.91,1.13-2.23,1.92-3.78,2.12-.26.03-.51.05-.77.05Zm5.24-3.25c-.13.26-.27.5-.43.74.15-.21.29-.45.43-.74Zm.56-3.3h0Zm0-.01h0s0,0,0,0Zm0-.01s0,0,0,0c0,0,0,0,0,0Zm0,0h0s0,0,0,0Zm0-.01s0,0,0,0c0,0,0,0,0,0Z"/>
          <path class="cls-9" d="m677.09,1026.61c2.37,12.57,1.87,26.35-6.97,36.76-5.46,6.21-15.89,8.41-22.93,3.54-12.43-9.17-12.94-28.32-11.39-42.01.29-2.18,3.51-2.24,3.89-.09,2.78,10.56,4.55,21.38,10.85,30.06,6.03,7.69,13.67-.25,16.26-7.16,2.77-6.26,4.55-13.65,6.4-21.03.38-2.06,3.45-2.1,3.89-.07h0Z"/>
          <path class="cls-9" d="m624.93,1208.74c-7.43-1.68-15.6-2.49-23.29-2.13-8.74.04-15.68,3.27-24.81,3.37-.42,0-.69-.5-.46-.84,5.34-8.23,15.09-10.79,24.03-12.75,9.37-1.73,18.8-1.59,28.04,1.23,3.06.98,4.75,4.26,3.76,7.32-.97,3.07-4.25,4.69-7.27,3.8h0Z"/>
          <path class="cls-9" d="m593.44,834c-13.43-4.4-27.77-7.25-41.79-9.65-14.51-2.74-29.39-2.57-43.66-6.87-.46-.12-.48-.84-.01-.97,7.37-2.44,14.89-3.17,22.38-3.16,18.83-.1,37.81,1.48,56.1,6.26,5.23,1.87,17.24,2.64,14.5,11.07-1.17,3-4.56,4.44-7.53,3.31h0Z"/>
          <ellipse class="cls-9" cx="457.78" cy="679.41" rx="6.61" ry="11.1"/>
          <ellipse class="cls-9" cx="481.9" cy="679.41" rx="6.61" ry="11.1"/>
          <path class="cls-9" d="m298.41,508.22c-2.49,0-5.08-.4-7.69-1.21-11.33-3.52-19.65-13.4-20.71-24.58-.78-8.2,2.13-13.33,4.71-16.19,3.53-3.9,8.13-5.65,11.61-6.44,2.4-12.12,11.56-45,41.55-57.14,9.76-3.95,19.63-3.8,29.33.46,27.12,11.9,42.49,51.15,44.16,55.59.55,1.46.49,3.08-.17,4.49-.65,1.42-1.85,2.51-3.31,3.04-.17.06-17.36,6.27-24.06,9.66-1.62.82-3.53.84-5.16.05-1.64-.79-2.81-2.29-3.18-4.07h0c-2.21-10.6-11.46-38.18-27.54-38.44-15.83-.28-20.76,28.1-21.79,35.83,4.16,6.96,7.94,20.17-1.57,31.51-4.08,4.87-9.83,7.44-16.17,7.44Zm43.6-96.74c-3.23,0-6.47.67-9.76,2-29.97,12.13-35.05,51.82-35.1,52.22-.35,2.92-2.81,5.12-5.75,5.14-1.43.03-5.77.68-8.07,3.26-1.47,1.65-2.03,4.02-1.73,7.23.72,7.54,7.02,12.83,12.57,14.55,2.75.86,7.91,1.66,11.47-2.59,7.1-8.47.54-18.07-.23-19.14-.82-1.13-1.23-2.54-1.11-3.93.16-1.99,4.33-48.44,33.38-48.44.15,0,.3,0,.45,0,22.18.36,33,27.57,36.95,40.77,4.37-1.84,9.38-3.76,13.13-5.17-6.34-14.34-19.43-36.44-35.7-43.58-3.53-1.55-7.01-2.33-10.51-2.33Z"/>
          <path class="cls-9" d="m645.63,508.22c-6.34,0-12.09-2.57-16.17-7.44-9.51-11.34-5.73-24.54-1.57-31.51-1.02-7.68-5.86-35.83-21.58-35.83-.07,0-.14,0-.22,0-16.08.26-25.33,27.84-27.53,38.44-.37,1.78-1.55,3.28-3.18,4.07-1.63.79-3.54.77-5.16-.05-6.71-3.39-23.89-9.6-24.06-9.66-1.47-.53-2.66-1.62-3.31-3.04-.65-1.42-.71-3.03-.17-4.49,1.66-4.44,17.04-43.68,44.16-55.59,9.7-4.26,19.57-4.41,29.33-.46,29.99,12.14,39.15,45.02,41.55,57.14,3.48.78,8.08,2.53,11.61,6.44,2.58,2.86,5.49,7.99,4.71,16.19-1.06,11.18-9.39,21.06-20.72,24.58-2.61.81-5.2,1.21-7.69,1.21Zm-39.28-86.44c29.05,0,33.22,46.45,33.38,48.44.12,1.41-.28,2.82-1.13,3.96-.75,1.04-7.32,10.64-.21,19.11,3.56,4.24,8.71,3.44,11.47,2.59,5.55-1.73,11.85-7.02,12.57-14.55.31-3.24-.27-5.61-1.76-7.27-2.39-2.65-6.95-3.22-8.03-3.23-2.94-.02-5.4-2.22-5.75-5.14-.05-.39-5.25-40.14-35.09-52.22-6.83-2.77-13.46-2.66-20.27.33-16.27,7.14-29.36,29.24-35.7,43.58,3.75,1.41,8.76,3.34,13.13,5.17,3.95-13.2,14.77-40.4,36.95-40.77.15,0,.3,0,.45,0Z"/>
          <g>
            <g>
              <ellipse class="cls-9" cx="571.74" cy="628.9" rx="83.49" ry="24.08" transform="translate(-277.96 608.43) rotate(-46.35)"/>
              <path class="cls-8" d="m632.23,570.03s-61.65,29.96-120.69,111.94c0,0,2.77-28.06,49.44-76.44,46.67-48.38,68.45-38.29,71.25-35.5Z"/>
              <g class="cls-13">
                <path class="cls-4" d="m632.23,570.03s-14.45,37.19-55.04,79c-33.77,34.79-63.97,39.24-63.97,39.24,0,0,4.34,16.85,49.18-18.69,44.84-35.54,73.5-80.58,69.83-99.55Z"/>
              </g>
              <path class="cls-9" d="m538.62,626.28c9.88-12.03,21.2-23.78,33-34.18,17.08-15.05,33.2-25.54,45.39-29.54,12.62-4.14,19.59-.89,19.62,9.14.06,20.29-28.99,62.45-64.77,93.99-17.08,15.05-33.2,25.54-45.39,29.54-12.62,4.13-19.58.89-19.62-9.14h0c-.03-10.03,6.87-25.51,19.45-43.57,3.76-5.4,7.9-10.85,12.33-16.24Zm62.5,2.09c15.72-19.13,26.18-37.75,26.14-48.42-.03-7.76-5.64-10.19-15.8-6.86-10.59,3.47-24.73,12.71-39.82,26.01-15.09,13.3-29.21,28.97-39.76,44.14-10.13,14.56-15.69,26.84-15.67,34.6h0c.02,7.76,5.64,10.19,15.8,6.86,10.59-3.47,24.73-12.71,39.82-26,10.75-9.47,20.79-19.97,29.29-30.32Z"/>
            </g>
            <g>
              <ellipse class="cls-9" cx="571.74" cy="628.9" rx="24.08" ry="83.49" transform="translate(-277.96 608.43) rotate(-46.35)"/>
              <path class="cls-8" d="m630.62,689.39s-29.96-61.65-111.94-120.69c0,0,28.06,2.77,76.44,49.44,48.38,46.67,38.29,68.45,35.5,71.25Z"/>
              <g class="cls-13">
                <path class="cls-4" d="m630.62,689.39s-37.19-14.45-79-55.04c-34.79-33.77-39.24-63.97-39.24-63.97,0,0-16.85,4.34,18.69,49.18,35.54,44.84,80.58,73.5,99.55,69.83Z"/>
              </g>
              <path class="cls-9" d="m574.36,595.79c12.03,9.88,23.78,21.2,34.18,33,15.05,17.08,25.54,33.2,29.54,45.39,4.14,12.62.89,19.59-9.14,19.62-20.29.06-62.45-28.99-93.99-64.77-15.05-17.08-25.54-33.2-29.54-45.39-4.13-12.62-.89-19.58,9.14-19.62h0c10.03-.03,25.51,6.87,43.57,19.45,5.4,3.76,10.85,7.9,16.24,12.33Zm-2.09,62.5c19.13,15.72,37.75,26.18,48.42,26.14,7.76-.03,10.19-5.64,6.86-15.8-3.47-10.59-12.71-24.73-26.01-39.82-13.3-15.09-28.97-29.21-44.14-39.76-14.56-10.13-26.84-15.69-34.6-15.67h0c-7.76.02-10.19,5.64-6.86,15.8,3.47,10.59,12.71,24.73,26,39.82,9.47,10.75,19.97,20.79,30.32,29.29Z"/>
            </g>
          </g>
          <g>
            <g>
              <ellipse class="cls-9" cx="368.91" cy="628.95" rx="83.49" ry="24.08" transform="translate(-340.8 461.69) rotate(-46.35)"/>
              <path class="cls-8" d="m429.39,570.07s-61.65,29.96-120.69,111.94c0,0,2.77-28.06,49.44-76.44,46.67-48.38,68.45-38.29,71.25-35.5Z"/>
              <g class="cls-13">
                <path class="cls-4" d="m429.39,570.07s-14.45,37.19-55.04,79c-33.77,34.79-63.97,39.24-63.97,39.24,0,0,4.34,16.85,49.18-18.69,44.84-35.54,73.5-80.58,69.83-99.55Z"/>
              </g>
              <path class="cls-9" d="m335.79,626.32c9.88-12.03,21.2-23.78,33-34.18,17.08-15.05,33.2-25.54,45.39-29.54,12.62-4.14,19.59-.89,19.62,9.14.06,20.29-28.99,62.45-64.77,93.99-17.08,15.05-33.2,25.54-45.39,29.54-12.62,4.13-19.58.89-19.62-9.14h0c-.03-10.03,6.87-25.51,19.45-43.57,3.76-5.4,7.9-10.85,12.33-16.24Zm62.5,2.09c15.72-19.13,26.18-37.75,26.14-48.42-.03-7.76-5.64-10.19-15.8-6.86-10.59,3.47-24.73,12.71-39.82,26.01-15.09,13.3-29.21,28.97-39.76,44.14-10.13,14.56-15.69,26.84-15.67,34.6h0c.02,7.76,5.64,10.19,15.8,6.86,10.59-3.47,24.73-12.71,39.82-26,10.75-9.47,20.79-19.97,29.29-30.32Z"/>
            </g>
            <g>
              <ellipse class="cls-9" cx="368.91" cy="628.94" rx="24.08" ry="83.49" transform="translate(-340.8 461.69) rotate(-46.35)"/>
              <path class="cls-8" d="m427.78,689.43s-29.96-61.65-111.94-120.69c0,0,28.06,2.77,76.44,49.44,48.38,46.67,38.29,68.45,35.5,71.25Z"/>
              <g class="cls-13">
                <path class="cls-4" d="m427.78,689.43s-37.19-14.45-79-55.04c-34.79-33.77-39.24-63.97-39.24-63.97,0,0-16.85,4.34,18.69,49.18,35.54,44.84,80.58,73.5,99.55,69.83Z"/>
              </g>
              <path class="cls-9" d="m371.53,595.83c12.03,9.88,23.78,21.2,34.18,33,15.05,17.08,25.54,33.2,29.54,45.39,4.14,12.62.89,19.59-9.14,19.62-20.29.06-62.45-28.99-93.99-64.77-15.05-17.08-25.54-33.2-29.54-45.39-4.13-12.62-.89-19.58,9.14-19.62h0c10.03-.03,25.51,6.87,43.57,19.45,5.4,3.76,10.85,7.9,16.24,12.33Zm-2.09,62.5c19.13,15.72,37.75,26.18,48.42,26.14,7.76-.03,10.19-5.64,6.86-15.8-3.47-10.59-12.71-24.73-26.01-39.82-13.3-15.09-28.97-29.21-44.14-39.76-14.56-10.13-26.84-15.69-34.6-15.67h0c-7.76.02-10.19,5.64-6.86,15.8,3.47,10.59,12.71,24.73,26,39.82,9.47,10.75,19.97,20.79,30.32,29.29Z"/>
            </g>
          </g>
        </g>
        <path class="cls-9" d="m504.26,761.62c0-.22-.03-.43-.1-.62-1.97-7.29-6.14-13.48-11.7-18.6-20.01-17.64-50.33-7.53-54.61,18.91-.04.16-.05.33-.04.52,0,.22.03.43.1.62,1.97,7.29,6.14,13.48,11.7,18.6,20.01,17.64,50.33,7.53,54.61-18.91.04-.16.05-.33.04-.52Z"/>
      </g>
      <g>
        <g>
          <path class="cls-4" d="m1719.8,622.23l36.36-101.3c3.22-8.96,12.78-13.94,21.97-11.43h0c9.39,2.56,15.12,12.05,13.01,21.55l-20.26,91.18h-51.07Z"/>
          <path class="cls-9" d="m1770.88,631.24h-51.08c-2.93,0-5.68-1.43-7.37-3.83-1.69-2.4-2.1-5.47-1.11-8.23l36.36-101.3c4.77-13.3,19.2-20.8,32.82-17.08,14.06,3.83,22.6,17.98,19.43,32.2l-20.26,91.18c-.92,4.12-4.57,7.06-8.8,7.06Zm-38.26-18.03h31.03l18.69-84.12c1.07-4.81-1.82-9.61-6.58-10.9-4.62-1.26-9.5,1.28-11.11,5.78l-32.03,89.24Z"/>
          <path class="cls-4" d="m1939.57,696.44c-.03.12-.06.21-.12.33-2.22,5.8-7.6,9.79-13.73,10.82l-38.13,6.34c-5.5.93-10.43,3.94-13.85,8.35-27.16,35-56.69,64.47-90.85,83.22-87.13,129.19-201.38,200.93-339.5,165.24l-51.8-95.6-65.38-120.72c57.98-8.8,135.2,27.04,222.32,12.02,42.9-15.08,75.26-43.23,102.15-78.11,4-46.51,17.09-81.57,54.11-86.53,5.38-.72,10.85-.21,16.01,1.44,13.13,4.18,25.03,10.15,35.03,18.99,12.65-16.7,26.11-27.64,42.06-21.03,19.53,9.76,37.34,25.66,47.71,42.33,1.71,2.73,3.21,5.5,4.48,8.26,2.91,6.28,4.66,12.53,4.9,18.51l67.93,2.52c6.52.24,12.11,3.85,15.14,8.92,2.58,4.27,3.4,9.55,1.5,14.69Z"/>
          <path class="cls-9" d="m1512.64,988.83c-23.43,0-47.28-3.11-71.5-9.36-2.42-.63-4.48-2.23-5.67-4.43l-117.17-216.32c-1.4-2.58-1.45-5.68-.14-8.31,1.31-2.63,3.81-4.45,6.71-4.89,27.01-4.1,57.63.92,90.06,6.24,39.6,6.5,84.45,13.86,131.34,5.93,36.03-12.84,67.36-36.68,95.69-72.8,3.47-37.21,14.05-85.65,61.66-92.02,6.59-.88,13.49-.27,19.93,1.78,11.92,3.79,22.09,8.71,30.85,14.94,9.44-11.01,25.91-25.46,46.98-16.71.19.08.38.17.57.26,27.16,13.58,55.19,40.59,61,68.44l60.33,2.23c8.76.32,16.93,4.88,21.83,12.19,4.76,7.09,5.82,15.67,2.93,23.55l-.17.46c-3.3,8.58-11.22,14.89-20.67,16.46l-38.11,6.35c-3.22.54-6.13,2.3-8.2,4.97-30.5,39.29-60.52,66.97-91.73,84.54-79.14,116.54-173.65,176.5-276.51,176.5Zm-63.2-25.87c153.42,37.51,261.85-67.41,325.99-162.5.8-1.19,1.88-2.17,3.14-2.86,29.69-16.29,58.5-42.74,88.08-80.85,4.85-6.26,11.77-10.41,19.48-11.69l38.12-6.35c3.18-.53,5.79-2.51,6.81-5.16,1.28-3.47-.03-6.17-.91-7.48-1.7-2.53-4.51-4.11-7.53-4.22l-67.95-2.52c-4.7-.18-8.48-3.93-8.67-8.64-.83-20.17-23.56-47.03-51.81-61.26-6.63-2.66-15.54-2.37-31.14,18.25-1.51,2-3.79,3.28-6.29,3.53-2.49.26-4.98-.55-6.86-2.21-8.39-7.41-18.79-13.02-31.8-17.16-3.92-1.25-8.1-1.62-12.08-1.09-27.7,3.71-41.99,27.88-46.33,78.36-.15,1.72-.79,3.36-1.84,4.73-31.13,40.37-65.9,66.9-106.3,81.11-.48.17-.96.29-1.46.38-50.17,8.64-96.87.98-138.07-5.78-26.66-4.37-50.32-8.25-71.36-7.42l108.79,200.84Z"/>
          <path class="cls-9" d="m1747.05,604.92c17.51,12.25,31.26,32.39,31.08,54.54.1,8.05-2.75,16.65-8.94,22.06-11.3,10.68-30.3,9.69-40.12-2.15,0,0-1.56-1.82-1.56-1.82l-24.96-29.2c-1.09-1.27-.94-3.19.33-4.27,1.23-1.06,2.97-.91,4.11.12,10.37,7.82,20.02,16.31,29.47,24.99,3.09,3.18,7.02,5.55,11.52,5.59,17.19-.29,15.19-18.3,10.1-29.89-4.37-9.68-11.78-18.25-20.93-24.89-10.21-6.76-.36-21.8,9.89-15.07h0Z"/>
          <path class="cls-9" d="m1815.94,715.36c-24.95,0-49.59-19.55-56.96-37.8-1.86-4.62.37-9.87,4.99-11.73,4.62-1.86,9.87.37,11.73,4.99,4.99,12.37,22.91,26.19,39.65,26.51,11.18-1.74,20.99-13.13,30.8-35.77,1.98-4.57,7.29-6.67,11.85-4.69,4.57,1.98,6.67,7.29,4.69,11.85-8.03,18.53-21.49,43.52-45.62,46.57-.38.05-.75.07-1.13.07Z"/>
          <path class="cls-9" d="m1813.02,796.77c-19.19,12.68-44.82,15.88-64.59,2.49-3.18-1.99-.63-6.97,2.83-5.56,18.37,7.76,37.24,1.96,50.95-11.36,10.02-8.53,21.83,7.19,10.81,14.43h0Z"/>
          <path class="cls-9" d="m1662.56,666.8c-2.47,16.86-5,33.49-3.3,50.65.3,1.62-.78,3.24-2.48,3.34-1.13.08-2.14-.55-2.62-1.5-4.15-8.39-6.9-17.6-8.36-27.05-1.47-9.46-1.68-19.15-.95-28.75.37-4.94,4.68-8.65,9.62-8.28,5.88.43,9.28,6.04,8.1,11.6h0Z"/>
          <path class="cls-9" d="m1664.69,939.34c-1.06,0-2.13-.19-3.18-.59-74.39-28.07-114.9-119.61-101.41-182.71,1.04-4.87,5.84-7.97,10.7-6.93,4.87,1.04,7.97,5.83,6.93,10.7-11.71,54.8,25.12,137.53,90.15,162.08,4.66,1.76,7.01,6.96,5.25,11.61-1.36,3.61-4.79,5.84-8.43,5.84Z"/>
          <g class="cls-12">
            <path class="cls-9" d="m1717.25,660.32c5.05,4.63,10.13,9.34,15.02,14.21-5.5-4.06-10.58-9.22-15.02-14.21Z"/>
          </g>
          <g class="cls-12">
            <path class="cls-9" d="m1939.57,696.44c-.03.12-.06.21-.12.33-2.22,5.8-7.6,9.79-13.73,10.82l-38.13,6.34c-5.5.93-10.43,3.94-13.85,8.35-27.16,35-56.69,64.47-90.85,83.22-87.13,129.19-201.38,200.93-339.5,165.24l-51.8-95.6c.72-12.5,2.88-24.91,6.91-37.01l-.81-4.81c42.69,18.57,89.74,24.19,136.07,28.63,16.67,1.62,33.47,3.09,50.17,1.74,54.47-4.39,101.7-37.74,145.86-69.94,12.05-8.74,24.52-18.03,31.13-31.37,8.86-17.85,5.23-39.87-4.42-57.32-6.34-11.42-14.93-21.3-24.25-30.52,7.42,5.44,15.68,8.77,24.43,6.76,2.37-.54,4.78-1.47,7.15-1.05,3,.57,5.14,3.09,7.06,5.47,12.23,15.11,30.8,31.13,48.76,23.67,10.22-4.24,16.04-14.81,23.4-23.04,7.39-8.26,20.16-14.66,29.14-8.17-3.12,5.44-.24,12.83,4.9,16.4,5.17,3.58,11.81,4.15,18.06,3.82,15.59-.84,30.73-6.88,42.9-16.64,2.58,4.27,3.4,9.55,1.5,14.69Z"/>
          </g>
          <g class="cls-12">
            <path class="cls-9" d="m1762.77,619.05c3.29,5.62,6.58,11.24,9.87,16.86,6.76,11.54,13.91,23.5,25.14,30.78,11.22,7.27,27.78,8.19,36.88-1.62,5.85-6.31,7.37-15.37,8.64-23.87,8.08,6.92,9.88,19.26,6.56,29.36-3.32,10.11-10.88,18.28-19.08,25.05-2.23,1.84-4.62,3.65-7.42,4.36-2.11.53-4.33.4-6.51.24-11.67-.84-23.82-2.48-33.47-9.11-4.93-3.39-8.95-7.92-12.91-12.41-1.03-1.16-2.08-2.38-2.51-3.87-.5-1.76-.05-3.62.34-5.41,3.71-17.03,1.35-35.33-6.56-50.86l1.03.5Z"/>
          </g>
          <g class="cls-12">
            <path class="cls-9" d="m1738.22,568.92c1.67,8.84,9.07,16.31,17.89,18.07,8.82,1.75,18.52-2.32,23.44-9.85,2.22.53,2.71,3.42,2.74,5.69.04,2.7.08,5.4.12,8.1.04,2.43,0,5.07-1.5,6.98-1.43,1.83-3.83,2.51-5.99,3.38-5.2,2.07-9.74,5.74-12.87,10.38-1.13,1.68-2.45,3.71-4.48,3.74-1.05.02-2.01-.53-2.9-1.09-8.65-5.43-17.22-13.45-27.34-12.12,4.95-8.74,9.91-17.49,14.86-26.23.76-1.35,1.43-3.28.21-4.23l-4.19-2.82Z"/>
          </g>
        </g>
        <g>
          <path class="cls-4" d="m1503.15,1638.55c-4.63,13.76-13.55,25.63-26.71,32.21-90.13,9.01-200.24-17.37-231.34-36.05-49.18,11.72-83.73-7.6-92.32-52.25-2.43-12.65-2.79-27.31-.81-43.89-103.2-48.94-162.24-111.16-168.25-288.42-.69-44.74-.93-89.02-.63-132.79.12-21.75.39-43.38.78-64.89,1.02-59.19,2.97-117.47,5.86-174.86l-171.25-69.1c33.05-36.05,117.17-42.06,213.31-39.06l303.44-9.01,57.08,72.11c57.32,78.14,98.51,173.65,102.15,309.45,23.71,144.18,20.16,283.22-24.04,414.61,32.3,12.26,42.9,51.68,32.72,81.96Z"/>
          <path class="cls-9" d="m1394.69,830.8c73.78,85.14,104.48,200.22,108.26,310.96,23.45,132.37,22.25,285.39-23.98,417.71.01,0-5.38-11.34-5.32-11.29,39.37,14.75,51.94,65.83,34.64,101.59-5.66,12.02-15.32,22.9-27.82,29.06-1,.5-2.08.81-3.13.91-20.16,1.92-40.31,2.16-60.36,1.33-40.1-1.73-79.75-7.73-118.66-17.59-17.13-4.38-34.46-9.72-50.61-17.18,0,0-7.25-3.86-7.25-3.86l6.73,1.04c-76.4,18.17-113.76-34.33-104.17-105.98,0,0,5.09,9.22,5.09,9.22-52.94-24.69-103.55-59.7-132.01-112.53-32.18-58.56-39.56-126.38-41.49-191.79-1.75-121.85.01-243.56,6.13-365.25l5.63,8.81-171.25-69.1c-4.63-1.81-6.9-7.08-5.03-11.69,27.21-34.54,89.84-40.81,130.63-43.91,30.35-1.93,60.63-1.7,90.87-.84,19.57-.59,276.5-8.19,303.4-9,11.93.13,12.45,17.24.54,18.02-28.17.81-283.13,8.44-303.95,9.01-51.01-1.2-103.37-1.84-153.11,9.55-19.37,4.86-39.59,12.26-53.32,26.59,0,0-3.27-14.45-3.27-14.45l171.25,69.1c3.65,1.47,5.81,5.09,5.63,8.81-5.94,134.23-9.9,269.06-4.28,403.31,4.94,56.49,15.78,115.67,49.02,162.51,0,0,6.35,8.88,6.35,8.88,9.31,10.99,19.28,22.19,30.58,31.17,22.43,18.85,48.4,33.65,75.43,46.5,3.57,1.7,5.52,5.44,5.1,9.17-7.58,58.73,17.59,101.79,82.09,86.35,4.42-1.26,8.84,2.38,12.54,4.13,15.12,6.92,31.1,11.82,47.27,15.96,37.5,9.51,76.26,15.38,114.93,17.03,19.34.8,38.69.56,57.79-1.26l-3.13.91c27.34-14.03,32.15-54.63,16.79-79.3-5.21-8.45-12.86-14.93-21.96-18.38-4.53-1.76-6.84-6.77-5.35-11.3,44.14-131.77,46.12-274.04,24.2-410.35-1.46-54.87-8.59-109.75-25.22-162.02-16.24-52.35-42.55-100.22-70.93-147.07-.85-1.39-.4-3.21.99-4.06,1.24-.75,2.83-.47,3.75.58h0Z"/>
          <path class="cls-9" d="m1246.11,1644.86c-19.47-19.73-10.83-78.66-9.22-105.19,1.56-17.62,5.56-57.6,6.59-74.63,1.14-24.65-.52-49.46-1.51-73.92-2.33-30.52-4.56-66.33-32.9-83.74-13.32-8.64-29.78-12.6-45.3-16.08-1.14-.28-1.84-1.42-1.57-2.57.23-.95,1.07-1.6,2-1.63,8.53-.63,17.15-.34,25.81.91,55.57,7.62,65.66,54.4,69.33,101.82,1.64,21.28,2.75,41.96,3.5,63.08.23,13.19-1.23,25.53-2.18,38.5,0,0-4.48,49.92-4.48,49.92-1.36,16.55-2.97,33.04-3.52,49.24-.22,8.07-.21,16.12.58,23.68.66,6.1,1.86,13.72,5.29,17.91,8.32,8.37-3.76,20.97-12.43,12.69h0Z"/>
          <path class="cls-9" d="m1219.18,1295.1c63.46,18.44,136.51,6.86,192.18-29.68,3.57-2.53,7.6,2.8,3.98,5.52-28.37,20.58-61.5,33.94-95.73,40.68-34.25,6.61-70.07,6.69-104.24-1.98-4.11-.93-6.67-5.09-5.63-9.18,1.04-4.13,5.36-6.58,9.44-5.35h0Z"/>
          <path class="cls-9" d="m1151.38,1528.33c19.85,9.1,44.21,9.12,65.75,4.32,3.59-.88,5.31,4.43,1.87,5.81-23.19,9.3-48.67,13.38-73.7,6.84-12.52-3.79-6.03-22,6.08-16.97h0Z"/>
          <path class="cls-9" d="m1106.4,1509.78c-9.02,0-17.7-1.07-25.84-3.34-4.8-1.33-7.6-6.3-6.27-11.1,1.33-4.79,6.3-7.6,11.1-6.27,49.48,13.76,126.05-26.19,157.55-82.22,2.44-4.34,7.94-5.88,12.27-3.44,4.34,2.44,5.88,7.94,3.44,12.28-30.65,54.5-97.55,94.09-152.25,94.09Z"/>
          <path class="cls-9" d="m1470.89,1566.47c-23.8-8.56-49.34-13.04-75.24-12.49-1.89.04-3.46-1.46-3.5-3.35-.04-1.72,1.21-3.18,2.87-3.45,26.38-4.36,53.94-3.6,80.69,1.92,4.92.97,8.11,5.78,7.1,10.69-1.06,5.35-6.8,8.56-11.91,6.68h0Z"/>
          <path class="cls-9" d="m1424.45,1479.16c-62.1,0-136.23-14.55-174.54-34.77-4.4-2.32-6.09-7.78-3.76-12.18,2.32-4.41,7.78-6.09,12.18-3.76,51.33,27.09,180.98,43.79,233.93,23.46,4.64-1.79,9.86.54,11.65,5.18,1.79,4.65-.53,9.86-5.18,11.65-18.88,7.26-45.27,10.43-74.27,10.43Z"/>
          <g class="cls-12">
            <path class="cls-9" d="m1503.15,1638.55c-4.63,13.76-13.55,25.63-26.71,32.21-90.13,9.01-200.24-17.37-231.34-36.05-49.18,11.72-83.73-7.6-92.32-52.25,5.11,5.5,11.06,10.24,17.61,13.94,20.31,11.42,49.03,11.33,64.26-6.34,12.44-14.42,12.59-35.45,11.81-54.5-2.43-59.94-8.11-121.89-37.22-174.34-29.11-52.46-87.58-93.02-146.82-83.49,4.72-11.42,16.79-18.84,29.02-19.32,27.37-5.11,56.03-3.27,82.53,5.32,16.7,5.44,32.51,13.46,49.27,18.72,65.92,20.61,136.55-3.85,201.23-28.06-34.01,30.07-69.1,61.56-87.1,103.26-17.7,40.92-16.97,87.1-15.95,131.68.36,15.65.81,31.7,6.82,46.15,6.01,14.45,18.93,27.13,34.55,28.09,17.09,1.05,32.63-11.63,49.75-11.15-11.09,5.8-21.54,13.52-27.94,24.25-6.37,10.73-8.08,24.82-1.92,35.69,5.89,10.43,17.55,16.07,28.81,20.22,23.71,8.65,49.27,13.37,74.27,9.88,5.89-.81,11.72-2.1,17.4-3.91Z"/>
          </g>
          <g class="cls-12">
            <path class="cls-9" d="m1408.34,1153.64c-58.53,16.25-120.75,7.39-181.29,11.93-28.3,2.13-56.48,7.21-84.84,6.01-28.33-1.2-57.8-9.58-77.33-30.13-2.55-2.67-4.99-5.62-8.29-7.3-3.54-1.8-7.69-1.98-11.69-2.13-21.3-.9-44.16-3.76-61.8-14.66.12-21.75.39-43.38.78-64.89,18.51-1.38,37.79,3.82,56.57,6.25,17.16,2.22,34.52,2.07,51.83,1.95,20.31-.15,40.62-.33,60.93-.48,19.56-.15,39.21-.3,58.53,2.64,42.9,6.52,81.93,27.79,119.97,48.7,25.54,14.03,51.07,28.09,76.64,42.12Z"/>
          </g>
        </g>
        <g>
          <ellipse class="cls-4" cx="1460.35" cy="1028.91" rx="34.13" ry="31.12"/>
          <g class="cls-12">
            <path class="cls-9" d="m1494.47,1028.91c0,17.19-15.27,31.14-34.11,31.14s-34.14-13.95-34.14-31.14c0-4.75,1.17-9.27,3.28-13.31,5.48,10.51,17.25,17.81,30.86,17.81s25.38-7.3,30.83-17.81c2.12,4.03,3.28,8.56,3.28,13.31Z"/>
          </g>
          <path class="cls-9" d="m1460.35,1067.55c-22.96,0-41.64-17.33-41.64-38.63s18.68-38.63,41.64-38.63,41.64,17.33,41.64,38.63-18.68,38.63-41.64,38.63Zm0-62.24c-14.68,0-26.61,10.59-26.61,23.61s11.94,23.61,26.61,23.61,26.61-10.59,26.61-23.61-11.94-23.61-26.61-23.61Z"/>
          <path class="cls-4" d="m1396.21,1154.67l-248.18,5.31c-29.37.64-53.95-22.89-54.58-52.3l-2.82-132.07c-.55-25.75,17.42-47.77,41.64-53.27,3.43-.8,6.99-1.23,10.65-1.31l248.14-5.32c29.41-.64,53.98,22.89,54.58,52.3l2.26,104.6.6,27.47c.64,29.41-22.92,53.94-52.3,54.58Z"/>
          <g class="cls-12">
            <path class="cls-9" d="m1396.21,1154.67l-248.18,5.31c-29.37.64-53.95-22.89-54.58-52.3l-2.82-132.07c-.55-25.75,17.42-47.77,41.64-53.27,14.29,9.06,23.37,14.85,23.37,14.85,14.35,105.75,45.67,157.97,177.36,157.3,56.84-.3,92.53-9.74,114.91-21.88l.6,27.47c.64,29.41-22.92,53.94-52.3,54.58Z"/>
          </g>
          <path class="cls-9" d="m1146.87,1169.03c-16.12,0-31.39-6.15-43.14-17.41-12.08-11.57-18.93-27.1-19.28-43.72l-2.83-132.09c-.36-16.62,5.82-32.43,17.39-44.51,11.57-12.08,27.1-18.93,43.72-19.28l248.16-5.32c34.46-.73,63.05,26.68,63.79,61.11l2.83,132.09c.74,34.44-26.68,63.05-61.11,63.79l-248.16,5.32c-.45,0-.91.02-1.36.02Zm245.37-244.31c-.32,0-.64,0-.96,0l-248.16,5.32c-11.81.25-22.85,5.13-31.09,13.73-8.24,8.6-12.64,19.84-12.39,31.65l2.83,132.09c.25,11.81,5.13,22.85,13.73,31.09,8.6,8.24,19.9,12.6,31.65,12.39h0l248.16-5.32c24.5-.53,44-20.89,43.48-45.38l-2.83-132.09c-.52-24.17-20.35-43.49-44.42-43.49Z"/>
          <path class="cls-4" d="m1406.15,1153.48c-3.2.74-6.5,1.13-9.94,1.19l-248.18,5.31c-21.53.45-40.47-12.03-49.29-30.36-3.22-6.66-5.1-14.09-5.25-21.93l-1.28-58.67-.42-19.36-1.16-54.04c-.64-29.41,22.92-53.94,52.3-54.58l53.63-1.14c-24.62,5.19-42.97,27.38-42.43,53.39l1.51,71.34,1.31,60.77c.64,29.37,25.21,52.94,54.58,52.3l194.63-4.21Z"/>
          <g class="cls-12">
            <path class="cls-9" d="m1406.15,1153.48c-3.2.74-6.5,1.13-9.94,1.19l-248.18,5.31c-29.37.64-53.95-22.89-54.55-52.3l-1.7-78.03c6.54,13.65,18.11,30.34,36.1,31.73,9.87.79,19.4-6.51,27.75-16.76l1.31,60.77c.64,29.37,25.21,52.94,54.58,52.3l194.63-4.21Z"/>
          </g>
          <path class="cls-9" d="m1146.83,1169.02c-16.1,0-31.36-6.15-43.1-17.4-12.08-11.58-18.93-27.11-19.27-43.73l-2.83-132.08c-.37-16.62,5.81-32.42,17.38-44.51,11.57-12.07,27.1-18.92,43.72-19.29l53.61-1.14,2.06,17.83c-20.89,4.42-35.72,23.1-35.27,44.41l2.83,132.08c.25,11.81,5.12,22.86,13.73,31.1,8.6,8.24,19.78,12.57,31.63,12.38l194.65-4.19,2.15,17.81c-3.86.86-7.82,1.33-11.76,1.39l-248.14,5.32c-.46,0-.93.02-1.39.02Zm15.02-239.39l-18.73.4c-11.81.26-22.85,5.14-31.1,13.74-8.24,8.6-12.64,19.84-12.38,31.65l2.83,132.1c.25,11.8,5.12,22.85,13.72,31.09,8.6,8.24,19.82,12.58,31.63,12.38l20.71-.44c-.45-.4-.89-.81-1.32-1.23-12.08-11.58-18.93-27.11-19.27-43.73l-2.83-132.08c-.36-16.72,5.97-32.29,16.74-43.86Z"/>
          <g>
            <path class="cls-10" d="m1258.08,1038.5c.08,4.88-6.17,44.42-6.17,44.42,0,0-12.49.2-27.83.44-19.16.3-35.01-19.3-35.39-43.77-.38-24.47,14.84-44.56,34-44.86,12.93-.2,27.83-.44,27.83-.44,0,0,7.44,36.25,7.56,44.21Z"/>
            <g class="cls-12">
              <path class="cls-9" d="m1258.08,1038.5c.08,4.88-6.17,44.42-6.17,44.42,0,0-12.49.2-27.83.44-19.16.3-35.01-19.3-35.39-43.77-.38-24.47,14.84-44.56,34-44.86,12.93-.2,27.83-.44,27.83-.44,0,0,7.44,36.25,7.56,44.21Z"/>
            </g>
            <path class="cls-9" d="m1223.65,1090.88c-23.03,0-42.03-22.82-42.47-51.17-.45-28.57,18.12-52.12,41.39-52.49l27.83-.44c3.61-.06,6.75,2.46,7.48,6,.78,3.78,7.58,37.18,7.72,45.6h0c.08,5.13-4.77,36.29-6.26,45.71-.57,3.61-3.65,6.28-7.3,6.34l-27.83.44c-.18,0-.36,0-.54,0Zm20.74-88.97l-21.58.34c-14.99.23-26.93,16.94-26.61,37.23.32,20.29,12.62,36.6,27.77,36.38l21.5-.34c2.63-17,5.08-34.16,5.1-36.91-.08-4.59-3.45-22.94-6.18-36.7Z"/>
            <ellipse class="cls-10" cx="1251.21" cy="1038.61" rx="34.7" ry="44.32" transform="translate(-16.14 19.75) rotate(-.9)"/>
            <g class="cls-16">
              <path class="cls-4" d="m1245.14,1012.8c19.16-.3,35.01,19.3,35.39,43.77.03,2.27-.11,4.49-.33,6.67,3.73-7.19,5.86-15.86,5.71-25.18-.38-24.47-16.23-44.07-35.39-43.77-17.38.27-31.48,16.84-33.67,38.19,6.07-11.71,16.42-19.5,28.29-19.68Z"/>
            </g>
            <g class="cls-12">
              <path class="cls-9" d="m1262.31,1055.26c-19.16.3-35.01-19.3-35.39-43.77-.03-1.65.03-3.28.14-4.88-6.66,8.2-10.75,19.76-10.55,32.55.38,24.47,16.23,44.07,35.39,43.77,17.87-.28,32.3-17.77,33.86-39.98-6.08,7.48-14.31,12.17-23.45,12.31Z"/>
            </g>
            <path class="cls-9" d="m1251.46,1090.44c-11.41,0-22.1-5.45-30.13-15.39-7.74-9.57-12.11-22.27-12.32-35.78-.45-28.57,18.12-52.12,41.39-52.49,23.32-.24,42.57,22.59,43.02,51.17.45,28.57-18.12,52.12-41.39,52.49-.19,0-.38,0-.57,0Zm-.51-88.64c-.11,0-.21,0-.32,0-14.99.23-26.93,16.94-26.61,37.23.16,10.17,3.35,19.6,8.98,26.57,5.2,6.43,11.86,9.99,18.78,9.81,14.99-.23,26.93-16.94,26.61-37.23h0c-.32-20.15-12.6-36.38-27.45-36.38Z"/>
          </g>
          <path class="cls-9" d="m1319.04,1162.88h-.02c-4.15,0-7.5-3.38-7.49-7.53l.18-82.97c.02-7.96,4-15.33,10.64-19.71l27.26-17.97c2.49-1.64,3.94-4.39,3.89-7.37l-1.99-110.72c-.08-4.15,3.23-7.57,7.37-7.65,4.16-.02,7.57,3.23,7.64,7.38l1.99,110.72c.15,8.15-3.83,15.7-10.64,20.19l-27.26,17.96c-2.43,1.6-3.88,4.29-3.89,7.2l-.18,82.96c0,4.15-3.37,7.5-7.51,7.5Z"/>
          <path class="cls-4" d="m1126.49,1093.21c-103.62,26.08-154.64-8.6-154.64-8.6,0,0-14.96-9.62-17.97-33.98-.06-.39-.09-.74-.09-1.09-2.07-20.48,10.46-33.95,10.46-33.95,56.45,51.89,149.38,15.4,149.38,15.4,14.45,9.24,19.02,21.71,19.44,33.06.63,15.62-6.58,29.15-6.58,29.15Z"/>
          <g class="cls-12">
            <path class="cls-9" d="m1126.49,1093.21c-103.62,26.08-154.64-8.6-154.64-8.6,0,0-14.96-9.62-17.97-33.98-.06-.39-.09-.74-.09-1.09.75-.81,1.2-1.27,1.2-1.27,62.61,50.09,169.12,9.69,169.12,9.69,3.49,1.87,6.46,3.95,8.95,6.1.63,15.62-6.58,29.15-6.58,29.15Z"/>
          </g>
          <path class="cls-9" d="m1053.1,1110.56c-55.73,0-83.95-18.6-85.51-19.66-.58-.37-17.82-11.76-21.24-39.34-.72-5.83-.48-11.68.73-17.4,1.81-8.56,7.06-15.36,14.04-18.18,6.12-2.47,12.91-1.66,18.62,2.21h0c44.88,30.45,107.58,13.53,125.72,7.62,6.94-2.25,14.53-.41,20.3,4.94,19.46,18.06,15.77,42.2,11.83,54.98-2.65,8.61-8.8,14.81-16.44,16.57-26.03,6-48.7,8.25-68.06,8.25Zm-84.76-80.79c-.52,0-1.03.1-1.53.31-2.25.91-4.11,3.68-4.86,7.22-.86,4.07-1.03,8.23-.52,12.39,2.5,20.2,14.12,28.25,14.61,28.58.53.35,47.79,30.9,141.71,9.23,2.27-.52,4.31-2.91,5.33-6.24,3.53-11.45,5.06-27.57-7.65-39.37-1-.92-3.01-2.37-5.27-1.63-19.8,6.45-88.35,24.82-138.95-9.49h0c-.99-.67-1.94-1.01-2.87-1.01Z"/>
        </g>
        <g>
          <g>
            <path class="cls-4" d="m1552.74,551.43c-23.24,63.24-62.37,120.93-115.82,166.61-10.9,9.31-22.35,18.12-34.4,26.36-5.85,4.03-11.88,7.91-18.04,11.71-18.6,11.35-37.74,21-57.29,29-16.83,6.94-33.97,12.62-51.25,17.13-20.86,5.46-41.97,9.14-63.11,11.16-7.71.71-15.42,1.21-23.12,1.51-140.97,5.15-280.51-63.92-359.2-192.92-115.95-190-55.89-438.01,134.08-553.95,36.6-22.3,75.38-38.16,114.93-47.71,4.61-1.16,9.28-2.19,13.96-3.12,12.5-2.58,25.05-4.54,37.61-5.9,29.07-3.13,58.24-3.04,86.97.12,28.72,3.13,57.05,9.34,84.4,18.49,8.7,2.9,17.3,6.1,25.81,9.61,12.75,5.27,25.24,11.15,37.46,17.76,60.92,32.71,114.21,81.57,152.82,144.87,66.7,109.29,75.15,237.76,34.17,349.27Z"/>
            <path class="cls-9" d="m1174.98,816.26c-140.6,0-271.9-73.25-345.36-193.7-116.06-190.19-55.75-439.35,134.44-555.43,36.09-21.99,74.86-38.09,115.24-47.84,4.38-1.1,9.09-2.16,14-3.13,12.46-2.57,25.15-4.56,37.71-5.92,28.86-3.11,58.19-3.07,87.2.12,28.73,3.13,57.2,9.37,84.62,18.54,8.8,2.94,17.51,6.18,25.88,9.63,13.02,5.38,25.66,11.37,37.56,17.81,62.87,33.76,115.86,83.99,153.23,145.26,64.64,105.91,77.12,233.56,34.26,350.2-23.77,64.67-63.92,122.43-116.13,167.06-11.05,9.44-22.65,18.33-34.49,26.43-5.42,3.73-11.34,7.58-18.08,11.74-18.39,11.22-37.72,21-57.45,29.08-16.52,6.81-33.81,12.59-51.38,17.18-20.56,5.38-41.85,9.14-63.28,11.18-7.74.71-15.53,1.22-23.18,1.52-4.93.18-9.88.27-14.79.27Zm-.99-806.17c-14.3,0-28.59.76-42.75,2.29-12.49,1.35-25.11,3.33-37.51,5.89-4.88.97-9.56,2.02-13.91,3.11-40.17,9.7-78.73,25.71-114.63,47.59-189.18,115.46-249.17,363.3-133.73,552.48,75.63,123.99,212.88,197.77,358.24,192.4,7.61-.29,15.37-.8,23.06-1.5,21.31-2.04,42.48-5.78,62.93-11.13,17.49-4.57,34.68-10.32,51.11-17.09,19.63-8.03,38.85-17.76,57.14-28.92,6.71-4.14,12.59-7.96,17.98-11.68,11.77-8.06,23.32-16.91,34.31-26.29,51.92-44.38,91.86-101.84,115.51-166.17h0c42.64-116.02,30.22-242.99-34.07-348.34-37.17-60.94-89.87-110.91-152.41-144.49-11.84-6.4-24.41-12.36-37.36-17.71-8.32-3.43-16.98-6.66-25.74-9.58-27.28-9.13-55.6-15.33-84.18-18.44-14.61-1.61-29.31-2.41-43.98-2.41Z"/>
          </g>
          <path class="cls-9" d="m1504.98,643c-209.95,197.2-544.7,126.94-602.4-152.45-39.25-190.08,116.56-375.27,301.54-401.28,134.63-18.93,274.35,21.49,360.85,222.41,0,0,24.56,94.86,7.75,162.82-16.81,67.97-44.63,131.23-44.63,131.23l-23.1,37.27Z"/>
          <g class="cls-12">
            <path class="cls-9" d="m830.54,621.99c78.67,129.01,218.23,198.09,359.2,192.92,7.7-.29,15.4-.79,23.1-1.51,21.15-2.01,42.25-5.71,63.11-11.15,17.27-4.52,34.43-10.2,51.25-17.13,19.56-8,38.69-17.65,57.31-29,6.13-3.82,12.17-7.69,18.03-11.71,12.04-8.25,23.48-17.08,34.39-26.38,53.44-45.68,92.59-103.36,115.82-166.62,12.77-34.74,20.75-71.15,23.66-108.09-23.55,59.84-61.52,114.33-112.51,157.92-10.89,9.33-22.35,18.13-34.39,26.38-5.84,4.02-11.87,7.89-18.03,11.71-18.61,11.35-37.75,21-57.28,29-16.84,6.92-33.97,12.6-51.25,17.13-20.86,5.44-41.99,9.13-63.11,11.15-7.73.71-15.43,1.21-23.13,1.5-140.97,5.17-280.5-63.9-359.2-192.92-45.93-75.25-64.21-159.6-57.78-241.23-44.75,113.51-37.64,245.87,30.8,358.01Z"/>
          </g>
          <path class="cls-9" d="m1174.99,823.45c-143.1,0-276.75-74.57-351.52-197.15-118.13-193.57-56.74-447.18,136.84-565.32,36.74-22.39,76.2-38.77,117.3-48.69,4.42-1.11,9.26-2.2,14.28-3.2,12.63-2.61,25.55-4.63,38.34-6.01,29.38-3.17,59.24-3.13,88.76.12,29.23,3.18,58.21,9.53,86.12,18.87,8.95,2.99,17.82,6.29,26.34,9.81,13.25,5.48,26.12,11.57,38.24,18.13,63.98,34.36,117.92,85.48,155.95,147.84,65.79,107.8,78.5,237.71,34.87,356.43h0c-24.19,65.82-65.07,124.62-118.21,170.05-11.25,9.6-23.06,18.65-35.1,26.9-5.5,3.79-11.52,7.7-18.36,11.92-18.75,11.44-38.42,21.39-58.5,29.62-16.8,6.92-34.4,12.81-52.29,17.48-20.93,5.47-42.6,9.31-64.41,11.39-7.89.72-15.81,1.24-23.59,1.54-5.03.18-10.05.27-15.06.27Zm-1-806.17c-14.05,0-28.07.75-41.98,2.25-12.26,1.32-24.65,3.27-36.83,5.78-4.81.96-9.37,1.98-13.61,3.04-39.51,9.54-77.38,25.26-112.64,46.75-185.79,113.39-244.7,356.79-131.33,542.58,74.28,121.77,209.11,194.17,351.83,188.96,7.46-.29,15.1-.79,22.67-1.48,20.9-2,41.69-5.67,61.77-10.92,17.17-4.49,34.06-10.13,50.19-16.78,19.29-7.9,38.17-17.45,56.13-28.41,6.57-4.06,12.36-7.81,17.65-11.46,11.58-7.93,22.92-16.62,33.72-25.84,50.98-43.58,90.21-100.01,113.42-163.18h0c41.88-113.95,29.68-238.64-33.46-342.11-36.51-59.85-88.26-108.92-149.67-141.89-11.64-6.29-23.98-12.14-36.71-17.4-8.17-3.37-16.67-6.53-25.27-9.4-26.8-8.97-54.61-15.06-82.67-18.12-14.35-1.58-28.79-2.37-43.2-2.37Zm378.75,534.14h.03-.03Z"/>
          <path class="cls-9" d="m1174.99,824.19c-143.37,0-277.24-74.69-352.15-197.5-118.34-193.92-56.84-447.98,137.08-566.34,36.8-22.43,76.34-38.84,117.51-48.78,4.43-1.11,9.27-2.2,14.32-3.2,12.65-2.61,25.59-4.64,38.4-6.02,29.43-3.17,59.34-3.13,88.92.12,29.28,3.19,58.31,9.55,86.27,18.91,8.97,2.99,17.85,6.3,26.39,9.82,13.28,5.49,26.16,11.6,38.31,18.16,64.09,34.42,118.13,85.64,156.23,148.11,65.91,107.99,78.64,238.14,34.93,357.07h0c-24.24,65.94-65.19,124.85-118.42,170.36-11.27,9.62-23.09,18.69-35.16,26.95-5.51,3.8-11.54,7.71-18.39,11.94-18.79,11.46-38.49,21.43-58.61,29.67-16.83,6.94-34.46,12.83-52.38,17.51-20.97,5.48-42.68,9.32-64.53,11.41-7.91.72-15.84,1.24-23.63,1.54-5.03.18-10.08.27-15.09.27Zm-1-806.17c-14.02,0-28.02.75-41.9,2.24-12.24,1.32-24.61,3.26-36.76,5.77-4.81.96-9.36,1.97-13.58,3.04-39.44,9.52-77.24,25.22-112.44,46.67-185.44,113.18-244.24,356.12-131.08,541.56,74.14,121.54,208.69,193.81,351.17,188.6,7.45-.29,15.07-.78,22.63-1.48,20.86-1.99,41.61-5.66,61.65-10.9,17.14-4.47,33.99-10.11,50.09-16.75,19.26-7.88,38.1-17.42,56.03-28.36,6.56-4.05,12.33-7.8,17.62-11.44,11.56-7.92,22.88-16.59,33.66-25.79,50.88-43.5,90.03-99.82,113.21-162.87h0c41.8-113.74,29.63-238.2-33.4-341.47-36.44-59.74-88.1-108.71-149.39-141.63-11.62-6.28-23.94-12.12-36.64-17.37-8.15-3.36-16.64-6.52-25.22-9.39-26.75-8.95-54.51-15.03-82.52-18.08-14.33-1.58-28.74-2.36-43.12-2.36Zm378.75,533.4h.03-.03Z"/>
          <path class="cls-8" d="m902.59,490.54c57.68,279.39,392.44,349.64,602.39,152.46l4.68-7.56c-250.44,83.22-528.98-33.52-592.57-314.92-20.16,53.16-26.6,111.35-14.5,170.01Z"/>
          <path class="cls-9" d="m1229.61,805.21c-76.83,0-151.39-20.67-213.69-60.44-85.19-54.39-141.71-138.72-163.43-243.87-19.98-96.71,2.86-198.01,64.3-285.22,66.89-94.95,172.3-160.84,281.97-176.26,61.58-8.66,118.6-5.47,169.46,9.47l.87.26.8.43c64.08,34.4,118.07,85.59,156.15,148.02,65.87,107.92,78.59,237.98,34.91,356.84h0c-24.22,65.9-65.14,124.77-118.34,170.24-11.26,9.62-23.08,18.68-35.14,26.93-5.51,3.8-11.53,7.7-18.38,11.94-18.77,11.45-38.46,21.42-58.57,29.65l-1.31.42c-33.08,7.77-66.55,11.59-99.59,11.59Zm34.85-753.05c-20.43,0-41.54,1.53-63.27,4.58-104.98,14.76-205.95,77.94-270.11,169.01-58.63,83.22-80.46,179.68-61.47,271.62,20.75,100.42,74.6,180.88,155.72,232.67,84.96,54.24,193.97,71.25,299.2,46.72,19.03-7.83,37.66-17.28,55.41-28.11,6.56-4.05,12.34-7.81,17.63-11.45,11.57-7.92,22.89-16.6,33.68-25.81,50.92-43.53,90.1-99.89,113.29-162.98h0c41.83-113.81,29.65-238.36-33.42-341.7-36.3-59.52-87.71-108.36-148.7-141.3-30.39-8.83-63.17-13.26-97.96-13.26Zm288.28,499.27h.03-.03Z"/>
          <ellipse class="cls-4" cx="828.06" cy="494.86" rx="104.73" ry="144.13" transform="translate(-59.23 116.32) rotate(-7.76)"/>
          <g class="cls-12">
            <path class="cls-9" d="m840,638.31c54.04-1.97,93.89-59.49,93.64-131.51-9.86,4.94-20.58,7.82-31.94,8.24-57.93,2.1-136.67-51.6-143.27-130.82-.44-5.32,25.76-19.38,25.75-24.57-40.45,20.25-66.3,75.34-61.02,139.02,6.61,79.24,58.92,141.74,116.85,139.64Z"/>
          </g>
          <path class="cls-9" d="m837.19,647.37c-61.33,0-116.15-65.52-123.01-147.95-4.06-48.8,8.97-94.1,35.75-124.29,18.2-20.51,40.98-31.83,65.87-32.74,62.54-2.16,119.17,64.07,126.14,147.9,4.06,48.8-8.97,94.1-35.75,124.29-18.2,20.51-40.98,31.83-65.87,32.74-1.04.04-2.09.06-3.13.06Zm-18.2-287.01c-.85,0-1.69.02-2.54.05-19.85.72-38.19,9.95-53.04,26.69-23.18,26.13-34.87,67.56-31.27,110.83,6.19,74.37,54.54,133.32,107.52,131.37,19.85-.72,38.19-9.95,53.04-26.69,23.18-26.13,34.87-67.56,31.27-110.83-6.09-73.18-52.9-131.42-104.99-131.42Z"/>
          <g>
            <ellipse class="cls-4" cx="795.42" cy="509.63" rx="85.33" ry="114.39" transform="translate(-74.64 141.64) rotate(-9.72)"/>
            <path class="cls-9" d="m804.07,624.47c-6.86,0-13.84-1.09-20.84-3.28-26.71-8.34-49.8-31.58-63.35-63.75-24.2-57.44-10.11-125.66,31.42-152.07,17.18-10.93,36.66-13.46,56.32-7.32,26.71,8.34,49.8,31.58,63.35,63.75,24.2,57.45,10.11,125.66-31.42,152.07-11.06,7.04-23.08,10.59-35.48,10.59Zm-82.13-67.89c13.3,31.56,35.88,54.34,61.96,62.48,19.02,5.94,37.84,3.5,54.45-7.07,40.65-25.85,54.36-92.84,30.56-149.32-13.3-31.56-35.88-54.34-61.96-62.48-19.01-5.94-37.84-3.49-54.45,7.07-40.65,25.85-54.36,92.84-30.56,149.32Z"/>
          </g>
          <g class="cls-12">
            <path class="cls-9" d="m879.77,551.23c3.52-21.38,1.19-43.81-5.63-64.48-12.14,48.08-53.07,70.69-95.06,50.73-27.14-12.89-48.47-40.62-59.02-72.62-.79,3.03-1.42,6.2-1.96,9.44-8.94,54.46,20,115.83,64.65,137.07,44.65,21.24,88.08-5.71,97.03-60.13Z"/>
          </g>
          <path class="cls-9" d="m803.4,632.65c-47.69,0-90.94-54.62-96.89-122.92-3.6-41.33,7.14-80.48,28.75-104.73,13.66-15.33,30.61-23.71,49.03-24.24,48.42-1.45,92.64,53.75,98.67,122.89,3.6,41.33-7.14,80.48-28.74,104.73-13.66,15.33-30.62,23.71-49.04,24.24-.59.02-1.19.03-1.78.03Zm-17.27-233.88c-.45,0-.89,0-1.33.02-13.34.38-25.81,6.68-36.09,18.21-18.36,20.61-27.42,54.69-24.25,91.17,5.15,59.12,40.37,106.45,78.86,106.45.45,0,.89,0,1.33-.02,13.34-.38,25.82-6.68,36.09-18.21,18.36-20.61,27.42-54.69,24.25-91.17-5.15-59.12-40.37-106.46-78.86-106.46Z"/>
          <g class="cls-17">
            <path class="cls-4" d="m1119.3,190.21s170.54-12.98,277.2,71.25c.11.09.22.18.34.27,22.43,17.75,39.65,41.25,50.04,67.91,13.73,35.25,18.03,61.55,20.92,84.85,8.76,70.87-.39,105.71-.39,105.71,35.68-42.43,53.13-87.74,46.42-146.84-.68-5.82-1.59-11.8-2.72-17.91-.26-1.41-.54-2.8-.85-4.2.03-.02.01-.05-.03-.08-3.16-12.21-7.92-28.1-14.79-45.58-20.68-52.72-60.37-119.92-132.74-144.43-135.32-45.84-250.14,22.39-243.39,29.06Z"/>
          </g>
          <g class="cls-17">
            <ellipse class="cls-4" cx="1019.73" cy="385.77" rx="62.78" ry="53.87" transform="translate(496.99 1342.54) rotate(-82.07)"/>
          </g>
          <g class="cls-17">
            <ellipse class="cls-4" cx="1004" cy="498.73" rx="25.92" ry="22.24" transform="translate(295.68 1367.65) rotate(-77.23)"/>
          </g>
        </g>
        <g class="cls-15">
          <path class="cls-9" d="m1107.1,1308.07c1.18,6.25,2.27,12.38,3.28,18.43-.98-6.05-2.07-12.18-3.28-18.43Z"/>
        </g>
        <g>
          <g>
            <path class="cls-5" d="m753.4,1070.86c48.74,39.63,97-40.55,38.72-74.29,10.33-55.1,79.21-37.88,82.65,20.66,3.44,99.87-120.53,113.65-140.67,170.02-20.14,57.68-6.98,116.2,34.08,125.16,4.23.92,8.61,1.06,12.93.83,53.3-2.83,65.73-42.29,55.78-72.16-12.66-37.4-58.55-24.11-51.66,17.22-17.88.39-29.44-20.32-16.52-42.87,5.02-8.76,12.86-15.55,21.88-20.09,99.64-50.14,185.05-100.43,142.73-215.99-59.01-137.69-224.12-72.53-202.45,51.9,2.68,15.41,10.39,29.74,22.53,39.61Z"/>
            <g class="cls-16">
              <path class="cls-4" d="m734.11,1187.26c20.13-56.37,144.11-70.15,140.67-170.02-.29-4.99-1.1-9.66-2.26-14.04,5.04,8.15,8.45,18.21,9.15,29.99,3.44,99.14-120.53,112.81-140.67,168.77-11.31,32.17-12.11,64.6-3.37,88.42-15.49-24.14-17.24-63.81-3.52-103.12Z"/>
              <path class="cls-4" d="m770.37,1252.54c3.86,3.72,9.01,5.89,14.87,5.76-6.89-41.33,39-54.62,51.66-17.22.32.95.61,1.91.88,2.88-13.79-17.75-38.91-11.75-45,10.07-3.33,11.92-20.41,11.46-22.31-.77-.04-.24-.07-.48-.1-.73Z"/>
              <path class="cls-4" d="m737.76,1047.1c.46,2.61,1.11,5.16,1.86,7.69-4.31-7.18-7.29-15.18-8.75-23.54-21.67-124.43,143.44-189.59,202.45-51.9.72,1.98,1.32,3.89,1.97,5.83-62.72-122.78-218.63-58.33-197.53,61.92Z"/>
              <path class="cls-4" d="m817.82,1029.55c-4.29-6.25-10.41-12.04-18.81-16.87.65-3.43,1.52-6.57,2.6-9.44,9.14,7.76,14.23,16.97,16.21,26.31Z"/>
            </g>
            <g class="cls-12">
              <path class="cls-9" d="m753.4,1070.86c-4.17-3.39-7.77-7.33-10.86-11.63,40.7,29.19,79.52-22.94,54.62-59.45,50.3,35.31,3.5,109.49-43.75,71.08Z"/>
              <path class="cls-9" d="m754.41,1298.64c4.23.92,8.61,1.06,12.93.83,53.3-2.83,65.73-42.29,55.78-72.16-.75-2.22-1.63-4.25-2.59-6.11,6.79,3.06,12.86,9.52,16.37,19.89,9.96,29.87-2.47,69.33-55.78,72.16-4.32.23-8.7.09-12.93-.83-12.45-2.72-22.32-10.01-29.49-20.44,4.68,3.11,9.91,5.4,15.71,6.66Z"/>
              <path class="cls-9" d="m768.71,1215.44c-5.97,10.43-6.67,20.43-3.97,28.16-13.78-4.22-21.01-22.37-9.81-41.94,5.02-8.76,12.86-15.55,21.88-20.09,99.64-50.14,185.05-100.43,142.73-215.99-6.74-15.74-14.89-28.8-23.97-39.45,14.68,12.38,27.74,29.88,37.74,53.22,42.32,115.56-43.09,165.85-142.73,215.99-9.02,4.54-16.86,11.33-21.88,20.09Z"/>
            </g>
            <path class="cls-9" d="m777.64,1321.95c-4.11,0-7.83-.38-11.29-1.13-16.18-3.53-29.4-13.75-38.24-29.55-14.98-26.78-15.8-67.72-2.14-106.86,8.94-25.04,34.5-41.59,61.56-59.11,39.6-25.65,80.55-52.17,78.63-107.77-1.66-28.19-20.64-44.67-37.65-45.74-12.61-.86-22.3,6.89-26.58,20.84,17.27,12.08,26.46,29.62,25.42,48.96-1.07,19.82-12.7,37.47-29.63,44.97-15.91,7.05-34.04,3.77-49.75-9.01h0c-13.36-10.86-22.44-26.77-25.58-44.81-12.08-69.37,30.55-120.2,78.91-134.56,43.63-12.95,106.45-.35,139.94,77.8.06.14.12.28.17.43,47.22,128.94-60.44,183.12-146.94,226.64-8.02,4.04-14.34,9.8-18.28,16.68-4.99,8.72-5.76,17.65-2.06,23.88.56.95,1.21,1.79,1.92,2.53,1.45-19.45,13.89-31.4,26.93-34.67,14.65-3.67,34.06,3.17,42.08,26.88,6.49,19.47,4.07,40.31-6.47,55.78-7.97,11.7-24.32,26-57.01,27.74-1.35.07-2.66.11-3.93.11Zm49.05-367.44c.96,0,1.93.03,2.91.09,24.38,1.55,51.51,23.84,53.76,62.13,2.26,65.56-46.94,97.42-86.47,123.02-24.54,15.89-47.72,30.9-54.68,50.39-12.07,34.57-11.72,70.12.93,92.72,6.46,11.54,15.5,18.65,26.88,21.13,3.01.65,6.49.87,10.64.65,20.3-1.08,35.41-8.08,43.69-20.24,7.53-11.05,9.16-26.23,4.37-40.6-4.85-14.32-14.65-17.39-21.56-15.66-8.42,2.12-16.22,12.01-13.43,28.74.41,2.47-.27,4.99-1.86,6.91-1.59,1.92-3.94,3.06-6.44,3.11-10.73.29-20.56-5.2-26.1-14.53-6.92-11.64-6.2-27.05,1.92-41.23,5.62-9.81,14.43-17.94,25.48-23.5,105.59-53.14,177.36-98.96,138.59-205.12-29.06-67.56-82.31-78.79-119.12-67.85-39.79,11.82-77.68,52.88-66.84,115.1,2.43,13.95,9.35,26.17,19.48,34.41h0c10.82,8.8,21.86,11.09,31.92,6.63,10.9-4.83,18.7-16.95,19.41-30.16.46-8.58-1.83-24.75-22.35-36.63-3.16-1.83-4.82-5.45-4.15-9.04,4.67-24.89,21.4-40.48,43.04-40.48Z"/>
          </g>
          <g>
            <path class="cls-5" d="m199.52,1070.86c-48.74,39.63-97-40.55-38.72-74.29-10.33-55.1-79.21-37.88-82.65,20.66-3.44,99.87,120.53,113.65,140.67,170.02,20.14,57.68,6.98,116.2-34.08,125.16-4.23.92-8.61,1.06-12.93.83-53.3-2.83-65.73-42.29-55.78-72.16,12.66-37.4,58.55-24.11,51.66,17.22,17.88.39,29.44-20.32,16.52-42.87-5.02-8.76-12.86-15.55-21.88-20.09-99.64-50.14-185.05-100.43-142.73-215.99,59.01-137.69,224.12-72.53,202.45,51.9-2.68,15.41-10.39,29.74-22.53,39.61Z"/>
            <g class="cls-16">
              <path class="cls-4" d="m218.82,1187.26c-20.13-56.37-144.11-70.15-140.67-170.02.29-4.99,1.1-9.66,2.26-14.04-5.04,8.15-8.45,18.21-9.15,29.99-3.44,99.14,120.53,112.81,140.67,168.77,11.31,32.17,12.11,64.6,3.37,88.42,15.49-24.14,17.24-63.81,3.52-103.12Z"/>
              <path class="cls-4" d="m182.56,1252.54c-3.86,3.72-9.01,5.89-14.87,5.76,6.89-41.33-39-54.62-51.66-17.22-.32.95-.61,1.91-.88,2.88,13.79-17.75,38.91-11.75,45,10.07,3.33,11.92,20.41,11.46,22.31-.77.04-.24.07-.48.1-.73Z"/>
              <path class="cls-4" d="m215.17,1047.1c-.46,2.61-1.11,5.16-1.86,7.69,4.31-7.18,7.29-15.18,8.75-23.54,21.67-124.43-143.44-189.59-202.45-51.9-.72,1.98-1.32,3.89-1.97,5.83,62.72-122.78,218.63-58.33,197.53,61.92Z"/>
              <path class="cls-4" d="m135.11,1029.55c4.29-6.25,10.41-12.04,18.81-16.87-.65-3.43-1.52-6.57-2.6-9.44-9.14,7.76-14.23,16.97-16.21,26.31Z"/>
            </g>
            <g class="cls-12">
              <path class="cls-9" d="m199.52,1070.86c4.17-3.39,7.77-7.33,10.86-11.63-40.7,29.19-79.52-22.94-54.62-59.45-50.3,35.31-3.5,109.49,43.75,71.08Z"/>
              <path class="cls-9" d="m198.51,1298.64c-4.23.92-8.61,1.06-12.93.83-53.3-2.83-65.73-42.29-55.78-72.16.75-2.22,1.63-4.25,2.59-6.11-6.79,3.06-12.86,9.52-16.37,19.89-9.96,29.87,2.47,69.33,55.78,72.16,4.32.23,8.7.09,12.93-.83,12.45-2.72,22.32-10.01,29.49-20.44-4.68,3.11-9.91,5.4-15.71,6.66Z"/>
              <path class="cls-9" d="m184.21,1215.44c5.97,10.43,6.67,20.43,3.97,28.16,13.78-4.22,21.01-22.37,9.81-41.94-5.02-8.76-12.86-15.55-21.88-20.09-99.64-50.14-185.05-100.43-142.73-215.99,6.74-15.74,14.89-28.8,23.97-39.45-14.68,12.38-27.74,29.88-37.74,53.22-42.32,115.56,43.09,165.85,142.73,215.99,9.02,4.54,16.86,11.33,21.88,20.09Z"/>
            </g>
            <path class="cls-9" d="m175.28,1321.95c-1.27,0-2.58-.04-3.93-.11-32.69-1.74-49.04-16.04-57.01-27.74-10.54-15.47-12.96-36.3-6.48-55.74,8.04-23.74,27.45-30.58,42.09-26.92,13.03,3.27,25.48,15.22,26.93,34.67.71-.74,1.36-1.58,1.92-2.53,3.7-6.23,2.93-15.16-2.06-23.88-3.94-6.87-10.26-12.64-18.28-16.68-86.51-43.53-194.17-97.71-146.94-226.64.05-.14.11-.29.17-.43,33.49-78.15,96.31-90.74,139.94-77.8,48.36,14.36,90.99,65.19,78.91,134.56-3.14,18.04-12.23,33.95-25.58,44.81-15.71,12.78-33.85,16.07-49.75,9.01-16.93-7.5-28.56-25.16-29.63-44.97-1.04-19.34,8.15-36.88,25.42-48.96-4.29-13.94-13.93-21.69-26.58-20.84-17.01,1.08-35.99,17.55-37.66,45.95-1.91,55.39,39.04,81.91,78.64,107.56,27.06,17.52,52.61,34.07,61.54,59.06,13.68,39.2,12.86,80.14-2.12,106.92-8.84,15.8-22.06,26.02-38.24,29.55-3.46.75-7.18,1.13-11.29,1.13Zm-33.09-94.24c-6.4,0-13.94,4.11-18.01,16.13-4.78,14.33-3.14,29.51,4.39,40.56,8.28,12.16,23.39,19.16,43.69,20.24,4.14.22,7.63,0,10.64-.65,11.38-2.48,20.42-9.59,26.88-21.13,12.64-22.6,12.99-58.15.91-92.78-6.94-19.43-30.12-34.44-54.66-50.33-39.54-25.6-88.74-57.47-86.48-122.81,2.26-38.49,29.39-60.79,53.77-62.34,23.08-1.44,41.08,14.39,45.95,40.39.67,3.59-.99,7.21-4.15,9.04-20.53,11.88-22.82,28.05-22.35,36.63.71,13.21,8.51,25.33,19.41,30.16,10.07,4.47,21.1,2.16,31.92-6.63h0c10.13-8.24,17.05-20.46,19.48-34.41,10.84-62.22-27.05-103.28-66.84-115.1-36.81-10.92-90.06.3-119.12,67.86-38.76,106.16,33,151.98,138.59,205.12,11.05,5.56,19.86,13.68,25.48,23.5,8.12,14.18,8.84,29.59,1.92,41.23-5.55,9.33-15.37,14.81-26.1,14.53-2.5-.06-4.85-1.19-6.44-3.11-1.6-1.92-2.27-4.44-1.86-6.91,2.79-16.73-5.01-26.62-13.43-28.74-1.13-.28-2.33-.43-3.57-.43Z"/>
          </g>
          <path class="cls-5" d="m732.65,1173.14c-.17,6.23-.55,12.4-1.17,18.53-11.43,116.26-99.32,210.97-212.52,229.74v181.28c1.27.34,2.58.72,3.89,1.1,21.11,6.03,47.46,15.77,75.76,31.65,31.44,17.67,55.17,37.3,71.87,53.34h-389.15c44.7-41.43,95.29-72.11,154.97-86.1v-181.04c-119.64-19.15-211.14-122.84-214.72-246.99-2.55-88.3-1-175.64,4.99-261.94,1.58-23.04,20.22-41.26,43.29-42.46,5.3-.28,10.57-.55,15.88-.79,133.07-6.58,266.24-6.3,399.59.79,23.07,1.24,41.74,19.46,43.29,42.53,5.44,83.1,6.51,170.13,4.03,260.35Z"/>
          <g class="cls-12">
            <path class="cls-9" d="m527.83,1421.41v181.28c1.22.34,2.48.72,3.73,1.1-27.92-1.65-56.07,1.86-81.41,13.74-29.14,13.67-53.89,39.71-63.03,71.25h-86.99c42.84-41.43,91.31-72.11,148.51-86.1v-181.04c-114.65-19.15-202.33-122.84-205.76-246.99-2.44-88.3-.96-175.64,4.79-261.94,1.52-23.04,19.37-41.26,41.48-42.46,5.08-.28,10.13-.55,15.21-.79l-.36,4.13c-21.45,13.71-24.09,44.6-24.36,70.87-.63,61.64-1.22,123.29-1.85,184.93-.23,22.38-.4,45.11,4.92,66.81,16.9,68.67,84.85,110.75,151.18,126.18,63,14.67,131.02,11.64,189.53-16.84,47.42-23.07,87.72-64.02,108.08-113.89-10.96,116.26-95.18,210.97-203.65,229.74Z"/>
          </g>
          <g>
            <g class="cls-16">
              <path class="cls-4" d="m284.26,1688.79c39.22-31.82,82.94-55.4,133.11-67.15v-13.81c-51.54,15.62-96.14,44-136.03,80.97h2.92Z"/>
            </g>
            <g class="cls-16">
              <path class="cls-4" d="m728.62,912.79c-1.55-23.07-20.22-41.29-43.29-42.53-133.35-7.09-266.52-7.37-399.59-.79-5.3.24-10.57.52-15.88.79-16.5.86-30.7,10.45-38.04,24.26,5.75-3.06,12.22-4.96,19.1-5.32,5.3-.28,10.57-.55,15.88-.79,109.8-5.43,219.67-6.11,329.64-2.23v250.15c0,18.87,15.29,34.16,34.16,34.16h4c18.87,0,34.16-15.29,34.16-34.16v-246.89c21.96,2.32,39.42,20.02,40.91,42.29,5.44,83.1,6.51,170.13,4.03,260.35-.17,6.23-.55,12.4-1.17,18.53-5.6,56.95-29.58,108.7-65.86,148.92,46.82-42.2,78.28-101.5,84.8-167.86.62-6.13,1-12.29,1.17-18.53,2.48-90.23,1.41-177.25-4.03-260.35Z"/>
            </g>
            <g class="cls-16">
              <path class="cls-4" d="m522.85,1603.79c-1.31-.38-2.62-.76-3.89-1.1v-166.28c-6.23,1.54-12.54,2.87-18.94,3.94v181.28c1.27.34,2.58.72,3.89,1.1,21.11,6.03,47.46,15.77,75.76,31.65,19.85,11.15,36.61,23.08,50.48,34.4h40.34c-16.7-16.05-40.43-35.68-71.87-53.34-28.31-15.88-54.65-25.62-75.76-31.65Z"/>
            </g>
          </g>
          <g class="cls-16">
            <circle class="cls-4" cx="634.33" cy="1215.26" r="34.44"/>
          </g>
          <path class="cls-9" d="m670.49,1697.8h-389.15c-3.71,0-7.04-2.27-8.39-5.72-1.35-3.45-.45-7.38,2.26-9.9,47.55-44.07,97.37-72.43,152.09-86.55v-166.41c-121.29-23.08-211.1-128.81-214.72-254.3-2.58-89.37-.89-177.79,5.01-262.82,1.89-27.53,24.17-49.39,51.81-50.84,138-7.35,278.1-7.35,416.42,0,27.68,1.49,49.95,23.38,51.8,50.93,5.25,80.14,6.61,168.02,4.04,261.21-3.43,125.58-92.81,231.84-213.69,255.55v166.95c26.11,7.72,51.33,18.37,75.06,31.7,26.75,15.03,51.55,33.43,73.69,54.7,2.65,2.55,3.49,6.45,2.12,9.86-1.37,3.42-4.68,5.65-8.36,5.65Zm-365.24-18.03h341.71c-16.41-13.76-34.08-25.98-52.75-36.47-24.45-13.74-50.58-24.48-77.64-31.93-3.91-1.07-6.62-4.63-6.62-8.69v-181.28c0-4.41,3.19-8.17,7.54-8.89,116.18-19.27,202.89-120.05,206.16-239.62,2.55-92.64,1.2-179.95-4.01-259.52-1.24-18.44-16.19-33.12-34.78-34.12-137.68-7.32-277.13-7.32-414.5,0-18.56.97-33.51,15.62-34.78,34.08-5.86,84.45-7.54,172.28-4.98,261.06,3.45,119.45,90.56,219.69,207.14,238.35,4.37.7,7.59,4.47,7.59,8.9v181.04c0,4.19-2.88,7.82-6.96,8.78-47.56,11.14-91.3,33.56-133.12,68.31Z"/>
          <path class="cls-9" d="m393.7,1606.37c26.82-8.34,54.53-9.99,81-7.07,5.54.66,5.13,8.88-.46,8.96-25.63.15-51.08,4.8-74.26,15.03-11.71,4.57-18.17-12.72-6.29-16.92h0Z"/>
          <path class="cls-9" d="m386.06,1398.44c31.79,11.61,65.11,18.78,98.7,19.61,2.48.06,4.45,2.12,4.39,4.61-.05,2.51-2.16,4.43-4.62,4.4-34.75,2.17-70.32-2.34-104.63-11.68-4.81-1.31-7.65-6.27-6.34-11.08,1.42-5.38,7.47-8.12,12.5-5.85h0Z"/>
          <path class="cls-9" d="m224.13,936.02c70.36-3.94,140.87-5.53,211.34-4.77,70.48.65,140.98,3.63,211.17,9.88,2.09.19,3.63,2.03,3.44,4.11-.18,2.03-1.94,3.54-3.95,3.45-105.28-4.78-210.63-3.86-315.88.1-35.08,1.29-70.16,2.8-105.23,4.42-11.17.29-12.26-16.26-.88-17.2h0Z"/>
        </g>
        <path class="cls-4" d="m872.56,823.52l9.17,192.87c-117.33,17.44-172.42-139.73-48.23-219.91l39.06,27.04Z"/>
        <path class="cls-9" d="m864.11,1026.73c-46.57,0-85.62-26.43-102.35-70.82-18.69-49.58-5.26-120.45,66.86-167,4.18-2.7,9.76-1.5,12.46,2.69,2.7,4.18,1.5,9.76-2.68,12.46-63.67,41.11-75.9,102.7-59.77,145.5,14.9,39.54,51.16,62.02,93.7,58.82l-8.77-184.43c-.24-4.97,3.6-9.2,8.57-9.43,4.99-.28,9.19,3.6,9.43,8.57l9.17,192.87c.22,4.63-3.1,8.66-7.68,9.34-6.42.95-12.75,1.42-18.95,1.42Z"/>
        <path class="cls-4" d="m1156.54,954.84c-4.27,4.72-9.7,9.04-16.58,12.89,12.02,99.14-191.41,107.89-168.25,42.06-41.07,6.01-82.11,8.02-123.18,6.01-23.16-20.46-35.6-54.8-35.66-90.04-.06-42.45,17.88-86.14,56.69-108.25,66.13,3.43,129.16,9.52,187.05,20.1,14,2.55,27.37,7.93,39.15,15.92,23.04,15.62,43.77,33.68,61.38,55.07,2.91,3.55,5.08,7.54,6.46,11.72,3.91,11.72,1.65,24.94-7.06,34.52Z"/>
        <path class="cls-9" d="m1030.4,1061.18c-23.52,0-44.83-5.36-57.41-16.15-7.87-6.75-11.98-15.24-12.13-24.65-37.5,4.76-75.37,6.26-112.76,4.43-2.04-.1-3.99-.89-5.52-2.24-28.01-24.72-42.52-68.12-37.87-113.26,4.53-44.03,26.55-80.34,60.41-99.62,1.5-.85,3.23-1.26,4.93-1.17,72.68,3.76,134.25,10.38,188.21,20.24,15.48,2.83,29.81,8.66,42.59,17.33,25.16,17.06,45.85,35.64,63.27,56.8,14.26,17.33,13.89,41.74-.88,58.02-3.88,4.27-8.51,8.17-13.81,11.64,1.36,29.52-14.49,54.55-45.16,70.96-21.98,11.75-49.13,17.68-73.84,17.68Zm-58.69-60.4c2.67,0,5.23,1.19,6.96,3.29,2.01,2.44,2.59,5.74,1.54,8.72-2.71,7.7-1.27,13.59,4.51,18.56,18.09,15.52,71.65,17.31,111.01-3.74,18.16-9.72,39.03-27.8,35.27-58.79-.44-3.63,1.35-7.16,4.54-8.95,5.75-3.22,10.57-6.95,14.31-11.08,8.71-9.6,8.84-24.09.31-34.45-16.3-19.81-35.75-37.26-59.46-53.34-10.7-7.26-22.72-12.14-35.71-14.51-52.53-9.6-112.48-16.09-183.2-19.83-27.47,16.69-45.34,47.32-49.17,84.49-3.87,37.57,7.7,74.75,29.6,95.8,39.22,1.72,78.97-.33,118.18-6.07.44-.06.87-.1,1.31-.1Z"/>
        <path class="cls-9" d="m961.66,1002.22c10.11-2.63,19.81-6.05,25.09-12.08,0,0,1.76-1.83,1.77-1.83,4.09-4.56,12.13-.97,11.64,5.01-.35,6.48,1,12.47,6.13,16.95,2.44,2.12.05,6.2-2.97,5.14-8.53-2.54-15.13-10.97-18-19.19,0,0,13.4,3.18,13.4,3.18-7.99,10.79-20.1,15.77-31.72,20.04-11.81,3.84-17.27-13.71-5.33-17.22h0Z"/>
        <path class="cls-9" d="m1130.61,986.46c1.55-21.32-.6-43.12-11.04-62.2-1.57-3.05,2.43-5.67,4.73-3.19,18.63,15.34,26.47,41.47,24.34,64.94.11,13.04-18.06,13.4-18.02.44h0Z"/>
        <g class="cls-12">
          <path class="cls-9" d="m1156.54,954.84c-4.27,4.72-9.7,9.04-16.58,12.89,12.02,99.14-191.41,107.89-168.25,42.06-41.07,6.01-82.11,8.02-123.18,6.01-23.16-20.46-35.6-54.8-35.66-90.04l2.7-.54c16.13,15.23,39.39,19.8,61.41,22.77,33.11,4.45,66.52,6.76,99.96,6.94,12.98.06,27.43.33,36.89,9.25,9.19,8.71,10.85,23.22,19.92,32.09,5.47,5.35,13.07,7.99,20.61,9.34,21.99,3.97,46.15-2.37,61.65-18.48,15.17-15.77,20.43-41.01,10.94-60.66,5.41,10.09,21.9,10.09,30.49,2.04,2.52-2.37,4.54-5.17,6.16-8.2,3.91,11.72,1.65,24.94-7.06,34.52Z"/>
        </g>
        <g class="cls-12">
          <path class="cls-9" d="m770.36,872.56c-6.62,11.75-3,27.22,5.56,37.64,8.56,10.42,21.1,16.69,33.63,21.66,1.82.72,3.73,1.48,4.95,3.01,1.03,1.29,1.43,2.97,1.8,4.58,5.88,25.83,12.1,53.23,30.6,72.18-23.38-2.28-45.74-13.76-61.21-31.44-15.47-17.68-23.88-41.36-23.04-64.84"/>
        </g>
      </g>
      <g>
        <path class="cls-6" d="m343.58,1092.73s36.8-10.67,92.05-26.05c77.09-21.46,163.81-40.06,172.85-28.25,9.08,11.85-22.36,77.78-65.27,134.6-34.74,46.01-77.01,91.8-77.01,91.8,0,0-100.98-69.59-122.62-172.1Z"/>
        <g class="cls-14">
          <path class="cls-4" d="m343.58,1092.72c1.11,5.23,2.42,10.38,3.93,15.43,16.01-4.58,42.08-11.98,74.45-21.01,77.1-21.45,163.8-40.06,172.87-28.26,7.15,9.37-10.95,52.48-40.03,98.2,36.77-52.62,61.93-107.92,53.69-118.67-9.04-11.82-95.77,6.79-172.84,28.24-55.27,15.38-92.06,26.05-92.06,26.05Z"/>
        </g>
        <g class="cls-1">
          <circle class="cls-9" cx="542.86" cy="1095.29" r="29.71" transform="translate(-479.84 425.63) rotate(-30.42)"/>
        </g>
        <circle class="cls-2" cx="548.54" cy="1091.95" r="21.02" transform="translate(-477.37 428.05) rotate(-30.42)"/>
        <g class="cls-14">
          <path class="cls-4" d="m537.9,1073.82c-1.7,1-3.22,2.2-4.54,3.58,8.88-2.33,18.59,1.36,23.47,9.68,4.88,8.32,3.37,18.6-2.99,25.22,1.84-.49,3.63-1.23,5.33-2.22,10.02-5.88,13.36-18.75,7.48-28.76-5.88-10.02-18.75-13.36-28.76-7.48Z"/>
        </g>
        <path class="cls-9" d="m534.74,1068.45c12.96-7.61,29.69-3.26,37.3,9.7,7.61,12.96,3.26,29.69-9.7,37.3-12.96,7.61-29.69,3.25-37.3-9.7-7.61-12.96-3.26-29.69,9.7-37.3Zm6.31,10.75c-7.03,4.13-9.39,13.21-5.26,20.24s13.21,9.39,20.24,5.27c7.03-4.13,9.39-13.21,5.27-20.24-4.13-7.03-13.21-9.39-20.24-5.27Z"/>
        <circle class="cls-2" cx="480.57" cy="1099.56" r="21.73"/>
        <g class="cls-14">
          <path class="cls-4" d="m469.86,1080.65c7.14.31,13.97,4.1,17.84,10.7,6.08,10.35,2.63,23.68-7.72,29.76l-.26.16c4.02.17,8.12-.78,11.85-2.98,10.35-6.08,13.81-19.38,7.73-29.73-6.02-10.26-19.14-13.73-29.45-7.9Z"/>
        </g>
        <path class="cls-9" d="m466.41,1075.45c13.3-7.81,30.47-3.34,38.27,9.96,7.81,13.3,3.34,30.47-9.96,38.27-13.3,7.81-30.46,3.34-38.27-9.96-7.81-13.3-3.34-30.47,9.95-38.27Zm6.31,10.75c-7.37,4.33-9.84,13.84-5.52,21.21,4.33,7.37,13.84,9.85,21.21,5.52,7.37-4.33,9.84-13.84,5.52-21.21-4.33-7.37-13.84-9.84-21.21-5.52Z"/>
        <circle class="cls-2" cx="495.17" cy="1166.16" r="20.89"/>
        <g class="cls-14">
          <path class="cls-4" d="m484.59,1148.14c-2.92,1.71-5.26,4.02-6.97,6.68,9.49-3.98,20.71-.42,26.06,8.7,4.13,7.04,3.69,15.52-.45,21.93.88-.36,1.72-.79,2.53-1.27,9.96-5.85,13.27-18.66,7.44-28.59-5.84-9.95-18.65-13.3-28.6-7.46Z"/>
        </g>
        <path class="cls-9" d="m481.44,1142.77c12.9-7.57,29.55-3.24,37.13,9.66,7.57,12.9,3.24,29.55-9.66,37.13-12.9,7.57-29.55,3.24-37.13-9.66-7.57-12.9-3.24-29.55,9.66-37.13Zm6.31,10.75c-6.97,4.09-9.31,13.09-5.22,20.06,4.09,6.97,13.09,9.31,20.06,5.22,6.97-4.09,9.31-13.09,5.22-20.06-4.09-6.97-13.09-9.31-20.06-5.22Z"/>
        <path class="cls-3" d="m343.57,1092.73c21.64,102.5,122.62,172.09,122.62,172.09,0,0,13.74-14.88,32-36.2-28.27-24.04-77.73-73.24-113.32-147.7-25.89,7.32-41.31,11.81-41.31,11.81Z"/>
        <g class="cls-14">
          <path class="cls-4" d="m343.59,1092.74c21.64,102.5,122.62,172.09,122.62,172.09,0,0,5.36-5.81,13.82-15.37-17.73-13.19-95.45-75.11-117.3-162.21-12.27,3.5-19.14,5.49-19.14,5.49Z"/>
        </g>
        <path class="cls-9" d="m337.47,1103.1h0c-2.32-9.02,2.89-18.1,11.84-20.67,7.03-2.03,18.45-5.29,33.31-9.5,3.89-1.1,8.03.78,9.76,4.41,35.31,73.85,84.83,122.52,111.21,144.95,1.68,1.43,2.72,3.47,2.9,5.67.17,2.2-.53,4.38-1.97,6.06-10.27,11.99-19.14,21.98-24.77,28.24-7.11,7.91-19.24,8.96-27.63,2.39-19.86-15.56-59.85-50.52-88.42-99.18-11.06-18.84-20.42-39.75-26.22-62.37Zm42.99-12.29c-11.59,3.29-20.64,5.88-26.56,7.59-.25.07-.4.33-.33.57h0c19.53,76.09,82.59,132.07,108.8,152.6,1.55,1.22,3.71,1.04,5.02-.42,4.56-5.07,11.27-12.61,19.13-21.69-27.6-24.5-72.38-70.98-106.05-138.65Z"/>
        <path class="cls-9" d="m377.39,1084.51c-1.06-2.21-1.08-4.77-.07-7.01,1.01-2.23,2.95-3.91,5.31-4.57,14.1-3.99,31.3-8.84,50.78-14.25,42.36-11.8,82.38-21.31,112.69-26.78,55-9.93,64.44-4.46,68.99,1.46,2.71,3.57,9.96,13.03-12.26,59.1-13.06,27.1-32.38,58.28-52.99,85.57-12.67,16.79-27.92,35.63-45.31,55.99-2.98,3.48-8.21,3.9-11.7.93-23.17-19.71-63.55-58.9-97.61-116.92-6.19-10.55-12.19-21.73-17.82-33.52Zm159.19,83.5c44.1-58.37,66.9-112.77,65.21-124.2-11.5-4.08-71.5,5.14-163.93,30.87-15.23,4.23-29.07,8.12-41.11,11.52,32.22,63.54,74.36,107.32,100.57,130.63,14.93-17.67,28.11-34.06,39.26-48.82Z"/>
      </g>
    </g>
  </g>
</svg>